G04 #@! TF.GenerationSoftware,KiCad,Pcbnew,6.0.2+dfsg-1*
G04 #@! TF.CreationDate,2024-05-29T15:37:31-06:00*
G04 #@! TF.ProjectId,mss-atlasadapter,6d73732d-6174-46c6-9173-616461707465,rev?*
G04 #@! TF.SameCoordinates,Original*
G04 #@! TF.FileFunction,Legend,Top*
G04 #@! TF.FilePolarity,Positive*
%FSLAX46Y46*%
G04 Gerber Fmt 4.6, Leading zero omitted, Abs format (unit mm)*
G04 Created by KiCad (PCBNEW 6.0.2+dfsg-1) date 2024-05-29 15:37:31*
%MOMM*%
%LPD*%
G01*
G04 APERTURE LIST*
%ADD10C,0.000000*%
%ADD11C,0.150000*%
%ADD12C,0.254000*%
%ADD13C,0.203200*%
%ADD14C,0.152400*%
%ADD15C,0.300000*%
%ADD16C,0.120000*%
%ADD17C,0.100000*%
G04 APERTURE END LIST*
D10*
G36*
X91492034Y-178193422D02*
G01*
X91504076Y-178194680D01*
X91516001Y-178196610D01*
X91527780Y-178199209D01*
X91539381Y-178202469D01*
X91550777Y-178206386D01*
X91561936Y-178210954D01*
X91572828Y-178216168D01*
X91583425Y-178222021D01*
X91593696Y-178228509D01*
X91603612Y-178235625D01*
X91613141Y-178243365D01*
X91622256Y-178251722D01*
X91630925Y-178260692D01*
X91639119Y-178270268D01*
X91646809Y-178280445D01*
X91653963Y-178291217D01*
X91660553Y-178302580D01*
X91666549Y-178314526D01*
X91670766Y-178324461D01*
X91674421Y-178334902D01*
X91677513Y-178345777D01*
X91680043Y-178357014D01*
X91682011Y-178368540D01*
X91683417Y-178380284D01*
X91684260Y-178392172D01*
X91684541Y-178404132D01*
X91684260Y-178416092D01*
X91683417Y-178427980D01*
X91682011Y-178439724D01*
X91680043Y-178451250D01*
X91677513Y-178462487D01*
X91674421Y-178473362D01*
X91670766Y-178483803D01*
X91666549Y-178493737D01*
X91663103Y-178500372D01*
X91658922Y-178507493D01*
X91654114Y-178514973D01*
X91648789Y-178522687D01*
X91643055Y-178530509D01*
X91637020Y-178538312D01*
X91630792Y-178545970D01*
X91624481Y-178553357D01*
X91618194Y-178560347D01*
X91612041Y-178566815D01*
X91606130Y-178572633D01*
X91600569Y-178577677D01*
X91595467Y-178581819D01*
X91593122Y-178583512D01*
X91590933Y-178584933D01*
X91588912Y-178586066D01*
X91587074Y-178586895D01*
X91585432Y-178587403D01*
X91584000Y-178587576D01*
X91583347Y-178588300D01*
X91582714Y-178590425D01*
X91581519Y-178598590D01*
X91580440Y-178611501D01*
X91579502Y-178628587D01*
X91578729Y-178649278D01*
X91578146Y-178673004D01*
X91577650Y-178727276D01*
X91577650Y-178866976D01*
X91900088Y-179122387D01*
X92223233Y-179377798D01*
X93014866Y-179377798D01*
X93024744Y-179359454D01*
X93028196Y-179353643D01*
X93032418Y-179347626D01*
X93037337Y-179341463D01*
X93042879Y-179335212D01*
X93048971Y-179328931D01*
X93055539Y-179322681D01*
X93062510Y-179316520D01*
X93069811Y-179310506D01*
X93077369Y-179304699D01*
X93085109Y-179299158D01*
X93092959Y-179293941D01*
X93100845Y-179289108D01*
X93108693Y-179284717D01*
X93116431Y-179280827D01*
X93123986Y-179277498D01*
X93131282Y-179274787D01*
X93141410Y-179271876D01*
X93152143Y-179269487D01*
X93163377Y-179267616D01*
X93175005Y-179266255D01*
X93186923Y-179265398D01*
X93199024Y-179265039D01*
X93211205Y-179265172D01*
X93223358Y-179265791D01*
X93235379Y-179266890D01*
X93247162Y-179268462D01*
X93258602Y-179270501D01*
X93269594Y-179273001D01*
X93280031Y-179275956D01*
X93289810Y-179279360D01*
X93298823Y-179283205D01*
X93306966Y-179287487D01*
X93319922Y-179295656D01*
X93332064Y-179304287D01*
X93343390Y-179313379D01*
X93353896Y-179322930D01*
X93363580Y-179332941D01*
X93372438Y-179343409D01*
X93380467Y-179354335D01*
X93387664Y-179365716D01*
X93394026Y-179377552D01*
X93399550Y-179389841D01*
X93404232Y-179402583D01*
X93408070Y-179415777D01*
X93411061Y-179429422D01*
X93413201Y-179443516D01*
X93414487Y-179458058D01*
X93414916Y-179473049D01*
X93414654Y-179484333D01*
X93413873Y-179495424D01*
X93412585Y-179506312D01*
X93410800Y-179516985D01*
X93408531Y-179527431D01*
X93405787Y-179537641D01*
X93402580Y-179547604D01*
X93398920Y-179557307D01*
X93394819Y-179566741D01*
X93390288Y-179575894D01*
X93385338Y-179584755D01*
X93379979Y-179593314D01*
X93374223Y-179601559D01*
X93368080Y-179609479D01*
X93361562Y-179617064D01*
X93354679Y-179624302D01*
X93347443Y-179631182D01*
X93339865Y-179637694D01*
X93331955Y-179643827D01*
X93323724Y-179649568D01*
X93315184Y-179654908D01*
X93306346Y-179659836D01*
X93297220Y-179664340D01*
X93287817Y-179668410D01*
X93278148Y-179672034D01*
X93268225Y-179675202D01*
X93258059Y-179677903D01*
X93247659Y-179680125D01*
X93237038Y-179681858D01*
X93226207Y-179683090D01*
X93215175Y-179683811D01*
X93203955Y-179684010D01*
X93191700Y-179683736D01*
X93179798Y-179682913D01*
X93168239Y-179681535D01*
X93157013Y-179679600D01*
X93146110Y-179677102D01*
X93135519Y-179674038D01*
X93125229Y-179670403D01*
X93115231Y-179666194D01*
X93105515Y-179661406D01*
X93096068Y-179656035D01*
X93086883Y-179650077D01*
X93077947Y-179643528D01*
X93069252Y-179636384D01*
X93060785Y-179628640D01*
X93052538Y-179620292D01*
X93044500Y-179611337D01*
X93013455Y-179575354D01*
X92147738Y-179575354D01*
X91761094Y-179269848D01*
X91373744Y-178965049D01*
X91373038Y-178778076D01*
X91372333Y-178591104D01*
X91344816Y-178572054D01*
X91338527Y-178567469D01*
X91332370Y-178562463D01*
X91326361Y-178557060D01*
X91320519Y-178551284D01*
X91314857Y-178545162D01*
X91309395Y-178538717D01*
X91304147Y-178531974D01*
X91299131Y-178524958D01*
X91294363Y-178517695D01*
X91289860Y-178510208D01*
X91285638Y-178502523D01*
X91281713Y-178494664D01*
X91278103Y-178486656D01*
X91274823Y-178478524D01*
X91271891Y-178470293D01*
X91269322Y-178461987D01*
X91267604Y-178455237D01*
X91266150Y-178448355D01*
X91264025Y-178434254D01*
X91262916Y-178419796D01*
X91262795Y-178405091D01*
X91263634Y-178390249D01*
X91265403Y-178375382D01*
X91268072Y-178360599D01*
X91271615Y-178346012D01*
X91276000Y-178331730D01*
X91281200Y-178317865D01*
X91287186Y-178304527D01*
X91293928Y-178291827D01*
X91301397Y-178279875D01*
X91309566Y-178268782D01*
X91313903Y-178263593D01*
X91318404Y-178258659D01*
X91323065Y-178253995D01*
X91327883Y-178249615D01*
X91338428Y-178240865D01*
X91349274Y-178232865D01*
X91360391Y-178225610D01*
X91371750Y-178219096D01*
X91383320Y-178213316D01*
X91395071Y-178208264D01*
X91406974Y-178203936D01*
X91418999Y-178200326D01*
X91431115Y-178197427D01*
X91443294Y-178195235D01*
X91455505Y-178193744D01*
X91467719Y-178192949D01*
X91479905Y-178192843D01*
X91492034Y-178193422D01*
G37*
D11*
X90932000Y-137541000D02*
X81915000Y-137541000D01*
D10*
G36*
X87428983Y-169732854D02*
G01*
X88670761Y-169732854D01*
X88670761Y-171807188D01*
X89919594Y-171807188D01*
X89919594Y-170226743D01*
X91154316Y-170226743D01*
X91154316Y-171807188D01*
X92614816Y-171807188D01*
X92614816Y-169648187D01*
X93849538Y-169648187D01*
X93849538Y-173183021D01*
X87428983Y-173183021D01*
X87428983Y-172999577D01*
X87612428Y-172999577D01*
X93666094Y-172999577D01*
X93666094Y-169831632D01*
X92798261Y-169831632D01*
X92798261Y-171990633D01*
X90970872Y-171990633D01*
X90970872Y-170410188D01*
X90103039Y-170410188D01*
X90103039Y-171990633D01*
X88480261Y-171990633D01*
X88480261Y-169916299D01*
X87612428Y-169916299D01*
X87612428Y-172999577D01*
X87428983Y-172999577D01*
X87428983Y-169732854D01*
G37*
G36*
X92146035Y-178064687D02*
G01*
X92084326Y-178080690D01*
X92060167Y-178086098D01*
X92041403Y-178089500D01*
X92028733Y-178090688D01*
X92024901Y-178090387D01*
X92022855Y-178089454D01*
X91974094Y-177875219D01*
X91874071Y-177411151D01*
X91776296Y-176947744D01*
X91734282Y-176735493D01*
X91736695Y-176734583D01*
X91742606Y-176732979D01*
X91763299Y-176728085D01*
X91793119Y-176721602D01*
X91828827Y-176714326D01*
X91907078Y-176697696D01*
X91982258Y-176678780D01*
X92054320Y-176657609D01*
X92123220Y-176634213D01*
X92188912Y-176608621D01*
X92251350Y-176580865D01*
X92310490Y-176550973D01*
X92366284Y-176518976D01*
X92392913Y-176502197D01*
X92418689Y-176484903D01*
X92443606Y-176467098D01*
X92467658Y-176448785D01*
X92490840Y-176429969D01*
X92513147Y-176410652D01*
X92534571Y-176390839D01*
X92555108Y-176370533D01*
X92574753Y-176349739D01*
X92593498Y-176328459D01*
X92611340Y-176306698D01*
X92628271Y-176284460D01*
X92644287Y-176261747D01*
X92659381Y-176238565D01*
X92673548Y-176214916D01*
X92686782Y-176190804D01*
X92702112Y-176160013D01*
X92715821Y-176129027D01*
X92727909Y-176097845D01*
X92738376Y-176066472D01*
X92747224Y-176034908D01*
X92754450Y-176003157D01*
X92760056Y-175971219D01*
X92764041Y-175939097D01*
X92766406Y-175906794D01*
X92767150Y-175874310D01*
X92766274Y-175841649D01*
X92763777Y-175808812D01*
X92759659Y-175775801D01*
X92753921Y-175742619D01*
X92746562Y-175709268D01*
X92737583Y-175675748D01*
X92721140Y-175626359D01*
X92701254Y-175579579D01*
X92678038Y-175535489D01*
X92651604Y-175494167D01*
X92622066Y-175455694D01*
X92589536Y-175420149D01*
X92554127Y-175387611D01*
X92515950Y-175358160D01*
X92475120Y-175331877D01*
X92431748Y-175308839D01*
X92385947Y-175289127D01*
X92337830Y-175272821D01*
X92287510Y-175260000D01*
X92235099Y-175250744D01*
X92180710Y-175245131D01*
X92124455Y-175243243D01*
X92093380Y-175243843D01*
X92063077Y-175245659D01*
X92033478Y-175248717D01*
X92004511Y-175253044D01*
X91976106Y-175258664D01*
X91948193Y-175265604D01*
X91920702Y-175273890D01*
X91893562Y-175283548D01*
X91866703Y-175294603D01*
X91840056Y-175307081D01*
X91813548Y-175321008D01*
X91787111Y-175336410D01*
X91760674Y-175353312D01*
X91734167Y-175371741D01*
X91707519Y-175391722D01*
X91680660Y-175413282D01*
X91646770Y-175442346D01*
X91613663Y-175472984D01*
X91580998Y-175505698D01*
X91548435Y-175540988D01*
X91515632Y-175579353D01*
X91482248Y-175621294D01*
X91447942Y-175667312D01*
X91412373Y-175717906D01*
X91336082Y-175834824D01*
X91250647Y-175976051D01*
X91153338Y-176145588D01*
X91041428Y-176347437D01*
X90951271Y-176510607D01*
X90871962Y-176651080D01*
X90801318Y-176772354D01*
X90737157Y-176877927D01*
X90677295Y-176971296D01*
X90619549Y-177055958D01*
X90561738Y-177135412D01*
X90501677Y-177213154D01*
X90467605Y-177254331D01*
X90427936Y-177299419D01*
X90384413Y-177346640D01*
X90338782Y-177394217D01*
X90292788Y-177440372D01*
X90248174Y-177483327D01*
X90206685Y-177521304D01*
X90187658Y-177537871D01*
X90170067Y-177552526D01*
X90111561Y-177597756D01*
X90052163Y-177639792D01*
X89991825Y-177678649D01*
X89930497Y-177714341D01*
X89868132Y-177746883D01*
X89804681Y-177776289D01*
X89740095Y-177802574D01*
X89674325Y-177825753D01*
X89607324Y-177845839D01*
X89539042Y-177862847D01*
X89469431Y-177876791D01*
X89398442Y-177887687D01*
X89326027Y-177895549D01*
X89252137Y-177900390D01*
X89176724Y-177902226D01*
X89099739Y-177901071D01*
X89014244Y-177896754D01*
X88930791Y-177889888D01*
X88849372Y-177880469D01*
X88769979Y-177868494D01*
X88692604Y-177853960D01*
X88617238Y-177836864D01*
X88543872Y-177817202D01*
X88472500Y-177794973D01*
X88403111Y-177770172D01*
X88335699Y-177742796D01*
X88270255Y-177712843D01*
X88206770Y-177680309D01*
X88145236Y-177645191D01*
X88085646Y-177607487D01*
X88027990Y-177567192D01*
X87972261Y-177524304D01*
X87958394Y-177512737D01*
X87943380Y-177499603D01*
X87910679Y-177469436D01*
X87875696Y-177435416D01*
X87839969Y-177399156D01*
X87805036Y-177362267D01*
X87772434Y-177326362D01*
X87743702Y-177293054D01*
X87731268Y-177277877D01*
X87720378Y-177263954D01*
X87682569Y-177211110D01*
X87646675Y-177156319D01*
X87612707Y-177099621D01*
X87580678Y-177041053D01*
X87550600Y-176980654D01*
X87522486Y-176918462D01*
X87496348Y-176854515D01*
X87472199Y-176788851D01*
X87450050Y-176721508D01*
X87429915Y-176652525D01*
X87411805Y-176581941D01*
X87395734Y-176509792D01*
X87381713Y-176436119D01*
X87369755Y-176360957D01*
X87359872Y-176284347D01*
X87352078Y-176206326D01*
X87349269Y-176158952D01*
X87347205Y-176097340D01*
X87345901Y-176026368D01*
X87345562Y-175977703D01*
X87530772Y-175977703D01*
X87531013Y-176052394D01*
X87532561Y-176117378D01*
X87535522Y-176167521D01*
X87554280Y-176328558D01*
X87566902Y-176405916D01*
X87581675Y-176481155D01*
X87598592Y-176554268D01*
X87617644Y-176625243D01*
X87638825Y-176694074D01*
X87662125Y-176760750D01*
X87687538Y-176825263D01*
X87715056Y-176887603D01*
X87744671Y-176947763D01*
X87776376Y-177005733D01*
X87810161Y-177061504D01*
X87846021Y-177115067D01*
X87883947Y-177166414D01*
X87923930Y-177215535D01*
X87965965Y-177262422D01*
X88010042Y-177307065D01*
X88056154Y-177349456D01*
X88104293Y-177389586D01*
X88154452Y-177427445D01*
X88206623Y-177463026D01*
X88260798Y-177496318D01*
X88316969Y-177527314D01*
X88375128Y-177556003D01*
X88435269Y-177582378D01*
X88497382Y-177606430D01*
X88561460Y-177628149D01*
X88627496Y-177647526D01*
X88695482Y-177664553D01*
X88765410Y-177679221D01*
X88837272Y-177691521D01*
X88891211Y-177699037D01*
X88944768Y-177705182D01*
X88997878Y-177709960D01*
X89050471Y-177713371D01*
X89102481Y-177715417D01*
X89153842Y-177716102D01*
X89204485Y-177715426D01*
X89254343Y-177713393D01*
X89303350Y-177710003D01*
X89351439Y-177705260D01*
X89398541Y-177699164D01*
X89444590Y-177691719D01*
X89489519Y-177682926D01*
X89533260Y-177672787D01*
X89575746Y-177661305D01*
X89616911Y-177648482D01*
X89657773Y-177634164D01*
X89698806Y-177617976D01*
X89739916Y-177599984D01*
X89781007Y-177580252D01*
X89821988Y-177558846D01*
X89862762Y-177535831D01*
X89903237Y-177511272D01*
X89943318Y-177485234D01*
X89982912Y-177457782D01*
X90021923Y-177428981D01*
X90060258Y-177398896D01*
X90097824Y-177367593D01*
X90134525Y-177335137D01*
X90170269Y-177301592D01*
X90204960Y-177267024D01*
X90238505Y-177231498D01*
X90312437Y-177147427D01*
X90382946Y-177060445D01*
X90452495Y-176966783D01*
X90523549Y-176862669D01*
X90598573Y-176744334D01*
X90680029Y-176608008D01*
X90770381Y-176449919D01*
X90872094Y-176266299D01*
X90985677Y-176060541D01*
X91031749Y-175978515D01*
X91072207Y-175907700D01*
X91108200Y-175846080D01*
X91140878Y-175791636D01*
X91171389Y-175742352D01*
X91200883Y-175696210D01*
X91241160Y-175635999D01*
X91280841Y-175579385D01*
X91320040Y-175526260D01*
X91358872Y-175476517D01*
X91397452Y-175430049D01*
X91435895Y-175386746D01*
X91474315Y-175346504D01*
X91512827Y-175309212D01*
X91551545Y-175274766D01*
X91590585Y-175243056D01*
X91630061Y-175213975D01*
X91670088Y-175187416D01*
X91710781Y-175163271D01*
X91752254Y-175141434D01*
X91794622Y-175121795D01*
X91838000Y-175104249D01*
X91866148Y-175094485D01*
X91895472Y-175085833D01*
X91925842Y-175078297D01*
X91957128Y-175071881D01*
X91989200Y-175066590D01*
X92021926Y-175062428D01*
X92055178Y-175059398D01*
X92088825Y-175057506D01*
X92122736Y-175056754D01*
X92156781Y-175057147D01*
X92190831Y-175058690D01*
X92224754Y-175061386D01*
X92258422Y-175065240D01*
X92291702Y-175070255D01*
X92324466Y-175076436D01*
X92356583Y-175083787D01*
X92421802Y-175103080D01*
X92483773Y-175126740D01*
X92542392Y-175154634D01*
X92597553Y-175186633D01*
X92649149Y-175222605D01*
X92697077Y-175262418D01*
X92741230Y-175305942D01*
X92781504Y-175353045D01*
X92817792Y-175403596D01*
X92849990Y-175457463D01*
X92877991Y-175514516D01*
X92901691Y-175574622D01*
X92920984Y-175637652D01*
X92935764Y-175703473D01*
X92945927Y-175771955D01*
X92951366Y-175842965D01*
X92952155Y-175886638D01*
X92950835Y-175929796D01*
X92947427Y-175972415D01*
X92941955Y-176014468D01*
X92934443Y-176055928D01*
X92924913Y-176096770D01*
X92913389Y-176136967D01*
X92899894Y-176176494D01*
X92884450Y-176215325D01*
X92867081Y-176253433D01*
X92847810Y-176290792D01*
X92826661Y-176327376D01*
X92803655Y-176363159D01*
X92778817Y-176398115D01*
X92752170Y-176432218D01*
X92723736Y-176465441D01*
X92693539Y-176497760D01*
X92661602Y-176529146D01*
X92627948Y-176559576D01*
X92592601Y-176589021D01*
X92516916Y-176644857D01*
X92434734Y-176696445D01*
X92346239Y-176743576D01*
X92251616Y-176786042D01*
X92151051Y-176823634D01*
X92044727Y-176856143D01*
X92026898Y-176860853D01*
X92010177Y-176865381D01*
X91994944Y-176869612D01*
X91981580Y-176873429D01*
X91970465Y-176876717D01*
X91961979Y-176879360D01*
X91956503Y-176881242D01*
X91955012Y-176881862D01*
X91954417Y-176882248D01*
X92051518Y-177347121D01*
X92159733Y-177851682D01*
X92161052Y-177856524D01*
X92161889Y-177858388D01*
X92163007Y-177859862D01*
X92164526Y-177860930D01*
X92166566Y-177861579D01*
X92169250Y-177861794D01*
X92172697Y-177861560D01*
X92177029Y-177860863D01*
X92182367Y-177859688D01*
X92188831Y-177858022D01*
X92196543Y-177855849D01*
X92216192Y-177849926D01*
X92242283Y-177841804D01*
X92298868Y-177823462D01*
X92354809Y-177804175D01*
X92410041Y-177783975D01*
X92464500Y-177762892D01*
X92518119Y-177740957D01*
X92570833Y-177718202D01*
X92622578Y-177694657D01*
X92673289Y-177670354D01*
X92722900Y-177645323D01*
X92771346Y-177619595D01*
X92818562Y-177593202D01*
X92864483Y-177566174D01*
X92909045Y-177538543D01*
X92952180Y-177510339D01*
X92993826Y-177481593D01*
X93033916Y-177452337D01*
X93111441Y-177391099D01*
X93184483Y-177327225D01*
X93253056Y-177260693D01*
X93317175Y-177191480D01*
X93376853Y-177119563D01*
X93432106Y-177044920D01*
X93482947Y-176967528D01*
X93529393Y-176887364D01*
X93571455Y-176804405D01*
X93609151Y-176718628D01*
X93642493Y-176630012D01*
X93671496Y-176538533D01*
X93696175Y-176444168D01*
X93716544Y-176346894D01*
X93732618Y-176246690D01*
X93744410Y-176143532D01*
X93748000Y-176087790D01*
X93749845Y-176019993D01*
X93750053Y-175944028D01*
X93748732Y-175863779D01*
X93745988Y-175783133D01*
X93741930Y-175705977D01*
X93736664Y-175636196D01*
X93730299Y-175577676D01*
X93717930Y-175495042D01*
X93703309Y-175414618D01*
X93686435Y-175336398D01*
X93667306Y-175260375D01*
X93645920Y-175186543D01*
X93622275Y-175114895D01*
X93596368Y-175045427D01*
X93568198Y-174978131D01*
X93537762Y-174913001D01*
X93505059Y-174850031D01*
X93470086Y-174789215D01*
X93432842Y-174730547D01*
X93393323Y-174674020D01*
X93351529Y-174619628D01*
X93307457Y-174567366D01*
X93261105Y-174517226D01*
X93214669Y-174471250D01*
X93166869Y-174427759D01*
X93117647Y-174386723D01*
X93066945Y-174348114D01*
X93014705Y-174311902D01*
X92960869Y-174278060D01*
X92905380Y-174246557D01*
X92848179Y-174217365D01*
X92789208Y-174190456D01*
X92728411Y-174165799D01*
X92665728Y-174143367D01*
X92601102Y-174123129D01*
X92534475Y-174105058D01*
X92465790Y-174089125D01*
X92394987Y-174075300D01*
X92322011Y-174063554D01*
X92300713Y-174060981D01*
X92274827Y-174058816D01*
X92211900Y-174055683D01*
X92138456Y-174054103D01*
X92059720Y-174054029D01*
X91980919Y-174055410D01*
X91907276Y-174058196D01*
X91844019Y-174062339D01*
X91796372Y-174067788D01*
X91757625Y-174074515D01*
X91715795Y-174082847D01*
X91672162Y-174092468D01*
X91628008Y-174103065D01*
X91584615Y-174114324D01*
X91543265Y-174125929D01*
X91505238Y-174137568D01*
X91471816Y-174148926D01*
X91443456Y-174159781D01*
X91414534Y-174171671D01*
X91385149Y-174184538D01*
X91355400Y-174198326D01*
X91325386Y-174212979D01*
X91295207Y-174228438D01*
X91234750Y-174261551D01*
X91174821Y-174297210D01*
X91116216Y-174334962D01*
X91087658Y-174354480D01*
X91059728Y-174374350D01*
X91032525Y-174394516D01*
X91006149Y-174414921D01*
X90989417Y-174428709D01*
X90970646Y-174444994D01*
X90928230Y-174483790D01*
X90881382Y-174528787D01*
X90832583Y-174577463D01*
X90784313Y-174627297D01*
X90739053Y-174675767D01*
X90699283Y-174720350D01*
X90667483Y-174758526D01*
X90600271Y-174845986D01*
X90537110Y-174932876D01*
X90475371Y-175023453D01*
X90412425Y-175121975D01*
X90345642Y-175232702D01*
X90272394Y-175359891D01*
X90190051Y-175507800D01*
X90095983Y-175680687D01*
X90001257Y-175854628D01*
X89920123Y-175999720D01*
X89883837Y-176062706D01*
X89849970Y-176119991D01*
X89818195Y-176172077D01*
X89788184Y-176219467D01*
X89759613Y-176262666D01*
X89732153Y-176302176D01*
X89705479Y-176338500D01*
X89679264Y-176372143D01*
X89653181Y-176403607D01*
X89626904Y-176433395D01*
X89600106Y-176462012D01*
X89572461Y-176489960D01*
X89544727Y-176516717D01*
X89517545Y-176541462D01*
X89490802Y-176564253D01*
X89464389Y-176585144D01*
X89438196Y-176604190D01*
X89412111Y-176621449D01*
X89386024Y-176636976D01*
X89359824Y-176650826D01*
X89333401Y-176663056D01*
X89306644Y-176673721D01*
X89279443Y-176682877D01*
X89251687Y-176690580D01*
X89223265Y-176696886D01*
X89194067Y-176701850D01*
X89163982Y-176705528D01*
X89132900Y-176707976D01*
X89084046Y-176709666D01*
X89035490Y-176708693D01*
X88987400Y-176705124D01*
X88939941Y-176699024D01*
X88893281Y-176690461D01*
X88847584Y-176679500D01*
X88803018Y-176666208D01*
X88759749Y-176650650D01*
X88717944Y-176632892D01*
X88677768Y-176613002D01*
X88639389Y-176591044D01*
X88602972Y-176567086D01*
X88568685Y-176541192D01*
X88536693Y-176513430D01*
X88507163Y-176483866D01*
X88493373Y-176468428D01*
X88480261Y-176452565D01*
X88446827Y-176405983D01*
X88417447Y-176355703D01*
X88392139Y-176302177D01*
X88370922Y-176245859D01*
X88353814Y-176187202D01*
X88340834Y-176126656D01*
X88332000Y-176064677D01*
X88327332Y-176001715D01*
X88326847Y-175938225D01*
X88330565Y-175874657D01*
X88338503Y-175811466D01*
X88350681Y-175749104D01*
X88367117Y-175688024D01*
X88387830Y-175628677D01*
X88412838Y-175571518D01*
X88442161Y-175516998D01*
X88452175Y-175501155D01*
X88464100Y-175484176D01*
X88477748Y-175466251D01*
X88492928Y-175447567D01*
X88509451Y-175428313D01*
X88527129Y-175408676D01*
X88545773Y-175388845D01*
X88565192Y-175369008D01*
X88585199Y-175349353D01*
X88605603Y-175330068D01*
X88626216Y-175311340D01*
X88646849Y-175293359D01*
X88667312Y-175276313D01*
X88687417Y-175260388D01*
X88706974Y-175245775D01*
X88725794Y-175232659D01*
X88760747Y-175210589D01*
X88799833Y-175187592D01*
X88842029Y-175164198D01*
X88886308Y-175140937D01*
X88931646Y-175118337D01*
X88977016Y-175096928D01*
X89021395Y-175077239D01*
X89063756Y-175059799D01*
X89074642Y-175055463D01*
X89084567Y-175051439D01*
X89093561Y-175047709D01*
X89101657Y-175044254D01*
X89108884Y-175041056D01*
X89115275Y-175038095D01*
X89118165Y-175036697D01*
X89120859Y-175035353D01*
X89123358Y-175034058D01*
X89125668Y-175032811D01*
X89127791Y-175031610D01*
X89129733Y-175030452D01*
X89131496Y-175029334D01*
X89133084Y-175028255D01*
X89134502Y-175027213D01*
X89135754Y-175026204D01*
X89136843Y-175025227D01*
X89137772Y-175024278D01*
X89138547Y-175023357D01*
X89139171Y-175022460D01*
X89139647Y-175021586D01*
X89139980Y-175020731D01*
X89140173Y-175019894D01*
X89140231Y-175019073D01*
X89140157Y-175018264D01*
X89139955Y-175017465D01*
X89012955Y-174580021D01*
X88924320Y-174275133D01*
X88895977Y-174179673D01*
X88887622Y-174152412D01*
X88883839Y-174141165D01*
X88882990Y-174139439D01*
X88881977Y-174137975D01*
X88880718Y-174136786D01*
X88879131Y-174135885D01*
X88877135Y-174135285D01*
X88874649Y-174135001D01*
X88871589Y-174135046D01*
X88867875Y-174135433D01*
X88863426Y-174136175D01*
X88858159Y-174137286D01*
X88844846Y-174140669D01*
X88827283Y-174145689D01*
X88804816Y-174152454D01*
X88759401Y-174167066D01*
X88714216Y-174182836D01*
X88669324Y-174199727D01*
X88624789Y-174217707D01*
X88580677Y-174236741D01*
X88537050Y-174256795D01*
X88493973Y-174277835D01*
X88451509Y-174299827D01*
X88409724Y-174322737D01*
X88368681Y-174346530D01*
X88328444Y-174371173D01*
X88289077Y-174396632D01*
X88250645Y-174422871D01*
X88213211Y-174449858D01*
X88176839Y-174477559D01*
X88141594Y-174505938D01*
X88126896Y-174518476D01*
X88111225Y-174532426D01*
X88077631Y-174563859D01*
X88042152Y-174598831D01*
X88006128Y-174635936D01*
X87970897Y-174673769D01*
X87937799Y-174710924D01*
X87908174Y-174745995D01*
X87895082Y-174762310D01*
X87883361Y-174777576D01*
X87850427Y-174823063D01*
X87819093Y-174869576D01*
X87789352Y-174917132D01*
X87761200Y-174965750D01*
X87734632Y-175015447D01*
X87709641Y-175066241D01*
X87686224Y-175118149D01*
X87664374Y-175171188D01*
X87644087Y-175225377D01*
X87625358Y-175280732D01*
X87608181Y-175337272D01*
X87592551Y-175395014D01*
X87578463Y-175453976D01*
X87565912Y-175514175D01*
X87554893Y-175575628D01*
X87545400Y-175638354D01*
X87540721Y-175684561D01*
X87536812Y-175746734D01*
X87533779Y-175819739D01*
X87531730Y-175898440D01*
X87530772Y-175977703D01*
X87345562Y-175977703D01*
X87345375Y-175950915D01*
X87345642Y-175875859D01*
X87346720Y-175806078D01*
X87348624Y-175746450D01*
X87351372Y-175701854D01*
X87370630Y-175546219D01*
X87399468Y-175396141D01*
X87417436Y-175323243D01*
X87437745Y-175251803D01*
X87460378Y-175181843D01*
X87485317Y-175113388D01*
X87512545Y-175046459D01*
X87542043Y-174981079D01*
X87573793Y-174917272D01*
X87607778Y-174855059D01*
X87643980Y-174794465D01*
X87682381Y-174735512D01*
X87722964Y-174678222D01*
X87765710Y-174622619D01*
X87810601Y-174568725D01*
X87857620Y-174516564D01*
X87906749Y-174466158D01*
X87957971Y-174417529D01*
X88011266Y-174370702D01*
X88066618Y-174325699D01*
X88124009Y-174282542D01*
X88183420Y-174241255D01*
X88244835Y-174201860D01*
X88308235Y-174164381D01*
X88373601Y-174128839D01*
X88440918Y-174095259D01*
X88510166Y-174063662D01*
X88581328Y-174034072D01*
X88729322Y-173981004D01*
X88765508Y-173969637D01*
X88806216Y-173957666D01*
X88848893Y-173945744D01*
X88890982Y-173934526D01*
X88929930Y-173924663D01*
X88963180Y-173916810D01*
X88988179Y-173911619D01*
X88996786Y-173910226D01*
X89002372Y-173909743D01*
X89004286Y-173911514D01*
X89007170Y-173916997D01*
X89016152Y-173940126D01*
X89049115Y-174042211D01*
X89106155Y-174232402D01*
X89192166Y-174527104D01*
X89261597Y-174767280D01*
X89317931Y-174964196D01*
X89355480Y-175097612D01*
X89365432Y-175134182D01*
X89368555Y-175147287D01*
X89366077Y-175148486D01*
X89359978Y-175150925D01*
X89338569Y-175158929D01*
X89307635Y-175170108D01*
X89270483Y-175183271D01*
X89186966Y-175213885D01*
X89108860Y-175245190D01*
X89036068Y-175277267D01*
X88968494Y-175310194D01*
X88906043Y-175344051D01*
X88848617Y-175378918D01*
X88821759Y-175396755D01*
X88796122Y-175414874D01*
X88771693Y-175433286D01*
X88748460Y-175451999D01*
X88726412Y-175471025D01*
X88705536Y-175490373D01*
X88685821Y-175510053D01*
X88667254Y-175530075D01*
X88649823Y-175550449D01*
X88633517Y-175571184D01*
X88618323Y-175592292D01*
X88604229Y-175613781D01*
X88591224Y-175635662D01*
X88579295Y-175657945D01*
X88568430Y-175680639D01*
X88558617Y-175703754D01*
X88549845Y-175727302D01*
X88542101Y-175751290D01*
X88535373Y-175775730D01*
X88529650Y-175800632D01*
X88526409Y-175817287D01*
X88523566Y-175835120D01*
X88521121Y-175853951D01*
X88519077Y-175873602D01*
X88516193Y-175914647D01*
X88514921Y-175956824D01*
X88515270Y-175998704D01*
X88517248Y-176038856D01*
X88518850Y-176057837D01*
X88520862Y-176075849D01*
X88523286Y-176092715D01*
X88526122Y-176108254D01*
X88537220Y-176153747D01*
X88550939Y-176196570D01*
X88567290Y-176236730D01*
X88586282Y-176274236D01*
X88596771Y-176291996D01*
X88607923Y-176309096D01*
X88619741Y-176325537D01*
X88632224Y-176341319D01*
X88645374Y-176356444D01*
X88659193Y-176370912D01*
X88673682Y-176384726D01*
X88688841Y-176397885D01*
X88704671Y-176410391D01*
X88721175Y-176422244D01*
X88738353Y-176433447D01*
X88756206Y-176443999D01*
X88793943Y-176463158D01*
X88834395Y-176479729D01*
X88877571Y-176493720D01*
X88923481Y-176505140D01*
X88972133Y-176513997D01*
X89023539Y-176520299D01*
X89044993Y-176522115D01*
X89065494Y-176523321D01*
X89085132Y-176523900D01*
X89103994Y-176523837D01*
X89122170Y-176523117D01*
X89139748Y-176521725D01*
X89156819Y-176519644D01*
X89173469Y-176516859D01*
X89189789Y-176513355D01*
X89205867Y-176509116D01*
X89221792Y-176504126D01*
X89237653Y-176498371D01*
X89253538Y-176491834D01*
X89269538Y-176484501D01*
X89285740Y-176476355D01*
X89302233Y-176467382D01*
X89321458Y-176456011D01*
X89340777Y-176443324D01*
X89360199Y-176429310D01*
X89379734Y-176413958D01*
X89399393Y-176397258D01*
X89419187Y-176379201D01*
X89439126Y-176359775D01*
X89459219Y-176338971D01*
X89479478Y-176316777D01*
X89499913Y-176293184D01*
X89520533Y-176268181D01*
X89541350Y-176241758D01*
X89562374Y-176213905D01*
X89583615Y-176184611D01*
X89605083Y-176153866D01*
X89626789Y-176121660D01*
X89656487Y-176076161D01*
X89685250Y-176030456D01*
X89714659Y-175981823D01*
X89746292Y-175927544D01*
X89822547Y-175791162D01*
X89926650Y-175599549D01*
X89997413Y-175468480D01*
X90058975Y-175355867D01*
X90113045Y-175258732D01*
X90161335Y-175174098D01*
X90205558Y-175098990D01*
X90247424Y-175030430D01*
X90288645Y-174965442D01*
X90330933Y-174901049D01*
X90415958Y-174778959D01*
X90502341Y-174665031D01*
X90590250Y-174559158D01*
X90679852Y-174461234D01*
X90771314Y-174371152D01*
X90864804Y-174288807D01*
X90960489Y-174214091D01*
X91058537Y-174146898D01*
X91159115Y-174087121D01*
X91262390Y-174034655D01*
X91368531Y-173989393D01*
X91477703Y-173951227D01*
X91590076Y-173920053D01*
X91705815Y-173895763D01*
X91825090Y-173878251D01*
X91948066Y-173867410D01*
X92023646Y-173864386D01*
X92101591Y-173864257D01*
X92180958Y-173866938D01*
X92260804Y-173872349D01*
X92340187Y-173880405D01*
X92418165Y-173891024D01*
X92493794Y-173904124D01*
X92566133Y-173919621D01*
X92697411Y-173955720D01*
X92823107Y-174000647D01*
X92943043Y-174054202D01*
X93057045Y-174116184D01*
X93164937Y-174186394D01*
X93266543Y-174264629D01*
X93361687Y-174350691D01*
X93450194Y-174444378D01*
X93531888Y-174545490D01*
X93606593Y-174653826D01*
X93674134Y-174769186D01*
X93734334Y-174891369D01*
X93787019Y-175020175D01*
X93832012Y-175155404D01*
X93869138Y-175296855D01*
X93898221Y-175444326D01*
X93913560Y-175550580D01*
X93925154Y-175659885D01*
X93932961Y-175770793D01*
X93936939Y-175881859D01*
X93937048Y-175991635D01*
X93933246Y-176098674D01*
X93925492Y-176201529D01*
X93920120Y-176250936D01*
X93913744Y-176298754D01*
X93893860Y-176413523D01*
X93868612Y-176524986D01*
X93838007Y-176633130D01*
X93802057Y-176737940D01*
X93760769Y-176839401D01*
X93714153Y-176937499D01*
X93662219Y-177032220D01*
X93604975Y-177123548D01*
X93542432Y-177211470D01*
X93474597Y-177295971D01*
X93401482Y-177377037D01*
X93323095Y-177454652D01*
X93239444Y-177528804D01*
X93150541Y-177599476D01*
X93056393Y-177666655D01*
X92957011Y-177730326D01*
X92916436Y-177753906D01*
X92867758Y-177780454D01*
X92813391Y-177808771D01*
X92755751Y-177837659D01*
X92697250Y-177865918D01*
X92640304Y-177892351D01*
X92587327Y-177915757D01*
X92540733Y-177934938D01*
X92468937Y-177961979D01*
X92387980Y-177990136D01*
X92303451Y-178017748D01*
X92220940Y-178043152D01*
X92169250Y-178058013D01*
X92146035Y-178064687D01*
G37*
D11*
X81915000Y-169291000D02*
X90932000Y-169291000D01*
D10*
G36*
X92321412Y-178697793D02*
G01*
X92334439Y-178698511D01*
X92346993Y-178699804D01*
X92359085Y-178701678D01*
X92370727Y-178704139D01*
X92381929Y-178707193D01*
X92392704Y-178710846D01*
X92403062Y-178715106D01*
X92413014Y-178719977D01*
X92417842Y-178722643D01*
X92422573Y-178725466D01*
X92427209Y-178728444D01*
X92431750Y-178731579D01*
X92440555Y-178738323D01*
X92449001Y-178745703D01*
X92457099Y-178753726D01*
X92464859Y-178762399D01*
X92472294Y-178771726D01*
X92498400Y-178805593D01*
X93180671Y-178805593D01*
X93863649Y-178806299D01*
X93863649Y-179755271D01*
X93671739Y-179947182D01*
X93479122Y-180139798D01*
X92206300Y-180139798D01*
X91711000Y-179748215D01*
X91216405Y-179356632D01*
X90963817Y-179356632D01*
X90963817Y-180125687D01*
X91286255Y-180125687D01*
X91609399Y-180126393D01*
X91768149Y-180252687D01*
X91926899Y-180378982D01*
X92872344Y-180379687D01*
X93817788Y-180379687D01*
X93848128Y-180344410D01*
X93856600Y-180334865D01*
X93865109Y-180326064D01*
X93873690Y-180317988D01*
X93882380Y-180310620D01*
X93891214Y-180303943D01*
X93900229Y-180297938D01*
X93909462Y-180292589D01*
X93918947Y-180287877D01*
X93928722Y-180283785D01*
X93938823Y-180280296D01*
X93949285Y-180277392D01*
X93960145Y-180275056D01*
X93971439Y-180273269D01*
X93983204Y-180272014D01*
X93995475Y-180271274D01*
X94008288Y-180271032D01*
X94024827Y-180270953D01*
X94032123Y-180271077D01*
X94038870Y-180271329D01*
X94045146Y-180271727D01*
X94051027Y-180272284D01*
X94056590Y-180273018D01*
X94061911Y-180273942D01*
X94067066Y-180275073D01*
X94072133Y-180276427D01*
X94077187Y-180278018D01*
X94082305Y-180279862D01*
X94087564Y-180281975D01*
X94093040Y-180284373D01*
X94098809Y-180287070D01*
X94104949Y-180290082D01*
X94118681Y-180297406D01*
X94131564Y-180305353D01*
X94143592Y-180313916D01*
X94154757Y-180323089D01*
X94165054Y-180332865D01*
X94174477Y-180343238D01*
X94183019Y-180354203D01*
X94190674Y-180365753D01*
X94197437Y-180377881D01*
X94203300Y-180390582D01*
X94208258Y-180403849D01*
X94212304Y-180417677D01*
X94215433Y-180432059D01*
X94217637Y-180446988D01*
X94218911Y-180462459D01*
X94219249Y-180478465D01*
X94219016Y-180491053D01*
X94218307Y-180503171D01*
X94217110Y-180514841D01*
X94215413Y-180526090D01*
X94213203Y-180536942D01*
X94210468Y-180547422D01*
X94207196Y-180557555D01*
X94203374Y-180567365D01*
X94198990Y-180576878D01*
X94194031Y-180586117D01*
X94188485Y-180595109D01*
X94182340Y-180603878D01*
X94175583Y-180612448D01*
X94168201Y-180620844D01*
X94160183Y-180629092D01*
X94151516Y-180637215D01*
X94142928Y-180644584D01*
X94134338Y-180651351D01*
X94125710Y-180657527D01*
X94117010Y-180663122D01*
X94108203Y-180668147D01*
X94099253Y-180672611D01*
X94090125Y-180676526D01*
X94080784Y-180679901D01*
X94071196Y-180682747D01*
X94061324Y-180685074D01*
X94051133Y-180686893D01*
X94040590Y-180688213D01*
X94029657Y-180689046D01*
X94018301Y-180689401D01*
X94006486Y-180689289D01*
X93994177Y-180688721D01*
X93982288Y-180687663D01*
X93970701Y-180686079D01*
X93959420Y-180683972D01*
X93948449Y-180681345D01*
X93937791Y-180678202D01*
X93927453Y-180674545D01*
X93917436Y-180670377D01*
X93907747Y-180665702D01*
X93898388Y-180660522D01*
X93889364Y-180654842D01*
X93880678Y-180648663D01*
X93872337Y-180641989D01*
X93864342Y-180634823D01*
X93856699Y-180627168D01*
X93849411Y-180619027D01*
X93842483Y-180610404D01*
X93817788Y-180577243D01*
X93306260Y-180577243D01*
X93306260Y-180940604D01*
X93342244Y-180971648D01*
X93352867Y-180981353D01*
X93362649Y-180991524D01*
X93371594Y-181002123D01*
X93379709Y-181013112D01*
X93386998Y-181024453D01*
X93393467Y-181036108D01*
X93399122Y-181048039D01*
X93403969Y-181060207D01*
X93408013Y-181072574D01*
X93411259Y-181085103D01*
X93413713Y-181097755D01*
X93415381Y-181110493D01*
X93416268Y-181123277D01*
X93416379Y-181136070D01*
X93415721Y-181148834D01*
X93414299Y-181161531D01*
X93412118Y-181174122D01*
X93409184Y-181186570D01*
X93405503Y-181198836D01*
X93401079Y-181210883D01*
X93395920Y-181222671D01*
X93390029Y-181234164D01*
X93383413Y-181245322D01*
X93376078Y-181256109D01*
X93368028Y-181266484D01*
X93359270Y-181276412D01*
X93349808Y-181285853D01*
X93339649Y-181294769D01*
X93328798Y-181303123D01*
X93317261Y-181310876D01*
X93305043Y-181317989D01*
X93292150Y-181324426D01*
X93284551Y-181327765D01*
X93276844Y-181330771D01*
X93269039Y-181333447D01*
X93261149Y-181335795D01*
X93253185Y-181337817D01*
X93245157Y-181339517D01*
X93237078Y-181340895D01*
X93228958Y-181341955D01*
X93212644Y-181343128D01*
X93196304Y-181343054D01*
X93180031Y-181341753D01*
X93163915Y-181339243D01*
X93148047Y-181335542D01*
X93132518Y-181330669D01*
X93117419Y-181324642D01*
X93102840Y-181317481D01*
X93095775Y-181313480D01*
X93088874Y-181309203D01*
X93082149Y-181304652D01*
X93075610Y-181299828D01*
X93069270Y-181294735D01*
X93063140Y-181289374D01*
X93057232Y-181283748D01*
X93051555Y-181277859D01*
X93044185Y-181269500D01*
X93037411Y-181261322D01*
X93031215Y-181253273D01*
X93025582Y-181245305D01*
X93020494Y-181237365D01*
X93015935Y-181229404D01*
X93011889Y-181221370D01*
X93008340Y-181213213D01*
X93005269Y-181204883D01*
X93002662Y-181196328D01*
X93000501Y-181187498D01*
X92998771Y-181178343D01*
X92997453Y-181168812D01*
X92996533Y-181158853D01*
X92995992Y-181148418D01*
X92995816Y-181137454D01*
X92996002Y-181124214D01*
X92996580Y-181111705D01*
X92997574Y-181099864D01*
X92999013Y-181088627D01*
X93000923Y-181077932D01*
X93003332Y-181067716D01*
X93006265Y-181057914D01*
X93009751Y-181048466D01*
X93013815Y-181039306D01*
X93018485Y-181030373D01*
X93023787Y-181021604D01*
X93029749Y-181012934D01*
X93036397Y-181004302D01*
X93043758Y-180995644D01*
X93051859Y-180986897D01*
X93060727Y-180977998D01*
X93101649Y-180937076D01*
X93101649Y-180577243D01*
X92699483Y-180577243D01*
X92699483Y-181233409D01*
X92293789Y-181233409D01*
X92262744Y-181269393D01*
X92252406Y-181280719D01*
X92241522Y-181291141D01*
X92230126Y-181300650D01*
X92218250Y-181309235D01*
X92205927Y-181316885D01*
X92193192Y-181323591D01*
X92180075Y-181329342D01*
X92166612Y-181334128D01*
X92152834Y-181337937D01*
X92138776Y-181340761D01*
X92124469Y-181342589D01*
X92109947Y-181343410D01*
X92095243Y-181343214D01*
X92080391Y-181341991D01*
X92065423Y-181339730D01*
X92050372Y-181336421D01*
X92032195Y-181331061D01*
X92014988Y-181324531D01*
X92006757Y-181320839D01*
X91998780Y-181316868D01*
X91991059Y-181312624D01*
X91983598Y-181308110D01*
X91976400Y-181303332D01*
X91969470Y-181298294D01*
X91962810Y-181293000D01*
X91956424Y-181287456D01*
X91950316Y-181281666D01*
X91944488Y-181275635D01*
X91938946Y-181269367D01*
X91933691Y-181262866D01*
X91928727Y-181256139D01*
X91924059Y-181249189D01*
X91919689Y-181242020D01*
X91915620Y-181234639D01*
X91911858Y-181227048D01*
X91908404Y-181219254D01*
X91905262Y-181211259D01*
X91902437Y-181203071D01*
X91899930Y-181194692D01*
X91897747Y-181186127D01*
X91894363Y-181168460D01*
X91892312Y-181150106D01*
X91891622Y-181131104D01*
X91891816Y-181123206D01*
X91892263Y-181115392D01*
X91892963Y-181107664D01*
X91893911Y-181100026D01*
X91895105Y-181092484D01*
X91896544Y-181085042D01*
X91898224Y-181077702D01*
X91900144Y-181070470D01*
X91902300Y-181063350D01*
X91904690Y-181056345D01*
X91907312Y-181049461D01*
X91910163Y-181042700D01*
X91913242Y-181036068D01*
X91916544Y-181029567D01*
X91920069Y-181023204D01*
X91923813Y-181016980D01*
X91927774Y-181010902D01*
X91931950Y-181004972D01*
X91936337Y-180999195D01*
X91940935Y-180993576D01*
X91945740Y-180988117D01*
X91950749Y-180982824D01*
X91955961Y-180977701D01*
X91961373Y-180972751D01*
X91966982Y-180967979D01*
X91972786Y-180963388D01*
X91978782Y-180958984D01*
X91984969Y-180954770D01*
X91991343Y-180950750D01*
X91997902Y-180946929D01*
X92004644Y-180943310D01*
X92011566Y-180939898D01*
X92019994Y-180936277D01*
X92029084Y-180933087D01*
X92038752Y-180930328D01*
X92048917Y-180928003D01*
X92059494Y-180926112D01*
X92070403Y-180924656D01*
X92081559Y-180923636D01*
X92092881Y-180923053D01*
X92104286Y-180922909D01*
X92115691Y-180923203D01*
X92127013Y-180923938D01*
X92138169Y-180925115D01*
X92149078Y-180926733D01*
X92159656Y-180928796D01*
X92169820Y-180931302D01*
X92179489Y-180934254D01*
X92186350Y-180936894D01*
X92193633Y-180940257D01*
X92201230Y-180944256D01*
X92209034Y-180948806D01*
X92216937Y-180953819D01*
X92224831Y-180959207D01*
X92232610Y-180964886D01*
X92240166Y-180970766D01*
X92247391Y-180976763D01*
X92254178Y-180982788D01*
X92260419Y-180988756D01*
X92266007Y-180994579D01*
X92270834Y-181000170D01*
X92274793Y-181005443D01*
X92276414Y-181007933D01*
X92277777Y-181010311D01*
X92278869Y-181012566D01*
X92279677Y-181014687D01*
X92280527Y-181017055D01*
X92281578Y-181019142D01*
X92282965Y-181020967D01*
X92284826Y-181022548D01*
X92287293Y-181023900D01*
X92290504Y-181025043D01*
X92294594Y-181025994D01*
X92299697Y-181026770D01*
X92305950Y-181027389D01*
X92313487Y-181027868D01*
X92332958Y-181028479D01*
X92359191Y-181028742D01*
X92393272Y-181028798D01*
X92501928Y-181028798D01*
X92501928Y-180577243D01*
X91851405Y-180577243D01*
X91691950Y-180450243D01*
X91531788Y-180323243D01*
X90963817Y-180323243D01*
X90963817Y-180577243D01*
X90730983Y-180577243D01*
X90730983Y-180323243D01*
X90364094Y-180323243D01*
X90364094Y-180577243D01*
X90138316Y-180577243D01*
X90138316Y-180323243D01*
X89764372Y-180323243D01*
X89764372Y-180577243D01*
X89538594Y-180577243D01*
X89538594Y-180323243D01*
X89164650Y-180323243D01*
X89164650Y-180577243D01*
X88945927Y-180577243D01*
X88945927Y-180323243D01*
X88571983Y-180323243D01*
X88571983Y-180577243D01*
X88346205Y-180577243D01*
X88346205Y-180323243D01*
X87972261Y-180323243D01*
X87972261Y-180577243D01*
X87753539Y-180577243D01*
X87753539Y-180323243D01*
X87400761Y-180323243D01*
X87400761Y-180125687D01*
X87753539Y-180125687D01*
X87972261Y-180125687D01*
X88346205Y-180125687D01*
X88571983Y-180125687D01*
X88945927Y-180125687D01*
X89164650Y-180125687D01*
X89538594Y-180125687D01*
X89764372Y-180125687D01*
X90138316Y-180125687D01*
X90364094Y-180125687D01*
X90730983Y-180125687D01*
X90730983Y-179356632D01*
X90364094Y-179356632D01*
X90364094Y-180125687D01*
X90138316Y-180125687D01*
X90138316Y-179356632D01*
X89764372Y-179356632D01*
X89764372Y-180125687D01*
X89538594Y-180125687D01*
X89538594Y-179356632D01*
X89164650Y-179356632D01*
X89164650Y-180125687D01*
X88945927Y-180125687D01*
X88945927Y-179356632D01*
X88571983Y-179356632D01*
X88571983Y-180125687D01*
X88346205Y-180125687D01*
X88346205Y-179356632D01*
X87972261Y-179356632D01*
X87972261Y-180125687D01*
X87753539Y-180125687D01*
X87753539Y-179356632D01*
X87400761Y-179356632D01*
X87400761Y-179159076D01*
X87753539Y-179159076D01*
X87753539Y-178905076D01*
X87972261Y-178905076D01*
X87972261Y-179159076D01*
X88346205Y-179159076D01*
X88346205Y-178905076D01*
X88571983Y-178905076D01*
X88571983Y-179159076D01*
X88945927Y-179159076D01*
X88945927Y-178905076D01*
X89164650Y-178905076D01*
X89164650Y-179159076D01*
X89538594Y-179159076D01*
X89538594Y-178905076D01*
X89764372Y-178905076D01*
X89764372Y-179159076D01*
X90138316Y-179159076D01*
X90138316Y-178905076D01*
X90364094Y-178905076D01*
X90364094Y-179159076D01*
X90730983Y-179159076D01*
X90730983Y-178905076D01*
X90963817Y-178905076D01*
X90963817Y-179159076D01*
X91292605Y-179159076D01*
X91787199Y-179550660D01*
X92282499Y-179942243D01*
X93394455Y-179942243D01*
X93666094Y-179670604D01*
X93666094Y-179003854D01*
X93081188Y-179003854D01*
X92890921Y-179003882D01*
X92813588Y-179003947D01*
X92747031Y-179004075D01*
X92717538Y-179004168D01*
X92690433Y-179004285D01*
X92665613Y-179004427D01*
X92642976Y-179004598D01*
X92622421Y-179004800D01*
X92603844Y-179005036D01*
X92587144Y-179005307D01*
X92572218Y-179005618D01*
X92558965Y-179005970D01*
X92547281Y-179006366D01*
X92537066Y-179006808D01*
X92532476Y-179007047D01*
X92528216Y-179007299D01*
X92524271Y-179007564D01*
X92520630Y-179007842D01*
X92517278Y-179008134D01*
X92514205Y-179008440D01*
X92511396Y-179008759D01*
X92508839Y-179009094D01*
X92506521Y-179009443D01*
X92504430Y-179009807D01*
X92502552Y-179010187D01*
X92500875Y-179010583D01*
X92499387Y-179010995D01*
X92498074Y-179011423D01*
X92496923Y-179011868D01*
X92495922Y-179012330D01*
X92495059Y-179012810D01*
X92494319Y-179013307D01*
X92493691Y-179013823D01*
X92493162Y-179014357D01*
X92492719Y-179014910D01*
X92492348Y-179015481D01*
X92492039Y-179016072D01*
X92491777Y-179016683D01*
X92491344Y-179017965D01*
X92490452Y-179020295D01*
X92489240Y-179022777D01*
X92485919Y-179028152D01*
X92481504Y-179033989D01*
X92476119Y-179040190D01*
X92469887Y-179046656D01*
X92462930Y-179053287D01*
X92455372Y-179059984D01*
X92447335Y-179066648D01*
X92438942Y-179073180D01*
X92430317Y-179079481D01*
X92421583Y-179085450D01*
X92412862Y-179090990D01*
X92404277Y-179096001D01*
X92395952Y-179100383D01*
X92388009Y-179104037D01*
X92380572Y-179106865D01*
X92370422Y-179109892D01*
X92359859Y-179112364D01*
X92348951Y-179114285D01*
X92337765Y-179115663D01*
X92326368Y-179116503D01*
X92314827Y-179116812D01*
X92303210Y-179116596D01*
X92291584Y-179115861D01*
X92280015Y-179114614D01*
X92268572Y-179112860D01*
X92257321Y-179110606D01*
X92246329Y-179107857D01*
X92235664Y-179104621D01*
X92225392Y-179100904D01*
X92215582Y-179096711D01*
X92206300Y-179092049D01*
X92198216Y-179087520D01*
X92190610Y-179082908D01*
X92183450Y-179078178D01*
X92176699Y-179073296D01*
X92170325Y-179068228D01*
X92164293Y-179062940D01*
X92158568Y-179057398D01*
X92153118Y-179051567D01*
X92147907Y-179045414D01*
X92142903Y-179038905D01*
X92138069Y-179032004D01*
X92133373Y-179024679D01*
X92128781Y-179016895D01*
X92124258Y-179008618D01*
X92119770Y-178999814D01*
X92115283Y-178990449D01*
X92110307Y-178979121D01*
X92108237Y-178973960D01*
X92106430Y-178969017D01*
X92104876Y-178964207D01*
X92103562Y-178959443D01*
X92102478Y-178954637D01*
X92101613Y-178949703D01*
X92100953Y-178944554D01*
X92100489Y-178939103D01*
X92100210Y-178933263D01*
X92100102Y-178926948D01*
X92100156Y-178920071D01*
X92100360Y-178912545D01*
X92101171Y-178895199D01*
X92101969Y-178883142D01*
X92103054Y-178871805D01*
X92104449Y-178861129D01*
X92106176Y-178851057D01*
X92108260Y-178841531D01*
X92110721Y-178832492D01*
X92113584Y-178823884D01*
X92116870Y-178815647D01*
X92120603Y-178807725D01*
X92124805Y-178800059D01*
X92129499Y-178792591D01*
X92134708Y-178785264D01*
X92140454Y-178778020D01*
X92146760Y-178770800D01*
X92153649Y-178763548D01*
X92161144Y-178756204D01*
X92169636Y-178748338D01*
X92177954Y-178741128D01*
X92186155Y-178734556D01*
X92194294Y-178728599D01*
X92202429Y-178723238D01*
X92210617Y-178718451D01*
X92218914Y-178714219D01*
X92227378Y-178710519D01*
X92236065Y-178707333D01*
X92245032Y-178704638D01*
X92254336Y-178702414D01*
X92264034Y-178700642D01*
X92274182Y-178699299D01*
X92284838Y-178698365D01*
X92296058Y-178697820D01*
X92307899Y-178697643D01*
X92321412Y-178697793D01*
G37*
D11*
X90932000Y-169291000D02*
X90932000Y-137541000D01*
X81915000Y-150114000D02*
X90932000Y-150114000D01*
D10*
G36*
X85888050Y-178905958D02*
G01*
X85919445Y-178907653D01*
X85950698Y-178910351D01*
X85981666Y-178914051D01*
X86012206Y-178918747D01*
X86042175Y-178924434D01*
X86071431Y-178931110D01*
X86099831Y-178938770D01*
X86127233Y-178947410D01*
X86151174Y-178955904D01*
X86174595Y-178964993D01*
X86197522Y-178974695D01*
X86219981Y-178985025D01*
X86241997Y-178995999D01*
X86263597Y-179007635D01*
X86284806Y-179019950D01*
X86305650Y-179032958D01*
X86326156Y-179046678D01*
X86346348Y-179061125D01*
X86366253Y-179076317D01*
X86385896Y-179092269D01*
X86405304Y-179108998D01*
X86424502Y-179126521D01*
X86443516Y-179144855D01*
X86462372Y-179164015D01*
X86488318Y-179192012D01*
X86512713Y-179220710D01*
X86535560Y-179250115D01*
X86556861Y-179280233D01*
X86576621Y-179311071D01*
X86594841Y-179342634D01*
X86611526Y-179374928D01*
X86626678Y-179407961D01*
X86640301Y-179441738D01*
X86652397Y-179476265D01*
X86662969Y-179511548D01*
X86672021Y-179547595D01*
X86679556Y-179584410D01*
X86685577Y-179622001D01*
X86690087Y-179660372D01*
X86693089Y-179699532D01*
X86694417Y-179743257D01*
X86693393Y-179786800D01*
X86690048Y-179830079D01*
X86684412Y-179873010D01*
X86676515Y-179915512D01*
X86666386Y-179957501D01*
X86654056Y-179998894D01*
X86639555Y-180039610D01*
X86622912Y-180079564D01*
X86604157Y-180118676D01*
X86583321Y-180156861D01*
X86560433Y-180194038D01*
X86535524Y-180230123D01*
X86508623Y-180265034D01*
X86479761Y-180298689D01*
X86448966Y-180331004D01*
X86418321Y-180360396D01*
X86386729Y-180387973D01*
X86354219Y-180413726D01*
X86320820Y-180437642D01*
X86286561Y-180459710D01*
X86251471Y-180479919D01*
X86215580Y-180498257D01*
X86178915Y-180514713D01*
X86141506Y-180529276D01*
X86103382Y-180541933D01*
X86064572Y-180552675D01*
X86025104Y-180561489D01*
X85985008Y-180568364D01*
X85944312Y-180573289D01*
X85903046Y-180576253D01*
X85861238Y-180577243D01*
X85824765Y-180576487D01*
X85788656Y-180574235D01*
X85752946Y-180570516D01*
X85717669Y-180565355D01*
X85682859Y-180558778D01*
X85648551Y-180550812D01*
X85614778Y-180541484D01*
X85581574Y-180530819D01*
X85548974Y-180518846D01*
X85517012Y-180505589D01*
X85485721Y-180491076D01*
X85455137Y-180475333D01*
X85425292Y-180458386D01*
X85396221Y-180440262D01*
X85367959Y-180420988D01*
X85340539Y-180400589D01*
X85313995Y-180379093D01*
X85288362Y-180356526D01*
X85263674Y-180332914D01*
X85239964Y-180308284D01*
X85217267Y-180282663D01*
X85195618Y-180256076D01*
X85175049Y-180228550D01*
X85155595Y-180200112D01*
X85137291Y-180170789D01*
X85120170Y-180140606D01*
X85104267Y-180109591D01*
X85089615Y-180077769D01*
X85076249Y-180045167D01*
X85064202Y-180011812D01*
X85053510Y-179977731D01*
X85044206Y-179942948D01*
X85038892Y-179920349D01*
X85033975Y-179898675D01*
X85031872Y-179888971D01*
X85030117Y-179880441D01*
X85028791Y-179873399D01*
X85027978Y-179868160D01*
X85026654Y-179856129D01*
X85025588Y-179841701D01*
X85024207Y-179807041D01*
X85023786Y-179766956D01*
X85024274Y-179724226D01*
X85025621Y-179681628D01*
X85027779Y-179641941D01*
X85030698Y-179607942D01*
X85032427Y-179593944D01*
X85034328Y-179582410D01*
X85040709Y-179551662D01*
X85048207Y-179521340D01*
X85056813Y-179491457D01*
X85066519Y-179462024D01*
X85077316Y-179433054D01*
X85089196Y-179404560D01*
X85102151Y-179376553D01*
X85116172Y-179349047D01*
X85131252Y-179322053D01*
X85147382Y-179295585D01*
X85164554Y-179269653D01*
X85182759Y-179244272D01*
X85201990Y-179219453D01*
X85222237Y-179195208D01*
X85243493Y-179171551D01*
X85265750Y-179148493D01*
X85286230Y-179128658D01*
X85307186Y-179109634D01*
X85328616Y-179091422D01*
X85350516Y-179074024D01*
X85372883Y-179057440D01*
X85395714Y-179041672D01*
X85419006Y-179026720D01*
X85442756Y-179012585D01*
X85466961Y-178999269D01*
X85491617Y-178986773D01*
X85516722Y-178975098D01*
X85542273Y-178964244D01*
X85568265Y-178954212D01*
X85594697Y-178945005D01*
X85621565Y-178936622D01*
X85648866Y-178929065D01*
X85676268Y-178922574D01*
X85704669Y-178917120D01*
X85733925Y-178912700D01*
X85763894Y-178909310D01*
X85794434Y-178906944D01*
X85825401Y-178905600D01*
X85856654Y-178905273D01*
X85888050Y-178905958D01*
G37*
D12*
X54029428Y-183134000D02*
X54392285Y-183134000D01*
X54247142Y-183496857D02*
X54392285Y-183134000D01*
X54247142Y-182771142D01*
X54682571Y-183351714D02*
X54392285Y-183134000D01*
X54682571Y-182916285D01*
D13*
X89746666Y-164979047D02*
X89746666Y-164374285D01*
X90109523Y-165100000D02*
X88839523Y-164676666D01*
X90109523Y-164253333D01*
X89262857Y-164011428D02*
X89262857Y-163527619D01*
X88839523Y-163830000D02*
X89928095Y-163830000D01*
X90049047Y-163769523D01*
X90109523Y-163648571D01*
X90109523Y-163527619D01*
X90109523Y-162922857D02*
X90049047Y-163043809D01*
X89928095Y-163104285D01*
X88839523Y-163104285D01*
X90109523Y-161894761D02*
X89444285Y-161894761D01*
X89323333Y-161955238D01*
X89262857Y-162076190D01*
X89262857Y-162318095D01*
X89323333Y-162439047D01*
X90049047Y-161894761D02*
X90109523Y-162015714D01*
X90109523Y-162318095D01*
X90049047Y-162439047D01*
X89928095Y-162499523D01*
X89807142Y-162499523D01*
X89686190Y-162439047D01*
X89625714Y-162318095D01*
X89625714Y-162015714D01*
X89565238Y-161894761D01*
X90049047Y-161350476D02*
X90109523Y-161229523D01*
X90109523Y-160987619D01*
X90049047Y-160866666D01*
X89928095Y-160806190D01*
X89867619Y-160806190D01*
X89746666Y-160866666D01*
X89686190Y-160987619D01*
X89686190Y-161169047D01*
X89625714Y-161290000D01*
X89504761Y-161350476D01*
X89444285Y-161350476D01*
X89323333Y-161290000D01*
X89262857Y-161169047D01*
X89262857Y-160987619D01*
X89323333Y-160866666D01*
X89625714Y-160261904D02*
X89625714Y-159294285D01*
X89262857Y-158689523D02*
X89625714Y-157721904D01*
X89988571Y-158689523D01*
X90109523Y-157117142D02*
X88839523Y-157117142D01*
X89746666Y-156693809D01*
X88839523Y-156270476D01*
X90109523Y-156270476D01*
X90049047Y-155726190D02*
X90109523Y-155544761D01*
X90109523Y-155242380D01*
X90049047Y-155121428D01*
X89988571Y-155060952D01*
X89867619Y-155000476D01*
X89746666Y-155000476D01*
X89625714Y-155060952D01*
X89565238Y-155121428D01*
X89504761Y-155242380D01*
X89444285Y-155484285D01*
X89383809Y-155605238D01*
X89323333Y-155665714D01*
X89202380Y-155726190D01*
X89081428Y-155726190D01*
X88960476Y-155665714D01*
X88900000Y-155605238D01*
X88839523Y-155484285D01*
X88839523Y-155181904D01*
X88900000Y-155000476D01*
X90049047Y-154516666D02*
X90109523Y-154335238D01*
X90109523Y-154032857D01*
X90049047Y-153911904D01*
X89988571Y-153851428D01*
X89867619Y-153790952D01*
X89746666Y-153790952D01*
X89625714Y-153851428D01*
X89565238Y-153911904D01*
X89504761Y-154032857D01*
X89444285Y-154274761D01*
X89383809Y-154395714D01*
X89323333Y-154456190D01*
X89202380Y-154516666D01*
X89081428Y-154516666D01*
X88960476Y-154456190D01*
X88900000Y-154395714D01*
X88839523Y-154274761D01*
X88839523Y-153972380D01*
X88900000Y-153790952D01*
D12*
X53775428Y-157988000D02*
X54138285Y-157988000D01*
X53993142Y-158350857D02*
X54138285Y-157988000D01*
X53993142Y-157625142D01*
X54428571Y-158205714D02*
X54138285Y-157988000D01*
X54428571Y-157770285D01*
D14*
X85523977Y-154522714D02*
X85572358Y-154571095D01*
X85620739Y-154716238D01*
X85620739Y-154813000D01*
X85572358Y-154958142D01*
X85475596Y-155054904D01*
X85378834Y-155103285D01*
X85185310Y-155151666D01*
X85040167Y-155151666D01*
X84846643Y-155103285D01*
X84749881Y-155054904D01*
X84653120Y-154958142D01*
X84604739Y-154813000D01*
X84604739Y-154716238D01*
X84653120Y-154571095D01*
X84701500Y-154522714D01*
X84604739Y-154087285D02*
X85427215Y-154087285D01*
X85523977Y-154038904D01*
X85572358Y-153990523D01*
X85620739Y-153893761D01*
X85620739Y-153700238D01*
X85572358Y-153603476D01*
X85523977Y-153555095D01*
X85427215Y-153506714D01*
X84604739Y-153506714D01*
X85620739Y-152442333D02*
X85136929Y-152781000D01*
X85620739Y-153022904D02*
X84604739Y-153022904D01*
X84604739Y-152635857D01*
X84653120Y-152539095D01*
X84701500Y-152490714D01*
X84798262Y-152442333D01*
X84943405Y-152442333D01*
X85040167Y-152490714D01*
X85088548Y-152539095D01*
X85136929Y-152635857D01*
X85136929Y-153022904D01*
X85620739Y-151426333D02*
X85136929Y-151765000D01*
X85620739Y-152006904D02*
X84604739Y-152006904D01*
X84604739Y-151619857D01*
X84653120Y-151523095D01*
X84701500Y-151474714D01*
X84798262Y-151426333D01*
X84943405Y-151426333D01*
X85040167Y-151474714D01*
X85088548Y-151523095D01*
X85136929Y-151619857D01*
X85136929Y-152006904D01*
X86724308Y-155175857D02*
X86772689Y-155030714D01*
X86821070Y-154982333D01*
X86917832Y-154933952D01*
X87062975Y-154933952D01*
X87159737Y-154982333D01*
X87208118Y-155030714D01*
X87256499Y-155127476D01*
X87256499Y-155514523D01*
X86240499Y-155514523D01*
X86240499Y-155175857D01*
X86288880Y-155079095D01*
X86337260Y-155030714D01*
X86434022Y-154982333D01*
X86530784Y-154982333D01*
X86627546Y-155030714D01*
X86675927Y-155079095D01*
X86724308Y-155175857D01*
X86724308Y-155514523D01*
X87256499Y-154014714D02*
X87256499Y-154498523D01*
X86240499Y-154498523D01*
X86240499Y-153482523D02*
X86240499Y-153289000D01*
X86288880Y-153192238D01*
X86385641Y-153095476D01*
X86579165Y-153047095D01*
X86917832Y-153047095D01*
X87111356Y-153095476D01*
X87208118Y-153192238D01*
X87256499Y-153289000D01*
X87256499Y-153482523D01*
X87208118Y-153579285D01*
X87111356Y-153676047D01*
X86917832Y-153724428D01*
X86579165Y-153724428D01*
X86385641Y-153676047D01*
X86288880Y-153579285D01*
X86240499Y-153482523D01*
X87159737Y-152031095D02*
X87208118Y-152079476D01*
X87256499Y-152224619D01*
X87256499Y-152321380D01*
X87208118Y-152466523D01*
X87111356Y-152563285D01*
X87014594Y-152611666D01*
X86821070Y-152660047D01*
X86675927Y-152660047D01*
X86482403Y-152611666D01*
X86385641Y-152563285D01*
X86288880Y-152466523D01*
X86240499Y-152321380D01*
X86240499Y-152224619D01*
X86288880Y-152079476D01*
X86337260Y-152031095D01*
X87256499Y-151595666D02*
X86240499Y-151595666D01*
X87256499Y-151015095D02*
X86675927Y-151450523D01*
X86240499Y-151015095D02*
X86821070Y-151595666D01*
D13*
X90109523Y-149297571D02*
X88839523Y-149297571D01*
X89746666Y-148874238D01*
X88839523Y-148450904D01*
X90109523Y-148450904D01*
X90049047Y-147906619D02*
X90109523Y-147725190D01*
X90109523Y-147422809D01*
X90049047Y-147301857D01*
X89988571Y-147241380D01*
X89867619Y-147180904D01*
X89746666Y-147180904D01*
X89625714Y-147241380D01*
X89565238Y-147301857D01*
X89504761Y-147422809D01*
X89444285Y-147664714D01*
X89383809Y-147785666D01*
X89323333Y-147846142D01*
X89202380Y-147906619D01*
X89081428Y-147906619D01*
X88960476Y-147846142D01*
X88900000Y-147785666D01*
X88839523Y-147664714D01*
X88839523Y-147362333D01*
X88900000Y-147180904D01*
X90049047Y-146697095D02*
X90109523Y-146515666D01*
X90109523Y-146213285D01*
X90049047Y-146092333D01*
X89988571Y-146031857D01*
X89867619Y-145971380D01*
X89746666Y-145971380D01*
X89625714Y-146031857D01*
X89565238Y-146092333D01*
X89504761Y-146213285D01*
X89444285Y-146455190D01*
X89383809Y-146576142D01*
X89323333Y-146636619D01*
X89202380Y-146697095D01*
X89081428Y-146697095D01*
X88960476Y-146636619D01*
X88900000Y-146576142D01*
X88839523Y-146455190D01*
X88839523Y-146152809D01*
X88900000Y-145971380D01*
X89625714Y-145427095D02*
X89625714Y-144459476D01*
X89262857Y-143854714D02*
X89625714Y-142887095D01*
X89988571Y-143854714D01*
X89746666Y-142342809D02*
X89746666Y-141738047D01*
X90109523Y-142463761D02*
X88839523Y-142040428D01*
X90109523Y-141617095D01*
X89262857Y-141375190D02*
X89262857Y-140891380D01*
X88839523Y-141193761D02*
X89928095Y-141193761D01*
X90049047Y-141133285D01*
X90109523Y-141012333D01*
X90109523Y-140891380D01*
X90109523Y-140286619D02*
X90049047Y-140407571D01*
X89928095Y-140468047D01*
X88839523Y-140468047D01*
X90109523Y-139258523D02*
X89444285Y-139258523D01*
X89323333Y-139319000D01*
X89262857Y-139439952D01*
X89262857Y-139681857D01*
X89323333Y-139802809D01*
X90049047Y-139258523D02*
X90109523Y-139379476D01*
X90109523Y-139681857D01*
X90049047Y-139802809D01*
X89928095Y-139863285D01*
X89807142Y-139863285D01*
X89686190Y-139802809D01*
X89625714Y-139681857D01*
X89625714Y-139379476D01*
X89565238Y-139258523D01*
X90049047Y-138714238D02*
X90109523Y-138593285D01*
X90109523Y-138351380D01*
X90049047Y-138230428D01*
X89928095Y-138169952D01*
X89867619Y-138169952D01*
X89746666Y-138230428D01*
X89686190Y-138351380D01*
X89686190Y-138532809D01*
X89625714Y-138653761D01*
X89504761Y-138714238D01*
X89444285Y-138714238D01*
X89323333Y-138653761D01*
X89262857Y-138532809D01*
X89262857Y-138351380D01*
X89323333Y-138230428D01*
D12*
X69777428Y-151892000D02*
X70140285Y-151892000D01*
X69995142Y-152254857D02*
X70140285Y-151892000D01*
X69995142Y-151529142D01*
X70430571Y-152109714D02*
X70140285Y-151892000D01*
X70430571Y-151674285D01*
D14*
X31600260Y-158689523D02*
X32616260Y-158689523D01*
X32616260Y-159076571D01*
X32567880Y-159173333D01*
X32519499Y-159221714D01*
X32422737Y-159270095D01*
X32277594Y-159270095D01*
X32180832Y-159221714D01*
X32132451Y-159173333D01*
X32084070Y-159076571D01*
X32084070Y-158689523D01*
X32616260Y-159899047D02*
X32616260Y-160092571D01*
X32567880Y-160189333D01*
X32471118Y-160286095D01*
X32277594Y-160334476D01*
X31938927Y-160334476D01*
X31745403Y-160286095D01*
X31648641Y-160189333D01*
X31600260Y-160092571D01*
X31600260Y-159899047D01*
X31648641Y-159802285D01*
X31745403Y-159705523D01*
X31938927Y-159657142D01*
X32277594Y-159657142D01*
X32471118Y-159705523D01*
X32567880Y-159802285D01*
X32616260Y-159899047D01*
X32616260Y-160673142D02*
X31600260Y-160915047D01*
X32325975Y-161108571D01*
X31600260Y-161302095D01*
X32616260Y-161544000D01*
X32132451Y-161931047D02*
X32132451Y-162269714D01*
X31600260Y-162414857D02*
X31600260Y-161931047D01*
X32616260Y-161931047D01*
X32616260Y-162414857D01*
X31600260Y-163430857D02*
X32084070Y-163092190D01*
X31600260Y-162850285D02*
X32616260Y-162850285D01*
X32616260Y-163237333D01*
X32567880Y-163334095D01*
X32519499Y-163382476D01*
X32422737Y-163430857D01*
X32277594Y-163430857D01*
X32180832Y-163382476D01*
X32132451Y-163334095D01*
X32084070Y-163237333D01*
X32084070Y-162850285D01*
X30980500Y-160407047D02*
X30980500Y-160600571D01*
X30932120Y-160697333D01*
X30835358Y-160794095D01*
X30641834Y-160842476D01*
X30303167Y-160842476D01*
X30109643Y-160794095D01*
X30012881Y-160697333D01*
X29964500Y-160600571D01*
X29964500Y-160407047D01*
X30012881Y-160310285D01*
X30109643Y-160213523D01*
X30303167Y-160165142D01*
X30641834Y-160165142D01*
X30835358Y-160213523D01*
X30932120Y-160310285D01*
X30980500Y-160407047D01*
X29964500Y-161277904D02*
X30980500Y-161277904D01*
X29964500Y-161858476D01*
X30980500Y-161858476D01*
D15*
X78330857Y-132402500D02*
X77616571Y-132402500D01*
X78473714Y-131973928D02*
X77973714Y-133473928D01*
X77473714Y-131973928D01*
X77188000Y-133473928D02*
X76330857Y-133473928D01*
X76759428Y-131973928D02*
X76759428Y-133473928D01*
X75116571Y-131973928D02*
X75830857Y-131973928D01*
X75830857Y-133473928D01*
X74688000Y-132402500D02*
X73973714Y-132402500D01*
X74830857Y-131973928D02*
X74330857Y-133473928D01*
X73830857Y-131973928D01*
X73402285Y-132045357D02*
X73188000Y-131973928D01*
X72830857Y-131973928D01*
X72688000Y-132045357D01*
X72616571Y-132116785D01*
X72545142Y-132259642D01*
X72545142Y-132402500D01*
X72616571Y-132545357D01*
X72688000Y-132616785D01*
X72830857Y-132688214D01*
X73116571Y-132759642D01*
X73259428Y-132831071D01*
X73330857Y-132902500D01*
X73402285Y-133045357D01*
X73402285Y-133188214D01*
X73330857Y-133331071D01*
X73259428Y-133402500D01*
X73116571Y-133473928D01*
X72759428Y-133473928D01*
X72545142Y-133402500D01*
X77795142Y-131058928D02*
X77795142Y-129987500D01*
X77866571Y-129773214D01*
X78009428Y-129630357D01*
X78223714Y-129558928D01*
X78366571Y-129558928D01*
X77152285Y-130916071D02*
X77080857Y-130987500D01*
X76938000Y-131058928D01*
X76580857Y-131058928D01*
X76438000Y-130987500D01*
X76366571Y-130916071D01*
X76295142Y-130773214D01*
X76295142Y-130630357D01*
X76366571Y-130416071D01*
X77223714Y-129558928D01*
X76295142Y-129558928D01*
X75652285Y-130130357D02*
X74509428Y-130130357D01*
X73795142Y-130558928D02*
X72652285Y-130130357D01*
X73795142Y-129701785D01*
X55470857Y-132402500D02*
X54756571Y-132402500D01*
X55613714Y-131973928D02*
X55113714Y-133473928D01*
X54613714Y-131973928D01*
X54328000Y-133473928D02*
X53470857Y-133473928D01*
X53899428Y-131973928D02*
X53899428Y-133473928D01*
X52256571Y-131973928D02*
X52970857Y-131973928D01*
X52970857Y-133473928D01*
X51828000Y-132402500D02*
X51113714Y-132402500D01*
X51970857Y-131973928D02*
X51470857Y-133473928D01*
X50970857Y-131973928D01*
X50542285Y-132045357D02*
X50328000Y-131973928D01*
X49970857Y-131973928D01*
X49828000Y-132045357D01*
X49756571Y-132116785D01*
X49685142Y-132259642D01*
X49685142Y-132402500D01*
X49756571Y-132545357D01*
X49828000Y-132616785D01*
X49970857Y-132688214D01*
X50256571Y-132759642D01*
X50399428Y-132831071D01*
X50470857Y-132902500D01*
X50542285Y-133045357D01*
X50542285Y-133188214D01*
X50470857Y-133331071D01*
X50399428Y-133402500D01*
X50256571Y-133473928D01*
X49899428Y-133473928D01*
X49685142Y-133402500D01*
X54935142Y-131058928D02*
X54935142Y-129987500D01*
X55006571Y-129773214D01*
X55149428Y-129630357D01*
X55363714Y-129558928D01*
X55506571Y-129558928D01*
X53435142Y-129558928D02*
X54292285Y-129558928D01*
X53863714Y-129558928D02*
X53863714Y-131058928D01*
X54006571Y-130844642D01*
X54149428Y-130701785D01*
X54292285Y-130630357D01*
X52792285Y-130130357D02*
X51649428Y-130130357D01*
X50935142Y-130558928D02*
X49792285Y-130130357D01*
X50935142Y-129701785D01*
X26499428Y-174335714D02*
X27999428Y-174335714D01*
X27999428Y-174907142D01*
X27928000Y-175050000D01*
X27856571Y-175121428D01*
X27713714Y-175192857D01*
X27499428Y-175192857D01*
X27356571Y-175121428D01*
X27285142Y-175050000D01*
X27213714Y-174907142D01*
X27213714Y-174335714D01*
X27999428Y-176121428D02*
X27999428Y-176407142D01*
X27928000Y-176550000D01*
X27785142Y-176692857D01*
X27499428Y-176764285D01*
X26999428Y-176764285D01*
X26713714Y-176692857D01*
X26570857Y-176550000D01*
X26499428Y-176407142D01*
X26499428Y-176121428D01*
X26570857Y-175978571D01*
X26713714Y-175835714D01*
X26999428Y-175764285D01*
X27499428Y-175764285D01*
X27785142Y-175835714D01*
X27928000Y-175978571D01*
X27999428Y-176121428D01*
X27999428Y-177264285D02*
X26499428Y-177621428D01*
X27570857Y-177907142D01*
X26499428Y-178192857D01*
X27999428Y-178550000D01*
X27285142Y-179121428D02*
X27285142Y-179621428D01*
X26499428Y-179835714D02*
X26499428Y-179121428D01*
X27999428Y-179121428D01*
X27999428Y-179835714D01*
X26499428Y-181335714D02*
X27213714Y-180835714D01*
X26499428Y-180478571D02*
X27999428Y-180478571D01*
X27999428Y-181050000D01*
X27928000Y-181192857D01*
X27856571Y-181264285D01*
X27713714Y-181335714D01*
X27499428Y-181335714D01*
X27356571Y-181264285D01*
X27285142Y-181192857D01*
X27213714Y-181050000D01*
X27213714Y-180478571D01*
D14*
X85386333Y-149110095D02*
X85386333Y-148626285D01*
X85676619Y-149206857D02*
X84660619Y-148868190D01*
X85676619Y-148529523D01*
X85676619Y-148190857D02*
X84660619Y-148190857D01*
X84660619Y-147803809D01*
X84709000Y-147707047D01*
X84757380Y-147658666D01*
X84854142Y-147610285D01*
X84999285Y-147610285D01*
X85096047Y-147658666D01*
X85144428Y-147707047D01*
X85192809Y-147803809D01*
X85192809Y-148190857D01*
X85676619Y-146594285D02*
X85192809Y-146932952D01*
X85676619Y-147174857D02*
X84660619Y-147174857D01*
X84660619Y-146787809D01*
X84709000Y-146691047D01*
X84757380Y-146642666D01*
X84854142Y-146594285D01*
X84999285Y-146594285D01*
X85096047Y-146642666D01*
X85144428Y-146691047D01*
X85192809Y-146787809D01*
X85192809Y-147174857D01*
X85579857Y-145578285D02*
X85628238Y-145626666D01*
X85676619Y-145771809D01*
X85676619Y-145868571D01*
X85628238Y-146013714D01*
X85531476Y-146110476D01*
X85434714Y-146158857D01*
X85241190Y-146207238D01*
X85096047Y-146207238D01*
X84902523Y-146158857D01*
X84805761Y-146110476D01*
X84709000Y-146013714D01*
X84660619Y-145868571D01*
X84660619Y-145771809D01*
X84709000Y-145626666D01*
X84757380Y-145578285D01*
X85676619Y-145142857D02*
X84660619Y-145142857D01*
X85144428Y-145142857D02*
X85144428Y-144562285D01*
X85676619Y-144562285D02*
X84660619Y-144562285D01*
X85330453Y-167047333D02*
X85330453Y-166563523D01*
X85620739Y-167144095D02*
X84604739Y-166805428D01*
X85620739Y-166466761D01*
X85620739Y-166128095D02*
X84604739Y-166128095D01*
X84604739Y-165886190D01*
X84653120Y-165741047D01*
X84749881Y-165644285D01*
X84846643Y-165595904D01*
X85040167Y-165547523D01*
X85185310Y-165547523D01*
X85378834Y-165595904D01*
X85475596Y-165644285D01*
X85572358Y-165741047D01*
X85620739Y-165886190D01*
X85620739Y-166128095D01*
X84604739Y-165257238D02*
X85620739Y-164918571D01*
X84604739Y-164579904D01*
X86966213Y-168160095D02*
X86966213Y-167676285D01*
X87256499Y-168256857D02*
X86240499Y-167918190D01*
X87256499Y-167579523D01*
X87256499Y-167240857D02*
X86240499Y-167240857D01*
X86240499Y-166853809D01*
X86288880Y-166757047D01*
X86337260Y-166708666D01*
X86434022Y-166660285D01*
X86579165Y-166660285D01*
X86675927Y-166708666D01*
X86724308Y-166757047D01*
X86772689Y-166853809D01*
X86772689Y-167240857D01*
X87256499Y-165644285D02*
X86772689Y-165982952D01*
X87256499Y-166224857D02*
X86240499Y-166224857D01*
X86240499Y-165837809D01*
X86288880Y-165741047D01*
X86337260Y-165692666D01*
X86434022Y-165644285D01*
X86579165Y-165644285D01*
X86675927Y-165692666D01*
X86724308Y-165741047D01*
X86772689Y-165837809D01*
X86772689Y-166224857D01*
X87159737Y-164628285D02*
X87208118Y-164676666D01*
X87256499Y-164821809D01*
X87256499Y-164918571D01*
X87208118Y-165063714D01*
X87111356Y-165160476D01*
X87014594Y-165208857D01*
X86821070Y-165257238D01*
X86675927Y-165257238D01*
X86482403Y-165208857D01*
X86385641Y-165160476D01*
X86288880Y-165063714D01*
X86240499Y-164918571D01*
X86240499Y-164821809D01*
X86288880Y-164676666D01*
X86337260Y-164628285D01*
X87256499Y-164192857D02*
X86240499Y-164192857D01*
X86724308Y-164192857D02*
X86724308Y-163612285D01*
X87256499Y-163612285D02*
X86240499Y-163612285D01*
D15*
X93444142Y-161233428D02*
X93515571Y-161019142D01*
X93515571Y-160662000D01*
X93444142Y-160519142D01*
X93372714Y-160447714D01*
X93229857Y-160376285D01*
X93087000Y-160376285D01*
X92944142Y-160447714D01*
X92872714Y-160519142D01*
X92801285Y-160662000D01*
X92729857Y-160947714D01*
X92658428Y-161090571D01*
X92587000Y-161162000D01*
X92444142Y-161233428D01*
X92301285Y-161233428D01*
X92158428Y-161162000D01*
X92087000Y-161090571D01*
X92015571Y-160947714D01*
X92015571Y-160590571D01*
X92087000Y-160376285D01*
X92015571Y-159947714D02*
X92015571Y-159090571D01*
X93515571Y-159519142D02*
X92015571Y-159519142D01*
X93087000Y-158662000D02*
X93087000Y-157947714D01*
X93515571Y-158804857D02*
X92015571Y-158304857D01*
X93515571Y-157804857D01*
X92015571Y-157519142D02*
X92015571Y-156662000D01*
X93515571Y-157090571D02*
X92015571Y-157090571D01*
X92015571Y-156162000D02*
X93229857Y-156162000D01*
X93372714Y-156090571D01*
X93444142Y-156019142D01*
X93515571Y-155876285D01*
X93515571Y-155590571D01*
X93444142Y-155447714D01*
X93372714Y-155376285D01*
X93229857Y-155304857D01*
X92015571Y-155304857D01*
X93444142Y-154662000D02*
X93515571Y-154447714D01*
X93515571Y-154090571D01*
X93444142Y-153947714D01*
X93372714Y-153876285D01*
X93229857Y-153804857D01*
X93087000Y-153804857D01*
X92944142Y-153876285D01*
X92872714Y-153947714D01*
X92801285Y-154090571D01*
X92729857Y-154376285D01*
X92658428Y-154519142D01*
X92587000Y-154590571D01*
X92444142Y-154662000D01*
X92301285Y-154662000D01*
X92158428Y-154590571D01*
X92087000Y-154519142D01*
X92015571Y-154376285D01*
X92015571Y-154019142D01*
X92087000Y-153804857D01*
X93515571Y-151304857D02*
X93515571Y-152019142D01*
X92015571Y-152019142D01*
X93515571Y-150804857D02*
X92015571Y-150804857D01*
X92087000Y-149304857D02*
X92015571Y-149447714D01*
X92015571Y-149662000D01*
X92087000Y-149876285D01*
X92229857Y-150019142D01*
X92372714Y-150090571D01*
X92658428Y-150162000D01*
X92872714Y-150162000D01*
X93158428Y-150090571D01*
X93301285Y-150019142D01*
X93444142Y-149876285D01*
X93515571Y-149662000D01*
X93515571Y-149519142D01*
X93444142Y-149304857D01*
X93372714Y-149233428D01*
X92872714Y-149233428D01*
X92872714Y-149519142D01*
X93515571Y-148590571D02*
X92015571Y-148590571D01*
X92729857Y-148590571D02*
X92729857Y-147733428D01*
X93515571Y-147733428D02*
X92015571Y-147733428D01*
X92015571Y-147233428D02*
X92015571Y-146376285D01*
X93515571Y-146804857D02*
X92015571Y-146804857D01*
X93444142Y-145947714D02*
X93515571Y-145733428D01*
X93515571Y-145376285D01*
X93444142Y-145233428D01*
X93372714Y-145162000D01*
X93229857Y-145090571D01*
X93087000Y-145090571D01*
X92944142Y-145162000D01*
X92872714Y-145233428D01*
X92801285Y-145376285D01*
X92729857Y-145662000D01*
X92658428Y-145804857D01*
X92587000Y-145876285D01*
X92444142Y-145947714D01*
X92301285Y-145947714D01*
X92158428Y-145876285D01*
X92087000Y-145804857D01*
X92015571Y-145662000D01*
X92015571Y-145304857D01*
X92087000Y-145090571D01*
D14*
X85330453Y-141774333D02*
X85330453Y-141290523D01*
X85620739Y-141871095D02*
X84604739Y-141532428D01*
X85620739Y-141193761D01*
X85620739Y-140855095D02*
X84604739Y-140855095D01*
X84604739Y-140613190D01*
X84653120Y-140468047D01*
X84749881Y-140371285D01*
X84846643Y-140322904D01*
X85040167Y-140274523D01*
X85185310Y-140274523D01*
X85378834Y-140322904D01*
X85475596Y-140371285D01*
X85572358Y-140468047D01*
X85620739Y-140613190D01*
X85620739Y-140855095D01*
X84604739Y-139984238D02*
X85620739Y-139645571D01*
X84604739Y-139306904D01*
X86966213Y-142887095D02*
X86966213Y-142403285D01*
X87256499Y-142983857D02*
X86240499Y-142645190D01*
X87256499Y-142306523D01*
X87256499Y-141967857D02*
X86240499Y-141967857D01*
X86240499Y-141580809D01*
X86288880Y-141484047D01*
X86337260Y-141435666D01*
X86434022Y-141387285D01*
X86579165Y-141387285D01*
X86675927Y-141435666D01*
X86724308Y-141484047D01*
X86772689Y-141580809D01*
X86772689Y-141967857D01*
X87256499Y-140371285D02*
X86772689Y-140709952D01*
X87256499Y-140951857D02*
X86240499Y-140951857D01*
X86240499Y-140564809D01*
X86288880Y-140468047D01*
X86337260Y-140419666D01*
X86434022Y-140371285D01*
X86579165Y-140371285D01*
X86675927Y-140419666D01*
X86724308Y-140468047D01*
X86772689Y-140564809D01*
X86772689Y-140951857D01*
X87159737Y-139355285D02*
X87208118Y-139403666D01*
X87256499Y-139548809D01*
X87256499Y-139645571D01*
X87208118Y-139790714D01*
X87111356Y-139887476D01*
X87014594Y-139935857D01*
X86821070Y-139984238D01*
X86675927Y-139984238D01*
X86482403Y-139935857D01*
X86385641Y-139887476D01*
X86288880Y-139790714D01*
X86240499Y-139645571D01*
X86240499Y-139548809D01*
X86288880Y-139403666D01*
X86337260Y-139355285D01*
X87256499Y-138919857D02*
X86240499Y-138919857D01*
X86724308Y-138919857D02*
X86724308Y-138339285D01*
X87256499Y-138339285D02*
X86240499Y-138339285D01*
X31021140Y-137619619D02*
X32037140Y-137619619D01*
X31021140Y-138248571D02*
X31069521Y-138151809D01*
X31117902Y-138103428D01*
X31214664Y-138055047D01*
X31504950Y-138055047D01*
X31601712Y-138103428D01*
X31650093Y-138151809D01*
X31698474Y-138248571D01*
X31698474Y-138393714D01*
X31650093Y-138490476D01*
X31601712Y-138538857D01*
X31504950Y-138587238D01*
X31214664Y-138587238D01*
X31117902Y-138538857D01*
X31069521Y-138490476D01*
X31021140Y-138393714D01*
X31021140Y-138248571D01*
X31698474Y-138925904D02*
X31021140Y-139119428D01*
X31504950Y-139312952D01*
X31021140Y-139506476D01*
X31698474Y-139700000D01*
X31021140Y-140522476D02*
X31553331Y-140522476D01*
X31650093Y-140474095D01*
X31698474Y-140377333D01*
X31698474Y-140183809D01*
X31650093Y-140087047D01*
X31069521Y-140522476D02*
X31021140Y-140425714D01*
X31021140Y-140183809D01*
X31069521Y-140087047D01*
X31166283Y-140038666D01*
X31263045Y-140038666D01*
X31359807Y-140087047D01*
X31408188Y-140183809D01*
X31408188Y-140425714D01*
X31456569Y-140522476D01*
X31069521Y-141732000D02*
X31021140Y-141877142D01*
X31021140Y-142119047D01*
X31069521Y-142215809D01*
X31117902Y-142264190D01*
X31214664Y-142312571D01*
X31311426Y-142312571D01*
X31408188Y-142264190D01*
X31456569Y-142215809D01*
X31504950Y-142119047D01*
X31553331Y-141925523D01*
X31601712Y-141828761D01*
X31650093Y-141780380D01*
X31746855Y-141732000D01*
X31843617Y-141732000D01*
X31940379Y-141780380D01*
X31988760Y-141828761D01*
X32037140Y-141925523D01*
X32037140Y-142167428D01*
X31988760Y-142312571D01*
X31069521Y-143183428D02*
X31021140Y-143086666D01*
X31021140Y-142893142D01*
X31069521Y-142796380D01*
X31117902Y-142748000D01*
X31214664Y-142699619D01*
X31504950Y-142699619D01*
X31601712Y-142748000D01*
X31650093Y-142796380D01*
X31698474Y-142893142D01*
X31698474Y-143086666D01*
X31650093Y-143183428D01*
X31021140Y-144054285D02*
X31553331Y-144054285D01*
X31650093Y-144005904D01*
X31698474Y-143909142D01*
X31698474Y-143715619D01*
X31650093Y-143618857D01*
X31069521Y-144054285D02*
X31021140Y-143957523D01*
X31021140Y-143715619D01*
X31069521Y-143618857D01*
X31166283Y-143570476D01*
X31263045Y-143570476D01*
X31359807Y-143618857D01*
X31408188Y-143715619D01*
X31408188Y-143957523D01*
X31456569Y-144054285D01*
X31021140Y-144683238D02*
X31069521Y-144586476D01*
X31166283Y-144538095D01*
X32037140Y-144538095D01*
X31069521Y-145457333D02*
X31021140Y-145360571D01*
X31021140Y-145167047D01*
X31069521Y-145070285D01*
X31166283Y-145021904D01*
X31553331Y-145021904D01*
X31650093Y-145070285D01*
X31698474Y-145167047D01*
X31698474Y-145360571D01*
X31650093Y-145457333D01*
X31553331Y-145505714D01*
X31456569Y-145505714D01*
X31359807Y-145021904D01*
X31021140Y-146376571D02*
X32037140Y-146376571D01*
X31069521Y-146376571D02*
X31021140Y-146279809D01*
X31021140Y-146086285D01*
X31069521Y-145989523D01*
X31117902Y-145941142D01*
X31214664Y-145892761D01*
X31504950Y-145892761D01*
X31601712Y-145941142D01*
X31650093Y-145989523D01*
X31698474Y-146086285D01*
X31698474Y-146279809D01*
X31650093Y-146376571D01*
X31553331Y-147634476D02*
X31553331Y-147973142D01*
X31021140Y-148118285D02*
X31021140Y-147634476D01*
X32037140Y-147634476D01*
X32037140Y-148118285D01*
X31698474Y-148553714D02*
X31021140Y-148553714D01*
X31601712Y-148553714D02*
X31650093Y-148602095D01*
X31698474Y-148698857D01*
X31698474Y-148844000D01*
X31650093Y-148940761D01*
X31553331Y-148989142D01*
X31021140Y-148989142D01*
X31698474Y-149908380D02*
X30875998Y-149908380D01*
X30779236Y-149860000D01*
X30730855Y-149811619D01*
X30682474Y-149714857D01*
X30682474Y-149569714D01*
X30730855Y-149472952D01*
X31069521Y-149908380D02*
X31021140Y-149811619D01*
X31021140Y-149618095D01*
X31069521Y-149521333D01*
X31117902Y-149472952D01*
X31214664Y-149424571D01*
X31504950Y-149424571D01*
X31601712Y-149472952D01*
X31650093Y-149521333D01*
X31698474Y-149618095D01*
X31698474Y-149811619D01*
X31650093Y-149908380D01*
X31021140Y-150392190D02*
X31698474Y-150392190D01*
X32037140Y-150392190D02*
X31988760Y-150343809D01*
X31940379Y-150392190D01*
X31988760Y-150440571D01*
X32037140Y-150392190D01*
X31940379Y-150392190D01*
X31698474Y-150876000D02*
X31021140Y-150876000D01*
X31601712Y-150876000D02*
X31650093Y-150924380D01*
X31698474Y-151021142D01*
X31698474Y-151166285D01*
X31650093Y-151263047D01*
X31553331Y-151311428D01*
X31021140Y-151311428D01*
X31069521Y-152182285D02*
X31021140Y-152085523D01*
X31021140Y-151892000D01*
X31069521Y-151795238D01*
X31166283Y-151746857D01*
X31553331Y-151746857D01*
X31650093Y-151795238D01*
X31698474Y-151892000D01*
X31698474Y-152085523D01*
X31650093Y-152182285D01*
X31553331Y-152230666D01*
X31456569Y-152230666D01*
X31359807Y-151746857D01*
X31069521Y-153053142D02*
X31021140Y-152956380D01*
X31021140Y-152762857D01*
X31069521Y-152666095D01*
X31166283Y-152617714D01*
X31553331Y-152617714D01*
X31650093Y-152666095D01*
X31698474Y-152762857D01*
X31698474Y-152956380D01*
X31650093Y-153053142D01*
X31553331Y-153101523D01*
X31456569Y-153101523D01*
X31359807Y-152617714D01*
X31021140Y-153536952D02*
X31698474Y-153536952D01*
X31504950Y-153536952D02*
X31601712Y-153585333D01*
X31650093Y-153633714D01*
X31698474Y-153730476D01*
X31698474Y-153827238D01*
X31021140Y-154165904D02*
X31698474Y-154165904D01*
X32037140Y-154165904D02*
X31988760Y-154117523D01*
X31940379Y-154165904D01*
X31988760Y-154214285D01*
X32037140Y-154165904D01*
X31940379Y-154165904D01*
X31698474Y-154649714D02*
X31021140Y-154649714D01*
X31601712Y-154649714D02*
X31650093Y-154698095D01*
X31698474Y-154794857D01*
X31698474Y-154940000D01*
X31650093Y-155036761D01*
X31553331Y-155085142D01*
X31021140Y-155085142D01*
X31698474Y-156004380D02*
X30875998Y-156004380D01*
X30779236Y-155956000D01*
X30730855Y-155907619D01*
X30682474Y-155810857D01*
X30682474Y-155665714D01*
X30730855Y-155568952D01*
X31069521Y-156004380D02*
X31021140Y-155907619D01*
X31021140Y-155714095D01*
X31069521Y-155617333D01*
X31117902Y-155568952D01*
X31214664Y-155520571D01*
X31504950Y-155520571D01*
X31601712Y-155568952D01*
X31650093Y-155617333D01*
X31698474Y-155714095D01*
X31698474Y-155907619D01*
X31650093Y-156004380D01*
X29385380Y-137498666D02*
X30401380Y-137498666D01*
X29675666Y-137837333D01*
X30401380Y-138176000D01*
X29385380Y-138176000D01*
X29433761Y-138611428D02*
X29385380Y-138756571D01*
X29385380Y-138998476D01*
X29433761Y-139095238D01*
X29482142Y-139143619D01*
X29578904Y-139192000D01*
X29675666Y-139192000D01*
X29772428Y-139143619D01*
X29820809Y-139095238D01*
X29869190Y-138998476D01*
X29917571Y-138804952D01*
X29965952Y-138708190D01*
X30014333Y-138659809D01*
X30111095Y-138611428D01*
X30207857Y-138611428D01*
X30304619Y-138659809D01*
X30353000Y-138708190D01*
X30401380Y-138804952D01*
X30401380Y-139046857D01*
X30353000Y-139192000D01*
X29433761Y-139579047D02*
X29385380Y-139724190D01*
X29385380Y-139966095D01*
X29433761Y-140062857D01*
X29482142Y-140111238D01*
X29578904Y-140159619D01*
X29675666Y-140159619D01*
X29772428Y-140111238D01*
X29820809Y-140062857D01*
X29869190Y-139966095D01*
X29917571Y-139772571D01*
X29965952Y-139675809D01*
X30014333Y-139627428D01*
X30111095Y-139579047D01*
X30207857Y-139579047D01*
X30304619Y-139627428D01*
X30353000Y-139675809D01*
X30401380Y-139772571D01*
X30401380Y-140014476D01*
X30353000Y-140159619D01*
X29772428Y-140595047D02*
X29772428Y-141369142D01*
X29675666Y-141804571D02*
X29675666Y-142288380D01*
X29385380Y-141707809D02*
X30401380Y-142046476D01*
X29385380Y-142385142D01*
X30401380Y-142578666D02*
X30401380Y-143159238D01*
X29385380Y-142868952D02*
X30401380Y-142868952D01*
X29385380Y-143981714D02*
X29385380Y-143497904D01*
X30401380Y-143497904D01*
X29675666Y-144272000D02*
X29675666Y-144755809D01*
X29385380Y-144175238D02*
X30401380Y-144513904D01*
X29385380Y-144852571D01*
X29433761Y-145142857D02*
X29385380Y-145288000D01*
X29385380Y-145529904D01*
X29433761Y-145626666D01*
X29482142Y-145675047D01*
X29578904Y-145723428D01*
X29675666Y-145723428D01*
X29772428Y-145675047D01*
X29820809Y-145626666D01*
X29869190Y-145529904D01*
X29917571Y-145336380D01*
X29965952Y-145239619D01*
X30014333Y-145191238D01*
X30111095Y-145142857D01*
X30207857Y-145142857D01*
X30304619Y-145191238D01*
X30353000Y-145239619D01*
X30401380Y-145336380D01*
X30401380Y-145578285D01*
X30353000Y-145723428D01*
X29675666Y-146110476D02*
X29675666Y-146594285D01*
X29385380Y-146013714D02*
X30401380Y-146352380D01*
X29385380Y-146691047D01*
X29385380Y-147029714D02*
X30401380Y-147029714D01*
X30401380Y-147271619D01*
X30353000Y-147416761D01*
X30256238Y-147513523D01*
X30159476Y-147561904D01*
X29965952Y-147610285D01*
X29820809Y-147610285D01*
X29627285Y-147561904D01*
X29530523Y-147513523D01*
X29433761Y-147416761D01*
X29385380Y-147271619D01*
X29385380Y-147029714D01*
X29675666Y-147997333D02*
X29675666Y-148481142D01*
X29385380Y-147900571D02*
X30401380Y-148239238D01*
X29385380Y-148577904D01*
X29385380Y-148916571D02*
X30401380Y-148916571D01*
X30401380Y-149303619D01*
X30353000Y-149400380D01*
X30304619Y-149448761D01*
X30207857Y-149497142D01*
X30062714Y-149497142D01*
X29965952Y-149448761D01*
X29917571Y-149400380D01*
X29869190Y-149303619D01*
X29869190Y-148916571D01*
X30401380Y-149787428D02*
X30401380Y-150368000D01*
X29385380Y-150077714D02*
X30401380Y-150077714D01*
X29917571Y-150706666D02*
X29917571Y-151045333D01*
X29385380Y-151190476D02*
X29385380Y-150706666D01*
X30401380Y-150706666D01*
X30401380Y-151190476D01*
X29385380Y-152206476D02*
X29869190Y-151867809D01*
X29385380Y-151625904D02*
X30401380Y-151625904D01*
X30401380Y-152012952D01*
X30353000Y-152109714D01*
X30304619Y-152158095D01*
X30207857Y-152206476D01*
X30062714Y-152206476D01*
X29965952Y-152158095D01*
X29917571Y-152109714D01*
X29869190Y-152012952D01*
X29869190Y-151625904D01*
X30062714Y-153319238D02*
X29385380Y-153561142D01*
X30062714Y-153803047D01*
X29385380Y-154722285D02*
X29385380Y-154141714D01*
X29385380Y-154432000D02*
X30401380Y-154432000D01*
X30256238Y-154335238D01*
X30159476Y-154238476D01*
X30111095Y-154141714D01*
X29482142Y-155157714D02*
X29433761Y-155206095D01*
X29385380Y-155157714D01*
X29433761Y-155109333D01*
X29482142Y-155157714D01*
X29385380Y-155157714D01*
X30401380Y-155835047D02*
X30401380Y-155931809D01*
X30353000Y-156028571D01*
X30304619Y-156076952D01*
X30207857Y-156125333D01*
X30014333Y-156173714D01*
X29772428Y-156173714D01*
X29578904Y-156125333D01*
X29482142Y-156076952D01*
X29433761Y-156028571D01*
X29385380Y-155931809D01*
X29385380Y-155835047D01*
X29433761Y-155738285D01*
X29482142Y-155689904D01*
X29578904Y-155641523D01*
X29772428Y-155593142D01*
X30014333Y-155593142D01*
X30207857Y-155641523D01*
X30304619Y-155689904D01*
X30353000Y-155738285D01*
X30401380Y-155835047D01*
X28426954Y-136942285D02*
X27749620Y-137135809D01*
X28233430Y-137329333D01*
X27749620Y-137522857D01*
X28426954Y-137716380D01*
X28426954Y-138006666D02*
X27749620Y-138200190D01*
X28233430Y-138393714D01*
X27749620Y-138587238D01*
X28426954Y-138780761D01*
X28426954Y-139071047D02*
X27749620Y-139264571D01*
X28233430Y-139458095D01*
X27749620Y-139651619D01*
X28426954Y-139845142D01*
X27846382Y-140232190D02*
X27798001Y-140280571D01*
X27749620Y-140232190D01*
X27798001Y-140183809D01*
X27846382Y-140232190D01*
X27749620Y-140232190D01*
X27749620Y-140716000D02*
X28426954Y-140716000D01*
X28765620Y-140716000D02*
X28717240Y-140667619D01*
X28668859Y-140716000D01*
X28717240Y-140764380D01*
X28765620Y-140716000D01*
X28668859Y-140716000D01*
X27749620Y-141635238D02*
X28281811Y-141635238D01*
X28378573Y-141586857D01*
X28426954Y-141490095D01*
X28426954Y-141296571D01*
X28378573Y-141199809D01*
X27798001Y-141635238D02*
X27749620Y-141538476D01*
X27749620Y-141296571D01*
X27798001Y-141199809D01*
X27894763Y-141151428D01*
X27991525Y-141151428D01*
X28088287Y-141199809D01*
X28136668Y-141296571D01*
X28136668Y-141538476D01*
X28185049Y-141635238D01*
X27798001Y-142070666D02*
X27749620Y-142167428D01*
X27749620Y-142360952D01*
X27798001Y-142457714D01*
X27894763Y-142506095D01*
X27943144Y-142506095D01*
X28039906Y-142457714D01*
X28088287Y-142360952D01*
X28088287Y-142215809D01*
X28136668Y-142119047D01*
X28233430Y-142070666D01*
X28281811Y-142070666D01*
X28378573Y-142119047D01*
X28426954Y-142215809D01*
X28426954Y-142360952D01*
X28378573Y-142457714D01*
X27798001Y-143376952D02*
X27749620Y-143280190D01*
X27749620Y-143086666D01*
X27798001Y-142989904D01*
X27846382Y-142941523D01*
X27943144Y-142893142D01*
X28233430Y-142893142D01*
X28330192Y-142941523D01*
X28378573Y-142989904D01*
X28426954Y-143086666D01*
X28426954Y-143280190D01*
X28378573Y-143376952D01*
X27749620Y-144247809D02*
X28281811Y-144247809D01*
X28378573Y-144199428D01*
X28426954Y-144102666D01*
X28426954Y-143909142D01*
X28378573Y-143812380D01*
X27798001Y-144247809D02*
X27749620Y-144151047D01*
X27749620Y-143909142D01*
X27798001Y-143812380D01*
X27894763Y-143764000D01*
X27991525Y-143764000D01*
X28088287Y-143812380D01*
X28136668Y-143909142D01*
X28136668Y-144151047D01*
X28185049Y-144247809D01*
X27749620Y-144876761D02*
X27798001Y-144780000D01*
X27894763Y-144731619D01*
X28765620Y-144731619D01*
X27798001Y-145650857D02*
X27749620Y-145554095D01*
X27749620Y-145360571D01*
X27798001Y-145263809D01*
X27894763Y-145215428D01*
X28281811Y-145215428D01*
X28378573Y-145263809D01*
X28426954Y-145360571D01*
X28426954Y-145554095D01*
X28378573Y-145650857D01*
X28281811Y-145699238D01*
X28185049Y-145699238D01*
X28088287Y-145215428D01*
X27749620Y-146570095D02*
X28765620Y-146570095D01*
X27798001Y-146570095D02*
X27749620Y-146473333D01*
X27749620Y-146279809D01*
X27798001Y-146183047D01*
X27846382Y-146134666D01*
X27943144Y-146086285D01*
X28233430Y-146086285D01*
X28330192Y-146134666D01*
X28378573Y-146183047D01*
X28426954Y-146279809D01*
X28426954Y-146473333D01*
X28378573Y-146570095D01*
X27846382Y-147053904D02*
X27798001Y-147102285D01*
X27749620Y-147053904D01*
X27798001Y-147005523D01*
X27846382Y-147053904D01*
X27749620Y-147053904D01*
X27798001Y-147973142D02*
X27749620Y-147876380D01*
X27749620Y-147682857D01*
X27798001Y-147586095D01*
X27846382Y-147537714D01*
X27943144Y-147489333D01*
X28233430Y-147489333D01*
X28330192Y-147537714D01*
X28378573Y-147586095D01*
X28426954Y-147682857D01*
X28426954Y-147876380D01*
X28378573Y-147973142D01*
X27749620Y-148553714D02*
X27798001Y-148456952D01*
X27846382Y-148408571D01*
X27943144Y-148360190D01*
X28233430Y-148360190D01*
X28330192Y-148408571D01*
X28378573Y-148456952D01*
X28426954Y-148553714D01*
X28426954Y-148698857D01*
X28378573Y-148795619D01*
X28330192Y-148844000D01*
X28233430Y-148892380D01*
X27943144Y-148892380D01*
X27846382Y-148844000D01*
X27798001Y-148795619D01*
X27749620Y-148698857D01*
X27749620Y-148553714D01*
X27749620Y-149327809D02*
X28426954Y-149327809D01*
X28330192Y-149327809D02*
X28378573Y-149376190D01*
X28426954Y-149472952D01*
X28426954Y-149618095D01*
X28378573Y-149714857D01*
X28281811Y-149763238D01*
X27749620Y-149763238D01*
X28281811Y-149763238D02*
X28378573Y-149811619D01*
X28426954Y-149908380D01*
X28426954Y-150053523D01*
X28378573Y-150150285D01*
X28281811Y-150198666D01*
X27749620Y-150198666D01*
X28523716Y-152279047D02*
X28572097Y-152182285D01*
X28572097Y-151988761D01*
X28523716Y-151892000D01*
X28426954Y-151795238D01*
X28330192Y-151746857D01*
X28136668Y-151746857D01*
X28039906Y-151795238D01*
X27943144Y-151892000D01*
X27894763Y-151988761D01*
X27894763Y-152182285D01*
X27943144Y-152279047D01*
X28910763Y-152085523D02*
X28862382Y-151843619D01*
X28717240Y-151601714D01*
X28475335Y-151456571D01*
X28233430Y-151408190D01*
X27991525Y-151456571D01*
X27749620Y-151601714D01*
X27604478Y-151843619D01*
X27556097Y-152085523D01*
X27604478Y-152327428D01*
X27749620Y-152569333D01*
X27991525Y-152714476D01*
X28233430Y-152762857D01*
X28475335Y-152714476D01*
X28717240Y-152569333D01*
X28862382Y-152327428D01*
X28910763Y-152085523D01*
X28668859Y-153149904D02*
X28717240Y-153198285D01*
X28765620Y-153295047D01*
X28765620Y-153536952D01*
X28717240Y-153633714D01*
X28668859Y-153682095D01*
X28572097Y-153730476D01*
X28475335Y-153730476D01*
X28330192Y-153682095D01*
X27749620Y-153101523D01*
X27749620Y-153730476D01*
X28765620Y-154359428D02*
X28765620Y-154456190D01*
X28717240Y-154552952D01*
X28668859Y-154601333D01*
X28572097Y-154649714D01*
X28378573Y-154698095D01*
X28136668Y-154698095D01*
X27943144Y-154649714D01*
X27846382Y-154601333D01*
X27798001Y-154552952D01*
X27749620Y-154456190D01*
X27749620Y-154359428D01*
X27798001Y-154262666D01*
X27846382Y-154214285D01*
X27943144Y-154165904D01*
X28136668Y-154117523D01*
X28378573Y-154117523D01*
X28572097Y-154165904D01*
X28668859Y-154214285D01*
X28717240Y-154262666D01*
X28765620Y-154359428D01*
X28668859Y-155085142D02*
X28717240Y-155133523D01*
X28765620Y-155230285D01*
X28765620Y-155472190D01*
X28717240Y-155568952D01*
X28668859Y-155617333D01*
X28572097Y-155665714D01*
X28475335Y-155665714D01*
X28330192Y-155617333D01*
X27749620Y-155036761D01*
X27749620Y-155665714D01*
X28426954Y-156536571D02*
X27749620Y-156536571D01*
X28814001Y-156294666D02*
X28088287Y-156052761D01*
X28088287Y-156681714D01*
D15*
X86530571Y-187221571D02*
X85030571Y-187221571D01*
X86102000Y-186721571D01*
X85030571Y-186221571D01*
X86530571Y-186221571D01*
X86459142Y-185578714D02*
X86530571Y-185364428D01*
X86530571Y-185007285D01*
X86459142Y-184864428D01*
X86387714Y-184793000D01*
X86244857Y-184721571D01*
X86102000Y-184721571D01*
X85959142Y-184793000D01*
X85887714Y-184864428D01*
X85816285Y-185007285D01*
X85744857Y-185293000D01*
X85673428Y-185435857D01*
X85602000Y-185507285D01*
X85459142Y-185578714D01*
X85316285Y-185578714D01*
X85173428Y-185507285D01*
X85102000Y-185435857D01*
X85030571Y-185293000D01*
X85030571Y-184935857D01*
X85102000Y-184721571D01*
X86459142Y-184150142D02*
X86530571Y-183935857D01*
X86530571Y-183578714D01*
X86459142Y-183435857D01*
X86387714Y-183364428D01*
X86244857Y-183293000D01*
X86102000Y-183293000D01*
X85959142Y-183364428D01*
X85887714Y-183435857D01*
X85816285Y-183578714D01*
X85744857Y-183864428D01*
X85673428Y-184007285D01*
X85602000Y-184078714D01*
X85459142Y-184150142D01*
X85316285Y-184150142D01*
X85173428Y-184078714D01*
X85102000Y-184007285D01*
X85030571Y-183864428D01*
X85030571Y-183507285D01*
X85102000Y-183293000D01*
D14*
X29060260Y-163860238D02*
X29060260Y-163666714D01*
X29011880Y-163569952D01*
X28963499Y-163521571D01*
X28818356Y-163424809D01*
X28624832Y-163376428D01*
X28237784Y-163376428D01*
X28141022Y-163424809D01*
X28092641Y-163473190D01*
X28044260Y-163569952D01*
X28044260Y-163763476D01*
X28092641Y-163860238D01*
X28141022Y-163908619D01*
X28237784Y-163957000D01*
X28479689Y-163957000D01*
X28576451Y-163908619D01*
X28624832Y-163860238D01*
X28673213Y-163763476D01*
X28673213Y-163569952D01*
X28624832Y-163473190D01*
X28576451Y-163424809D01*
X28479689Y-163376428D01*
X28431308Y-164392428D02*
X28431308Y-165166523D01*
X28963499Y-165601952D02*
X29011880Y-165650333D01*
X29060260Y-165747095D01*
X29060260Y-165989000D01*
X29011880Y-166085761D01*
X28963499Y-166134142D01*
X28866737Y-166182523D01*
X28769975Y-166182523D01*
X28624832Y-166134142D01*
X28044260Y-165553571D01*
X28044260Y-166182523D01*
X28721594Y-167053380D02*
X28044260Y-167053380D01*
X29108641Y-166811476D02*
X28382927Y-166569571D01*
X28382927Y-167198523D01*
X29060260Y-168214523D02*
X28044260Y-168553190D01*
X29060260Y-168891857D01*
X28044260Y-169375666D02*
X28092641Y-169278904D01*
X28141022Y-169230523D01*
X28237784Y-169182142D01*
X28528070Y-169182142D01*
X28624832Y-169230523D01*
X28673213Y-169278904D01*
X28721594Y-169375666D01*
X28721594Y-169520809D01*
X28673213Y-169617571D01*
X28624832Y-169665952D01*
X28528070Y-169714333D01*
X28237784Y-169714333D01*
X28141022Y-169665952D01*
X28092641Y-169617571D01*
X28044260Y-169520809D01*
X28044260Y-169375666D01*
X28044260Y-170294904D02*
X28092641Y-170198142D01*
X28189403Y-170149761D01*
X29060260Y-170149761D01*
X28721594Y-170536809D02*
X28721594Y-170923857D01*
X29060260Y-170681952D02*
X28189403Y-170681952D01*
X28092641Y-170730333D01*
X28044260Y-170827095D01*
X28044260Y-170923857D01*
X28092641Y-171214142D02*
X28044260Y-171310904D01*
X28044260Y-171504428D01*
X28092641Y-171601190D01*
X28189403Y-171649571D01*
X28237784Y-171649571D01*
X28334546Y-171601190D01*
X28382927Y-171504428D01*
X28382927Y-171359285D01*
X28431308Y-171262523D01*
X28528070Y-171214142D01*
X28576451Y-171214142D01*
X28673213Y-171262523D01*
X28721594Y-171359285D01*
X28721594Y-171504428D01*
X28673213Y-171601190D01*
X26408500Y-162820047D02*
X27424500Y-162820047D01*
X27424500Y-163061952D01*
X27376120Y-163207095D01*
X27279358Y-163303857D01*
X27182596Y-163352238D01*
X26989072Y-163400619D01*
X26843929Y-163400619D01*
X26650405Y-163352238D01*
X26553643Y-163303857D01*
X26456881Y-163207095D01*
X26408500Y-163061952D01*
X26408500Y-162820047D01*
X26505262Y-164416619D02*
X26456881Y-164368238D01*
X26408500Y-164223095D01*
X26408500Y-164126333D01*
X26456881Y-163981190D01*
X26553643Y-163884428D01*
X26650405Y-163836047D01*
X26843929Y-163787666D01*
X26989072Y-163787666D01*
X27182596Y-163836047D01*
X27279358Y-163884428D01*
X27376120Y-163981190D01*
X27424500Y-164126333D01*
X27424500Y-164223095D01*
X27376120Y-164368238D01*
X27327739Y-164416619D01*
X27472881Y-165577761D02*
X26166596Y-164706904D01*
X26698786Y-165868047D02*
X26698786Y-166351857D01*
X26408500Y-165771285D02*
X27424500Y-166109952D01*
X26408500Y-166448619D01*
X26505262Y-167367857D02*
X26456881Y-167319476D01*
X26408500Y-167174333D01*
X26408500Y-167077571D01*
X26456881Y-166932428D01*
X26553643Y-166835666D01*
X26650405Y-166787285D01*
X26843929Y-166738904D01*
X26989072Y-166738904D01*
X27182596Y-166787285D01*
X27279358Y-166835666D01*
X27376120Y-166932428D01*
X27424500Y-167077571D01*
X27424500Y-167174333D01*
X27376120Y-167319476D01*
X27327739Y-167367857D01*
X27472881Y-168529000D02*
X26166596Y-167658142D01*
X26408500Y-168867666D02*
X27424500Y-168867666D01*
X27424500Y-169109571D01*
X27376120Y-169254714D01*
X27279358Y-169351476D01*
X27182596Y-169399857D01*
X26989072Y-169448238D01*
X26843929Y-169448238D01*
X26650405Y-169399857D01*
X26553643Y-169351476D01*
X26456881Y-169254714D01*
X26408500Y-169109571D01*
X26408500Y-168867666D01*
X26505262Y-170464238D02*
X26456881Y-170415857D01*
X26408500Y-170270714D01*
X26408500Y-170173952D01*
X26456881Y-170028809D01*
X26553643Y-169932047D01*
X26650405Y-169883666D01*
X26843929Y-169835285D01*
X26989072Y-169835285D01*
X27182596Y-169883666D01*
X27279358Y-169932047D01*
X27376120Y-170028809D01*
X27424500Y-170173952D01*
X27424500Y-170270714D01*
X27376120Y-170415857D01*
X27327739Y-170464238D01*
X26505262Y-171480238D02*
X26456881Y-171431857D01*
X26408500Y-171286714D01*
X26408500Y-171189952D01*
X26456881Y-171044809D01*
X26553643Y-170948047D01*
X26650405Y-170899666D01*
X26843929Y-170851285D01*
X26989072Y-170851285D01*
X27182596Y-170899666D01*
X27279358Y-170948047D01*
X27376120Y-171044809D01*
X27424500Y-171189952D01*
X27424500Y-171286714D01*
X27376120Y-171431857D01*
X27327739Y-171480238D01*
X85386333Y-161810095D02*
X85386333Y-161326285D01*
X85676619Y-161906857D02*
X84660619Y-161568190D01*
X85676619Y-161229523D01*
X85676619Y-160890857D02*
X84660619Y-160890857D01*
X84660619Y-160503809D01*
X84709000Y-160407047D01*
X84757380Y-160358666D01*
X84854142Y-160310285D01*
X84999285Y-160310285D01*
X85096047Y-160358666D01*
X85144428Y-160407047D01*
X85192809Y-160503809D01*
X85192809Y-160890857D01*
X85676619Y-159294285D02*
X85192809Y-159632952D01*
X85676619Y-159874857D02*
X84660619Y-159874857D01*
X84660619Y-159487809D01*
X84709000Y-159391047D01*
X84757380Y-159342666D01*
X84854142Y-159294285D01*
X84999285Y-159294285D01*
X85096047Y-159342666D01*
X85144428Y-159391047D01*
X85192809Y-159487809D01*
X85192809Y-159874857D01*
X85579857Y-158278285D02*
X85628238Y-158326666D01*
X85676619Y-158471809D01*
X85676619Y-158568571D01*
X85628238Y-158713714D01*
X85531476Y-158810476D01*
X85434714Y-158858857D01*
X85241190Y-158907238D01*
X85096047Y-158907238D01*
X84902523Y-158858857D01*
X84805761Y-158810476D01*
X84709000Y-158713714D01*
X84660619Y-158568571D01*
X84660619Y-158471809D01*
X84709000Y-158326666D01*
X84757380Y-158278285D01*
X85676619Y-157842857D02*
X84660619Y-157842857D01*
X85144428Y-157842857D02*
X85144428Y-157262285D01*
X85676619Y-157262285D02*
X84660619Y-157262285D01*
D11*
X55713333Y-158472142D02*
X55665714Y-158519761D01*
X55522857Y-158567380D01*
X55427619Y-158567380D01*
X55284761Y-158519761D01*
X55189523Y-158424523D01*
X55141904Y-158329285D01*
X55094285Y-158138809D01*
X55094285Y-157995952D01*
X55141904Y-157805476D01*
X55189523Y-157710238D01*
X55284761Y-157615000D01*
X55427619Y-157567380D01*
X55522857Y-157567380D01*
X55665714Y-157615000D01*
X55713333Y-157662619D01*
X56618095Y-157567380D02*
X56141904Y-157567380D01*
X56094285Y-158043571D01*
X56141904Y-157995952D01*
X56237142Y-157948333D01*
X56475238Y-157948333D01*
X56570476Y-157995952D01*
X56618095Y-158043571D01*
X56665714Y-158138809D01*
X56665714Y-158376904D01*
X56618095Y-158472142D01*
X56570476Y-158519761D01*
X56475238Y-158567380D01*
X56237142Y-158567380D01*
X56141904Y-158519761D01*
X56094285Y-158472142D01*
X73144142Y-148153380D02*
X72810809Y-147677190D01*
X72572714Y-148153380D02*
X72572714Y-147153380D01*
X72953666Y-147153380D01*
X73048904Y-147201000D01*
X73096523Y-147248619D01*
X73144142Y-147343857D01*
X73144142Y-147486714D01*
X73096523Y-147581952D01*
X73048904Y-147629571D01*
X72953666Y-147677190D01*
X72572714Y-147677190D01*
X73525095Y-147248619D02*
X73572714Y-147201000D01*
X73667952Y-147153380D01*
X73906047Y-147153380D01*
X74001285Y-147201000D01*
X74048904Y-147248619D01*
X74096523Y-147343857D01*
X74096523Y-147439095D01*
X74048904Y-147581952D01*
X73477476Y-148153380D01*
X74096523Y-148153380D01*
X74715571Y-147153380D02*
X74810809Y-147153380D01*
X74906047Y-147201000D01*
X74953666Y-147248619D01*
X75001285Y-147343857D01*
X75048904Y-147534333D01*
X75048904Y-147772428D01*
X75001285Y-147962904D01*
X74953666Y-148058142D01*
X74906047Y-148105761D01*
X74810809Y-148153380D01*
X74715571Y-148153380D01*
X74620333Y-148105761D01*
X74572714Y-148058142D01*
X74525095Y-147962904D01*
X74477476Y-147772428D01*
X74477476Y-147534333D01*
X74525095Y-147343857D01*
X74572714Y-147248619D01*
X74620333Y-147201000D01*
X74715571Y-147153380D01*
X58666142Y-189047380D02*
X58332809Y-188571190D01*
X58094714Y-189047380D02*
X58094714Y-188047380D01*
X58475666Y-188047380D01*
X58570904Y-188095000D01*
X58618523Y-188142619D01*
X58666142Y-188237857D01*
X58666142Y-188380714D01*
X58618523Y-188475952D01*
X58570904Y-188523571D01*
X58475666Y-188571190D01*
X58094714Y-188571190D01*
X59618523Y-189047380D02*
X59047095Y-189047380D01*
X59332809Y-189047380D02*
X59332809Y-188047380D01*
X59237571Y-188190238D01*
X59142333Y-188285476D01*
X59047095Y-188333095D01*
X60523285Y-188047380D02*
X60047095Y-188047380D01*
X59999476Y-188523571D01*
X60047095Y-188475952D01*
X60142333Y-188428333D01*
X60380428Y-188428333D01*
X60475666Y-188475952D01*
X60523285Y-188523571D01*
X60570904Y-188618809D01*
X60570904Y-188856904D01*
X60523285Y-188952142D01*
X60475666Y-188999761D01*
X60380428Y-189047380D01*
X60142333Y-189047380D01*
X60047095Y-188999761D01*
X59999476Y-188952142D01*
X73144142Y-145232380D02*
X72810809Y-144756190D01*
X72572714Y-145232380D02*
X72572714Y-144232380D01*
X72953666Y-144232380D01*
X73048904Y-144280000D01*
X73096523Y-144327619D01*
X73144142Y-144422857D01*
X73144142Y-144565714D01*
X73096523Y-144660952D01*
X73048904Y-144708571D01*
X72953666Y-144756190D01*
X72572714Y-144756190D01*
X74096523Y-145232380D02*
X73525095Y-145232380D01*
X73810809Y-145232380D02*
X73810809Y-144232380D01*
X73715571Y-144375238D01*
X73620333Y-144470476D01*
X73525095Y-144518095D01*
X74953666Y-144565714D02*
X74953666Y-145232380D01*
X74715571Y-144184761D02*
X74477476Y-144899047D01*
X75096523Y-144899047D01*
X73398142Y-170632380D02*
X73064809Y-170156190D01*
X72826714Y-170632380D02*
X72826714Y-169632380D01*
X73207666Y-169632380D01*
X73302904Y-169680000D01*
X73350523Y-169727619D01*
X73398142Y-169822857D01*
X73398142Y-169965714D01*
X73350523Y-170060952D01*
X73302904Y-170108571D01*
X73207666Y-170156190D01*
X72826714Y-170156190D01*
X74350523Y-170632380D02*
X73779095Y-170632380D01*
X74064809Y-170632380D02*
X74064809Y-169632380D01*
X73969571Y-169775238D01*
X73874333Y-169870476D01*
X73779095Y-169918095D01*
X74731476Y-169727619D02*
X74779095Y-169680000D01*
X74874333Y-169632380D01*
X75112428Y-169632380D01*
X75207666Y-169680000D01*
X75255285Y-169727619D01*
X75302904Y-169822857D01*
X75302904Y-169918095D01*
X75255285Y-170060952D01*
X74683857Y-170632380D01*
X75302904Y-170632380D01*
X35480666Y-183602380D02*
X35480666Y-184316666D01*
X35433047Y-184459523D01*
X35337809Y-184554761D01*
X35194952Y-184602380D01*
X35099714Y-184602380D01*
X35861619Y-183602380D02*
X36480666Y-183602380D01*
X36147333Y-183983333D01*
X36290190Y-183983333D01*
X36385428Y-184030952D01*
X36433047Y-184078571D01*
X36480666Y-184173809D01*
X36480666Y-184411904D01*
X36433047Y-184507142D01*
X36385428Y-184554761D01*
X36290190Y-184602380D01*
X36004476Y-184602380D01*
X35909238Y-184554761D01*
X35861619Y-184507142D01*
X67691095Y-151344380D02*
X67691095Y-152153904D01*
X67738714Y-152249142D01*
X67786333Y-152296761D01*
X67881571Y-152344380D01*
X68072047Y-152344380D01*
X68167285Y-152296761D01*
X68214904Y-152249142D01*
X68262523Y-152153904D01*
X68262523Y-151344380D01*
X68643476Y-151344380D02*
X69262523Y-151344380D01*
X68929190Y-151725333D01*
X69072047Y-151725333D01*
X69167285Y-151772952D01*
X69214904Y-151820571D01*
X69262523Y-151915809D01*
X69262523Y-152153904D01*
X69214904Y-152249142D01*
X69167285Y-152296761D01*
X69072047Y-152344380D01*
X68786333Y-152344380D01*
X68691095Y-152296761D01*
X68643476Y-152249142D01*
X73525142Y-158059380D02*
X73191809Y-157583190D01*
X72953714Y-158059380D02*
X72953714Y-157059380D01*
X73334666Y-157059380D01*
X73429904Y-157107000D01*
X73477523Y-157154619D01*
X73525142Y-157249857D01*
X73525142Y-157392714D01*
X73477523Y-157487952D01*
X73429904Y-157535571D01*
X73334666Y-157583190D01*
X72953714Y-157583190D01*
X73906095Y-157154619D02*
X73953714Y-157107000D01*
X74048952Y-157059380D01*
X74287047Y-157059380D01*
X74382285Y-157107000D01*
X74429904Y-157154619D01*
X74477523Y-157249857D01*
X74477523Y-157345095D01*
X74429904Y-157487952D01*
X73858476Y-158059380D01*
X74477523Y-158059380D01*
X75429904Y-158059380D02*
X74858476Y-158059380D01*
X75144190Y-158059380D02*
X75144190Y-157059380D01*
X75048952Y-157202238D01*
X74953714Y-157297476D01*
X74858476Y-157345095D01*
X71493142Y-152249142D02*
X71445523Y-152296761D01*
X71302666Y-152344380D01*
X71207428Y-152344380D01*
X71064571Y-152296761D01*
X70969333Y-152201523D01*
X70921714Y-152106285D01*
X70874095Y-151915809D01*
X70874095Y-151772952D01*
X70921714Y-151582476D01*
X70969333Y-151487238D01*
X71064571Y-151392000D01*
X71207428Y-151344380D01*
X71302666Y-151344380D01*
X71445523Y-151392000D01*
X71493142Y-151439619D01*
X72445523Y-152344380D02*
X71874095Y-152344380D01*
X72159809Y-152344380D02*
X72159809Y-151344380D01*
X72064571Y-151487238D01*
X71969333Y-151582476D01*
X71874095Y-151630095D01*
X72778857Y-151344380D02*
X73397904Y-151344380D01*
X73064571Y-151725333D01*
X73207428Y-151725333D01*
X73302666Y-151772952D01*
X73350285Y-151820571D01*
X73397904Y-151915809D01*
X73397904Y-152153904D01*
X73350285Y-152249142D01*
X73302666Y-152296761D01*
X73207428Y-152344380D01*
X72921714Y-152344380D01*
X72826476Y-152296761D01*
X72778857Y-152249142D01*
X56602333Y-150058380D02*
X56269000Y-149582190D01*
X56030904Y-150058380D02*
X56030904Y-149058380D01*
X56411857Y-149058380D01*
X56507095Y-149106000D01*
X56554714Y-149153619D01*
X56602333Y-149248857D01*
X56602333Y-149391714D01*
X56554714Y-149486952D01*
X56507095Y-149534571D01*
X56411857Y-149582190D01*
X56030904Y-149582190D01*
X57459476Y-149391714D02*
X57459476Y-150058380D01*
X57221380Y-149010761D02*
X56983285Y-149725047D01*
X57602333Y-149725047D01*
X40534333Y-150058380D02*
X40201000Y-149582190D01*
X39962904Y-150058380D02*
X39962904Y-149058380D01*
X40343857Y-149058380D01*
X40439095Y-149106000D01*
X40486714Y-149153619D01*
X40534333Y-149248857D01*
X40534333Y-149391714D01*
X40486714Y-149486952D01*
X40439095Y-149534571D01*
X40343857Y-149582190D01*
X39962904Y-149582190D01*
X41439095Y-149058380D02*
X40962904Y-149058380D01*
X40915285Y-149534571D01*
X40962904Y-149486952D01*
X41058142Y-149439333D01*
X41296238Y-149439333D01*
X41391476Y-149486952D01*
X41439095Y-149534571D01*
X41486714Y-149629809D01*
X41486714Y-149867904D01*
X41439095Y-149963142D01*
X41391476Y-150010761D01*
X41296238Y-150058380D01*
X41058142Y-150058380D01*
X40962904Y-150010761D01*
X40915285Y-149963142D01*
X39393904Y-165552380D02*
X39393904Y-164552380D01*
X39632000Y-164552380D01*
X39774857Y-164600000D01*
X39870095Y-164695238D01*
X39917714Y-164790476D01*
X39965333Y-164980952D01*
X39965333Y-165123809D01*
X39917714Y-165314285D01*
X39870095Y-165409523D01*
X39774857Y-165504761D01*
X39632000Y-165552380D01*
X39393904Y-165552380D01*
X40298666Y-164552380D02*
X40917714Y-164552380D01*
X40584380Y-164933333D01*
X40727238Y-164933333D01*
X40822476Y-164980952D01*
X40870095Y-165028571D01*
X40917714Y-165123809D01*
X40917714Y-165361904D01*
X40870095Y-165457142D01*
X40822476Y-165504761D01*
X40727238Y-165552380D01*
X40441523Y-165552380D01*
X40346285Y-165504761D01*
X40298666Y-165457142D01*
X57205714Y-176474380D02*
X57205714Y-175474380D01*
X57443809Y-175474380D01*
X57586666Y-175522000D01*
X57681904Y-175617238D01*
X57729523Y-175712476D01*
X57777142Y-175902952D01*
X57777142Y-176045809D01*
X57729523Y-176236285D01*
X57681904Y-176331523D01*
X57586666Y-176426761D01*
X57443809Y-176474380D01*
X57205714Y-176474380D01*
X58729523Y-176474380D02*
X58158095Y-176474380D01*
X58443809Y-176474380D02*
X58443809Y-175474380D01*
X58348571Y-175617238D01*
X58253333Y-175712476D01*
X58158095Y-175760095D01*
X59348571Y-175474380D02*
X59443809Y-175474380D01*
X59539047Y-175522000D01*
X59586666Y-175569619D01*
X59634285Y-175664857D01*
X59681904Y-175855333D01*
X59681904Y-176093428D01*
X59634285Y-176283904D01*
X59586666Y-176379142D01*
X59539047Y-176426761D01*
X59443809Y-176474380D01*
X59348571Y-176474380D01*
X59253333Y-176426761D01*
X59205714Y-176379142D01*
X59158095Y-176283904D01*
X59110476Y-176093428D01*
X59110476Y-175855333D01*
X59158095Y-175664857D01*
X59205714Y-175569619D01*
X59253333Y-175522000D01*
X59348571Y-175474380D01*
X52538333Y-179903380D02*
X52062142Y-179903380D01*
X52062142Y-178903380D01*
X53395476Y-179903380D02*
X52824047Y-179903380D01*
X53109761Y-179903380D02*
X53109761Y-178903380D01*
X53014523Y-179046238D01*
X52919285Y-179141476D01*
X52824047Y-179189095D01*
X55325261Y-169711619D02*
X55230023Y-169664000D01*
X55134785Y-169568761D01*
X54991928Y-169425904D01*
X54896690Y-169378285D01*
X54801452Y-169378285D01*
X54849071Y-169616380D02*
X54753833Y-169568761D01*
X54658595Y-169473523D01*
X54610976Y-169283047D01*
X54610976Y-168949714D01*
X54658595Y-168759238D01*
X54753833Y-168664000D01*
X54849071Y-168616380D01*
X55039547Y-168616380D01*
X55134785Y-168664000D01*
X55230023Y-168759238D01*
X55277642Y-168949714D01*
X55277642Y-169283047D01*
X55230023Y-169473523D01*
X55134785Y-169568761D01*
X55039547Y-169616380D01*
X54849071Y-169616380D01*
X56230023Y-169616380D02*
X55658595Y-169616380D01*
X55944309Y-169616380D02*
X55944309Y-168616380D01*
X55849071Y-168759238D01*
X55753833Y-168854476D01*
X55658595Y-168902095D01*
X34184333Y-155678142D02*
X34136714Y-155725761D01*
X33993857Y-155773380D01*
X33898619Y-155773380D01*
X33755761Y-155725761D01*
X33660523Y-155630523D01*
X33612904Y-155535285D01*
X33565285Y-155344809D01*
X33565285Y-155201952D01*
X33612904Y-155011476D01*
X33660523Y-154916238D01*
X33755761Y-154821000D01*
X33898619Y-154773380D01*
X33993857Y-154773380D01*
X34136714Y-154821000D01*
X34184333Y-154868619D01*
X34755761Y-155201952D02*
X34660523Y-155154333D01*
X34612904Y-155106714D01*
X34565285Y-155011476D01*
X34565285Y-154963857D01*
X34612904Y-154868619D01*
X34660523Y-154821000D01*
X34755761Y-154773380D01*
X34946238Y-154773380D01*
X35041476Y-154821000D01*
X35089095Y-154868619D01*
X35136714Y-154963857D01*
X35136714Y-155011476D01*
X35089095Y-155106714D01*
X35041476Y-155154333D01*
X34946238Y-155201952D01*
X34755761Y-155201952D01*
X34660523Y-155249571D01*
X34612904Y-155297190D01*
X34565285Y-155392428D01*
X34565285Y-155582904D01*
X34612904Y-155678142D01*
X34660523Y-155725761D01*
X34755761Y-155773380D01*
X34946238Y-155773380D01*
X35041476Y-155725761D01*
X35089095Y-155678142D01*
X35136714Y-155582904D01*
X35136714Y-155392428D01*
X35089095Y-155297190D01*
X35041476Y-155249571D01*
X34946238Y-155201952D01*
X62952333Y-150058380D02*
X62619000Y-149582190D01*
X62380904Y-150058380D02*
X62380904Y-149058380D01*
X62761857Y-149058380D01*
X62857095Y-149106000D01*
X62904714Y-149153619D01*
X62952333Y-149248857D01*
X62952333Y-149391714D01*
X62904714Y-149486952D01*
X62857095Y-149534571D01*
X62761857Y-149582190D01*
X62380904Y-149582190D01*
X63285666Y-149058380D02*
X63904714Y-149058380D01*
X63571380Y-149439333D01*
X63714238Y-149439333D01*
X63809476Y-149486952D01*
X63857095Y-149534571D01*
X63904714Y-149629809D01*
X63904714Y-149867904D01*
X63857095Y-149963142D01*
X63809476Y-150010761D01*
X63714238Y-150058380D01*
X63428523Y-150058380D01*
X63333285Y-150010761D01*
X63285666Y-149963142D01*
X65881642Y-178279380D02*
X65548309Y-177803190D01*
X65310214Y-178279380D02*
X65310214Y-177279380D01*
X65691166Y-177279380D01*
X65786404Y-177327000D01*
X65834023Y-177374619D01*
X65881642Y-177469857D01*
X65881642Y-177612714D01*
X65834023Y-177707952D01*
X65786404Y-177755571D01*
X65691166Y-177803190D01*
X65310214Y-177803190D01*
X66834023Y-178279380D02*
X66262595Y-178279380D01*
X66548309Y-178279380D02*
X66548309Y-177279380D01*
X66453071Y-177422238D01*
X66357833Y-177517476D01*
X66262595Y-177565095D01*
X67167357Y-177279380D02*
X67786404Y-177279380D01*
X67453071Y-177660333D01*
X67595928Y-177660333D01*
X67691166Y-177707952D01*
X67738785Y-177755571D01*
X67786404Y-177850809D01*
X67786404Y-178088904D01*
X67738785Y-178184142D01*
X67691166Y-178231761D01*
X67595928Y-178279380D01*
X67310214Y-178279380D01*
X67214976Y-178231761D01*
X67167357Y-178184142D01*
X55276761Y-173902619D02*
X55181523Y-173855000D01*
X55086285Y-173759761D01*
X54943428Y-173616904D01*
X54848190Y-173569285D01*
X54752952Y-173569285D01*
X54800571Y-173807380D02*
X54705333Y-173759761D01*
X54610095Y-173664523D01*
X54562476Y-173474047D01*
X54562476Y-173140714D01*
X54610095Y-172950238D01*
X54705333Y-172855000D01*
X54800571Y-172807380D01*
X54991047Y-172807380D01*
X55086285Y-172855000D01*
X55181523Y-172950238D01*
X55229142Y-173140714D01*
X55229142Y-173474047D01*
X55181523Y-173664523D01*
X55086285Y-173759761D01*
X54991047Y-173807380D01*
X54800571Y-173807380D01*
X55610095Y-172902619D02*
X55657714Y-172855000D01*
X55752952Y-172807380D01*
X55991047Y-172807380D01*
X56086285Y-172855000D01*
X56133904Y-172902619D01*
X56181523Y-172997857D01*
X56181523Y-173093095D01*
X56133904Y-173235952D01*
X55562476Y-173807380D01*
X56181523Y-173807380D01*
X49450666Y-145121380D02*
X49450666Y-145835666D01*
X49403047Y-145978523D01*
X49307809Y-146073761D01*
X49164952Y-146121380D01*
X49069714Y-146121380D01*
X50450666Y-146121380D02*
X49879238Y-146121380D01*
X50164952Y-146121380D02*
X50164952Y-145121380D01*
X50069714Y-145264238D01*
X49974476Y-145359476D01*
X49879238Y-145407095D01*
X51816095Y-188047380D02*
X51816095Y-188856904D01*
X51863714Y-188952142D01*
X51911333Y-188999761D01*
X52006571Y-189047380D01*
X52197047Y-189047380D01*
X52292285Y-188999761D01*
X52339904Y-188952142D01*
X52387523Y-188856904D01*
X52387523Y-188047380D01*
X52816095Y-188142619D02*
X52863714Y-188095000D01*
X52958952Y-188047380D01*
X53197047Y-188047380D01*
X53292285Y-188095000D01*
X53339904Y-188142619D01*
X53387523Y-188237857D01*
X53387523Y-188333095D01*
X53339904Y-188475952D01*
X52768476Y-189047380D01*
X53387523Y-189047380D01*
X81351380Y-153948595D02*
X80351380Y-153948595D01*
X80351380Y-153710500D01*
X80399000Y-153567642D01*
X80494238Y-153472404D01*
X80589476Y-153424785D01*
X80779952Y-153377166D01*
X80922809Y-153377166D01*
X81113285Y-153424785D01*
X81208523Y-153472404D01*
X81303761Y-153567642D01*
X81351380Y-153710500D01*
X81351380Y-153948595D01*
X80351380Y-153043833D02*
X80351380Y-152377166D01*
X81351380Y-152805738D01*
X55745142Y-183618142D02*
X55697523Y-183665761D01*
X55554666Y-183713380D01*
X55459428Y-183713380D01*
X55316571Y-183665761D01*
X55221333Y-183570523D01*
X55173714Y-183475285D01*
X55126095Y-183284809D01*
X55126095Y-183141952D01*
X55173714Y-182951476D01*
X55221333Y-182856238D01*
X55316571Y-182761000D01*
X55459428Y-182713380D01*
X55554666Y-182713380D01*
X55697523Y-182761000D01*
X55745142Y-182808619D01*
X56697523Y-183713380D02*
X56126095Y-183713380D01*
X56411809Y-183713380D02*
X56411809Y-182713380D01*
X56316571Y-182856238D01*
X56221333Y-182951476D01*
X56126095Y-182999095D01*
X57649904Y-183713380D02*
X57078476Y-183713380D01*
X57364190Y-183713380D02*
X57364190Y-182713380D01*
X57268952Y-182856238D01*
X57173714Y-182951476D01*
X57078476Y-182999095D01*
X76156166Y-171597380D02*
X76156166Y-172311666D01*
X76108547Y-172454523D01*
X76013309Y-172549761D01*
X75870452Y-172597380D01*
X75775214Y-172597380D01*
X77060928Y-171930714D02*
X77060928Y-172597380D01*
X76822833Y-171549761D02*
X76584738Y-172264047D01*
X77203785Y-172264047D01*
X34184333Y-152852380D02*
X33851000Y-152376190D01*
X33612904Y-152852380D02*
X33612904Y-151852380D01*
X33993857Y-151852380D01*
X34089095Y-151900000D01*
X34136714Y-151947619D01*
X34184333Y-152042857D01*
X34184333Y-152185714D01*
X34136714Y-152280952D01*
X34089095Y-152328571D01*
X33993857Y-152376190D01*
X33612904Y-152376190D01*
X34660523Y-152852380D02*
X34851000Y-152852380D01*
X34946238Y-152804761D01*
X34993857Y-152757142D01*
X35089095Y-152614285D01*
X35136714Y-152423809D01*
X35136714Y-152042857D01*
X35089095Y-151947619D01*
X35041476Y-151900000D01*
X34946238Y-151852380D01*
X34755761Y-151852380D01*
X34660523Y-151900000D01*
X34612904Y-151947619D01*
X34565285Y-152042857D01*
X34565285Y-152280952D01*
X34612904Y-152376190D01*
X34660523Y-152423809D01*
X34755761Y-152471428D01*
X34946238Y-152471428D01*
X35041476Y-152423809D01*
X35089095Y-152376190D01*
X35136714Y-152280952D01*
X55276761Y-165520619D02*
X55181523Y-165473000D01*
X55086285Y-165377761D01*
X54943428Y-165234904D01*
X54848190Y-165187285D01*
X54752952Y-165187285D01*
X54800571Y-165425380D02*
X54705333Y-165377761D01*
X54610095Y-165282523D01*
X54562476Y-165092047D01*
X54562476Y-164758714D01*
X54610095Y-164568238D01*
X54705333Y-164473000D01*
X54800571Y-164425380D01*
X54991047Y-164425380D01*
X55086285Y-164473000D01*
X55181523Y-164568238D01*
X55229142Y-164758714D01*
X55229142Y-165092047D01*
X55181523Y-165282523D01*
X55086285Y-165377761D01*
X54991047Y-165425380D01*
X54800571Y-165425380D01*
X55562476Y-164425380D02*
X56181523Y-164425380D01*
X55848190Y-164806333D01*
X55991047Y-164806333D01*
X56086285Y-164853952D01*
X56133904Y-164901571D01*
X56181523Y-164996809D01*
X56181523Y-165234904D01*
X56133904Y-165330142D01*
X56086285Y-165377761D01*
X55991047Y-165425380D01*
X55705333Y-165425380D01*
X55610095Y-165377761D01*
X55562476Y-165330142D01*
X73525142Y-163901380D02*
X73191809Y-163425190D01*
X72953714Y-163901380D02*
X72953714Y-162901380D01*
X73334666Y-162901380D01*
X73429904Y-162949000D01*
X73477523Y-162996619D01*
X73525142Y-163091857D01*
X73525142Y-163234714D01*
X73477523Y-163329952D01*
X73429904Y-163377571D01*
X73334666Y-163425190D01*
X72953714Y-163425190D01*
X73906095Y-162996619D02*
X73953714Y-162949000D01*
X74048952Y-162901380D01*
X74287047Y-162901380D01*
X74382285Y-162949000D01*
X74429904Y-162996619D01*
X74477523Y-163091857D01*
X74477523Y-163187095D01*
X74429904Y-163329952D01*
X73858476Y-163901380D01*
X74477523Y-163901380D01*
X74810857Y-162901380D02*
X75429904Y-162901380D01*
X75096571Y-163282333D01*
X75239428Y-163282333D01*
X75334666Y-163329952D01*
X75382285Y-163377571D01*
X75429904Y-163472809D01*
X75429904Y-163710904D01*
X75382285Y-163806142D01*
X75334666Y-163853761D01*
X75239428Y-163901380D01*
X74953714Y-163901380D01*
X74858476Y-163853761D01*
X74810857Y-163806142D01*
X66889333Y-167616142D02*
X66841714Y-167663761D01*
X66698857Y-167711380D01*
X66603619Y-167711380D01*
X66460761Y-167663761D01*
X66365523Y-167568523D01*
X66317904Y-167473285D01*
X66270285Y-167282809D01*
X66270285Y-167139952D01*
X66317904Y-166949476D01*
X66365523Y-166854238D01*
X66460761Y-166759000D01*
X66603619Y-166711380D01*
X66698857Y-166711380D01*
X66841714Y-166759000D01*
X66889333Y-166806619D01*
X67222666Y-166711380D02*
X67841714Y-166711380D01*
X67508380Y-167092333D01*
X67651238Y-167092333D01*
X67746476Y-167139952D01*
X67794095Y-167187571D01*
X67841714Y-167282809D01*
X67841714Y-167520904D01*
X67794095Y-167616142D01*
X67746476Y-167663761D01*
X67651238Y-167711380D01*
X67365523Y-167711380D01*
X67270285Y-167663761D01*
X67222666Y-167616142D01*
X38227095Y-186777380D02*
X38227095Y-187586904D01*
X38274714Y-187682142D01*
X38322333Y-187729761D01*
X38417571Y-187777380D01*
X38608047Y-187777380D01*
X38703285Y-187729761D01*
X38750904Y-187682142D01*
X38798523Y-187586904D01*
X38798523Y-186777380D01*
X39798523Y-187777380D02*
X39227095Y-187777380D01*
X39512809Y-187777380D02*
X39512809Y-186777380D01*
X39417571Y-186920238D01*
X39322333Y-187015476D01*
X39227095Y-187063095D01*
X81224380Y-167076285D02*
X80224380Y-167076285D01*
X80224380Y-166838190D01*
X80272000Y-166695333D01*
X80367238Y-166600095D01*
X80462476Y-166552476D01*
X80652952Y-166504857D01*
X80795809Y-166504857D01*
X80986285Y-166552476D01*
X81081523Y-166600095D01*
X81176761Y-166695333D01*
X81224380Y-166838190D01*
X81224380Y-167076285D01*
X81224380Y-165552476D02*
X81224380Y-166123904D01*
X81224380Y-165838190D02*
X80224380Y-165838190D01*
X80367238Y-165933428D01*
X80462476Y-166028666D01*
X80510095Y-166123904D01*
X81224380Y-164600095D02*
X81224380Y-165171523D01*
X81224380Y-164885809D02*
X80224380Y-164885809D01*
X80367238Y-164981047D01*
X80462476Y-165076285D01*
X80510095Y-165171523D01*
X47712333Y-183491142D02*
X47664714Y-183538761D01*
X47521857Y-183586380D01*
X47426619Y-183586380D01*
X47283761Y-183538761D01*
X47188523Y-183443523D01*
X47140904Y-183348285D01*
X47093285Y-183157809D01*
X47093285Y-183014952D01*
X47140904Y-182824476D01*
X47188523Y-182729238D01*
X47283761Y-182634000D01*
X47426619Y-182586380D01*
X47521857Y-182586380D01*
X47664714Y-182634000D01*
X47712333Y-182681619D01*
X48093285Y-182681619D02*
X48140904Y-182634000D01*
X48236142Y-182586380D01*
X48474238Y-182586380D01*
X48569476Y-182634000D01*
X48617095Y-182681619D01*
X48664714Y-182776857D01*
X48664714Y-182872095D01*
X48617095Y-183014952D01*
X48045666Y-183586380D01*
X48664714Y-183586380D01*
X45172333Y-181586142D02*
X45124714Y-181633761D01*
X44981857Y-181681380D01*
X44886619Y-181681380D01*
X44743761Y-181633761D01*
X44648523Y-181538523D01*
X44600904Y-181443285D01*
X44553285Y-181252809D01*
X44553285Y-181109952D01*
X44600904Y-180919476D01*
X44648523Y-180824238D01*
X44743761Y-180729000D01*
X44886619Y-180681380D01*
X44981857Y-180681380D01*
X45124714Y-180729000D01*
X45172333Y-180776619D01*
X46124714Y-181681380D02*
X45553285Y-181681380D01*
X45839000Y-181681380D02*
X45839000Y-180681380D01*
X45743761Y-180824238D01*
X45648523Y-180919476D01*
X45553285Y-180967095D01*
X29868904Y-165501580D02*
X29868904Y-164501580D01*
X30107000Y-164501580D01*
X30249857Y-164549200D01*
X30345095Y-164644438D01*
X30392714Y-164739676D01*
X30440333Y-164930152D01*
X30440333Y-165073009D01*
X30392714Y-165263485D01*
X30345095Y-165358723D01*
X30249857Y-165453961D01*
X30107000Y-165501580D01*
X29868904Y-165501580D01*
X31297476Y-164834914D02*
X31297476Y-165501580D01*
X31059380Y-164453961D02*
X30821285Y-165168247D01*
X31440333Y-165168247D01*
X66032142Y-183740380D02*
X65698809Y-183264190D01*
X65460714Y-183740380D02*
X65460714Y-182740380D01*
X65841666Y-182740380D01*
X65936904Y-182788000D01*
X65984523Y-182835619D01*
X66032142Y-182930857D01*
X66032142Y-183073714D01*
X65984523Y-183168952D01*
X65936904Y-183216571D01*
X65841666Y-183264190D01*
X65460714Y-183264190D01*
X66984523Y-183740380D02*
X66413095Y-183740380D01*
X66698809Y-183740380D02*
X66698809Y-182740380D01*
X66603571Y-182883238D01*
X66508333Y-182978476D01*
X66413095Y-183026095D01*
X67555952Y-183168952D02*
X67460714Y-183121333D01*
X67413095Y-183073714D01*
X67365476Y-182978476D01*
X67365476Y-182930857D01*
X67413095Y-182835619D01*
X67460714Y-182788000D01*
X67555952Y-182740380D01*
X67746428Y-182740380D01*
X67841666Y-182788000D01*
X67889285Y-182835619D01*
X67936904Y-182930857D01*
X67936904Y-182978476D01*
X67889285Y-183073714D01*
X67841666Y-183121333D01*
X67746428Y-183168952D01*
X67555952Y-183168952D01*
X67460714Y-183216571D01*
X67413095Y-183264190D01*
X67365476Y-183359428D01*
X67365476Y-183549904D01*
X67413095Y-183645142D01*
X67460714Y-183692761D01*
X67555952Y-183740380D01*
X67746428Y-183740380D01*
X67841666Y-183692761D01*
X67889285Y-183645142D01*
X67936904Y-183549904D01*
X67936904Y-183359428D01*
X67889285Y-183264190D01*
X67841666Y-183216571D01*
X67746428Y-183168952D01*
X47011333Y-150058380D02*
X46678000Y-149582190D01*
X46439904Y-150058380D02*
X46439904Y-149058380D01*
X46820857Y-149058380D01*
X46916095Y-149106000D01*
X46963714Y-149153619D01*
X47011333Y-149248857D01*
X47011333Y-149391714D01*
X46963714Y-149486952D01*
X46916095Y-149534571D01*
X46820857Y-149582190D01*
X46439904Y-149582190D01*
X47392285Y-149153619D02*
X47439904Y-149106000D01*
X47535142Y-149058380D01*
X47773238Y-149058380D01*
X47868476Y-149106000D01*
X47916095Y-149153619D01*
X47963714Y-149248857D01*
X47963714Y-149344095D01*
X47916095Y-149486952D01*
X47344666Y-150058380D01*
X47963714Y-150058380D01*
X74255333Y-167616142D02*
X74207714Y-167663761D01*
X74064857Y-167711380D01*
X73969619Y-167711380D01*
X73826761Y-167663761D01*
X73731523Y-167568523D01*
X73683904Y-167473285D01*
X73636285Y-167282809D01*
X73636285Y-167139952D01*
X73683904Y-166949476D01*
X73731523Y-166854238D01*
X73826761Y-166759000D01*
X73969619Y-166711380D01*
X74064857Y-166711380D01*
X74207714Y-166759000D01*
X74255333Y-166806619D01*
X75112476Y-167044714D02*
X75112476Y-167711380D01*
X74874380Y-166663761D02*
X74636285Y-167378047D01*
X75255333Y-167378047D01*
X66032142Y-189047380D02*
X65698809Y-188571190D01*
X65460714Y-189047380D02*
X65460714Y-188047380D01*
X65841666Y-188047380D01*
X65936904Y-188095000D01*
X65984523Y-188142619D01*
X66032142Y-188237857D01*
X66032142Y-188380714D01*
X65984523Y-188475952D01*
X65936904Y-188523571D01*
X65841666Y-188571190D01*
X65460714Y-188571190D01*
X66984523Y-189047380D02*
X66413095Y-189047380D01*
X66698809Y-189047380D02*
X66698809Y-188047380D01*
X66603571Y-188190238D01*
X66508333Y-188285476D01*
X66413095Y-188333095D01*
X67317857Y-188047380D02*
X67984523Y-188047380D01*
X67555952Y-189047380D01*
X62476142Y-189047380D02*
X62142809Y-188571190D01*
X61904714Y-189047380D02*
X61904714Y-188047380D01*
X62285666Y-188047380D01*
X62380904Y-188095000D01*
X62428523Y-188142619D01*
X62476142Y-188237857D01*
X62476142Y-188380714D01*
X62428523Y-188475952D01*
X62380904Y-188523571D01*
X62285666Y-188571190D01*
X61904714Y-188571190D01*
X63428523Y-189047380D02*
X62857095Y-189047380D01*
X63142809Y-189047380D02*
X63142809Y-188047380D01*
X63047571Y-188190238D01*
X62952333Y-188285476D01*
X62857095Y-188333095D01*
X64285666Y-188047380D02*
X64095190Y-188047380D01*
X63999952Y-188095000D01*
X63952333Y-188142619D01*
X63857095Y-188285476D01*
X63809476Y-188475952D01*
X63809476Y-188856904D01*
X63857095Y-188952142D01*
X63904714Y-188999761D01*
X63999952Y-189047380D01*
X64190428Y-189047380D01*
X64285666Y-188999761D01*
X64333285Y-188952142D01*
X64380904Y-188856904D01*
X64380904Y-188618809D01*
X64333285Y-188523571D01*
X64285666Y-188475952D01*
X64190428Y-188428333D01*
X63999952Y-188428333D01*
X63904714Y-188475952D01*
X63857095Y-188523571D01*
X63809476Y-188618809D01*
X65905142Y-175358380D02*
X65571809Y-174882190D01*
X65333714Y-175358380D02*
X65333714Y-174358380D01*
X65714666Y-174358380D01*
X65809904Y-174406000D01*
X65857523Y-174453619D01*
X65905142Y-174548857D01*
X65905142Y-174691714D01*
X65857523Y-174786952D01*
X65809904Y-174834571D01*
X65714666Y-174882190D01*
X65333714Y-174882190D01*
X66857523Y-175358380D02*
X66286095Y-175358380D01*
X66571809Y-175358380D02*
X66571809Y-174358380D01*
X66476571Y-174501238D01*
X66381333Y-174596476D01*
X66286095Y-174644095D01*
X67809904Y-175358380D02*
X67238476Y-175358380D01*
X67524190Y-175358380D02*
X67524190Y-174358380D01*
X67428952Y-174501238D01*
X67333714Y-174596476D01*
X67238476Y-174644095D01*
X40534333Y-152852380D02*
X40201000Y-152376190D01*
X39962904Y-152852380D02*
X39962904Y-151852380D01*
X40343857Y-151852380D01*
X40439095Y-151900000D01*
X40486714Y-151947619D01*
X40534333Y-152042857D01*
X40534333Y-152185714D01*
X40486714Y-152280952D01*
X40439095Y-152328571D01*
X40343857Y-152376190D01*
X39962904Y-152376190D01*
X41391476Y-151852380D02*
X41201000Y-151852380D01*
X41105761Y-151900000D01*
X41058142Y-151947619D01*
X40962904Y-152090476D01*
X40915285Y-152280952D01*
X40915285Y-152661904D01*
X40962904Y-152757142D01*
X41010523Y-152804761D01*
X41105761Y-152852380D01*
X41296238Y-152852380D01*
X41391476Y-152804761D01*
X41439095Y-152757142D01*
X41486714Y-152661904D01*
X41486714Y-152423809D01*
X41439095Y-152328571D01*
X41391476Y-152280952D01*
X41296238Y-152233333D01*
X41105761Y-152233333D01*
X41010523Y-152280952D01*
X40962904Y-152328571D01*
X40915285Y-152423809D01*
X34184333Y-150058380D02*
X33851000Y-149582190D01*
X33612904Y-150058380D02*
X33612904Y-149058380D01*
X33993857Y-149058380D01*
X34089095Y-149106000D01*
X34136714Y-149153619D01*
X34184333Y-149248857D01*
X34184333Y-149391714D01*
X34136714Y-149486952D01*
X34089095Y-149534571D01*
X33993857Y-149582190D01*
X33612904Y-149582190D01*
X34755761Y-149486952D02*
X34660523Y-149439333D01*
X34612904Y-149391714D01*
X34565285Y-149296476D01*
X34565285Y-149248857D01*
X34612904Y-149153619D01*
X34660523Y-149106000D01*
X34755761Y-149058380D01*
X34946238Y-149058380D01*
X35041476Y-149106000D01*
X35089095Y-149153619D01*
X35136714Y-149248857D01*
X35136714Y-149296476D01*
X35089095Y-149391714D01*
X35041476Y-149439333D01*
X34946238Y-149486952D01*
X34755761Y-149486952D01*
X34660523Y-149534571D01*
X34612904Y-149582190D01*
X34565285Y-149677428D01*
X34565285Y-149867904D01*
X34612904Y-149963142D01*
X34660523Y-150010761D01*
X34755761Y-150058380D01*
X34946238Y-150058380D01*
X35041476Y-150010761D01*
X35089095Y-149963142D01*
X35136714Y-149867904D01*
X35136714Y-149677428D01*
X35089095Y-149582190D01*
X35041476Y-149534571D01*
X34946238Y-149486952D01*
X37298333Y-158821380D02*
X36965000Y-158345190D01*
X36726904Y-158821380D02*
X36726904Y-157821380D01*
X37107857Y-157821380D01*
X37203095Y-157869000D01*
X37250714Y-157916619D01*
X37298333Y-158011857D01*
X37298333Y-158154714D01*
X37250714Y-158249952D01*
X37203095Y-158297571D01*
X37107857Y-158345190D01*
X36726904Y-158345190D01*
X38250714Y-158821380D02*
X37679285Y-158821380D01*
X37965000Y-158821380D02*
X37965000Y-157821380D01*
X37869761Y-157964238D01*
X37774523Y-158059476D01*
X37679285Y-158107095D01*
X55927666Y-145121380D02*
X55927666Y-145835666D01*
X55880047Y-145978523D01*
X55784809Y-146073761D01*
X55641952Y-146121380D01*
X55546714Y-146121380D01*
X56356238Y-145216619D02*
X56403857Y-145169000D01*
X56499095Y-145121380D01*
X56737190Y-145121380D01*
X56832428Y-145169000D01*
X56880047Y-145216619D01*
X56927666Y-145311857D01*
X56927666Y-145407095D01*
X56880047Y-145549952D01*
X56308619Y-146121380D01*
X56927666Y-146121380D01*
X51435095Y-157440380D02*
X51435095Y-158249904D01*
X51482714Y-158345142D01*
X51530333Y-158392761D01*
X51625571Y-158440380D01*
X51816047Y-158440380D01*
X51911285Y-158392761D01*
X51958904Y-158345142D01*
X52006523Y-158249904D01*
X52006523Y-157440380D01*
X52911285Y-157773714D02*
X52911285Y-158440380D01*
X52673190Y-157392761D02*
X52435095Y-158107047D01*
X53054142Y-158107047D01*
X47011333Y-155678142D02*
X46963714Y-155725761D01*
X46820857Y-155773380D01*
X46725619Y-155773380D01*
X46582761Y-155725761D01*
X46487523Y-155630523D01*
X46439904Y-155535285D01*
X46392285Y-155344809D01*
X46392285Y-155201952D01*
X46439904Y-155011476D01*
X46487523Y-154916238D01*
X46582761Y-154821000D01*
X46725619Y-154773380D01*
X46820857Y-154773380D01*
X46963714Y-154821000D01*
X47011333Y-154868619D01*
X47868476Y-154773380D02*
X47678000Y-154773380D01*
X47582761Y-154821000D01*
X47535142Y-154868619D01*
X47439904Y-155011476D01*
X47392285Y-155201952D01*
X47392285Y-155582904D01*
X47439904Y-155678142D01*
X47487523Y-155725761D01*
X47582761Y-155773380D01*
X47773238Y-155773380D01*
X47868476Y-155725761D01*
X47916095Y-155678142D01*
X47963714Y-155582904D01*
X47963714Y-155344809D01*
X47916095Y-155249571D01*
X47868476Y-155201952D01*
X47773238Y-155154333D01*
X47582761Y-155154333D01*
X47487523Y-155201952D01*
X47439904Y-155249571D01*
X47392285Y-155344809D01*
X65778142Y-181200380D02*
X65444809Y-180724190D01*
X65206714Y-181200380D02*
X65206714Y-180200380D01*
X65587666Y-180200380D01*
X65682904Y-180248000D01*
X65730523Y-180295619D01*
X65778142Y-180390857D01*
X65778142Y-180533714D01*
X65730523Y-180628952D01*
X65682904Y-180676571D01*
X65587666Y-180724190D01*
X65206714Y-180724190D01*
X66730523Y-181200380D02*
X66159095Y-181200380D01*
X66444809Y-181200380D02*
X66444809Y-180200380D01*
X66349571Y-180343238D01*
X66254333Y-180438476D01*
X66159095Y-180486095D01*
X67206714Y-181200380D02*
X67397190Y-181200380D01*
X67492428Y-181152761D01*
X67540047Y-181105142D01*
X67635285Y-180962285D01*
X67682904Y-180771809D01*
X67682904Y-180390857D01*
X67635285Y-180295619D01*
X67587666Y-180248000D01*
X67492428Y-180200380D01*
X67301952Y-180200380D01*
X67206714Y-180248000D01*
X67159095Y-180295619D01*
X67111476Y-180390857D01*
X67111476Y-180628952D01*
X67159095Y-180724190D01*
X67206714Y-180771809D01*
X67301952Y-180819428D01*
X67492428Y-180819428D01*
X67587666Y-180771809D01*
X67635285Y-180724190D01*
X67682904Y-180628952D01*
X33805904Y-158821380D02*
X33805904Y-157821380D01*
X34044000Y-157821380D01*
X34186857Y-157869000D01*
X34282095Y-157964238D01*
X34329714Y-158059476D01*
X34377333Y-158249952D01*
X34377333Y-158392809D01*
X34329714Y-158583285D01*
X34282095Y-158678523D01*
X34186857Y-158773761D01*
X34044000Y-158821380D01*
X33805904Y-158821380D01*
X34853523Y-158821380D02*
X35044000Y-158821380D01*
X35139238Y-158773761D01*
X35186857Y-158726142D01*
X35282095Y-158583285D01*
X35329714Y-158392809D01*
X35329714Y-158011857D01*
X35282095Y-157916619D01*
X35234476Y-157869000D01*
X35139238Y-157821380D01*
X34948761Y-157821380D01*
X34853523Y-157869000D01*
X34805904Y-157916619D01*
X34758285Y-158011857D01*
X34758285Y-158249952D01*
X34805904Y-158345190D01*
X34853523Y-158392809D01*
X34948761Y-158440428D01*
X35139238Y-158440428D01*
X35234476Y-158392809D01*
X35282095Y-158345190D01*
X35329714Y-158249952D01*
X40534333Y-155678142D02*
X40486714Y-155725761D01*
X40343857Y-155773380D01*
X40248619Y-155773380D01*
X40105761Y-155725761D01*
X40010523Y-155630523D01*
X39962904Y-155535285D01*
X39915285Y-155344809D01*
X39915285Y-155201952D01*
X39962904Y-155011476D01*
X40010523Y-154916238D01*
X40105761Y-154821000D01*
X40248619Y-154773380D01*
X40343857Y-154773380D01*
X40486714Y-154821000D01*
X40534333Y-154868619D01*
X40867666Y-154773380D02*
X41534333Y-154773380D01*
X41105761Y-155773380D01*
X81351380Y-160250095D02*
X80351380Y-160250095D01*
X80351380Y-160012000D01*
X80399000Y-159869142D01*
X80494238Y-159773904D01*
X80589476Y-159726285D01*
X80779952Y-159678666D01*
X80922809Y-159678666D01*
X81113285Y-159726285D01*
X81208523Y-159773904D01*
X81303761Y-159869142D01*
X81351380Y-160012000D01*
X81351380Y-160250095D01*
X80779952Y-159107238D02*
X80732333Y-159202476D01*
X80684714Y-159250095D01*
X80589476Y-159297714D01*
X80541857Y-159297714D01*
X80446619Y-159250095D01*
X80399000Y-159202476D01*
X80351380Y-159107238D01*
X80351380Y-158916761D01*
X80399000Y-158821523D01*
X80446619Y-158773904D01*
X80541857Y-158726285D01*
X80589476Y-158726285D01*
X80684714Y-158773904D01*
X80732333Y-158821523D01*
X80779952Y-158916761D01*
X80779952Y-159107238D01*
X80827571Y-159202476D01*
X80875190Y-159250095D01*
X80970428Y-159297714D01*
X81160904Y-159297714D01*
X81256142Y-159250095D01*
X81303761Y-159202476D01*
X81351380Y-159107238D01*
X81351380Y-158916761D01*
X81303761Y-158821523D01*
X81256142Y-158773904D01*
X81160904Y-158726285D01*
X80970428Y-158726285D01*
X80875190Y-158773904D01*
X80827571Y-158821523D01*
X80779952Y-158916761D01*
X66159142Y-170632380D02*
X65825809Y-170156190D01*
X65587714Y-170632380D02*
X65587714Y-169632380D01*
X65968666Y-169632380D01*
X66063904Y-169680000D01*
X66111523Y-169727619D01*
X66159142Y-169822857D01*
X66159142Y-169965714D01*
X66111523Y-170060952D01*
X66063904Y-170108571D01*
X65968666Y-170156190D01*
X65587714Y-170156190D01*
X67111523Y-170632380D02*
X66540095Y-170632380D01*
X66825809Y-170632380D02*
X66825809Y-169632380D01*
X66730571Y-169775238D01*
X66635333Y-169870476D01*
X66540095Y-169918095D01*
X67730571Y-169632380D02*
X67825809Y-169632380D01*
X67921047Y-169680000D01*
X67968666Y-169727619D01*
X68016285Y-169822857D01*
X68063904Y-170013333D01*
X68063904Y-170251428D01*
X68016285Y-170441904D01*
X67968666Y-170537142D01*
X67921047Y-170584761D01*
X67825809Y-170632380D01*
X67730571Y-170632380D01*
X67635333Y-170584761D01*
X67587714Y-170537142D01*
X67540095Y-170441904D01*
X67492476Y-170251428D01*
X67492476Y-170013333D01*
X67540095Y-169822857D01*
X67587714Y-169727619D01*
X67635333Y-169680000D01*
X67730571Y-169632380D01*
X47011333Y-152852380D02*
X46678000Y-152376190D01*
X46439904Y-152852380D02*
X46439904Y-151852380D01*
X46820857Y-151852380D01*
X46916095Y-151900000D01*
X46963714Y-151947619D01*
X47011333Y-152042857D01*
X47011333Y-152185714D01*
X46963714Y-152280952D01*
X46916095Y-152328571D01*
X46820857Y-152376190D01*
X46439904Y-152376190D01*
X47344666Y-151852380D02*
X48011333Y-151852380D01*
X47582761Y-152852380D01*
X33043904Y-165526630D02*
X33043904Y-164526630D01*
X33282000Y-164526630D01*
X33424857Y-164574250D01*
X33520095Y-164669488D01*
X33567714Y-164764726D01*
X33615333Y-164955202D01*
X33615333Y-165098059D01*
X33567714Y-165288535D01*
X33520095Y-165383773D01*
X33424857Y-165479011D01*
X33282000Y-165526630D01*
X33043904Y-165526630D01*
X34567714Y-165526630D02*
X33996285Y-165526630D01*
X34282000Y-165526630D02*
X34282000Y-164526630D01*
X34186761Y-164669488D01*
X34091523Y-164764726D01*
X33996285Y-164812345D01*
X81224380Y-147550095D02*
X80224380Y-147550095D01*
X80224380Y-147312000D01*
X80272000Y-147169142D01*
X80367238Y-147073904D01*
X80462476Y-147026285D01*
X80652952Y-146978666D01*
X80795809Y-146978666D01*
X80986285Y-147026285D01*
X81081523Y-147073904D01*
X81176761Y-147169142D01*
X81224380Y-147312000D01*
X81224380Y-147550095D01*
X80224380Y-146121523D02*
X80224380Y-146312000D01*
X80272000Y-146407238D01*
X80319619Y-146454857D01*
X80462476Y-146550095D01*
X80652952Y-146597714D01*
X81033904Y-146597714D01*
X81129142Y-146550095D01*
X81176761Y-146502476D01*
X81224380Y-146407238D01*
X81224380Y-146216761D01*
X81176761Y-146121523D01*
X81129142Y-146073904D01*
X81033904Y-146026285D01*
X80795809Y-146026285D01*
X80700571Y-146073904D01*
X80652952Y-146121523D01*
X80605333Y-146216761D01*
X80605333Y-146407238D01*
X80652952Y-146502476D01*
X80700571Y-146550095D01*
X80795809Y-146597714D01*
X73525142Y-160980380D02*
X73191809Y-160504190D01*
X72953714Y-160980380D02*
X72953714Y-159980380D01*
X73334666Y-159980380D01*
X73429904Y-160028000D01*
X73477523Y-160075619D01*
X73525142Y-160170857D01*
X73525142Y-160313714D01*
X73477523Y-160408952D01*
X73429904Y-160456571D01*
X73334666Y-160504190D01*
X72953714Y-160504190D01*
X73906095Y-160075619D02*
X73953714Y-160028000D01*
X74048952Y-159980380D01*
X74287047Y-159980380D01*
X74382285Y-160028000D01*
X74429904Y-160075619D01*
X74477523Y-160170857D01*
X74477523Y-160266095D01*
X74429904Y-160408952D01*
X73858476Y-160980380D01*
X74477523Y-160980380D01*
X74858476Y-160075619D02*
X74906095Y-160028000D01*
X75001333Y-159980380D01*
X75239428Y-159980380D01*
X75334666Y-160028000D01*
X75382285Y-160075619D01*
X75429904Y-160170857D01*
X75429904Y-160266095D01*
X75382285Y-160408952D01*
X74810857Y-160980380D01*
X75429904Y-160980380D01*
X81097380Y-141200095D02*
X80097380Y-141200095D01*
X80097380Y-140962000D01*
X80145000Y-140819142D01*
X80240238Y-140723904D01*
X80335476Y-140676285D01*
X80525952Y-140628666D01*
X80668809Y-140628666D01*
X80859285Y-140676285D01*
X80954523Y-140723904D01*
X81049761Y-140819142D01*
X81097380Y-140962000D01*
X81097380Y-141200095D01*
X80097380Y-139723904D02*
X80097380Y-140200095D01*
X80573571Y-140247714D01*
X80525952Y-140200095D01*
X80478333Y-140104857D01*
X80478333Y-139866761D01*
X80525952Y-139771523D01*
X80573571Y-139723904D01*
X80668809Y-139676285D01*
X80906904Y-139676285D01*
X81002142Y-139723904D01*
X81049761Y-139771523D01*
X81097380Y-139866761D01*
X81097380Y-140104857D01*
X81049761Y-140200095D01*
X81002142Y-140247714D01*
X36218904Y-165552380D02*
X36218904Y-164552380D01*
X36457000Y-164552380D01*
X36599857Y-164600000D01*
X36695095Y-164695238D01*
X36742714Y-164790476D01*
X36790333Y-164980952D01*
X36790333Y-165123809D01*
X36742714Y-165314285D01*
X36695095Y-165409523D01*
X36599857Y-165504761D01*
X36457000Y-165552380D01*
X36218904Y-165552380D01*
X37171285Y-164647619D02*
X37218904Y-164600000D01*
X37314142Y-164552380D01*
X37552238Y-164552380D01*
X37647476Y-164600000D01*
X37695095Y-164647619D01*
X37742714Y-164742857D01*
X37742714Y-164838095D01*
X37695095Y-164980952D01*
X37123666Y-165552380D01*
X37742714Y-165552380D01*
D16*
X55145000Y-160520748D02*
X55145000Y-161043252D01*
X56615000Y-160520748D02*
X56615000Y-161043252D01*
X76988936Y-146966000D02*
X77443064Y-146966000D01*
X76988936Y-148436000D02*
X77443064Y-148436000D01*
X60044000Y-185901064D02*
X60044000Y-185446936D01*
X58574000Y-185901064D02*
X58574000Y-185446936D01*
X76988936Y-144045000D02*
X77443064Y-144045000D01*
X76988936Y-145515000D02*
X77443064Y-145515000D01*
X77720564Y-170915000D02*
X77266436Y-170915000D01*
X77720564Y-169445000D02*
X77266436Y-169445000D01*
X31363000Y-179120000D02*
X31270000Y-179026000D01*
X36499000Y-172740000D02*
X28778000Y-172740000D01*
X29379000Y-172500000D02*
X28539000Y-172500000D01*
X30039000Y-172740000D02*
X30039000Y-182860000D01*
X29439000Y-172740000D02*
X29439000Y-182860000D01*
X28778000Y-172740000D02*
X28778000Y-182860000D01*
X31123000Y-179290000D02*
X31065000Y-179231000D01*
X36499000Y-182860000D02*
X28778000Y-182860000D01*
X34739000Y-172740000D02*
X34739000Y-182860000D01*
X36499000Y-172740000D02*
X36499000Y-182860000D01*
X33614000Y-181370000D02*
X33555000Y-181311000D01*
X28539000Y-172500000D02*
X28539000Y-173100000D01*
X33408000Y-181575000D02*
X33315000Y-181481000D01*
X30855000Y-174511000D02*
G75*
G03*
X30658550Y-175329383I1483995J-788998D01*
G01*
X31550000Y-176784000D02*
G75*
G03*
X33128089Y-176783953I789000J1483995D01*
G01*
X30659000Y-175300000D02*
G75*
G03*
X30855648Y-176088712I1679991J-2D01*
G01*
X33823000Y-176089000D02*
G75*
G03*
X33822953Y-174510911I-1483995J789000D01*
G01*
X33128000Y-173816000D02*
G75*
G03*
X31549911Y-173816047I-789000J-1483995D01*
G01*
X35889000Y-180300000D02*
G75*
G03*
X35889000Y-180300000I-550000J0D01*
G01*
X35889000Y-175300000D02*
G75*
G03*
X35889000Y-175300000I-550000J0D01*
G01*
X34019000Y-180300000D02*
G75*
G03*
X34019000Y-180300000I-1680000J0D01*
G01*
X60218000Y-156591000D02*
X60218000Y-158541000D01*
X70338000Y-156591000D02*
X70338000Y-158541000D01*
X70338000Y-156591000D02*
X70338000Y-153141000D01*
X60218000Y-156591000D02*
X60218000Y-154641000D01*
X77242936Y-158342000D02*
X77697064Y-158342000D01*
X77242936Y-156872000D02*
X77697064Y-156872000D01*
X71401000Y-154551748D02*
X71401000Y-155074252D01*
X72871000Y-154551748D02*
X72871000Y-155074252D01*
X59940564Y-150341000D02*
X59486436Y-150341000D01*
X59940564Y-148871000D02*
X59486436Y-148871000D01*
X43849064Y-148871000D02*
X43394936Y-148871000D01*
X43849064Y-150341000D02*
X43394936Y-150341000D01*
X41529000Y-166804700D02*
X41529000Y-166138500D01*
X41529000Y-166655200D02*
X41529000Y-170555200D01*
X41529000Y-166141400D02*
X38785800Y-166141400D01*
X38785800Y-166141400D02*
X38785800Y-166852600D01*
X38785800Y-166655200D02*
X38785800Y-170555200D01*
X59766200Y-181705800D02*
X59766200Y-177805800D01*
X57023000Y-181556300D02*
X57023000Y-182222500D01*
X57023000Y-181705800D02*
X57023000Y-177805800D01*
X57023000Y-182219600D02*
X59766200Y-182219600D01*
X59766200Y-182219600D02*
X59766200Y-181508400D01*
X51756187Y-182384700D02*
X53653813Y-182384700D01*
X53653813Y-176517300D02*
X51756187Y-176517300D01*
X58674000Y-170597000D02*
X59324000Y-170597000D01*
X58674000Y-167477000D02*
X56999000Y-167477000D01*
X58674000Y-167477000D02*
X59324000Y-167477000D01*
X58674000Y-170597000D02*
X58024000Y-170597000D01*
X37533252Y-156056000D02*
X37010748Y-156056000D01*
X37533252Y-154586000D02*
X37010748Y-154586000D01*
X66267064Y-150341000D02*
X65812936Y-150341000D01*
X66267064Y-148871000D02*
X65812936Y-148871000D01*
X63346064Y-177092000D02*
X62891936Y-177092000D01*
X63346064Y-178562000D02*
X62891936Y-178562000D01*
X58674000Y-171668000D02*
X59324000Y-171668000D01*
X58674000Y-174788000D02*
X59324000Y-174788000D01*
X58674000Y-174788000D02*
X58024000Y-174788000D01*
X58674000Y-171668000D02*
X56999000Y-171668000D01*
D17*
X34929000Y-129042000D02*
X34929000Y-128922000D01*
D16*
X48129000Y-146922000D02*
X34929000Y-146922000D01*
X34929000Y-128922000D02*
X48129000Y-128922000D01*
D17*
X48129000Y-137972000D02*
X48129000Y-137902000D01*
D16*
X34929000Y-146922000D02*
X34929000Y-137902000D01*
X48129000Y-128922000D02*
X48129000Y-135702000D01*
X48599000Y-144922000D02*
X48599000Y-146452000D01*
D17*
X34929000Y-128932000D02*
X34929000Y-128922000D01*
D16*
X34929000Y-128922000D02*
X34929000Y-135702000D01*
X48129000Y-137902000D02*
X48129000Y-146922000D01*
X54265000Y-185674000D02*
X54265000Y-183874000D01*
X51145000Y-185674000D02*
X51145000Y-186474000D01*
X54265000Y-185674000D02*
X54265000Y-186474000D01*
X51145000Y-185674000D02*
X51145000Y-184874000D01*
X81971000Y-151477000D02*
X81971000Y-154162000D01*
X83891000Y-154162000D02*
X83891000Y-151477000D01*
X83891000Y-151477000D02*
X81971000Y-151477000D01*
X56996000Y-185412748D02*
X56996000Y-185935252D01*
X55526000Y-185412748D02*
X55526000Y-185935252D01*
X68544500Y-177145000D02*
X68044500Y-176645000D01*
X68044500Y-176645000D02*
X68044500Y-177645000D01*
X84249500Y-173265000D02*
X68729500Y-173265000D01*
X68729500Y-191225000D02*
X84249500Y-191225000D01*
X68729500Y-173265000D02*
X68729500Y-191225000D01*
X68044500Y-177645000D02*
X68544500Y-177145000D01*
X84249500Y-173265000D02*
X84249500Y-191225000D01*
X37044936Y-153135000D02*
X37499064Y-153135000D01*
X37044936Y-151665000D02*
X37499064Y-151665000D01*
X58674000Y-166406000D02*
X58024000Y-166406000D01*
X58674000Y-163286000D02*
X59324000Y-163286000D01*
X58674000Y-163286000D02*
X56999000Y-163286000D01*
X58674000Y-166406000D02*
X59324000Y-166406000D01*
X77242936Y-164184000D02*
X77697064Y-164184000D01*
X77242936Y-162714000D02*
X77697064Y-162714000D01*
X69969748Y-166524000D02*
X70492252Y-166524000D01*
X69969748Y-167994000D02*
X70492252Y-167994000D01*
X41749000Y-188007500D02*
X40439000Y-188007500D01*
X44929000Y-184147500D02*
X44929000Y-185287500D01*
X40439000Y-185287500D02*
X40669000Y-185287500D01*
X40439000Y-188007500D02*
X40439000Y-185287500D01*
X45159000Y-185287500D02*
X44929000Y-185287500D01*
X45159000Y-185287500D02*
X45159000Y-188007500D01*
X45159000Y-188007500D02*
X43849000Y-188007500D01*
X83891000Y-166862000D02*
X83891000Y-164177000D01*
X83891000Y-164177000D02*
X81971000Y-164177000D01*
X81971000Y-164177000D02*
X81971000Y-166862000D01*
X47017000Y-185412748D02*
X47017000Y-185935252D01*
X48487000Y-185412748D02*
X48487000Y-185935252D01*
X43620563Y-180575000D02*
X42335000Y-180575000D01*
X39033750Y-181208750D02*
X39821250Y-181208750D01*
X39427500Y-181602500D02*
X39427500Y-180815000D01*
X44685000Y-179510563D02*
X44685000Y-173755000D01*
X37865000Y-179510563D02*
X37865000Y-173755000D01*
X43620563Y-180575000D02*
X44685000Y-179510563D01*
X44685000Y-173755000D02*
X42335000Y-173755000D01*
X38929437Y-180575000D02*
X37865000Y-179510563D01*
X37865000Y-173755000D02*
X40215000Y-173755000D01*
X38929437Y-180575000D02*
X40215000Y-180575000D01*
X29260800Y-166655200D02*
X29260800Y-170555200D01*
X32004000Y-166655200D02*
X32004000Y-170555200D01*
X32004000Y-166804700D02*
X32004000Y-166138500D01*
X32004000Y-166141400D02*
X29260800Y-166141400D01*
X29260800Y-166141400D02*
X29260800Y-166852600D01*
X62891936Y-182934000D02*
X63346064Y-182934000D01*
X62891936Y-184404000D02*
X63346064Y-184404000D01*
X50199064Y-148871000D02*
X49744936Y-148871000D01*
X50199064Y-150341000D02*
X49744936Y-150341000D01*
X77208748Y-167994000D02*
X77731252Y-167994000D01*
X77208748Y-166524000D02*
X77731252Y-166524000D01*
X67410000Y-185600936D02*
X67410000Y-186055064D01*
X65940000Y-185600936D02*
X65940000Y-186055064D01*
X63346064Y-187325000D02*
X62891936Y-187325000D01*
X63346064Y-185855000D02*
X62891936Y-185855000D01*
X63346064Y-175641000D02*
X62891936Y-175641000D01*
X63346064Y-174171000D02*
X62891936Y-174171000D01*
X43849064Y-151665000D02*
X43394936Y-151665000D01*
X43849064Y-153135000D02*
X43394936Y-153135000D01*
X37499064Y-150341000D02*
X37044936Y-150341000D01*
X37499064Y-148871000D02*
X37044936Y-148871000D01*
X36730000Y-160681936D02*
X36730000Y-161136064D01*
X38200000Y-160681936D02*
X38200000Y-161136064D01*
X71116000Y-146922000D02*
X57916000Y-146922000D01*
X71586000Y-144922000D02*
X71586000Y-146452000D01*
D17*
X71116000Y-137972000D02*
X71116000Y-137902000D01*
D16*
X71116000Y-128922000D02*
X71116000Y-135702000D01*
X57916000Y-128922000D02*
X57916000Y-135702000D01*
X57916000Y-146922000D02*
X57916000Y-137902000D01*
D17*
X57916000Y-128932000D02*
X57916000Y-128922000D01*
D16*
X71116000Y-137902000D02*
X71116000Y-146922000D01*
D17*
X57916000Y-129042000D02*
X57916000Y-128922000D01*
D16*
X57916000Y-128922000D02*
X71116000Y-128922000D01*
X54082000Y-162560000D02*
X54082000Y-164510000D01*
X43962000Y-162560000D02*
X43962000Y-160610000D01*
X54082000Y-162560000D02*
X54082000Y-159110000D01*
X43962000Y-162560000D02*
X43962000Y-164510000D01*
X50233252Y-156056000D02*
X49710748Y-156056000D01*
X50233252Y-154586000D02*
X49710748Y-154586000D01*
X63346064Y-180013000D02*
X62891936Y-180013000D01*
X63346064Y-181483000D02*
X62891936Y-181483000D01*
X33584000Y-159909000D02*
X33584000Y-162594000D01*
X33584000Y-162594000D02*
X35504000Y-162594000D01*
X35504000Y-162594000D02*
X35504000Y-159909000D01*
X43883252Y-154586000D02*
X43360748Y-154586000D01*
X43883252Y-156056000D02*
X43360748Y-156056000D01*
X81971000Y-157827000D02*
X81971000Y-160512000D01*
X83891000Y-160512000D02*
X83891000Y-157827000D01*
X83891000Y-157827000D02*
X81971000Y-157827000D01*
X70458064Y-169445000D02*
X70003936Y-169445000D01*
X70458064Y-170915000D02*
X70003936Y-170915000D01*
X50199064Y-151665000D02*
X49744936Y-151665000D01*
X50199064Y-153135000D02*
X49744936Y-153135000D01*
X35153600Y-171164800D02*
X35153600Y-167264800D01*
X32410400Y-171164800D02*
X32410400Y-167264800D01*
X32410400Y-171678600D02*
X35153600Y-171678600D01*
X32410400Y-171015300D02*
X32410400Y-171681500D01*
X35153600Y-171678600D02*
X35153600Y-170967400D01*
X83891000Y-147812000D02*
X83891000Y-145127000D01*
X83891000Y-145127000D02*
X81971000Y-145127000D01*
X81971000Y-145127000D02*
X81971000Y-147812000D01*
X77242936Y-159793000D02*
X77697064Y-159793000D01*
X77242936Y-161263000D02*
X77697064Y-161263000D01*
X83891000Y-141462000D02*
X83891000Y-138777000D01*
X81971000Y-138777000D02*
X81971000Y-141462000D01*
X83891000Y-138777000D02*
X81971000Y-138777000D01*
X38303200Y-171164800D02*
X38303200Y-167264800D01*
X35560000Y-171678600D02*
X38303200Y-171678600D01*
X35560000Y-171164800D02*
X35560000Y-167264800D01*
X38303200Y-171678600D02*
X38303200Y-170967400D01*
X35560000Y-171015300D02*
X35560000Y-171681500D01*
M02*
