G04 #@! TF.GenerationSoftware,KiCad,Pcbnew,6.0.2+dfsg-1*
G04 #@! TF.CreationDate,2024-05-29T15:37:31-06:00*
G04 #@! TF.ProjectId,mss-atlasadapter,6d73732d-6174-46c6-9173-616461707465,rev?*
G04 #@! TF.SameCoordinates,Original*
G04 #@! TF.FileFunction,Copper,L2,Bot*
G04 #@! TF.FilePolarity,Positive*
%FSLAX46Y46*%
G04 Gerber Fmt 4.6, Leading zero omitted, Abs format (unit mm)*
G04 Created by KiCad (PCBNEW 6.0.2+dfsg-1) date 2024-05-29 15:37:31*
%MOMM*%
%LPD*%
G01*
G04 APERTURE LIST*
G04 #@! TA.AperFunction,ComponentPad*
%ADD10R,2.500000X2.500000*%
G04 #@! TD*
G04 #@! TA.AperFunction,ComponentPad*
%ADD11C,2.500000*%
G04 #@! TD*
G04 #@! TA.AperFunction,ComponentPad*
%ADD12C,6.400000*%
G04 #@! TD*
G04 #@! TA.AperFunction,ComponentPad*
%ADD13R,1.520000X1.520000*%
G04 #@! TD*
G04 #@! TA.AperFunction,ComponentPad*
%ADD14C,1.520000*%
G04 #@! TD*
G04 #@! TA.AperFunction,ComponentPad*
%ADD15R,1.500000X1.500000*%
G04 #@! TD*
G04 #@! TA.AperFunction,ComponentPad*
%ADD16C,1.500000*%
G04 #@! TD*
G04 #@! TA.AperFunction,SMDPad,CuDef*
%ADD17C,2.000000*%
G04 #@! TD*
G04 #@! TA.AperFunction,ViaPad*
%ADD18C,0.609600*%
G04 #@! TD*
G04 #@! TA.AperFunction,Conductor*
%ADD19C,1.016000*%
G04 #@! TD*
G04 #@! TA.AperFunction,Conductor*
%ADD20C,0.508000*%
G04 #@! TD*
G04 #@! TA.AperFunction,Conductor*
%ADD21C,0.254000*%
G04 #@! TD*
G04 APERTURE END LIST*
D10*
X32339000Y-175300000D03*
D11*
X32339000Y-180300000D03*
D12*
X90932000Y-187452000D03*
D13*
X44699000Y-145692000D03*
D14*
X43429000Y-143152000D03*
X42159000Y-145692000D03*
X40889000Y-143152000D03*
X39619000Y-145692000D03*
X38349000Y-143152000D03*
D12*
X90932000Y-132588000D03*
D15*
X72044500Y-177145000D03*
D16*
X73314500Y-174605000D03*
X74584500Y-177145000D03*
X75854500Y-174605000D03*
X77124500Y-177145000D03*
X78394500Y-174605000D03*
X79664500Y-177145000D03*
X80934500Y-174605000D03*
D12*
X29718000Y-187452000D03*
X29718000Y-132588000D03*
D13*
X67686000Y-145692000D03*
D14*
X66416000Y-143152000D03*
X65146000Y-145692000D03*
X63876000Y-143152000D03*
X62606000Y-145692000D03*
X61336000Y-143152000D03*
D17*
X69088000Y-171323000D03*
X28321000Y-180340000D03*
X65151000Y-148844000D03*
X61214000Y-148844000D03*
X65151000Y-171323000D03*
X48133000Y-145669000D03*
X43434000Y-140208000D03*
X28321000Y-175260000D03*
X35941000Y-145669000D03*
X73025000Y-171323000D03*
X80899000Y-171323000D03*
X76962000Y-171323000D03*
D18*
X57277000Y-161798000D03*
X40894000Y-187325000D03*
X84709000Y-156210000D03*
X64008000Y-179324000D03*
X41783000Y-189484000D03*
X57785000Y-166751000D03*
X73533000Y-155829000D03*
X43180000Y-173609000D03*
X40894000Y-188214000D03*
X60833000Y-156464000D03*
X71247000Y-168656000D03*
X52705000Y-183134000D03*
X54483000Y-161798000D03*
X55753000Y-188214000D03*
X70739000Y-155829000D03*
X49022000Y-153797000D03*
X39370000Y-173609000D03*
X44577000Y-162433000D03*
X50673000Y-183134000D03*
X78486000Y-168656000D03*
X44704000Y-187325000D03*
X44577000Y-161544000D03*
X44704000Y-188214000D03*
X64008000Y-182118000D03*
X57785000Y-169037000D03*
X36322000Y-153797000D03*
X72263000Y-168656000D03*
X56769000Y-188214000D03*
X44704000Y-186436000D03*
X34544000Y-163322000D03*
X57785000Y-175006000D03*
X47244000Y-188214000D03*
X42672000Y-153797000D03*
X43815000Y-189484000D03*
X43180000Y-175387000D03*
X35306000Y-153797000D03*
X57785000Y-173228000D03*
X39370000Y-175387000D03*
X40894000Y-186436000D03*
X48006000Y-153797000D03*
X42799000Y-189484000D03*
X79502000Y-168656000D03*
X41656000Y-153797000D03*
X48260000Y-188214000D03*
X60833000Y-155575000D03*
X43180000Y-174498000D03*
X57785000Y-164973000D03*
X84709000Y-143002000D03*
X39370000Y-174498000D03*
X51689000Y-183134000D03*
X57785000Y-170815000D03*
X73533000Y-153924000D03*
X42672000Y-163576000D03*
X52832000Y-149606000D03*
X54483000Y-159893000D03*
X70739000Y-153924000D03*
X42672000Y-161798000D03*
X57277000Y-159893000D03*
X42672000Y-162687000D03*
X39370000Y-149606000D03*
X45677750Y-149606000D03*
X71755000Y-164592000D03*
X69977000Y-164084000D03*
X65532000Y-176403000D03*
X71755000Y-162560000D03*
X61722000Y-166878000D03*
X61722000Y-170307000D03*
X71755000Y-163449000D03*
X71755000Y-161671000D03*
X68453000Y-161671000D03*
D19*
X56515000Y-159893000D02*
X57277000Y-159893000D01*
X54483000Y-159893000D02*
X56515000Y-159893000D01*
X42672000Y-161798000D02*
X42672000Y-160782000D01*
D20*
X52832000Y-149606000D02*
X39370000Y-149606000D01*
D19*
X58928000Y-153924000D02*
X73533000Y-153924000D01*
X42672000Y-160782000D02*
X43561000Y-159893000D01*
X58166000Y-159004000D02*
X58166000Y-154686000D01*
X58166000Y-154686000D02*
X58928000Y-153924000D01*
X43561000Y-159893000D02*
X54483000Y-159893000D01*
X57277000Y-159893000D02*
X58166000Y-159004000D01*
X42672000Y-163576000D02*
X42672000Y-161798000D01*
X32299000Y-175260000D02*
X32339000Y-175300000D01*
X28321000Y-175260000D02*
X32299000Y-175260000D01*
X28321000Y-180340000D02*
X32299000Y-180340000D01*
X32299000Y-180340000D02*
X32339000Y-180300000D01*
D21*
X71247000Y-164084000D02*
X71755000Y-164592000D01*
X69977000Y-164084000D02*
X71247000Y-164084000D01*
D20*
X65146000Y-145692000D02*
X65146000Y-148839000D01*
X65146000Y-148839000D02*
X65151000Y-148844000D01*
X61214000Y-148844000D02*
X61214000Y-147084000D01*
X61214000Y-147084000D02*
X62606000Y-145692000D01*
X43429000Y-140213000D02*
X43434000Y-140208000D01*
X43429000Y-143152000D02*
X43429000Y-140213000D01*
X47752000Y-147701000D02*
X42672000Y-147701000D01*
X42672000Y-147701000D02*
X42159000Y-147188000D01*
X42159000Y-145692000D02*
X42159000Y-147188000D01*
X48133000Y-145669000D02*
X48133000Y-147320000D01*
X48133000Y-147320000D02*
X47752000Y-147701000D01*
X39619000Y-145692000D02*
X35964000Y-145692000D01*
X35964000Y-145692000D02*
X35941000Y-145669000D01*
X69088000Y-171323000D02*
X69088000Y-172847000D01*
X72044500Y-175803500D02*
X72044500Y-177145000D01*
X69088000Y-172847000D02*
X72044500Y-175803500D01*
X73025000Y-172974000D02*
X73314500Y-173263500D01*
X73314500Y-173263500D02*
X73314500Y-174605000D01*
X73025000Y-171323000D02*
X73025000Y-172974000D01*
X65151000Y-171323000D02*
X65151000Y-176022000D01*
X65151000Y-176022000D02*
X65532000Y-176403000D01*
X75854500Y-174605000D02*
X75854500Y-172430500D01*
X75854500Y-172430500D02*
X76962000Y-171323000D01*
X78394500Y-172684500D02*
X78394500Y-174605000D01*
X79756000Y-171323000D02*
X78394500Y-172684500D01*
X80899000Y-171323000D02*
X79756000Y-171323000D01*
D21*
X66040000Y-162560000D02*
X71755000Y-162560000D01*
X61722000Y-166878000D02*
X66040000Y-162560000D01*
X66167000Y-163449000D02*
X61722000Y-167894000D01*
X71755000Y-163449000D02*
X66167000Y-163449000D01*
X61722000Y-167894000D02*
X61722000Y-170307000D01*
X68453000Y-161671000D02*
X71755000Y-161671000D01*
G04 #@! TA.AperFunction,Conductor*
G36*
X89246521Y-128925002D02*
G01*
X89293014Y-128978658D01*
X89303118Y-129048932D01*
X89273624Y-129113512D01*
X89239293Y-129141309D01*
X88911060Y-129322503D01*
X88911052Y-129322508D01*
X88908264Y-129324047D01*
X88588781Y-129545268D01*
X88293289Y-129797642D01*
X88024814Y-130078585D01*
X87786105Y-130385220D01*
X87784409Y-130387924D01*
X87784406Y-130387928D01*
X87655575Y-130593303D01*
X87579605Y-130714410D01*
X87407429Y-131062782D01*
X87271339Y-131426770D01*
X87270531Y-131429849D01*
X87270529Y-131429856D01*
X87173537Y-131799567D01*
X87172729Y-131802647D01*
X87112609Y-132186566D01*
X87091594Y-132574594D01*
X87091744Y-132577775D01*
X87093571Y-132616505D01*
X87109900Y-132962760D01*
X87110371Y-132965913D01*
X87110372Y-132965921D01*
X87136787Y-133142664D01*
X87167338Y-133347089D01*
X87263321Y-133723646D01*
X87396866Y-134088575D01*
X87566606Y-134438141D01*
X87770803Y-134768764D01*
X87772744Y-134771294D01*
X87772745Y-134771295D01*
X87994624Y-135060452D01*
X88007366Y-135077058D01*
X88273873Y-135359869D01*
X88276278Y-135361952D01*
X88276284Y-135361958D01*
X88313091Y-135393841D01*
X88567596Y-135614299D01*
X88885526Y-135837745D01*
X89224410Y-136027917D01*
X89227324Y-136029184D01*
X89227328Y-136029186D01*
X89265101Y-136045610D01*
X89580777Y-136182870D01*
X89757208Y-136239176D01*
X89947935Y-136300046D01*
X89947944Y-136300048D01*
X89950979Y-136301017D01*
X89989763Y-136309190D01*
X90328106Y-136380490D01*
X90328111Y-136380491D01*
X90331225Y-136381147D01*
X90717621Y-136422441D01*
X90720809Y-136422458D01*
X90720814Y-136422458D01*
X90897023Y-136423381D01*
X91106213Y-136424476D01*
X91299617Y-136405853D01*
X91489856Y-136387535D01*
X91489861Y-136387534D01*
X91493021Y-136387230D01*
X91496141Y-136386607D01*
X91496145Y-136386606D01*
X91870958Y-136311711D01*
X91870957Y-136311711D01*
X91874086Y-136311086D01*
X92174886Y-136218548D01*
X92242462Y-136197759D01*
X92242465Y-136197758D01*
X92245504Y-136196823D01*
X92248432Y-136195586D01*
X92248438Y-136195584D01*
X92600530Y-136046854D01*
X92600537Y-136046851D01*
X92603474Y-136045610D01*
X92944331Y-135858997D01*
X93264584Y-135638893D01*
X93406596Y-135518458D01*
X93558525Y-135389613D01*
X93558527Y-135389611D01*
X93560955Y-135387552D01*
X93563160Y-135385260D01*
X93563166Y-135385255D01*
X93828194Y-135109850D01*
X93828196Y-135109847D01*
X93830409Y-135107548D01*
X93934438Y-134974875D01*
X94068213Y-134804265D01*
X94068216Y-134804260D01*
X94070187Y-134801747D01*
X94277835Y-134473281D01*
X94279255Y-134470433D01*
X94279260Y-134470424D01*
X94376238Y-134275915D01*
X94424534Y-134223876D01*
X94493297Y-134206209D01*
X94560696Y-134228523D01*
X94605332Y-134283733D01*
X94615000Y-134332136D01*
X94615000Y-185708063D01*
X94594998Y-185776184D01*
X94541342Y-185822677D01*
X94471068Y-185832781D01*
X94406488Y-185803287D01*
X94375849Y-185763495D01*
X94292326Y-185593003D01*
X94292325Y-185593001D01*
X94290915Y-185590123D01*
X94085565Y-185260215D01*
X93959842Y-185097548D01*
X93849880Y-184955273D01*
X93849875Y-184955268D01*
X93847928Y-184952748D01*
X93786156Y-184887654D01*
X93582634Y-184673186D01*
X93582631Y-184673184D01*
X93580435Y-184670869D01*
X93567298Y-184659569D01*
X93288241Y-184419543D01*
X93288238Y-184419541D01*
X93285826Y-184417466D01*
X93283218Y-184415646D01*
X93283212Y-184415642D01*
X92969730Y-184196954D01*
X92967117Y-184195131D01*
X92627572Y-184006143D01*
X92624652Y-184004885D01*
X92624647Y-184004883D01*
X92273600Y-183853698D01*
X92273590Y-183853694D01*
X92270666Y-183852435D01*
X91900054Y-183735582D01*
X91629188Y-183679488D01*
X91522656Y-183657426D01*
X91522653Y-183657426D01*
X91519531Y-183656779D01*
X91222323Y-183626065D01*
X91136149Y-183617160D01*
X91136146Y-183617160D01*
X91132993Y-183616834D01*
X91129827Y-183616828D01*
X91129818Y-183616828D01*
X90937969Y-183616494D01*
X90744396Y-183616156D01*
X90590545Y-183631512D01*
X90360893Y-183654434D01*
X90360887Y-183654435D01*
X90357720Y-183654751D01*
X90159934Y-183694991D01*
X89980049Y-183731589D01*
X89980045Y-183731590D01*
X89976924Y-183732225D01*
X89973882Y-183733172D01*
X89973876Y-183733174D01*
X89820432Y-183780967D01*
X89605907Y-183847784D01*
X89602979Y-183849033D01*
X89251397Y-183998995D01*
X89251393Y-183998997D01*
X89248467Y-184000245D01*
X89245688Y-184001779D01*
X89245682Y-184001782D01*
X89120749Y-184070749D01*
X88908264Y-184188047D01*
X88588781Y-184409268D01*
X88293289Y-184661642D01*
X88291089Y-184663944D01*
X88291086Y-184663947D01*
X88200830Y-184758395D01*
X88024814Y-184942585D01*
X88022857Y-184945099D01*
X88022856Y-184945100D01*
X87814024Y-185213357D01*
X87786105Y-185249220D01*
X87784409Y-185251924D01*
X87784406Y-185251928D01*
X87655575Y-185457303D01*
X87579605Y-185578410D01*
X87407429Y-185926782D01*
X87271339Y-186290770D01*
X87270531Y-186293849D01*
X87270529Y-186293856D01*
X87173537Y-186663567D01*
X87172729Y-186666647D01*
X87112609Y-187050566D01*
X87091594Y-187438594D01*
X87091744Y-187441775D01*
X87093571Y-187480505D01*
X87109900Y-187826760D01*
X87110371Y-187829913D01*
X87110372Y-187829921D01*
X87136787Y-188006664D01*
X87167338Y-188211089D01*
X87263321Y-188587646D01*
X87396866Y-188952575D01*
X87566606Y-189302141D01*
X87770803Y-189632764D01*
X88007366Y-189941058D01*
X88273873Y-190223869D01*
X88276278Y-190225952D01*
X88276284Y-190225958D01*
X88565189Y-190476214D01*
X88567596Y-190478299D01*
X88885526Y-190701745D01*
X89224410Y-190891917D01*
X89227324Y-190893184D01*
X89227338Y-190893191D01*
X89227932Y-190893449D01*
X89228040Y-190893539D01*
X89230193Y-190894608D01*
X89229937Y-190895123D01*
X89282429Y-190938953D01*
X89303673Y-191006697D01*
X89284920Y-191075172D01*
X89232123Y-191122638D01*
X89177694Y-191135000D01*
X31470313Y-191135000D01*
X31402192Y-191114998D01*
X31355699Y-191061342D01*
X31345595Y-190991068D01*
X31375089Y-190926488D01*
X31409805Y-190898479D01*
X31424635Y-190890360D01*
X31730331Y-190722997D01*
X32050584Y-190502893D01*
X32346955Y-190251552D01*
X32349160Y-190249260D01*
X32349166Y-190249255D01*
X32614194Y-189973850D01*
X32614196Y-189973847D01*
X32616409Y-189971548D01*
X32856187Y-189665747D01*
X33063835Y-189337281D01*
X33065255Y-189334433D01*
X33065260Y-189334424D01*
X33235806Y-188992360D01*
X33237226Y-188989512D01*
X33374585Y-188626001D01*
X33384791Y-188587646D01*
X33473685Y-188253555D01*
X33474506Y-188250470D01*
X33535966Y-187866764D01*
X33538091Y-187829921D01*
X33558237Y-187480505D01*
X33558335Y-187478811D01*
X33558429Y-187452000D01*
X33538769Y-187063900D01*
X33479989Y-186679775D01*
X33382692Y-186303555D01*
X33381587Y-186300567D01*
X33248983Y-185942091D01*
X33248980Y-185942085D01*
X33247874Y-185939094D01*
X33076915Y-185590123D01*
X32871565Y-185260215D01*
X32745842Y-185097548D01*
X32635880Y-184955273D01*
X32635875Y-184955268D01*
X32633928Y-184952748D01*
X32572156Y-184887654D01*
X32368634Y-184673186D01*
X32368631Y-184673184D01*
X32366435Y-184670869D01*
X32353298Y-184659569D01*
X32074241Y-184419543D01*
X32074238Y-184419541D01*
X32071826Y-184417466D01*
X32069218Y-184415646D01*
X32069212Y-184415642D01*
X31755730Y-184196954D01*
X31753117Y-184195131D01*
X31413572Y-184006143D01*
X31410652Y-184004885D01*
X31410647Y-184004883D01*
X31059600Y-183853698D01*
X31059590Y-183853694D01*
X31056666Y-183852435D01*
X30686054Y-183735582D01*
X30415188Y-183679488D01*
X30308656Y-183657426D01*
X30308653Y-183657426D01*
X30305531Y-183656779D01*
X30008323Y-183626065D01*
X29922149Y-183617160D01*
X29922146Y-183617160D01*
X29918993Y-183616834D01*
X29915827Y-183616828D01*
X29915818Y-183616828D01*
X29723969Y-183616494D01*
X29530396Y-183616156D01*
X29376545Y-183631512D01*
X29146893Y-183654434D01*
X29146887Y-183654435D01*
X29143720Y-183654751D01*
X28945934Y-183694991D01*
X28766049Y-183731589D01*
X28766045Y-183731590D01*
X28762924Y-183732225D01*
X28759882Y-183733172D01*
X28759876Y-183733174D01*
X28606432Y-183780967D01*
X28391907Y-183847784D01*
X28388979Y-183849033D01*
X28037397Y-183998995D01*
X28037393Y-183998997D01*
X28034467Y-184000245D01*
X28031688Y-184001779D01*
X28031682Y-184001782D01*
X27906749Y-184070749D01*
X27694264Y-184188047D01*
X27374781Y-184409268D01*
X27079289Y-184661642D01*
X27077089Y-184663944D01*
X27077086Y-184663947D01*
X26986830Y-184758395D01*
X26810814Y-184942585D01*
X26808857Y-184945099D01*
X26808856Y-184945100D01*
X26600024Y-185213357D01*
X26572105Y-185249220D01*
X26570409Y-185251924D01*
X26570406Y-185251928D01*
X26441575Y-185457303D01*
X26365605Y-185578410D01*
X26277426Y-185756828D01*
X26273957Y-185763846D01*
X26225843Y-185816053D01*
X26157142Y-185833960D01*
X26089666Y-185811882D01*
X26044838Y-185756828D01*
X26035000Y-185708019D01*
X26035000Y-183537186D01*
X68915518Y-183537186D01*
X68941079Y-183805100D01*
X68942164Y-183809534D01*
X68942165Y-183809540D01*
X68984165Y-183981180D01*
X69005047Y-184066518D01*
X69106083Y-184315963D01*
X69242069Y-184548210D01*
X69410158Y-184758395D01*
X69606827Y-184942113D01*
X69827957Y-185095516D01*
X70068916Y-185215391D01*
X70073250Y-185216812D01*
X70073253Y-185216813D01*
X70320323Y-185297807D01*
X70320329Y-185297808D01*
X70324656Y-185299227D01*
X70329147Y-185300007D01*
X70329148Y-185300007D01*
X70586038Y-185344611D01*
X70586046Y-185344612D01*
X70589819Y-185345267D01*
X70593656Y-185345458D01*
X70673277Y-185349422D01*
X70673285Y-185349422D01*
X70674848Y-185349500D01*
X70842874Y-185349500D01*
X70845142Y-185349335D01*
X70845154Y-185349335D01*
X70975957Y-185339844D01*
X71042925Y-185334985D01*
X71047380Y-185334001D01*
X71047383Y-185334001D01*
X71301270Y-185277947D01*
X71301272Y-185277946D01*
X71305726Y-185276963D01*
X71557400Y-185181613D01*
X71792672Y-185050931D01*
X71918014Y-184955273D01*
X72002991Y-184890421D01*
X72002995Y-184890417D01*
X72006616Y-184887654D01*
X72194749Y-184695203D01*
X72301742Y-184548210D01*
X72350442Y-184481304D01*
X72350447Y-184481297D01*
X72353130Y-184477610D01*
X72478441Y-184239433D01*
X72568057Y-183985662D01*
X72595419Y-183846837D01*
X72619220Y-183726083D01*
X72619221Y-183726077D01*
X72620101Y-183721611D01*
X72623296Y-183657426D01*
X72629282Y-183537186D01*
X80345518Y-183537186D01*
X80371079Y-183805100D01*
X80372164Y-183809534D01*
X80372165Y-183809540D01*
X80414165Y-183981180D01*
X80435047Y-184066518D01*
X80536083Y-184315963D01*
X80672069Y-184548210D01*
X80840158Y-184758395D01*
X81036827Y-184942113D01*
X81257957Y-185095516D01*
X81498916Y-185215391D01*
X81503250Y-185216812D01*
X81503253Y-185216813D01*
X81750323Y-185297807D01*
X81750329Y-185297808D01*
X81754656Y-185299227D01*
X81759147Y-185300007D01*
X81759148Y-185300007D01*
X82016038Y-185344611D01*
X82016046Y-185344612D01*
X82019819Y-185345267D01*
X82023656Y-185345458D01*
X82103277Y-185349422D01*
X82103285Y-185349422D01*
X82104848Y-185349500D01*
X82272874Y-185349500D01*
X82275142Y-185349335D01*
X82275154Y-185349335D01*
X82405957Y-185339844D01*
X82472925Y-185334985D01*
X82477380Y-185334001D01*
X82477383Y-185334001D01*
X82731270Y-185277947D01*
X82731272Y-185277946D01*
X82735726Y-185276963D01*
X82987400Y-185181613D01*
X83222672Y-185050931D01*
X83348014Y-184955273D01*
X83432991Y-184890421D01*
X83432995Y-184890417D01*
X83436616Y-184887654D01*
X83624749Y-184695203D01*
X83731742Y-184548210D01*
X83780442Y-184481304D01*
X83780447Y-184481297D01*
X83783130Y-184477610D01*
X83908441Y-184239433D01*
X83998057Y-183985662D01*
X84025419Y-183846837D01*
X84049220Y-183726083D01*
X84049221Y-183726077D01*
X84050101Y-183721611D01*
X84053296Y-183657426D01*
X84063255Y-183457383D01*
X84063255Y-183457377D01*
X84063482Y-183452814D01*
X84037921Y-183184900D01*
X83973953Y-182923482D01*
X83872917Y-182674037D01*
X83736931Y-182441790D01*
X83568842Y-182231605D01*
X83372173Y-182047887D01*
X83151043Y-181894484D01*
X82910084Y-181774609D01*
X82905750Y-181773188D01*
X82905747Y-181773187D01*
X82658677Y-181692193D01*
X82658671Y-181692192D01*
X82654344Y-181690773D01*
X82649852Y-181689993D01*
X82392962Y-181645389D01*
X82392954Y-181645388D01*
X82389181Y-181644733D01*
X82379218Y-181644237D01*
X82305723Y-181640578D01*
X82305715Y-181640578D01*
X82304152Y-181640500D01*
X82136126Y-181640500D01*
X82133858Y-181640665D01*
X82133846Y-181640665D01*
X82003043Y-181650156D01*
X81936075Y-181655015D01*
X81931620Y-181655999D01*
X81931617Y-181655999D01*
X81677730Y-181712053D01*
X81677728Y-181712054D01*
X81673274Y-181713037D01*
X81421600Y-181808387D01*
X81186328Y-181939069D01*
X81182696Y-181941841D01*
X80976009Y-182099579D01*
X80976005Y-182099583D01*
X80972384Y-182102346D01*
X80784251Y-182294797D01*
X80781566Y-182298486D01*
X80628558Y-182508696D01*
X80628553Y-182508703D01*
X80625870Y-182512390D01*
X80500559Y-182750567D01*
X80410943Y-183004338D01*
X80410060Y-183008820D01*
X80375355Y-183184900D01*
X80358899Y-183268389D01*
X80358672Y-183272942D01*
X80358672Y-183272945D01*
X80349491Y-183457383D01*
X80345518Y-183537186D01*
X72629282Y-183537186D01*
X72633255Y-183457383D01*
X72633255Y-183457377D01*
X72633482Y-183452814D01*
X72607921Y-183184900D01*
X72543953Y-182923482D01*
X72442917Y-182674037D01*
X72306931Y-182441790D01*
X72138842Y-182231605D01*
X71942173Y-182047887D01*
X71721043Y-181894484D01*
X71480084Y-181774609D01*
X71475750Y-181773188D01*
X71475747Y-181773187D01*
X71228677Y-181692193D01*
X71228671Y-181692192D01*
X71224344Y-181690773D01*
X71219852Y-181689993D01*
X70962962Y-181645389D01*
X70962954Y-181645388D01*
X70959181Y-181644733D01*
X70949218Y-181644237D01*
X70875723Y-181640578D01*
X70875715Y-181640578D01*
X70874152Y-181640500D01*
X70706126Y-181640500D01*
X70703858Y-181640665D01*
X70703846Y-181640665D01*
X70573043Y-181650156D01*
X70506075Y-181655015D01*
X70501620Y-181655999D01*
X70501617Y-181655999D01*
X70247730Y-181712053D01*
X70247728Y-181712054D01*
X70243274Y-181713037D01*
X69991600Y-181808387D01*
X69756328Y-181939069D01*
X69752696Y-181941841D01*
X69546009Y-182099579D01*
X69546005Y-182099583D01*
X69542384Y-182102346D01*
X69354251Y-182294797D01*
X69351566Y-182298486D01*
X69198558Y-182508696D01*
X69198553Y-182508703D01*
X69195870Y-182512390D01*
X69070559Y-182750567D01*
X68980943Y-183004338D01*
X68980060Y-183008820D01*
X68945355Y-183184900D01*
X68928899Y-183268389D01*
X68928672Y-183272942D01*
X68928672Y-183272945D01*
X68919491Y-183457383D01*
X68915518Y-183537186D01*
X26035000Y-183537186D01*
X26035000Y-180340000D01*
X27061708Y-180340000D01*
X27080839Y-180558674D01*
X27137653Y-180770703D01*
X27139978Y-180775688D01*
X27228095Y-180964659D01*
X27228098Y-180964664D01*
X27230421Y-180969646D01*
X27233577Y-180974153D01*
X27233578Y-180974155D01*
X27244226Y-180989361D01*
X27356326Y-181149457D01*
X27511543Y-181304674D01*
X27516051Y-181307831D01*
X27516054Y-181307833D01*
X27686845Y-181427422D01*
X27691354Y-181430579D01*
X27696336Y-181432902D01*
X27696341Y-181432905D01*
X27797116Y-181479896D01*
X27890297Y-181523347D01*
X28102326Y-181580161D01*
X28321000Y-181599292D01*
X28539674Y-181580161D01*
X28751703Y-181523347D01*
X28844884Y-181479896D01*
X28945659Y-181432905D01*
X28945664Y-181432902D01*
X28950646Y-181430579D01*
X28955155Y-181427422D01*
X29125946Y-181307833D01*
X29125949Y-181307831D01*
X29130457Y-181304674D01*
X29285674Y-181149457D01*
X29287349Y-181147064D01*
X29345795Y-181108182D01*
X29383204Y-181102500D01*
X30995690Y-181102500D01*
X31063811Y-181122502D01*
X31103122Y-181162665D01*
X31115481Y-181182833D01*
X31115485Y-181182838D01*
X31118070Y-181187057D01*
X31271868Y-181367132D01*
X31451943Y-181520930D01*
X31653859Y-181644664D01*
X31658429Y-181646557D01*
X31658433Y-181646559D01*
X31868073Y-181733395D01*
X31868075Y-181733396D01*
X31872646Y-181735289D01*
X31952499Y-181754460D01*
X32098104Y-181789417D01*
X32098110Y-181789418D01*
X32102917Y-181790572D01*
X32339000Y-181809152D01*
X32575083Y-181790572D01*
X32579890Y-181789418D01*
X32579896Y-181789417D01*
X32725501Y-181754460D01*
X32805354Y-181735289D01*
X32809925Y-181733396D01*
X32809927Y-181733395D01*
X33019567Y-181646559D01*
X33019571Y-181646557D01*
X33024141Y-181644664D01*
X33226057Y-181520930D01*
X33406132Y-181367132D01*
X33559930Y-181187057D01*
X33683664Y-180985141D01*
X33690083Y-180969646D01*
X33772395Y-180770927D01*
X33772396Y-180770925D01*
X33774289Y-180766354D01*
X33822874Y-180563984D01*
X33828417Y-180540896D01*
X33828418Y-180540890D01*
X33829572Y-180536083D01*
X33848152Y-180300000D01*
X33829572Y-180063917D01*
X33774289Y-179833646D01*
X33772395Y-179829073D01*
X33685559Y-179619433D01*
X33685557Y-179619429D01*
X33683664Y-179614859D01*
X33559930Y-179412943D01*
X33406132Y-179232868D01*
X33226057Y-179079070D01*
X33024141Y-178955336D01*
X33019571Y-178953443D01*
X33019567Y-178953441D01*
X32809927Y-178866605D01*
X32809925Y-178866604D01*
X32805354Y-178864711D01*
X32725501Y-178845540D01*
X32579896Y-178810583D01*
X32579890Y-178810582D01*
X32575083Y-178809428D01*
X32339000Y-178790848D01*
X32102917Y-178809428D01*
X32098110Y-178810582D01*
X32098104Y-178810583D01*
X31952499Y-178845540D01*
X31872646Y-178864711D01*
X31868075Y-178866604D01*
X31868073Y-178866605D01*
X31658433Y-178953441D01*
X31658429Y-178953443D01*
X31653859Y-178955336D01*
X31451943Y-179079070D01*
X31271868Y-179232868D01*
X31118070Y-179412943D01*
X31115486Y-179417160D01*
X31115482Y-179417166D01*
X31054099Y-179517334D01*
X31001452Y-179564966D01*
X30946666Y-179577500D01*
X29383204Y-179577500D01*
X29315083Y-179557498D01*
X29287611Y-179533309D01*
X29285674Y-179530543D01*
X29130457Y-179375326D01*
X29125949Y-179372169D01*
X29125946Y-179372167D01*
X28955155Y-179252578D01*
X28955153Y-179252577D01*
X28950646Y-179249421D01*
X28945664Y-179247098D01*
X28945659Y-179247095D01*
X28844884Y-179200104D01*
X28751703Y-179156653D01*
X28539674Y-179099839D01*
X28321000Y-179080708D01*
X28102326Y-179099839D01*
X27890297Y-179156653D01*
X27797116Y-179200104D01*
X27696341Y-179247095D01*
X27696336Y-179247098D01*
X27691354Y-179249421D01*
X27686847Y-179252577D01*
X27686845Y-179252578D01*
X27516054Y-179372167D01*
X27516051Y-179372169D01*
X27511543Y-179375326D01*
X27356326Y-179530543D01*
X27353169Y-179535051D01*
X27353167Y-179535054D01*
X27233578Y-179705845D01*
X27230421Y-179710354D01*
X27228098Y-179715336D01*
X27228095Y-179715341D01*
X27181104Y-179816116D01*
X27137653Y-179909297D01*
X27080839Y-180121326D01*
X27061708Y-180340000D01*
X26035000Y-180340000D01*
X26035000Y-178195161D01*
X76438893Y-178195161D01*
X76448187Y-178207175D01*
X76488588Y-178235464D01*
X76498084Y-178240947D01*
X76687613Y-178329326D01*
X76697905Y-178333072D01*
X76899901Y-178387196D01*
X76910696Y-178389099D01*
X77119025Y-178407326D01*
X77129975Y-178407326D01*
X77338304Y-178389099D01*
X77349099Y-178387196D01*
X77551095Y-178333072D01*
X77561387Y-178329326D01*
X77750916Y-178240947D01*
X77760412Y-178235464D01*
X77801648Y-178206590D01*
X77810023Y-178196112D01*
X77802957Y-178182668D01*
X77137311Y-177517021D01*
X77123368Y-177509408D01*
X77121534Y-177509539D01*
X77114920Y-177513790D01*
X76445320Y-178183391D01*
X76438893Y-178195161D01*
X26035000Y-178195161D01*
X26035000Y-175260000D01*
X27061708Y-175260000D01*
X27080839Y-175478674D01*
X27137653Y-175690703D01*
X27145850Y-175708281D01*
X27228095Y-175884659D01*
X27228098Y-175884664D01*
X27230421Y-175889646D01*
X27233577Y-175894153D01*
X27233578Y-175894155D01*
X27351772Y-176062953D01*
X27356326Y-176069457D01*
X27511543Y-176224674D01*
X27516051Y-176227831D01*
X27516054Y-176227833D01*
X27686845Y-176347422D01*
X27691354Y-176350579D01*
X27696336Y-176352902D01*
X27696341Y-176352905D01*
X27786213Y-176394812D01*
X27890297Y-176443347D01*
X28102326Y-176500161D01*
X28321000Y-176519292D01*
X28539674Y-176500161D01*
X28751703Y-176443347D01*
X28855787Y-176394812D01*
X28945659Y-176352905D01*
X28945664Y-176352902D01*
X28950646Y-176350579D01*
X28955155Y-176347422D01*
X29125946Y-176227833D01*
X29125949Y-176227831D01*
X29130457Y-176224674D01*
X29285674Y-176069457D01*
X29287349Y-176067064D01*
X29345795Y-176028182D01*
X29383204Y-176022500D01*
X30708501Y-176022500D01*
X30776622Y-176042502D01*
X30823115Y-176096158D01*
X30834501Y-176148500D01*
X30834501Y-176575066D01*
X30849266Y-176649301D01*
X30905516Y-176733484D01*
X30989699Y-176789734D01*
X31063933Y-176804500D01*
X32338793Y-176804500D01*
X33614066Y-176804499D01*
X33649818Y-176797388D01*
X33676126Y-176792156D01*
X33676128Y-176792155D01*
X33688301Y-176789734D01*
X33698621Y-176782839D01*
X33698622Y-176782838D01*
X33762168Y-176740377D01*
X33772484Y-176733484D01*
X33828734Y-176649301D01*
X33843500Y-176575067D01*
X33843499Y-174024934D01*
X33828734Y-173950699D01*
X33772484Y-173866516D01*
X33688301Y-173810266D01*
X33614067Y-173795500D01*
X32339207Y-173795500D01*
X31063934Y-173795501D01*
X31028182Y-173802612D01*
X31001874Y-173807844D01*
X31001872Y-173807845D01*
X30989699Y-173810266D01*
X30979379Y-173817161D01*
X30979378Y-173817162D01*
X30918985Y-173857516D01*
X30905516Y-173866516D01*
X30849266Y-173950699D01*
X30834500Y-174024933D01*
X30834500Y-174371500D01*
X30814498Y-174439621D01*
X30760842Y-174486114D01*
X30708500Y-174497500D01*
X29383204Y-174497500D01*
X29315083Y-174477498D01*
X29287611Y-174453309D01*
X29285674Y-174450543D01*
X29130457Y-174295326D01*
X29125949Y-174292169D01*
X29125946Y-174292167D01*
X28955155Y-174172578D01*
X28955153Y-174172577D01*
X28950646Y-174169421D01*
X28945664Y-174167098D01*
X28945659Y-174167095D01*
X28844884Y-174120104D01*
X28751703Y-174076653D01*
X28539674Y-174019839D01*
X28321000Y-174000708D01*
X28102326Y-174019839D01*
X27890297Y-174076653D01*
X27797116Y-174120104D01*
X27696341Y-174167095D01*
X27696336Y-174167098D01*
X27691354Y-174169421D01*
X27686847Y-174172577D01*
X27686845Y-174172578D01*
X27516054Y-174292167D01*
X27516051Y-174292169D01*
X27511543Y-174295326D01*
X27356326Y-174450543D01*
X27230421Y-174630354D01*
X27228098Y-174635336D01*
X27228095Y-174635341D01*
X27227479Y-174636663D01*
X27137653Y-174829297D01*
X27080839Y-175041326D01*
X27061708Y-175260000D01*
X26035000Y-175260000D01*
X26035000Y-171323000D01*
X63891708Y-171323000D01*
X63910839Y-171541674D01*
X63967653Y-171753703D01*
X64003966Y-171831577D01*
X64058095Y-171947659D01*
X64058098Y-171947664D01*
X64060421Y-171952646D01*
X64063577Y-171957153D01*
X64063578Y-171957155D01*
X64175686Y-172117261D01*
X64186326Y-172132457D01*
X64341543Y-172287674D01*
X64346051Y-172290831D01*
X64346054Y-172290833D01*
X64511110Y-172406406D01*
X64521354Y-172413579D01*
X64526339Y-172415904D01*
X64526345Y-172415907D01*
X64569749Y-172436146D01*
X64623035Y-172483063D01*
X64642500Y-172550341D01*
X64642500Y-175950928D01*
X64641145Y-175963058D01*
X64641627Y-175963097D01*
X64640907Y-175972044D01*
X64638926Y-175980800D01*
X64639482Y-175989760D01*
X64642258Y-176034508D01*
X64642500Y-176042310D01*
X64642500Y-176058513D01*
X64643136Y-176062953D01*
X64643984Y-176068878D01*
X64645013Y-176078928D01*
X64646082Y-176096158D01*
X64647945Y-176126177D01*
X64650994Y-176134623D01*
X64651593Y-176137514D01*
X64655822Y-176154480D01*
X64656648Y-176157305D01*
X64657920Y-176166187D01*
X64677522Y-176209298D01*
X64681327Y-176218647D01*
X64697404Y-176263181D01*
X64702699Y-176270429D01*
X64704080Y-176273027D01*
X64712915Y-176288145D01*
X64714494Y-176290614D01*
X64718208Y-176298782D01*
X64729711Y-176312132D01*
X64749115Y-176334652D01*
X64755401Y-176342569D01*
X64760548Y-176349615D01*
X64760553Y-176349620D01*
X64763425Y-176353552D01*
X64774400Y-176364527D01*
X64780758Y-176371374D01*
X64813287Y-176409127D01*
X64820822Y-176414011D01*
X64827066Y-176419458D01*
X64838931Y-176429058D01*
X64989324Y-176579451D01*
X65016638Y-176620327D01*
X65043453Y-176685063D01*
X65133103Y-176801897D01*
X65249937Y-176891547D01*
X65385993Y-176947904D01*
X65394177Y-176948981D01*
X65394179Y-176948982D01*
X65523812Y-176966048D01*
X65532000Y-176967126D01*
X65540188Y-176966048D01*
X65669821Y-176948982D01*
X65669823Y-176948981D01*
X65678007Y-176947904D01*
X65814063Y-176891547D01*
X65930897Y-176801897D01*
X66020547Y-176685063D01*
X66076904Y-176549007D01*
X66080910Y-176518583D01*
X66095048Y-176411188D01*
X66096126Y-176403000D01*
X66076904Y-176256993D01*
X66020547Y-176120937D01*
X65930897Y-176004103D01*
X65814063Y-175914453D01*
X65749328Y-175887639D01*
X65708452Y-175860325D01*
X65696405Y-175848278D01*
X65662379Y-175785966D01*
X65659500Y-175759183D01*
X65659500Y-172550341D01*
X65679502Y-172482220D01*
X65732251Y-172436146D01*
X65775655Y-172415907D01*
X65775661Y-172415904D01*
X65780646Y-172413579D01*
X65790890Y-172406406D01*
X65955946Y-172290833D01*
X65955949Y-172290831D01*
X65960457Y-172287674D01*
X66115674Y-172132457D01*
X66126315Y-172117261D01*
X66238422Y-171957155D01*
X66238423Y-171957153D01*
X66241579Y-171952646D01*
X66243902Y-171947664D01*
X66243905Y-171947659D01*
X66298034Y-171831577D01*
X66334347Y-171753703D01*
X66391161Y-171541674D01*
X66410292Y-171323000D01*
X67828708Y-171323000D01*
X67847839Y-171541674D01*
X67904653Y-171753703D01*
X67940966Y-171831577D01*
X67995095Y-171947659D01*
X67995098Y-171947664D01*
X67997421Y-171952646D01*
X68000577Y-171957153D01*
X68000578Y-171957155D01*
X68112686Y-172117261D01*
X68123326Y-172132457D01*
X68278543Y-172287674D01*
X68283051Y-172290831D01*
X68283054Y-172290833D01*
X68448110Y-172406406D01*
X68458354Y-172413579D01*
X68463339Y-172415904D01*
X68463345Y-172415907D01*
X68506749Y-172436146D01*
X68560035Y-172483063D01*
X68579500Y-172550341D01*
X68579500Y-172775928D01*
X68578145Y-172788058D01*
X68578627Y-172788097D01*
X68577907Y-172797044D01*
X68575926Y-172805800D01*
X68576482Y-172814760D01*
X68579258Y-172859508D01*
X68579500Y-172867310D01*
X68579500Y-172883513D01*
X68580136Y-172887953D01*
X68580984Y-172893878D01*
X68582013Y-172903928D01*
X68584945Y-172951177D01*
X68587994Y-172959623D01*
X68588593Y-172962514D01*
X68592822Y-172979480D01*
X68593648Y-172982305D01*
X68594920Y-172991187D01*
X68614522Y-173034298D01*
X68618327Y-173043647D01*
X68634404Y-173088181D01*
X68639699Y-173095429D01*
X68641080Y-173098027D01*
X68649915Y-173113145D01*
X68651494Y-173115614D01*
X68655208Y-173123782D01*
X68686115Y-173159652D01*
X68692401Y-173167569D01*
X68697548Y-173174615D01*
X68697553Y-173174620D01*
X68700425Y-173178552D01*
X68711400Y-173189527D01*
X68717758Y-173196375D01*
X68744135Y-173226987D01*
X68750287Y-173234127D01*
X68757822Y-173239011D01*
X68764066Y-173244458D01*
X68775931Y-173254058D01*
X71447279Y-175925406D01*
X71481305Y-175987718D01*
X71476240Y-176058533D01*
X71433693Y-176115369D01*
X71367173Y-176140180D01*
X71358184Y-176140501D01*
X71269434Y-176140501D01*
X71233682Y-176147612D01*
X71207374Y-176152844D01*
X71207372Y-176152845D01*
X71195199Y-176155266D01*
X71184879Y-176162161D01*
X71184878Y-176162162D01*
X71166629Y-176174356D01*
X71111016Y-176211516D01*
X71054766Y-176295699D01*
X71040000Y-176369933D01*
X71040001Y-177920066D01*
X71054766Y-177994301D01*
X71111016Y-178078484D01*
X71195199Y-178134734D01*
X71269433Y-178149500D01*
X72044374Y-178149500D01*
X72819566Y-178149499D01*
X72855318Y-178142388D01*
X72881626Y-178137156D01*
X72881628Y-178137155D01*
X72893801Y-178134734D01*
X72904121Y-178127839D01*
X72904122Y-178127838D01*
X72967668Y-178085377D01*
X72977984Y-178078484D01*
X73034234Y-177994301D01*
X73049000Y-177920067D01*
X73048999Y-177130907D01*
X73575238Y-177130907D01*
X73591722Y-177327209D01*
X73618872Y-177421890D01*
X73644005Y-177509539D01*
X73646021Y-177516570D01*
X73736066Y-177691779D01*
X73739889Y-177696603D01*
X73739892Y-177696607D01*
X73767545Y-177731496D01*
X73858427Y-177846160D01*
X73863120Y-177850154D01*
X73863121Y-177850155D01*
X73952398Y-177926135D01*
X74008445Y-177973835D01*
X74013823Y-177976841D01*
X74013825Y-177976842D01*
X74063532Y-178004622D01*
X74180404Y-178069940D01*
X74367755Y-178130814D01*
X74563362Y-178154139D01*
X74569497Y-178153667D01*
X74569499Y-178153667D01*
X74629301Y-178149065D01*
X74759774Y-178139026D01*
X74949509Y-178086050D01*
X74955013Y-178083270D01*
X75119841Y-178000010D01*
X75119843Y-178000009D01*
X75125342Y-177997231D01*
X75280574Y-177875950D01*
X75284600Y-177871286D01*
X75284603Y-177871283D01*
X75405264Y-177731496D01*
X75405265Y-177731494D01*
X75409293Y-177726828D01*
X75506596Y-177555544D01*
X75568777Y-177368622D01*
X75593466Y-177173183D01*
X75593726Y-177154580D01*
X75593784Y-177150475D01*
X75862174Y-177150475D01*
X75880401Y-177358804D01*
X75882304Y-177369599D01*
X75936428Y-177571595D01*
X75940174Y-177581887D01*
X76028554Y-177771417D01*
X76034034Y-177780907D01*
X76062911Y-177822149D01*
X76073387Y-177830523D01*
X76086834Y-177823455D01*
X76752479Y-177157811D01*
X76758856Y-177146132D01*
X77488908Y-177146132D01*
X77489039Y-177147966D01*
X77493290Y-177154580D01*
X78162891Y-177824180D01*
X78174661Y-177830607D01*
X78186676Y-177821311D01*
X78214966Y-177780907D01*
X78220446Y-177771417D01*
X78308826Y-177581887D01*
X78312572Y-177571595D01*
X78366696Y-177369599D01*
X78368599Y-177358804D01*
X78386826Y-177150475D01*
X78386826Y-177139525D01*
X78386072Y-177130907D01*
X78655238Y-177130907D01*
X78671722Y-177327209D01*
X78698872Y-177421890D01*
X78724005Y-177509539D01*
X78726021Y-177516570D01*
X78816066Y-177691779D01*
X78819889Y-177696603D01*
X78819892Y-177696607D01*
X78847545Y-177731496D01*
X78938427Y-177846160D01*
X78943120Y-177850154D01*
X78943121Y-177850155D01*
X79032398Y-177926135D01*
X79088445Y-177973835D01*
X79093823Y-177976841D01*
X79093825Y-177976842D01*
X79143532Y-178004622D01*
X79260404Y-178069940D01*
X79447755Y-178130814D01*
X79643362Y-178154139D01*
X79649497Y-178153667D01*
X79649499Y-178153667D01*
X79709301Y-178149065D01*
X79839774Y-178139026D01*
X80029509Y-178086050D01*
X80035013Y-178083270D01*
X80199841Y-178000010D01*
X80199843Y-178000009D01*
X80205342Y-177997231D01*
X80360574Y-177875950D01*
X80364600Y-177871286D01*
X80364603Y-177871283D01*
X80485264Y-177731496D01*
X80485265Y-177731494D01*
X80489293Y-177726828D01*
X80586596Y-177555544D01*
X80648777Y-177368622D01*
X80673466Y-177173183D01*
X80673726Y-177154580D01*
X80673811Y-177148522D01*
X80673811Y-177148518D01*
X80673860Y-177145000D01*
X80654637Y-176948948D01*
X80597700Y-176760363D01*
X80577923Y-176723168D01*
X80508111Y-176591871D01*
X80508109Y-176591868D01*
X80505217Y-176586429D01*
X80380712Y-176433770D01*
X80315394Y-176379734D01*
X80233677Y-176312132D01*
X80233674Y-176312130D01*
X80228927Y-176308203D01*
X80055643Y-176214508D01*
X79867460Y-176156256D01*
X79861335Y-176155612D01*
X79861334Y-176155612D01*
X79677676Y-176136309D01*
X79677674Y-176136309D01*
X79671547Y-176135665D01*
X79605157Y-176141707D01*
X79481504Y-176152960D01*
X79481501Y-176152961D01*
X79475365Y-176153519D01*
X79469459Y-176155257D01*
X79469455Y-176155258D01*
X79329275Y-176196516D01*
X79286387Y-176209138D01*
X79280927Y-176211992D01*
X79280928Y-176211992D01*
X79117272Y-176297549D01*
X79117268Y-176297552D01*
X79111812Y-176300404D01*
X79107012Y-176304264D01*
X79107011Y-176304264D01*
X79017640Y-176376120D01*
X78958288Y-176423840D01*
X78831663Y-176574745D01*
X78825240Y-176586429D01*
X78750068Y-176723168D01*
X78736762Y-176747371D01*
X78734898Y-176753246D01*
X78734897Y-176753249D01*
X78722555Y-176792156D01*
X78677197Y-176935142D01*
X78655238Y-177130907D01*
X78386072Y-177130907D01*
X78368599Y-176931196D01*
X78366696Y-176920401D01*
X78312572Y-176718405D01*
X78308826Y-176708113D01*
X78220446Y-176518583D01*
X78214966Y-176509093D01*
X78186089Y-176467851D01*
X78175613Y-176459477D01*
X78162166Y-176466545D01*
X77496521Y-177132189D01*
X77488908Y-177146132D01*
X76758856Y-177146132D01*
X76760092Y-177143868D01*
X76759961Y-177142034D01*
X76755710Y-177135420D01*
X76086109Y-176465820D01*
X76074339Y-176459393D01*
X76062324Y-176468689D01*
X76034034Y-176509093D01*
X76028554Y-176518583D01*
X75940174Y-176708113D01*
X75936428Y-176718405D01*
X75882304Y-176920401D01*
X75880401Y-176931196D01*
X75862174Y-177139525D01*
X75862174Y-177150475D01*
X75593784Y-177150475D01*
X75593811Y-177148522D01*
X75593811Y-177148518D01*
X75593860Y-177145000D01*
X75574637Y-176948948D01*
X75517700Y-176760363D01*
X75497923Y-176723168D01*
X75428111Y-176591871D01*
X75428109Y-176591868D01*
X75425217Y-176586429D01*
X75300712Y-176433770D01*
X75235394Y-176379734D01*
X75153677Y-176312132D01*
X75153674Y-176312130D01*
X75148927Y-176308203D01*
X74975643Y-176214508D01*
X74787460Y-176156256D01*
X74781335Y-176155612D01*
X74781334Y-176155612D01*
X74597676Y-176136309D01*
X74597674Y-176136309D01*
X74591547Y-176135665D01*
X74525157Y-176141707D01*
X74401504Y-176152960D01*
X74401501Y-176152961D01*
X74395365Y-176153519D01*
X74389459Y-176155257D01*
X74389455Y-176155258D01*
X74249275Y-176196516D01*
X74206387Y-176209138D01*
X74200927Y-176211992D01*
X74200928Y-176211992D01*
X74037272Y-176297549D01*
X74037268Y-176297552D01*
X74031812Y-176300404D01*
X74027012Y-176304264D01*
X74027011Y-176304264D01*
X73937640Y-176376120D01*
X73878288Y-176423840D01*
X73751663Y-176574745D01*
X73745240Y-176586429D01*
X73670068Y-176723168D01*
X73656762Y-176747371D01*
X73654898Y-176753246D01*
X73654897Y-176753249D01*
X73642555Y-176792156D01*
X73597197Y-176935142D01*
X73575238Y-177130907D01*
X73048999Y-177130907D01*
X73048999Y-176369934D01*
X73041888Y-176334182D01*
X73036656Y-176307874D01*
X73036655Y-176307872D01*
X73034234Y-176295699D01*
X73006863Y-176254735D01*
X72984877Y-176221832D01*
X72977984Y-176211516D01*
X72893801Y-176155266D01*
X72819567Y-176140500D01*
X72679000Y-176140500D01*
X72610879Y-176120498D01*
X72587821Y-176093887D01*
X76438977Y-176093887D01*
X76446045Y-176107334D01*
X77111689Y-176772979D01*
X77125632Y-176780592D01*
X77127466Y-176780461D01*
X77134080Y-176776210D01*
X77803680Y-176106609D01*
X77810107Y-176094839D01*
X77800813Y-176082825D01*
X77760412Y-176054536D01*
X77750916Y-176049053D01*
X77561387Y-175960674D01*
X77551095Y-175956928D01*
X77349099Y-175902804D01*
X77338304Y-175900901D01*
X77129975Y-175882674D01*
X77119025Y-175882674D01*
X76910696Y-175900901D01*
X76899901Y-175902804D01*
X76697905Y-175956928D01*
X76687613Y-175960674D01*
X76498083Y-176049054D01*
X76488593Y-176054534D01*
X76447351Y-176083411D01*
X76438977Y-176093887D01*
X72587821Y-176093887D01*
X72564386Y-176066842D01*
X72553000Y-176014500D01*
X72553000Y-175874573D01*
X72554355Y-175862444D01*
X72553873Y-175862405D01*
X72554593Y-175853454D01*
X72556574Y-175844700D01*
X72553242Y-175790991D01*
X72553000Y-175783189D01*
X72553000Y-175766987D01*
X72551516Y-175756622D01*
X72550487Y-175746572D01*
X72548111Y-175708281D01*
X72548111Y-175708280D01*
X72547555Y-175699322D01*
X72544507Y-175690881D01*
X72543904Y-175687967D01*
X72539685Y-175671048D01*
X72538853Y-175668202D01*
X72537580Y-175659313D01*
X72517974Y-175616191D01*
X72514166Y-175606835D01*
X72501143Y-175570763D01*
X72498095Y-175562319D01*
X72492798Y-175555068D01*
X72491415Y-175552467D01*
X72480529Y-175533837D01*
X72477352Y-175526849D01*
X72467366Y-175456561D01*
X72496967Y-175392029D01*
X72556757Y-175353746D01*
X72627754Y-175353864D01*
X72673716Y-175378747D01*
X72717927Y-175416373D01*
X72738445Y-175433835D01*
X72743823Y-175436841D01*
X72743825Y-175436842D01*
X72904877Y-175526851D01*
X72910404Y-175529940D01*
X73097755Y-175590814D01*
X73293362Y-175614139D01*
X73299497Y-175613667D01*
X73299499Y-175613667D01*
X73359301Y-175609065D01*
X73489774Y-175599026D01*
X73679509Y-175546050D01*
X73703697Y-175533832D01*
X73849841Y-175460010D01*
X73849843Y-175460009D01*
X73855342Y-175457231D01*
X74010574Y-175335950D01*
X74014600Y-175331286D01*
X74014603Y-175331283D01*
X74135264Y-175191496D01*
X74135265Y-175191494D01*
X74139293Y-175186828D01*
X74236596Y-175015544D01*
X74298777Y-174828622D01*
X74323466Y-174633183D01*
X74323860Y-174605000D01*
X74322478Y-174590907D01*
X74845238Y-174590907D01*
X74861722Y-174787209D01*
X74916021Y-174976570D01*
X75006066Y-175151779D01*
X75009889Y-175156603D01*
X75009892Y-175156607D01*
X75091841Y-175260000D01*
X75128427Y-175306160D01*
X75133120Y-175310154D01*
X75133121Y-175310155D01*
X75245563Y-175405850D01*
X75278445Y-175433835D01*
X75283823Y-175436841D01*
X75283825Y-175436842D01*
X75444877Y-175526851D01*
X75450404Y-175529940D01*
X75637755Y-175590814D01*
X75833362Y-175614139D01*
X75839497Y-175613667D01*
X75839499Y-175613667D01*
X75899301Y-175609065D01*
X76029774Y-175599026D01*
X76219509Y-175546050D01*
X76243697Y-175533832D01*
X76389841Y-175460010D01*
X76389843Y-175460009D01*
X76395342Y-175457231D01*
X76550574Y-175335950D01*
X76554600Y-175331286D01*
X76554603Y-175331283D01*
X76675264Y-175191496D01*
X76675265Y-175191494D01*
X76679293Y-175186828D01*
X76776596Y-175015544D01*
X76838777Y-174828622D01*
X76863466Y-174633183D01*
X76863860Y-174605000D01*
X76844637Y-174408948D01*
X76787700Y-174220363D01*
X76762292Y-174172578D01*
X76698111Y-174051871D01*
X76698109Y-174051868D01*
X76695217Y-174046429D01*
X76570712Y-173893770D01*
X76418927Y-173768203D01*
X76417533Y-173767449D01*
X76373253Y-173713996D01*
X76363000Y-173664210D01*
X76363000Y-172693317D01*
X76383002Y-172625196D01*
X76399905Y-172604222D01*
X76453423Y-172550704D01*
X76515735Y-172516678D01*
X76575130Y-172518093D01*
X76738005Y-172561736D01*
X76738014Y-172561738D01*
X76743326Y-172563161D01*
X76962000Y-172582292D01*
X77180674Y-172563161D01*
X77392703Y-172506347D01*
X77511205Y-172451089D01*
X77586659Y-172415905D01*
X77586664Y-172415902D01*
X77591646Y-172413579D01*
X77607539Y-172402451D01*
X77748648Y-172303645D01*
X77815922Y-172280957D01*
X77884783Y-172298242D01*
X77933367Y-172350012D01*
X77946249Y-172419830D01*
X77938902Y-172451084D01*
X77931785Y-172470070D01*
X77927259Y-172482143D01*
X77923333Y-172491458D01*
X77903219Y-172534300D01*
X77901838Y-172543169D01*
X77900972Y-172546002D01*
X77896542Y-172562889D01*
X77895908Y-172565774D01*
X77892755Y-172574184D01*
X77892090Y-172583139D01*
X77889246Y-172621406D01*
X77888092Y-172631452D01*
X77886000Y-172644886D01*
X77886000Y-172660406D01*
X77885654Y-172669743D01*
X77881961Y-172719441D01*
X77883835Y-172728220D01*
X77884398Y-172736478D01*
X77886000Y-172751661D01*
X77886000Y-173664506D01*
X77865998Y-173732627D01*
X77838952Y-173762703D01*
X77782808Y-173807844D01*
X77688288Y-173883840D01*
X77561663Y-174034745D01*
X77555240Y-174046429D01*
X77488904Y-174167095D01*
X77466762Y-174207371D01*
X77464898Y-174213246D01*
X77464897Y-174213249D01*
X77430219Y-174322569D01*
X77407197Y-174395142D01*
X77385238Y-174590907D01*
X77401722Y-174787209D01*
X77456021Y-174976570D01*
X77546066Y-175151779D01*
X77549889Y-175156603D01*
X77549892Y-175156607D01*
X77631841Y-175260000D01*
X77668427Y-175306160D01*
X77673120Y-175310154D01*
X77673121Y-175310155D01*
X77785563Y-175405850D01*
X77818445Y-175433835D01*
X77823823Y-175436841D01*
X77823825Y-175436842D01*
X77984877Y-175526851D01*
X77990404Y-175529940D01*
X78177755Y-175590814D01*
X78373362Y-175614139D01*
X78379497Y-175613667D01*
X78379499Y-175613667D01*
X78439301Y-175609065D01*
X78569774Y-175599026D01*
X78759509Y-175546050D01*
X78783697Y-175533832D01*
X78929841Y-175460010D01*
X78929843Y-175460009D01*
X78935342Y-175457231D01*
X79090574Y-175335950D01*
X79094600Y-175331286D01*
X79094603Y-175331283D01*
X79215264Y-175191496D01*
X79215265Y-175191494D01*
X79219293Y-175186828D01*
X79316596Y-175015544D01*
X79378777Y-174828622D01*
X79403466Y-174633183D01*
X79403860Y-174605000D01*
X79402478Y-174590907D01*
X79925238Y-174590907D01*
X79941722Y-174787209D01*
X79996021Y-174976570D01*
X80086066Y-175151779D01*
X80089889Y-175156603D01*
X80089892Y-175156607D01*
X80171841Y-175260000D01*
X80208427Y-175306160D01*
X80213120Y-175310154D01*
X80213121Y-175310155D01*
X80325563Y-175405850D01*
X80358445Y-175433835D01*
X80363823Y-175436841D01*
X80363825Y-175436842D01*
X80524877Y-175526851D01*
X80530404Y-175529940D01*
X80717755Y-175590814D01*
X80913362Y-175614139D01*
X80919497Y-175613667D01*
X80919499Y-175613667D01*
X80979301Y-175609065D01*
X81109774Y-175599026D01*
X81299509Y-175546050D01*
X81323697Y-175533832D01*
X81469841Y-175460010D01*
X81469843Y-175460009D01*
X81475342Y-175457231D01*
X81630574Y-175335950D01*
X81634600Y-175331286D01*
X81634603Y-175331283D01*
X81755264Y-175191496D01*
X81755265Y-175191494D01*
X81759293Y-175186828D01*
X81856596Y-175015544D01*
X81918777Y-174828622D01*
X81943466Y-174633183D01*
X81943860Y-174605000D01*
X81924637Y-174408948D01*
X81867700Y-174220363D01*
X81842292Y-174172578D01*
X81778111Y-174051871D01*
X81778109Y-174051868D01*
X81775217Y-174046429D01*
X81650712Y-173893770D01*
X81585394Y-173839734D01*
X81503677Y-173772132D01*
X81503674Y-173772130D01*
X81498927Y-173768203D01*
X81325643Y-173674508D01*
X81137460Y-173616256D01*
X81131335Y-173615612D01*
X81131334Y-173615612D01*
X80947676Y-173596309D01*
X80947674Y-173596309D01*
X80941547Y-173595665D01*
X80859518Y-173603130D01*
X80751504Y-173612960D01*
X80751501Y-173612961D01*
X80745365Y-173613519D01*
X80739459Y-173615257D01*
X80739455Y-173615258D01*
X80599275Y-173656516D01*
X80556387Y-173669138D01*
X80550927Y-173671992D01*
X80550928Y-173671992D01*
X80387272Y-173757549D01*
X80387268Y-173757552D01*
X80381812Y-173760404D01*
X80377012Y-173764264D01*
X80377011Y-173764264D01*
X80322808Y-173807844D01*
X80228288Y-173883840D01*
X80101663Y-174034745D01*
X80095240Y-174046429D01*
X80028904Y-174167095D01*
X80006762Y-174207371D01*
X80004898Y-174213246D01*
X80004897Y-174213249D01*
X79970219Y-174322569D01*
X79947197Y-174395142D01*
X79925238Y-174590907D01*
X79402478Y-174590907D01*
X79384637Y-174408948D01*
X79327700Y-174220363D01*
X79302292Y-174172578D01*
X79238111Y-174051871D01*
X79238109Y-174051868D01*
X79235217Y-174046429D01*
X79110712Y-173893770D01*
X78958927Y-173768203D01*
X78957533Y-173767449D01*
X78913253Y-173713996D01*
X78903000Y-173664210D01*
X78903000Y-172947318D01*
X78923002Y-172879197D01*
X78939905Y-172858222D01*
X79717505Y-172080623D01*
X79779817Y-172046598D01*
X79850633Y-172051663D01*
X79909812Y-172097447D01*
X79934326Y-172132457D01*
X80089543Y-172287674D01*
X80094051Y-172290831D01*
X80094054Y-172290833D01*
X80259110Y-172406406D01*
X80269354Y-172413579D01*
X80274336Y-172415902D01*
X80274341Y-172415905D01*
X80349795Y-172451089D01*
X80468297Y-172506347D01*
X80680326Y-172563161D01*
X80899000Y-172582292D01*
X81117674Y-172563161D01*
X81329703Y-172506347D01*
X81448205Y-172451089D01*
X81523659Y-172415905D01*
X81523664Y-172415902D01*
X81528646Y-172413579D01*
X81538890Y-172406406D01*
X81703946Y-172290833D01*
X81703949Y-172290831D01*
X81708457Y-172287674D01*
X81863674Y-172132457D01*
X81874315Y-172117261D01*
X81986422Y-171957155D01*
X81986423Y-171957153D01*
X81989579Y-171952646D01*
X81991902Y-171947664D01*
X81991905Y-171947659D01*
X82046034Y-171831577D01*
X82082347Y-171753703D01*
X82139161Y-171541674D01*
X82158292Y-171323000D01*
X82139161Y-171104326D01*
X82082347Y-170892297D01*
X82034888Y-170790521D01*
X81991905Y-170698341D01*
X81991901Y-170698334D01*
X81989579Y-170693354D01*
X81863674Y-170513543D01*
X81708457Y-170358326D01*
X81703949Y-170355169D01*
X81703946Y-170355167D01*
X81533155Y-170235578D01*
X81533153Y-170235577D01*
X81528646Y-170232421D01*
X81523664Y-170230098D01*
X81523659Y-170230095D01*
X81375467Y-170160993D01*
X81329703Y-170139653D01*
X81117674Y-170082839D01*
X80899000Y-170063708D01*
X80680326Y-170082839D01*
X80468297Y-170139653D01*
X80422533Y-170160993D01*
X80274341Y-170230095D01*
X80274336Y-170230098D01*
X80269354Y-170232421D01*
X80264847Y-170235577D01*
X80264845Y-170235578D01*
X80094054Y-170355167D01*
X80094051Y-170355169D01*
X80089543Y-170358326D01*
X79934326Y-170513543D01*
X79808421Y-170693354D01*
X79805627Y-170699347D01*
X79783947Y-170745840D01*
X79737030Y-170799125D01*
X79677557Y-170818348D01*
X79661011Y-170819375D01*
X79651823Y-170819945D01*
X79643377Y-170822994D01*
X79640486Y-170823593D01*
X79623520Y-170827822D01*
X79620695Y-170828648D01*
X79611813Y-170829920D01*
X79568702Y-170849522D01*
X79559353Y-170853327D01*
X79514819Y-170869404D01*
X79507571Y-170874699D01*
X79504973Y-170876080D01*
X79489855Y-170884915D01*
X79487386Y-170886494D01*
X79479218Y-170890208D01*
X79472422Y-170896064D01*
X79443348Y-170921115D01*
X79435431Y-170927401D01*
X79428385Y-170932548D01*
X79428380Y-170932553D01*
X79424448Y-170935425D01*
X79413473Y-170946400D01*
X79406626Y-170952758D01*
X79368873Y-170985287D01*
X79363989Y-170992822D01*
X79358542Y-170999066D01*
X79348942Y-171010931D01*
X78242612Y-172117261D01*
X78180300Y-172151287D01*
X78109485Y-172146222D01*
X78052649Y-172103675D01*
X78027838Y-172037155D01*
X78042929Y-171967781D01*
X78048078Y-171959483D01*
X78049424Y-171957152D01*
X78052579Y-171952646D01*
X78054902Y-171947664D01*
X78054905Y-171947659D01*
X78109034Y-171831577D01*
X78145347Y-171753703D01*
X78202161Y-171541674D01*
X78221292Y-171323000D01*
X78202161Y-171104326D01*
X78145347Y-170892297D01*
X78097888Y-170790521D01*
X78054905Y-170698341D01*
X78054901Y-170698334D01*
X78052579Y-170693354D01*
X77926674Y-170513543D01*
X77771457Y-170358326D01*
X77766949Y-170355169D01*
X77766946Y-170355167D01*
X77596155Y-170235578D01*
X77596153Y-170235577D01*
X77591646Y-170232421D01*
X77586664Y-170230098D01*
X77586659Y-170230095D01*
X77438467Y-170160993D01*
X77392703Y-170139653D01*
X77180674Y-170082839D01*
X76962000Y-170063708D01*
X76743326Y-170082839D01*
X76531297Y-170139653D01*
X76485533Y-170160993D01*
X76337341Y-170230095D01*
X76337336Y-170230098D01*
X76332354Y-170232421D01*
X76327847Y-170235577D01*
X76327845Y-170235578D01*
X76157054Y-170355167D01*
X76157051Y-170355169D01*
X76152543Y-170358326D01*
X75997326Y-170513543D01*
X75871421Y-170693354D01*
X75869099Y-170698334D01*
X75869095Y-170698341D01*
X75826112Y-170790521D01*
X75778653Y-170892297D01*
X75721839Y-171104326D01*
X75702708Y-171323000D01*
X75721839Y-171541674D01*
X75723262Y-171546984D01*
X75723264Y-171546995D01*
X75766907Y-171709870D01*
X75765218Y-171780847D01*
X75734296Y-171831577D01*
X75545196Y-172020677D01*
X75535656Y-172028300D01*
X75535970Y-172028668D01*
X75529134Y-172034486D01*
X75521542Y-172039276D01*
X75515600Y-172046004D01*
X75485907Y-172079625D01*
X75480561Y-172085312D01*
X75469118Y-172096755D01*
X75463932Y-172103675D01*
X75462841Y-172105130D01*
X75456467Y-172112959D01*
X75425122Y-172148451D01*
X75421308Y-172156574D01*
X75419674Y-172159062D01*
X75410686Y-172174023D01*
X75409271Y-172176608D01*
X75403884Y-172183795D01*
X75400733Y-172192201D01*
X75387259Y-172228142D01*
X75383333Y-172237458D01*
X75363219Y-172280300D01*
X75361838Y-172289169D01*
X75360972Y-172292002D01*
X75356542Y-172308889D01*
X75355908Y-172311774D01*
X75352755Y-172320184D01*
X75350588Y-172349342D01*
X75349246Y-172367406D01*
X75348092Y-172377452D01*
X75346000Y-172390886D01*
X75346000Y-172406406D01*
X75345654Y-172415743D01*
X75341961Y-172465441D01*
X75343835Y-172474220D01*
X75344398Y-172482478D01*
X75346000Y-172497661D01*
X75346000Y-173664506D01*
X75325998Y-173732627D01*
X75298952Y-173762703D01*
X75242808Y-173807844D01*
X75148288Y-173883840D01*
X75021663Y-174034745D01*
X75015240Y-174046429D01*
X74948904Y-174167095D01*
X74926762Y-174207371D01*
X74924898Y-174213246D01*
X74924897Y-174213249D01*
X74890219Y-174322569D01*
X74867197Y-174395142D01*
X74845238Y-174590907D01*
X74322478Y-174590907D01*
X74304637Y-174408948D01*
X74247700Y-174220363D01*
X74222292Y-174172578D01*
X74158111Y-174051871D01*
X74158109Y-174051868D01*
X74155217Y-174046429D01*
X74030712Y-173893770D01*
X73878927Y-173768203D01*
X73877533Y-173767449D01*
X73833253Y-173713996D01*
X73823000Y-173664210D01*
X73823000Y-173334572D01*
X73824355Y-173322442D01*
X73823873Y-173322403D01*
X73824593Y-173313456D01*
X73826574Y-173304700D01*
X73823242Y-173250992D01*
X73823000Y-173243190D01*
X73823000Y-173226987D01*
X73821516Y-173216622D01*
X73820487Y-173206572D01*
X73818111Y-173168284D01*
X73817555Y-173159323D01*
X73814506Y-173150877D01*
X73813907Y-173147986D01*
X73809678Y-173131020D01*
X73808852Y-173128195D01*
X73807580Y-173119313D01*
X73787978Y-173076202D01*
X73784172Y-173066851D01*
X73771145Y-173030765D01*
X73768096Y-173022319D01*
X73762801Y-173015071D01*
X73761420Y-173012473D01*
X73752585Y-172997355D01*
X73751006Y-172994886D01*
X73747292Y-172986718D01*
X73716384Y-172950847D01*
X73710099Y-172942931D01*
X73704952Y-172935885D01*
X73704947Y-172935880D01*
X73702075Y-172931948D01*
X73691100Y-172920973D01*
X73684742Y-172914125D01*
X73658076Y-172883177D01*
X73658075Y-172883176D01*
X73652213Y-172876373D01*
X73644678Y-172871489D01*
X73638434Y-172866042D01*
X73626569Y-172856442D01*
X73570405Y-172800278D01*
X73536379Y-172737966D01*
X73533500Y-172711183D01*
X73533500Y-172550341D01*
X73553502Y-172482220D01*
X73606251Y-172436146D01*
X73649655Y-172415907D01*
X73649661Y-172415904D01*
X73654646Y-172413579D01*
X73664890Y-172406406D01*
X73829946Y-172290833D01*
X73829949Y-172290831D01*
X73834457Y-172287674D01*
X73989674Y-172132457D01*
X74000315Y-172117261D01*
X74112422Y-171957155D01*
X74112423Y-171957153D01*
X74115579Y-171952646D01*
X74117902Y-171947664D01*
X74117905Y-171947659D01*
X74172034Y-171831577D01*
X74208347Y-171753703D01*
X74265161Y-171541674D01*
X74284292Y-171323000D01*
X74265161Y-171104326D01*
X74208347Y-170892297D01*
X74160888Y-170790521D01*
X74117905Y-170698341D01*
X74117901Y-170698334D01*
X74115579Y-170693354D01*
X73989674Y-170513543D01*
X73834457Y-170358326D01*
X73829949Y-170355169D01*
X73829946Y-170355167D01*
X73659155Y-170235578D01*
X73659153Y-170235577D01*
X73654646Y-170232421D01*
X73649664Y-170230098D01*
X73649659Y-170230095D01*
X73501467Y-170160993D01*
X73455703Y-170139653D01*
X73243674Y-170082839D01*
X73025000Y-170063708D01*
X72806326Y-170082839D01*
X72594297Y-170139653D01*
X72548533Y-170160993D01*
X72400341Y-170230095D01*
X72400336Y-170230098D01*
X72395354Y-170232421D01*
X72390847Y-170235577D01*
X72390845Y-170235578D01*
X72220054Y-170355167D01*
X72220051Y-170355169D01*
X72215543Y-170358326D01*
X72060326Y-170513543D01*
X71934421Y-170693354D01*
X71932099Y-170698334D01*
X71932095Y-170698341D01*
X71889112Y-170790521D01*
X71841653Y-170892297D01*
X71784839Y-171104326D01*
X71765708Y-171323000D01*
X71784839Y-171541674D01*
X71841653Y-171753703D01*
X71877966Y-171831577D01*
X71932095Y-171947659D01*
X71932098Y-171947664D01*
X71934421Y-171952646D01*
X71937577Y-171957153D01*
X71937578Y-171957155D01*
X72049686Y-172117261D01*
X72060326Y-172132457D01*
X72215543Y-172287674D01*
X72220051Y-172290831D01*
X72220054Y-172290833D01*
X72385110Y-172406406D01*
X72395354Y-172413579D01*
X72400339Y-172415904D01*
X72400345Y-172415907D01*
X72443749Y-172436146D01*
X72497035Y-172483063D01*
X72516500Y-172550341D01*
X72516500Y-172902928D01*
X72515145Y-172915058D01*
X72515627Y-172915097D01*
X72514907Y-172924044D01*
X72512926Y-172932800D01*
X72515275Y-172970669D01*
X72516258Y-172986508D01*
X72516500Y-172994310D01*
X72516500Y-173010513D01*
X72517136Y-173014953D01*
X72517984Y-173020878D01*
X72519013Y-173030928D01*
X72521242Y-173066851D01*
X72521945Y-173078177D01*
X72524994Y-173086623D01*
X72525593Y-173089514D01*
X72529822Y-173106480D01*
X72530648Y-173109305D01*
X72531920Y-173118187D01*
X72551522Y-173161298D01*
X72555327Y-173170647D01*
X72571404Y-173215181D01*
X72576699Y-173222429D01*
X72578080Y-173225027D01*
X72586915Y-173240145D01*
X72588494Y-173242614D01*
X72592208Y-173250782D01*
X72598064Y-173257578D01*
X72623115Y-173286652D01*
X72629401Y-173294569D01*
X72634548Y-173301615D01*
X72634553Y-173301620D01*
X72637425Y-173305552D01*
X72648400Y-173316527D01*
X72654758Y-173323374D01*
X72687287Y-173361127D01*
X72694822Y-173366011D01*
X72701066Y-173371458D01*
X72712931Y-173381058D01*
X72769095Y-173437222D01*
X72803121Y-173499534D01*
X72806000Y-173526317D01*
X72806000Y-173664506D01*
X72785998Y-173732627D01*
X72758952Y-173762703D01*
X72702808Y-173807844D01*
X72608288Y-173883840D01*
X72481663Y-174034745D01*
X72475240Y-174046429D01*
X72408904Y-174167095D01*
X72386762Y-174207371D01*
X72384898Y-174213246D01*
X72384897Y-174213249D01*
X72350219Y-174322569D01*
X72327197Y-174395142D01*
X72305238Y-174590907D01*
X72321722Y-174787209D01*
X72376021Y-174976570D01*
X72466066Y-175151779D01*
X72469892Y-175156607D01*
X72471344Y-175158859D01*
X72491434Y-175226954D01*
X72471519Y-175295100D01*
X72417924Y-175341662D01*
X72347663Y-175351856D01*
X72283044Y-175322446D01*
X72276339Y-175316211D01*
X69633405Y-172673278D01*
X69599379Y-172610966D01*
X69596500Y-172584183D01*
X69596500Y-172550341D01*
X69616502Y-172482220D01*
X69669251Y-172436146D01*
X69712655Y-172415907D01*
X69712661Y-172415904D01*
X69717646Y-172413579D01*
X69727890Y-172406406D01*
X69892946Y-172290833D01*
X69892949Y-172290831D01*
X69897457Y-172287674D01*
X70052674Y-172132457D01*
X70063315Y-172117261D01*
X70175422Y-171957155D01*
X70175423Y-171957153D01*
X70178579Y-171952646D01*
X70180902Y-171947664D01*
X70180905Y-171947659D01*
X70235034Y-171831577D01*
X70271347Y-171753703D01*
X70328161Y-171541674D01*
X70347292Y-171323000D01*
X70328161Y-171104326D01*
X70271347Y-170892297D01*
X70223888Y-170790521D01*
X70180905Y-170698341D01*
X70180901Y-170698334D01*
X70178579Y-170693354D01*
X70052674Y-170513543D01*
X69897457Y-170358326D01*
X69892949Y-170355169D01*
X69892946Y-170355167D01*
X69722155Y-170235578D01*
X69722153Y-170235577D01*
X69717646Y-170232421D01*
X69712664Y-170230098D01*
X69712659Y-170230095D01*
X69564467Y-170160993D01*
X69518703Y-170139653D01*
X69306674Y-170082839D01*
X69088000Y-170063708D01*
X68869326Y-170082839D01*
X68657297Y-170139653D01*
X68611533Y-170160993D01*
X68463341Y-170230095D01*
X68463336Y-170230098D01*
X68458354Y-170232421D01*
X68453847Y-170235577D01*
X68453845Y-170235578D01*
X68283054Y-170355167D01*
X68283051Y-170355169D01*
X68278543Y-170358326D01*
X68123326Y-170513543D01*
X67997421Y-170693354D01*
X67995099Y-170698334D01*
X67995095Y-170698341D01*
X67952112Y-170790521D01*
X67904653Y-170892297D01*
X67847839Y-171104326D01*
X67828708Y-171323000D01*
X66410292Y-171323000D01*
X66391161Y-171104326D01*
X66334347Y-170892297D01*
X66286888Y-170790521D01*
X66243905Y-170698341D01*
X66243901Y-170698334D01*
X66241579Y-170693354D01*
X66115674Y-170513543D01*
X65960457Y-170358326D01*
X65955949Y-170355169D01*
X65955946Y-170355167D01*
X65785155Y-170235578D01*
X65785153Y-170235577D01*
X65780646Y-170232421D01*
X65775664Y-170230098D01*
X65775659Y-170230095D01*
X65627467Y-170160993D01*
X65581703Y-170139653D01*
X65369674Y-170082839D01*
X65151000Y-170063708D01*
X64932326Y-170082839D01*
X64720297Y-170139653D01*
X64674533Y-170160993D01*
X64526341Y-170230095D01*
X64526336Y-170230098D01*
X64521354Y-170232421D01*
X64516847Y-170235577D01*
X64516845Y-170235578D01*
X64346054Y-170355167D01*
X64346051Y-170355169D01*
X64341543Y-170358326D01*
X64186326Y-170513543D01*
X64060421Y-170693354D01*
X64058099Y-170698334D01*
X64058095Y-170698341D01*
X64015112Y-170790521D01*
X63967653Y-170892297D01*
X63910839Y-171104326D01*
X63891708Y-171323000D01*
X26035000Y-171323000D01*
X26035000Y-170307000D01*
X61157874Y-170307000D01*
X61177096Y-170453007D01*
X61233453Y-170589063D01*
X61323103Y-170705897D01*
X61439937Y-170795547D01*
X61575993Y-170851904D01*
X61584177Y-170852981D01*
X61584179Y-170852982D01*
X61713812Y-170870048D01*
X61722000Y-170871126D01*
X61730188Y-170870048D01*
X61859821Y-170852982D01*
X61859823Y-170852981D01*
X61868007Y-170851904D01*
X62004063Y-170795547D01*
X62120897Y-170705897D01*
X62210547Y-170589063D01*
X62266904Y-170453007D01*
X62286126Y-170307000D01*
X62276308Y-170232421D01*
X62267982Y-170169179D01*
X62267981Y-170169177D01*
X62266904Y-170160993D01*
X62210547Y-170024937D01*
X62129536Y-169919362D01*
X62103937Y-169853144D01*
X62103500Y-169842660D01*
X62103500Y-168104212D01*
X62123502Y-168036091D01*
X62140405Y-168015117D01*
X66288118Y-163867405D01*
X66350430Y-163833379D01*
X66377213Y-163830500D01*
X69302572Y-163830500D01*
X69370693Y-163850502D01*
X69417186Y-163904158D01*
X69427494Y-163972946D01*
X69420263Y-164027874D01*
X69412874Y-164084000D01*
X69413952Y-164092188D01*
X69427238Y-164193103D01*
X69432096Y-164230007D01*
X69488453Y-164366063D01*
X69578103Y-164482897D01*
X69694937Y-164572547D01*
X69830993Y-164628904D01*
X69839177Y-164629981D01*
X69839179Y-164629982D01*
X69968812Y-164647048D01*
X69977000Y-164648126D01*
X69985188Y-164647048D01*
X70114821Y-164629982D01*
X70114823Y-164629981D01*
X70123007Y-164628904D01*
X70259063Y-164572547D01*
X70364638Y-164491536D01*
X70430856Y-164465937D01*
X70441340Y-164465500D01*
X71036787Y-164465500D01*
X71104908Y-164485502D01*
X71125882Y-164502405D01*
X71156900Y-164533423D01*
X71190926Y-164595735D01*
X71192725Y-164606063D01*
X71210096Y-164738007D01*
X71266453Y-164874063D01*
X71356103Y-164990897D01*
X71472937Y-165080547D01*
X71608993Y-165136904D01*
X71617177Y-165137981D01*
X71617179Y-165137982D01*
X71746812Y-165155048D01*
X71755000Y-165156126D01*
X71763188Y-165155048D01*
X71892821Y-165137982D01*
X71892823Y-165137981D01*
X71901007Y-165136904D01*
X72037063Y-165080547D01*
X72153897Y-164990897D01*
X72243547Y-164874063D01*
X72299904Y-164738007D01*
X72319126Y-164592000D01*
X72305424Y-164487923D01*
X72300982Y-164454179D01*
X72300981Y-164454177D01*
X72299904Y-164445993D01*
X72243547Y-164309937D01*
X72153897Y-164193103D01*
X72144221Y-164185678D01*
X72059230Y-164120462D01*
X72017363Y-164063124D01*
X72013141Y-163992253D01*
X72047905Y-163930350D01*
X72059230Y-163920538D01*
X72147347Y-163852923D01*
X72153897Y-163847897D01*
X72243547Y-163731063D01*
X72299904Y-163595007D01*
X72319126Y-163449000D01*
X72299904Y-163302993D01*
X72243547Y-163166937D01*
X72177760Y-163081202D01*
X72152161Y-163014983D01*
X72166426Y-162945435D01*
X72177758Y-162927801D01*
X72243547Y-162842063D01*
X72299904Y-162706007D01*
X72319126Y-162560000D01*
X72299904Y-162413993D01*
X72243547Y-162277937D01*
X72177760Y-162192202D01*
X72152161Y-162125983D01*
X72166426Y-162056435D01*
X72177758Y-162038801D01*
X72243547Y-161953063D01*
X72299904Y-161817007D01*
X72319126Y-161671000D01*
X72299904Y-161524993D01*
X72243547Y-161388937D01*
X72153897Y-161272103D01*
X72037063Y-161182453D01*
X71901007Y-161126096D01*
X71892823Y-161125019D01*
X71892821Y-161125018D01*
X71763188Y-161107952D01*
X71755000Y-161106874D01*
X71746812Y-161107952D01*
X71617179Y-161125018D01*
X71617177Y-161125019D01*
X71608993Y-161126096D01*
X71472937Y-161182453D01*
X71367362Y-161263464D01*
X71301144Y-161289063D01*
X71290660Y-161289500D01*
X68917340Y-161289500D01*
X68849219Y-161269498D01*
X68840650Y-161263473D01*
X68735063Y-161182453D01*
X68599007Y-161126096D01*
X68590823Y-161125019D01*
X68590821Y-161125018D01*
X68461188Y-161107952D01*
X68453000Y-161106874D01*
X68444812Y-161107952D01*
X68315179Y-161125018D01*
X68315177Y-161125019D01*
X68306993Y-161126096D01*
X68170937Y-161182453D01*
X68054103Y-161272103D01*
X67964453Y-161388937D01*
X67908096Y-161524993D01*
X67888874Y-161671000D01*
X67908096Y-161817007D01*
X67964453Y-161953063D01*
X67981898Y-161975798D01*
X68007498Y-162042015D01*
X67993234Y-162111564D01*
X67943633Y-162162361D01*
X67881935Y-162178500D01*
X66094135Y-162178500D01*
X66069836Y-162175914D01*
X66068398Y-162175846D01*
X66058220Y-162173655D01*
X66028516Y-162177170D01*
X66024658Y-162177627D01*
X66018680Y-162177979D01*
X66018688Y-162178072D01*
X66013510Y-162178500D01*
X66008308Y-162178500D01*
X65989154Y-162181688D01*
X65983296Y-162182522D01*
X65966682Y-162184488D01*
X65942433Y-162187358D01*
X65942432Y-162187358D01*
X65932093Y-162188582D01*
X65923794Y-162192567D01*
X65914717Y-162194078D01*
X65869349Y-162218558D01*
X65864086Y-162221239D01*
X65824750Y-162240127D01*
X65824746Y-162240130D01*
X65817602Y-162243560D01*
X65813308Y-162247170D01*
X65811376Y-162249102D01*
X65809427Y-162250889D01*
X65809374Y-162250918D01*
X65809255Y-162250788D01*
X65808687Y-162251289D01*
X65802943Y-162254388D01*
X65795876Y-162262033D01*
X65766133Y-162294209D01*
X65762703Y-162297775D01*
X61780577Y-166279900D01*
X61718265Y-166313926D01*
X61707937Y-166315725D01*
X61637224Y-166325035D01*
X61584179Y-166332018D01*
X61584177Y-166332019D01*
X61575993Y-166333096D01*
X61439937Y-166389453D01*
X61323103Y-166479103D01*
X61233453Y-166595937D01*
X61177096Y-166731993D01*
X61157874Y-166878000D01*
X61177096Y-167024007D01*
X61233453Y-167160063D01*
X61323103Y-167276897D01*
X61439937Y-167366547D01*
X61447560Y-167369705D01*
X61447566Y-167369708D01*
X61456632Y-167373463D01*
X61511914Y-167418011D01*
X61534335Y-167485374D01*
X61516777Y-167554165D01*
X61497510Y-167578967D01*
X61490521Y-167585956D01*
X61471505Y-167601315D01*
X61470444Y-167602281D01*
X61461696Y-167607929D01*
X61455250Y-167616106D01*
X61440771Y-167634472D01*
X61436794Y-167638947D01*
X61436865Y-167639008D01*
X61433512Y-167642965D01*
X61429829Y-167646648D01*
X61426803Y-167650883D01*
X61426801Y-167650885D01*
X61418547Y-167662436D01*
X61414984Y-167667182D01*
X61383066Y-167707670D01*
X61380015Y-167716357D01*
X61374666Y-167723843D01*
X61371683Y-167733819D01*
X61371682Y-167733820D01*
X61359902Y-167773211D01*
X61358072Y-167778843D01*
X61340984Y-167827502D01*
X61340500Y-167833091D01*
X61340500Y-167835802D01*
X61340385Y-167838469D01*
X61340366Y-167838532D01*
X61340192Y-167838525D01*
X61340145Y-167839271D01*
X61338275Y-167845524D01*
X61338684Y-167855928D01*
X61340403Y-167899678D01*
X61340500Y-167904625D01*
X61340500Y-169842660D01*
X61320498Y-169910781D01*
X61314473Y-169919350D01*
X61233453Y-170024937D01*
X61177096Y-170160993D01*
X61176019Y-170169177D01*
X61176018Y-170169179D01*
X61167692Y-170232421D01*
X61157874Y-170307000D01*
X26035000Y-170307000D01*
X26035000Y-160713756D01*
X41907348Y-160713756D01*
X41907546Y-160721073D01*
X41909454Y-160791577D01*
X41909500Y-160794986D01*
X41909500Y-163620525D01*
X41924899Y-163752607D01*
X41927395Y-163759484D01*
X41927396Y-163759487D01*
X41959488Y-163847897D01*
X41985566Y-163919741D01*
X42083054Y-164068435D01*
X42212135Y-164190714D01*
X42365884Y-164280019D01*
X42536054Y-164331558D01*
X42713516Y-164342568D01*
X42720732Y-164341328D01*
X42720734Y-164341328D01*
X42881535Y-164313697D01*
X42888751Y-164312457D01*
X43052359Y-164242841D01*
X43195564Y-164137454D01*
X43258712Y-164063124D01*
X43305945Y-164007528D01*
X43305948Y-164007524D01*
X43310684Y-164001949D01*
X43391543Y-163843596D01*
X43433804Y-163670888D01*
X43434500Y-163659670D01*
X43434500Y-161150028D01*
X43454502Y-161081907D01*
X43471405Y-161060933D01*
X43839933Y-160692405D01*
X43902245Y-160658379D01*
X43929028Y-160655500D01*
X57209624Y-160655500D01*
X57228574Y-160656933D01*
X57242973Y-160659124D01*
X57242979Y-160659124D01*
X57250208Y-160660224D01*
X57257500Y-160659631D01*
X57257503Y-160659631D01*
X57303183Y-160655915D01*
X57313398Y-160655500D01*
X57321525Y-160655500D01*
X57325161Y-160655076D01*
X57325163Y-160655076D01*
X57328615Y-160654673D01*
X57349924Y-160652189D01*
X57354244Y-160651762D01*
X57427426Y-160645809D01*
X57434388Y-160643553D01*
X57440376Y-160642357D01*
X57446333Y-160640949D01*
X57453607Y-160640101D01*
X57460489Y-160637603D01*
X57460493Y-160637602D01*
X57522607Y-160615055D01*
X57526711Y-160613645D01*
X57596575Y-160591013D01*
X57602838Y-160587213D01*
X57608380Y-160584675D01*
X57613856Y-160581933D01*
X57620741Y-160579434D01*
X57670451Y-160546843D01*
X57682132Y-160539185D01*
X57685800Y-160536870D01*
X57748581Y-160498773D01*
X57752786Y-160495059D01*
X57752789Y-160495057D01*
X57757005Y-160491333D01*
X57757031Y-160491362D01*
X57759962Y-160488762D01*
X57763316Y-160485958D01*
X57769435Y-160481946D01*
X57822989Y-160425413D01*
X57825366Y-160422972D01*
X58657528Y-159590810D01*
X58671941Y-159578423D01*
X58683665Y-159569795D01*
X58689564Y-159565454D01*
X58723979Y-159524945D01*
X58730909Y-159517429D01*
X58736653Y-159511685D01*
X58738927Y-159508811D01*
X58738933Y-159508804D01*
X58754372Y-159489289D01*
X58757163Y-159485885D01*
X58799945Y-159435528D01*
X58799948Y-159435524D01*
X58804684Y-159429949D01*
X58808012Y-159423432D01*
X58811389Y-159418368D01*
X58814616Y-159413144D01*
X58819160Y-159407400D01*
X58850242Y-159340896D01*
X58852147Y-159336999D01*
X58885543Y-159271596D01*
X58887284Y-159264482D01*
X58889416Y-159258748D01*
X58891344Y-159252952D01*
X58894444Y-159246320D01*
X58909395Y-159174440D01*
X58910365Y-159170156D01*
X58915689Y-159148398D01*
X58927804Y-159098888D01*
X58928500Y-159087670D01*
X58928537Y-159087672D01*
X58928773Y-159083773D01*
X58929163Y-159079402D01*
X58930652Y-159072243D01*
X58928546Y-158994423D01*
X58928500Y-158991014D01*
X58928500Y-155054028D01*
X58948502Y-154985907D01*
X58965405Y-154964933D01*
X59206933Y-154723405D01*
X59269245Y-154689379D01*
X59296028Y-154686500D01*
X73577525Y-154686500D01*
X73670402Y-154675672D01*
X73702335Y-154671949D01*
X73702337Y-154671949D01*
X73709607Y-154671101D01*
X73716484Y-154668605D01*
X73716487Y-154668604D01*
X73869862Y-154612931D01*
X73876741Y-154610434D01*
X74025435Y-154512946D01*
X74147714Y-154383865D01*
X74237019Y-154230116D01*
X74288558Y-154059946D01*
X74299568Y-153882484D01*
X74269457Y-153707249D01*
X74199841Y-153543641D01*
X74094454Y-153400436D01*
X74023747Y-153340366D01*
X73964528Y-153290055D01*
X73964524Y-153290052D01*
X73958949Y-153285316D01*
X73800596Y-153204457D01*
X73793491Y-153202718D01*
X73793487Y-153202717D01*
X73698187Y-153179398D01*
X73627888Y-153162196D01*
X73622286Y-153161848D01*
X73622283Y-153161848D01*
X73618609Y-153161620D01*
X73618599Y-153161620D01*
X73616670Y-153161500D01*
X58995376Y-153161500D01*
X58976426Y-153160067D01*
X58962027Y-153157876D01*
X58962021Y-153157876D01*
X58954792Y-153156776D01*
X58947500Y-153157369D01*
X58947497Y-153157369D01*
X58901817Y-153161085D01*
X58891602Y-153161500D01*
X58883475Y-153161500D01*
X58879839Y-153161924D01*
X58879837Y-153161924D01*
X58876385Y-153162327D01*
X58855076Y-153164811D01*
X58850756Y-153165238D01*
X58777574Y-153171191D01*
X58770612Y-153173447D01*
X58764624Y-153174643D01*
X58758667Y-153176051D01*
X58751393Y-153176899D01*
X58744511Y-153179397D01*
X58744507Y-153179398D01*
X58682393Y-153201945D01*
X58678289Y-153203355D01*
X58608425Y-153225987D01*
X58602162Y-153229787D01*
X58596620Y-153232325D01*
X58591144Y-153235067D01*
X58584259Y-153237566D01*
X58578135Y-153241581D01*
X58522868Y-153277815D01*
X58519200Y-153280130D01*
X58456419Y-153318227D01*
X58452214Y-153321941D01*
X58452211Y-153321943D01*
X58447995Y-153325667D01*
X58447969Y-153325638D01*
X58445038Y-153328238D01*
X58441684Y-153331042D01*
X58435565Y-153335054D01*
X58430533Y-153340366D01*
X58382012Y-153391586D01*
X58379634Y-153394028D01*
X57674472Y-154099190D01*
X57660059Y-154111577D01*
X57642436Y-154124546D01*
X57637692Y-154130129D01*
X57637693Y-154130129D01*
X57608021Y-154165055D01*
X57601091Y-154172571D01*
X57595347Y-154178315D01*
X57593073Y-154181189D01*
X57593067Y-154181196D01*
X57577628Y-154200711D01*
X57574837Y-154204115D01*
X57532055Y-154254472D01*
X57532052Y-154254476D01*
X57527316Y-154260051D01*
X57523988Y-154266568D01*
X57520611Y-154271632D01*
X57517384Y-154276856D01*
X57512840Y-154282600D01*
X57509741Y-154289231D01*
X57481768Y-154349082D01*
X57479837Y-154353033D01*
X57446457Y-154418404D01*
X57444716Y-154425519D01*
X57442579Y-154431265D01*
X57440655Y-154437048D01*
X57437556Y-154443679D01*
X57436066Y-154450843D01*
X57422608Y-154515547D01*
X57421639Y-154519829D01*
X57404196Y-154591112D01*
X57403500Y-154602330D01*
X57403461Y-154602328D01*
X57403228Y-154606229D01*
X57402839Y-154610588D01*
X57401348Y-154617756D01*
X57401546Y-154625073D01*
X57403454Y-154695577D01*
X57403500Y-154698986D01*
X57403500Y-158635972D01*
X57383498Y-158704093D01*
X57366595Y-158725067D01*
X56998067Y-159093595D01*
X56935755Y-159127621D01*
X56908972Y-159130500D01*
X43628376Y-159130500D01*
X43609426Y-159129067D01*
X43595027Y-159126876D01*
X43595021Y-159126876D01*
X43587792Y-159125776D01*
X43580500Y-159126369D01*
X43580497Y-159126369D01*
X43534817Y-159130085D01*
X43524602Y-159130500D01*
X43516475Y-159130500D01*
X43512839Y-159130924D01*
X43512837Y-159130924D01*
X43509385Y-159131327D01*
X43488076Y-159133811D01*
X43483756Y-159134238D01*
X43410574Y-159140191D01*
X43403612Y-159142447D01*
X43397624Y-159143643D01*
X43391667Y-159145051D01*
X43384393Y-159145899D01*
X43377511Y-159148397D01*
X43377507Y-159148398D01*
X43315393Y-159170945D01*
X43311289Y-159172355D01*
X43241425Y-159194987D01*
X43235162Y-159198787D01*
X43229620Y-159201325D01*
X43224144Y-159204067D01*
X43217259Y-159206566D01*
X43211135Y-159210581D01*
X43155868Y-159246815D01*
X43152200Y-159249130D01*
X43089419Y-159287227D01*
X43085214Y-159290941D01*
X43085211Y-159290943D01*
X43080995Y-159294667D01*
X43080969Y-159294638D01*
X43078038Y-159297238D01*
X43074684Y-159300042D01*
X43068565Y-159304054D01*
X43033650Y-159340911D01*
X43015012Y-159360586D01*
X43012634Y-159363028D01*
X42180472Y-160195190D01*
X42166059Y-160207577D01*
X42148436Y-160220546D01*
X42143692Y-160226129D01*
X42143693Y-160226129D01*
X42114021Y-160261055D01*
X42107091Y-160268571D01*
X42101347Y-160274315D01*
X42099073Y-160277189D01*
X42099067Y-160277196D01*
X42083628Y-160296711D01*
X42080837Y-160300115D01*
X42038055Y-160350472D01*
X42038052Y-160350476D01*
X42033316Y-160356051D01*
X42029988Y-160362568D01*
X42026611Y-160367632D01*
X42023384Y-160372856D01*
X42018840Y-160378600D01*
X42015741Y-160385231D01*
X41987768Y-160445082D01*
X41985837Y-160449033D01*
X41952457Y-160514404D01*
X41950716Y-160521519D01*
X41948579Y-160527265D01*
X41946655Y-160533048D01*
X41943556Y-160539679D01*
X41942066Y-160546843D01*
X41928608Y-160611547D01*
X41927639Y-160615829D01*
X41910196Y-160687112D01*
X41909500Y-160698330D01*
X41909461Y-160698328D01*
X41909228Y-160702229D01*
X41908839Y-160706588D01*
X41907348Y-160713756D01*
X26035000Y-160713756D01*
X26035000Y-149606000D01*
X38805874Y-149606000D01*
X38825096Y-149752007D01*
X38881453Y-149888063D01*
X38971103Y-150004897D01*
X39087937Y-150094547D01*
X39223993Y-150150904D01*
X39232177Y-150151981D01*
X39232179Y-150151982D01*
X39361812Y-150169048D01*
X39370000Y-150170126D01*
X39378188Y-150169048D01*
X39507821Y-150151982D01*
X39507823Y-150151981D01*
X39516007Y-150150904D01*
X39523636Y-150147744D01*
X39580740Y-150124091D01*
X39628958Y-150114500D01*
X45418792Y-150114500D01*
X45467010Y-150124091D01*
X45524114Y-150147744D01*
X45531743Y-150150904D01*
X45539927Y-150151981D01*
X45539929Y-150151982D01*
X45669562Y-150169048D01*
X45677750Y-150170126D01*
X45685938Y-150169048D01*
X45815571Y-150151982D01*
X45815573Y-150151981D01*
X45823757Y-150150904D01*
X45831386Y-150147744D01*
X45888490Y-150124091D01*
X45936708Y-150114500D01*
X52573042Y-150114500D01*
X52621260Y-150124091D01*
X52678364Y-150147744D01*
X52685993Y-150150904D01*
X52694177Y-150151981D01*
X52694179Y-150151982D01*
X52823812Y-150169048D01*
X52832000Y-150170126D01*
X52840188Y-150169048D01*
X52969821Y-150151982D01*
X52969823Y-150151981D01*
X52978007Y-150150904D01*
X53114063Y-150094547D01*
X53230897Y-150004897D01*
X53320547Y-149888063D01*
X53376904Y-149752007D01*
X53396126Y-149606000D01*
X53379295Y-149478155D01*
X53377982Y-149468179D01*
X53377981Y-149468177D01*
X53376904Y-149459993D01*
X53320547Y-149323937D01*
X53230897Y-149207103D01*
X53114063Y-149117453D01*
X52978007Y-149061096D01*
X52969823Y-149060019D01*
X52969821Y-149060018D01*
X52840188Y-149042952D01*
X52832000Y-149041874D01*
X52823812Y-149042952D01*
X52694179Y-149060018D01*
X52694177Y-149060019D01*
X52685993Y-149061096D01*
X52678364Y-149064256D01*
X52621260Y-149087909D01*
X52573042Y-149097500D01*
X45936708Y-149097500D01*
X45888490Y-149087909D01*
X45831386Y-149064256D01*
X45823757Y-149061096D01*
X45815573Y-149060019D01*
X45815571Y-149060018D01*
X45685938Y-149042952D01*
X45677750Y-149041874D01*
X45669562Y-149042952D01*
X45539929Y-149060018D01*
X45539927Y-149060019D01*
X45531743Y-149061096D01*
X45524114Y-149064256D01*
X45467010Y-149087909D01*
X45418792Y-149097500D01*
X39628958Y-149097500D01*
X39580740Y-149087909D01*
X39523636Y-149064256D01*
X39516007Y-149061096D01*
X39507823Y-149060019D01*
X39507821Y-149060018D01*
X39378188Y-149042952D01*
X39370000Y-149041874D01*
X39361812Y-149042952D01*
X39232179Y-149060018D01*
X39232177Y-149060019D01*
X39223993Y-149061096D01*
X39087937Y-149117453D01*
X38971103Y-149207103D01*
X38881453Y-149323937D01*
X38825096Y-149459993D01*
X38824019Y-149468177D01*
X38824018Y-149468179D01*
X38822705Y-149478155D01*
X38805874Y-149606000D01*
X26035000Y-149606000D01*
X26035000Y-148844000D01*
X59954708Y-148844000D01*
X59973839Y-149062674D01*
X60030653Y-149274703D01*
X60032978Y-149279688D01*
X60121095Y-149468659D01*
X60121098Y-149468664D01*
X60123421Y-149473646D01*
X60126577Y-149478153D01*
X60126578Y-149478155D01*
X60221830Y-149614188D01*
X60249326Y-149653457D01*
X60404543Y-149808674D01*
X60409051Y-149811831D01*
X60409054Y-149811833D01*
X60579845Y-149931422D01*
X60584354Y-149934579D01*
X60589336Y-149936902D01*
X60589341Y-149936905D01*
X60690116Y-149983896D01*
X60783297Y-150027347D01*
X60995326Y-150084161D01*
X61214000Y-150103292D01*
X61432674Y-150084161D01*
X61644703Y-150027347D01*
X61737884Y-149983896D01*
X61838659Y-149936905D01*
X61838664Y-149936902D01*
X61843646Y-149934579D01*
X61848155Y-149931422D01*
X62018946Y-149811833D01*
X62018949Y-149811831D01*
X62023457Y-149808674D01*
X62178674Y-149653457D01*
X62206171Y-149614188D01*
X62301422Y-149478155D01*
X62301423Y-149478153D01*
X62304579Y-149473646D01*
X62306902Y-149468664D01*
X62306905Y-149468659D01*
X62395022Y-149279688D01*
X62397347Y-149274703D01*
X62454161Y-149062674D01*
X62473292Y-148844000D01*
X63891708Y-148844000D01*
X63910839Y-149062674D01*
X63967653Y-149274703D01*
X63969978Y-149279688D01*
X64058095Y-149468659D01*
X64058098Y-149468664D01*
X64060421Y-149473646D01*
X64063577Y-149478153D01*
X64063578Y-149478155D01*
X64158830Y-149614188D01*
X64186326Y-149653457D01*
X64341543Y-149808674D01*
X64346051Y-149811831D01*
X64346054Y-149811833D01*
X64516845Y-149931422D01*
X64521354Y-149934579D01*
X64526336Y-149936902D01*
X64526341Y-149936905D01*
X64627116Y-149983896D01*
X64720297Y-150027347D01*
X64932326Y-150084161D01*
X65151000Y-150103292D01*
X65369674Y-150084161D01*
X65581703Y-150027347D01*
X65674884Y-149983896D01*
X65775659Y-149936905D01*
X65775664Y-149936902D01*
X65780646Y-149934579D01*
X65785155Y-149931422D01*
X65955946Y-149811833D01*
X65955949Y-149811831D01*
X65960457Y-149808674D01*
X66115674Y-149653457D01*
X66143171Y-149614188D01*
X66238422Y-149478155D01*
X66238423Y-149478153D01*
X66241579Y-149473646D01*
X66243902Y-149468664D01*
X66243905Y-149468659D01*
X66332022Y-149279688D01*
X66334347Y-149274703D01*
X66391161Y-149062674D01*
X66410292Y-148844000D01*
X66391161Y-148625326D01*
X66334347Y-148413297D01*
X66290896Y-148320116D01*
X66243905Y-148219341D01*
X66243902Y-148219336D01*
X66241579Y-148214354D01*
X66237735Y-148208864D01*
X66118833Y-148039054D01*
X66118831Y-148039051D01*
X66115674Y-148034543D01*
X65960457Y-147879326D01*
X65955949Y-147876169D01*
X65955946Y-147876167D01*
X65857188Y-147807016D01*
X65780646Y-147753421D01*
X65727251Y-147728523D01*
X65673965Y-147681607D01*
X65654500Y-147614328D01*
X65654500Y-146643644D01*
X65674502Y-146575523D01*
X65702927Y-146544355D01*
X65709618Y-146539128D01*
X65849004Y-146430227D01*
X65979005Y-146279620D01*
X65982048Y-146274263D01*
X65982051Y-146274259D01*
X66028140Y-146193126D01*
X66077276Y-146106631D01*
X66081348Y-146094392D01*
X66138129Y-145923701D01*
X66140076Y-145917849D01*
X66165012Y-145720464D01*
X66165409Y-145692000D01*
X66164014Y-145677767D01*
X66146596Y-145500129D01*
X66145995Y-145493996D01*
X66088491Y-145303533D01*
X65995087Y-145127868D01*
X65869343Y-144973690D01*
X65788647Y-144906933D01*
X66671500Y-144906933D01*
X66671501Y-146477066D01*
X66678612Y-146512818D01*
X66683155Y-146535659D01*
X66686266Y-146551301D01*
X66693161Y-146561620D01*
X66693162Y-146561622D01*
X66699944Y-146571772D01*
X66742516Y-146635484D01*
X66826699Y-146691734D01*
X66900933Y-146706500D01*
X67685873Y-146706500D01*
X68471066Y-146706499D01*
X68506818Y-146699388D01*
X68533126Y-146694156D01*
X68533128Y-146694155D01*
X68545301Y-146691734D01*
X68555621Y-146684839D01*
X68555622Y-146684838D01*
X68619168Y-146642377D01*
X68629484Y-146635484D01*
X68672056Y-146571772D01*
X68678839Y-146561620D01*
X68685734Y-146551301D01*
X68700500Y-146477067D01*
X68700499Y-144906934D01*
X68685734Y-144832699D01*
X68629484Y-144748516D01*
X68545301Y-144692266D01*
X68471067Y-144677500D01*
X67686127Y-144677500D01*
X66900934Y-144677501D01*
X66865182Y-144684612D01*
X66838874Y-144689844D01*
X66838872Y-144689845D01*
X66826699Y-144692266D01*
X66816379Y-144699161D01*
X66816378Y-144699162D01*
X66808650Y-144704326D01*
X66742516Y-144748516D01*
X66686266Y-144832699D01*
X66671500Y-144906933D01*
X65788647Y-144906933D01*
X65716046Y-144846872D01*
X65656889Y-144814886D01*
X65546462Y-144755177D01*
X65546459Y-144755176D01*
X65541037Y-144752244D01*
X65350981Y-144693412D01*
X65344856Y-144692768D01*
X65344855Y-144692768D01*
X65159246Y-144673260D01*
X65159244Y-144673260D01*
X65153117Y-144672616D01*
X65070805Y-144680107D01*
X64961121Y-144690089D01*
X64961118Y-144690090D01*
X64954982Y-144690648D01*
X64949076Y-144692386D01*
X64949072Y-144692387D01*
X64895266Y-144708223D01*
X64764123Y-144746820D01*
X64758663Y-144749674D01*
X64758664Y-144749674D01*
X64593269Y-144836140D01*
X64593265Y-144836143D01*
X64587809Y-144838995D01*
X64432757Y-144963660D01*
X64304872Y-145116068D01*
X64209025Y-145290412D01*
X64148868Y-145480053D01*
X64148182Y-145486172D01*
X64148181Y-145486175D01*
X64127673Y-145669000D01*
X64126690Y-145677767D01*
X64143338Y-145876023D01*
X64198177Y-146067269D01*
X64200996Y-146072754D01*
X64286301Y-146238740D01*
X64286304Y-146238745D01*
X64289119Y-146244222D01*
X64412699Y-146400141D01*
X64417393Y-146404136D01*
X64452508Y-146434021D01*
X64564209Y-146529087D01*
X64572968Y-146533983D01*
X64574384Y-146535427D01*
X64574647Y-146535609D01*
X64574612Y-146535659D01*
X64622674Y-146584673D01*
X64637500Y-146643971D01*
X64637500Y-147618991D01*
X64617498Y-147687112D01*
X64564749Y-147733186D01*
X64521354Y-147753421D01*
X64444812Y-147807016D01*
X64346054Y-147876167D01*
X64346051Y-147876169D01*
X64341543Y-147879326D01*
X64186326Y-148034543D01*
X64183169Y-148039051D01*
X64183167Y-148039054D01*
X64064265Y-148208864D01*
X64060421Y-148214354D01*
X64058098Y-148219336D01*
X64058095Y-148219341D01*
X64011104Y-148320116D01*
X63967653Y-148413297D01*
X63910839Y-148625326D01*
X63891708Y-148844000D01*
X62473292Y-148844000D01*
X62454161Y-148625326D01*
X62397347Y-148413297D01*
X62353896Y-148320116D01*
X62306905Y-148219341D01*
X62306902Y-148219336D01*
X62304579Y-148214354D01*
X62300735Y-148208864D01*
X62181833Y-148039054D01*
X62181831Y-148039051D01*
X62178674Y-148034543D01*
X62023457Y-147879326D01*
X62018949Y-147876169D01*
X62018946Y-147876167D01*
X61848155Y-147756578D01*
X61848150Y-147756575D01*
X61843646Y-147753421D01*
X61838661Y-147751096D01*
X61838655Y-147751093D01*
X61795251Y-147730854D01*
X61741965Y-147683937D01*
X61722500Y-147616659D01*
X61722500Y-147346817D01*
X61742502Y-147278696D01*
X61759405Y-147257722D01*
X62292372Y-146724755D01*
X62354684Y-146690729D01*
X62396382Y-146688736D01*
X62584651Y-146711185D01*
X62590786Y-146710713D01*
X62590788Y-146710713D01*
X62776878Y-146696395D01*
X62776883Y-146696394D01*
X62783019Y-146695922D01*
X62788951Y-146694266D01*
X62788955Y-146694265D01*
X62878831Y-146669170D01*
X62974643Y-146642419D01*
X63152227Y-146552715D01*
X63162928Y-146544355D01*
X63304148Y-146434021D01*
X63309004Y-146430227D01*
X63439005Y-146279620D01*
X63442048Y-146274263D01*
X63442051Y-146274259D01*
X63488140Y-146193126D01*
X63537276Y-146106631D01*
X63541348Y-146094392D01*
X63598129Y-145923701D01*
X63600076Y-145917849D01*
X63625012Y-145720464D01*
X63625409Y-145692000D01*
X63624014Y-145677767D01*
X63606596Y-145500129D01*
X63605995Y-145493996D01*
X63548491Y-145303533D01*
X63455087Y-145127868D01*
X63329343Y-144973690D01*
X63176046Y-144846872D01*
X63116889Y-144814886D01*
X63006462Y-144755177D01*
X63006459Y-144755176D01*
X63001037Y-144752244D01*
X62810981Y-144693412D01*
X62804856Y-144692768D01*
X62804855Y-144692768D01*
X62619246Y-144673260D01*
X62619244Y-144673260D01*
X62613117Y-144672616D01*
X62530805Y-144680107D01*
X62421121Y-144690089D01*
X62421118Y-144690090D01*
X62414982Y-144690648D01*
X62409076Y-144692386D01*
X62409072Y-144692387D01*
X62355266Y-144708223D01*
X62224123Y-144746820D01*
X62218663Y-144749674D01*
X62218664Y-144749674D01*
X62053269Y-144836140D01*
X62053265Y-144836143D01*
X62047809Y-144838995D01*
X61892757Y-144963660D01*
X61764872Y-145116068D01*
X61669025Y-145290412D01*
X61608868Y-145480053D01*
X61608182Y-145486172D01*
X61608181Y-145486175D01*
X61587673Y-145669000D01*
X61586690Y-145677767D01*
X61603338Y-145876023D01*
X61605035Y-145881940D01*
X61605036Y-145881947D01*
X61605057Y-145882019D01*
X61605057Y-145882058D01*
X61606149Y-145888010D01*
X61605017Y-145888218D01*
X61604604Y-145953014D01*
X61573032Y-146005841D01*
X60904696Y-146674177D01*
X60895156Y-146681800D01*
X60895470Y-146682168D01*
X60888634Y-146687986D01*
X60881042Y-146692776D01*
X60875100Y-146699504D01*
X60845407Y-146733125D01*
X60840061Y-146738812D01*
X60828618Y-146750255D01*
X60823996Y-146756422D01*
X60822341Y-146758630D01*
X60815967Y-146766459D01*
X60784622Y-146801951D01*
X60780808Y-146810074D01*
X60779174Y-146812562D01*
X60770186Y-146827523D01*
X60768771Y-146830108D01*
X60763384Y-146837295D01*
X60760233Y-146845701D01*
X60746759Y-146881642D01*
X60742833Y-146890958D01*
X60722719Y-146933800D01*
X60721338Y-146942669D01*
X60720472Y-146945502D01*
X60716042Y-146962389D01*
X60715408Y-146965274D01*
X60712255Y-146973684D01*
X60711590Y-146982639D01*
X60708746Y-147020906D01*
X60707592Y-147030952D01*
X60705500Y-147044386D01*
X60705500Y-147059906D01*
X60705154Y-147069243D01*
X60701461Y-147118941D01*
X60703335Y-147127720D01*
X60703898Y-147135978D01*
X60705500Y-147151161D01*
X60705500Y-147616659D01*
X60685498Y-147684780D01*
X60632749Y-147730854D01*
X60589345Y-147751093D01*
X60589339Y-147751096D01*
X60584354Y-147753421D01*
X60579850Y-147756575D01*
X60579845Y-147756578D01*
X60409054Y-147876167D01*
X60409051Y-147876169D01*
X60404543Y-147879326D01*
X60249326Y-148034543D01*
X60246169Y-148039051D01*
X60246167Y-148039054D01*
X60127265Y-148208864D01*
X60123421Y-148214354D01*
X60121098Y-148219336D01*
X60121095Y-148219341D01*
X60074104Y-148320116D01*
X60030653Y-148413297D01*
X59973839Y-148625326D01*
X59954708Y-148844000D01*
X26035000Y-148844000D01*
X26035000Y-145669000D01*
X34681708Y-145669000D01*
X34700839Y-145887674D01*
X34757653Y-146099703D01*
X34801104Y-146192884D01*
X34848095Y-146293659D01*
X34848098Y-146293664D01*
X34850421Y-146298646D01*
X34853577Y-146303153D01*
X34853578Y-146303155D01*
X34971021Y-146470880D01*
X34976326Y-146478457D01*
X35131543Y-146633674D01*
X35136051Y-146636831D01*
X35136054Y-146636833D01*
X35306845Y-146756422D01*
X35311354Y-146759579D01*
X35316336Y-146761902D01*
X35316341Y-146761905D01*
X35359749Y-146782146D01*
X35510297Y-146852347D01*
X35722326Y-146909161D01*
X35941000Y-146928292D01*
X36159674Y-146909161D01*
X36371703Y-146852347D01*
X36522251Y-146782146D01*
X36565659Y-146761905D01*
X36565664Y-146761902D01*
X36570646Y-146759579D01*
X36575155Y-146756422D01*
X36745946Y-146636833D01*
X36745949Y-146636831D01*
X36750457Y-146633674D01*
X36905674Y-146478457D01*
X36910980Y-146470880D01*
X37028422Y-146303155D01*
X37028423Y-146303153D01*
X37031579Y-146298646D01*
X37033904Y-146293661D01*
X37033907Y-146293655D01*
X37043421Y-146273251D01*
X37090337Y-146219966D01*
X37157616Y-146200500D01*
X38666555Y-146200500D01*
X38734676Y-146220502D01*
X38765299Y-146248234D01*
X38885699Y-146400141D01*
X38890393Y-146404136D01*
X38925508Y-146434021D01*
X39037209Y-146529087D01*
X39042587Y-146532093D01*
X39042589Y-146532094D01*
X39120297Y-146575523D01*
X39210881Y-146626148D01*
X39216740Y-146628052D01*
X39216743Y-146628053D01*
X39382157Y-146681800D01*
X39400097Y-146687629D01*
X39406217Y-146688359D01*
X39406218Y-146688359D01*
X39454836Y-146694156D01*
X39597651Y-146711185D01*
X39603786Y-146710713D01*
X39603788Y-146710713D01*
X39789878Y-146696395D01*
X39789883Y-146696394D01*
X39796019Y-146695922D01*
X39801951Y-146694266D01*
X39801955Y-146694265D01*
X39891831Y-146669170D01*
X39987643Y-146642419D01*
X40165227Y-146552715D01*
X40175928Y-146544355D01*
X40317148Y-146434021D01*
X40322004Y-146430227D01*
X40452005Y-146279620D01*
X40455048Y-146274263D01*
X40455051Y-146274259D01*
X40501140Y-146193126D01*
X40550276Y-146106631D01*
X40554348Y-146094392D01*
X40611129Y-145923701D01*
X40613076Y-145917849D01*
X40638012Y-145720464D01*
X40638409Y-145692000D01*
X40637014Y-145677767D01*
X41139690Y-145677767D01*
X41156338Y-145876023D01*
X41211177Y-146067269D01*
X41213996Y-146072754D01*
X41299301Y-146238740D01*
X41299304Y-146238745D01*
X41302119Y-146244222D01*
X41425699Y-146400141D01*
X41430393Y-146404136D01*
X41465508Y-146434021D01*
X41577209Y-146529087D01*
X41585968Y-146533983D01*
X41587384Y-146535427D01*
X41587647Y-146535609D01*
X41587612Y-146535659D01*
X41635674Y-146584673D01*
X41650500Y-146643971D01*
X41650500Y-147116928D01*
X41649145Y-147129058D01*
X41649627Y-147129097D01*
X41648907Y-147138044D01*
X41646926Y-147146800D01*
X41647482Y-147155760D01*
X41650258Y-147200508D01*
X41650500Y-147208310D01*
X41650500Y-147224513D01*
X41651136Y-147228953D01*
X41651984Y-147234878D01*
X41653013Y-147244928D01*
X41655109Y-147278696D01*
X41655945Y-147292177D01*
X41658994Y-147300623D01*
X41659593Y-147303514D01*
X41663822Y-147320480D01*
X41664648Y-147323305D01*
X41665920Y-147332187D01*
X41685522Y-147375298D01*
X41689327Y-147384647D01*
X41705404Y-147429181D01*
X41710699Y-147436429D01*
X41712080Y-147439027D01*
X41720915Y-147454145D01*
X41722494Y-147456614D01*
X41726208Y-147464782D01*
X41757115Y-147500652D01*
X41763401Y-147508569D01*
X41768548Y-147515615D01*
X41768553Y-147515620D01*
X41771425Y-147519552D01*
X41782400Y-147530527D01*
X41788758Y-147537374D01*
X41821287Y-147575127D01*
X41828822Y-147580011D01*
X41835058Y-147585451D01*
X41846929Y-147595056D01*
X42262183Y-148010311D01*
X42269800Y-148019845D01*
X42270169Y-148019531D01*
X42275984Y-148026364D01*
X42280776Y-148033958D01*
X42292799Y-148044576D01*
X42321116Y-148069585D01*
X42326803Y-148074931D01*
X42338255Y-148086383D01*
X42341846Y-148089074D01*
X42341848Y-148089076D01*
X42346630Y-148092660D01*
X42354473Y-148099045D01*
X42358821Y-148102885D01*
X42389951Y-148130378D01*
X42398078Y-148134194D01*
X42400534Y-148135807D01*
X42415537Y-148144823D01*
X42418115Y-148146234D01*
X42425296Y-148151616D01*
X42469633Y-148168237D01*
X42478948Y-148172162D01*
X42521800Y-148192281D01*
X42530675Y-148193663D01*
X42533502Y-148194527D01*
X42550379Y-148198955D01*
X42553272Y-148199591D01*
X42561685Y-148202745D01*
X42608925Y-148206256D01*
X42618944Y-148207407D01*
X42627580Y-148208752D01*
X42627584Y-148208752D01*
X42632386Y-148209500D01*
X42647910Y-148209500D01*
X42657248Y-148209847D01*
X42697990Y-148212875D01*
X42697991Y-148212875D01*
X42706941Y-148213540D01*
X42715718Y-148211666D01*
X42723969Y-148211104D01*
X42739166Y-148209500D01*
X47680928Y-148209500D01*
X47693058Y-148210855D01*
X47693097Y-148210373D01*
X47702044Y-148211093D01*
X47710800Y-148213074D01*
X47764508Y-148209742D01*
X47772310Y-148209500D01*
X47788513Y-148209500D01*
X47797429Y-148208223D01*
X47798878Y-148208016D01*
X47808928Y-148206987D01*
X47847216Y-148204611D01*
X47856177Y-148204055D01*
X47864623Y-148201006D01*
X47867514Y-148200407D01*
X47884480Y-148196178D01*
X47887305Y-148195352D01*
X47896187Y-148194080D01*
X47939298Y-148174478D01*
X47948649Y-148170672D01*
X47950475Y-148170013D01*
X47993181Y-148154596D01*
X48000429Y-148149301D01*
X48003027Y-148147920D01*
X48018145Y-148139085D01*
X48020614Y-148137506D01*
X48028782Y-148133792D01*
X48064653Y-148102884D01*
X48072569Y-148096599D01*
X48079615Y-148091452D01*
X48079620Y-148091447D01*
X48083552Y-148088575D01*
X48094527Y-148077600D01*
X48101375Y-148071242D01*
X48132323Y-148044576D01*
X48132324Y-148044575D01*
X48139127Y-148038713D01*
X48144011Y-148031178D01*
X48149458Y-148024934D01*
X48159058Y-148013069D01*
X48442304Y-147729823D01*
X48451844Y-147722200D01*
X48451530Y-147721832D01*
X48458366Y-147716014D01*
X48465958Y-147711224D01*
X48476523Y-147699262D01*
X48501593Y-147670875D01*
X48506939Y-147665188D01*
X48518382Y-147653745D01*
X48524659Y-147645370D01*
X48531033Y-147637541D01*
X48562378Y-147602049D01*
X48566192Y-147593926D01*
X48567826Y-147591438D01*
X48576814Y-147576477D01*
X48578230Y-147573891D01*
X48583616Y-147566705D01*
X48600244Y-147522350D01*
X48604164Y-147513048D01*
X48620467Y-147478323D01*
X48624281Y-147470200D01*
X48625662Y-147461334D01*
X48626518Y-147458533D01*
X48630962Y-147441596D01*
X48631595Y-147438716D01*
X48634744Y-147430316D01*
X48638252Y-147383111D01*
X48639406Y-147373063D01*
X48640750Y-147364429D01*
X48641500Y-147359614D01*
X48641500Y-147344077D01*
X48641847Y-147334739D01*
X48644874Y-147294010D01*
X48644874Y-147294009D01*
X48645539Y-147285059D01*
X48643666Y-147276284D01*
X48643103Y-147268027D01*
X48641500Y-147252838D01*
X48641500Y-146896341D01*
X48661502Y-146828220D01*
X48714251Y-146782146D01*
X48757655Y-146761907D01*
X48757661Y-146761904D01*
X48762646Y-146759579D01*
X48767155Y-146756422D01*
X48937946Y-146636833D01*
X48937949Y-146636831D01*
X48942457Y-146633674D01*
X49097674Y-146478457D01*
X49102980Y-146470880D01*
X49220422Y-146303155D01*
X49220423Y-146303153D01*
X49223579Y-146298646D01*
X49225902Y-146293664D01*
X49225905Y-146293659D01*
X49272896Y-146192884D01*
X49316347Y-146099703D01*
X49373161Y-145887674D01*
X49392292Y-145669000D01*
X49373161Y-145450326D01*
X49316347Y-145238297D01*
X49267392Y-145133311D01*
X49225905Y-145044341D01*
X49225902Y-145044336D01*
X49223579Y-145039354D01*
X49220422Y-145034845D01*
X49100833Y-144864054D01*
X49100831Y-144864051D01*
X49097674Y-144859543D01*
X48942457Y-144704326D01*
X48937949Y-144701169D01*
X48937946Y-144701167D01*
X48767155Y-144581578D01*
X48767153Y-144581577D01*
X48762646Y-144578421D01*
X48757664Y-144576098D01*
X48757659Y-144576095D01*
X48656884Y-144529104D01*
X48563703Y-144485653D01*
X48351674Y-144428839D01*
X48133000Y-144409708D01*
X47914326Y-144428839D01*
X47702297Y-144485653D01*
X47609116Y-144529104D01*
X47508341Y-144576095D01*
X47508336Y-144576098D01*
X47503354Y-144578421D01*
X47498847Y-144581577D01*
X47498845Y-144581578D01*
X47328054Y-144701167D01*
X47328051Y-144701169D01*
X47323543Y-144704326D01*
X47168326Y-144859543D01*
X47165169Y-144864051D01*
X47165167Y-144864054D01*
X47045578Y-145034845D01*
X47042421Y-145039354D01*
X47040098Y-145044336D01*
X47040095Y-145044341D01*
X46998608Y-145133311D01*
X46949653Y-145238297D01*
X46892839Y-145450326D01*
X46873708Y-145669000D01*
X46892839Y-145887674D01*
X46949653Y-146099703D01*
X46993104Y-146192884D01*
X47040095Y-146293659D01*
X47040098Y-146293664D01*
X47042421Y-146298646D01*
X47045577Y-146303153D01*
X47045578Y-146303155D01*
X47163021Y-146470880D01*
X47168326Y-146478457D01*
X47323543Y-146633674D01*
X47328051Y-146636831D01*
X47328054Y-146636833D01*
X47498845Y-146756422D01*
X47503354Y-146759579D01*
X47508339Y-146761904D01*
X47508345Y-146761907D01*
X47551749Y-146782146D01*
X47605035Y-146829063D01*
X47624500Y-146896341D01*
X47624500Y-147057181D01*
X47604498Y-147125302D01*
X47587600Y-147146272D01*
X47578282Y-147155591D01*
X47515972Y-147189619D01*
X47489182Y-147192500D01*
X42934817Y-147192500D01*
X42866696Y-147172498D01*
X42845722Y-147155595D01*
X42704405Y-147014278D01*
X42670379Y-146951966D01*
X42667500Y-146925183D01*
X42667500Y-146643644D01*
X42687502Y-146575523D01*
X42715927Y-146544355D01*
X42722618Y-146539128D01*
X42862004Y-146430227D01*
X42992005Y-146279620D01*
X42995048Y-146274263D01*
X42995051Y-146274259D01*
X43041140Y-146193126D01*
X43090276Y-146106631D01*
X43094348Y-146094392D01*
X43151129Y-145923701D01*
X43153076Y-145917849D01*
X43178012Y-145720464D01*
X43178409Y-145692000D01*
X43177014Y-145677767D01*
X43159596Y-145500129D01*
X43158995Y-145493996D01*
X43101491Y-145303533D01*
X43008087Y-145127868D01*
X42882343Y-144973690D01*
X42801647Y-144906933D01*
X43684500Y-144906933D01*
X43684501Y-146477066D01*
X43691612Y-146512818D01*
X43696155Y-146535659D01*
X43699266Y-146551301D01*
X43706161Y-146561620D01*
X43706162Y-146561622D01*
X43712944Y-146571772D01*
X43755516Y-146635484D01*
X43839699Y-146691734D01*
X43913933Y-146706500D01*
X44698873Y-146706500D01*
X45484066Y-146706499D01*
X45519818Y-146699388D01*
X45546126Y-146694156D01*
X45546128Y-146694155D01*
X45558301Y-146691734D01*
X45568621Y-146684839D01*
X45568622Y-146684838D01*
X45632168Y-146642377D01*
X45642484Y-146635484D01*
X45685056Y-146571772D01*
X45691839Y-146561620D01*
X45698734Y-146551301D01*
X45713500Y-146477067D01*
X45713499Y-144906934D01*
X45698734Y-144832699D01*
X45642484Y-144748516D01*
X45558301Y-144692266D01*
X45484067Y-144677500D01*
X44699127Y-144677500D01*
X43913934Y-144677501D01*
X43878182Y-144684612D01*
X43851874Y-144689844D01*
X43851872Y-144689845D01*
X43839699Y-144692266D01*
X43829379Y-144699161D01*
X43829378Y-144699162D01*
X43821650Y-144704326D01*
X43755516Y-144748516D01*
X43699266Y-144832699D01*
X43684500Y-144906933D01*
X42801647Y-144906933D01*
X42729046Y-144846872D01*
X42669889Y-144814886D01*
X42559462Y-144755177D01*
X42559459Y-144755176D01*
X42554037Y-144752244D01*
X42363981Y-144693412D01*
X42357856Y-144692768D01*
X42357855Y-144692768D01*
X42172246Y-144673260D01*
X42172244Y-144673260D01*
X42166117Y-144672616D01*
X42083805Y-144680107D01*
X41974121Y-144690089D01*
X41974118Y-144690090D01*
X41967982Y-144690648D01*
X41962076Y-144692386D01*
X41962072Y-144692387D01*
X41908266Y-144708223D01*
X41777123Y-144746820D01*
X41771663Y-144749674D01*
X41771664Y-144749674D01*
X41606269Y-144836140D01*
X41606265Y-144836143D01*
X41600809Y-144838995D01*
X41445757Y-144963660D01*
X41317872Y-145116068D01*
X41222025Y-145290412D01*
X41161868Y-145480053D01*
X41161182Y-145486172D01*
X41161181Y-145486175D01*
X41140673Y-145669000D01*
X41139690Y-145677767D01*
X40637014Y-145677767D01*
X40619596Y-145500129D01*
X40618995Y-145493996D01*
X40561491Y-145303533D01*
X40468087Y-145127868D01*
X40342343Y-144973690D01*
X40189046Y-144846872D01*
X40129889Y-144814886D01*
X40019462Y-144755177D01*
X40019459Y-144755176D01*
X40014037Y-144752244D01*
X39823981Y-144693412D01*
X39817856Y-144692768D01*
X39817855Y-144692768D01*
X39632246Y-144673260D01*
X39632244Y-144673260D01*
X39626117Y-144672616D01*
X39543805Y-144680107D01*
X39434121Y-144690089D01*
X39434118Y-144690090D01*
X39427982Y-144690648D01*
X39422076Y-144692386D01*
X39422072Y-144692387D01*
X39368266Y-144708223D01*
X39237123Y-144746820D01*
X39231663Y-144749674D01*
X39231664Y-144749674D01*
X39066269Y-144836140D01*
X39066265Y-144836143D01*
X39060809Y-144838995D01*
X38905757Y-144963660D01*
X38777872Y-145116068D01*
X38774905Y-145121465D01*
X38771421Y-145126553D01*
X38769575Y-145125289D01*
X38726338Y-145168268D01*
X38666284Y-145183500D01*
X37179066Y-145183500D01*
X37110945Y-145163498D01*
X37064871Y-145110749D01*
X37033907Y-145044345D01*
X37033904Y-145044339D01*
X37031579Y-145039354D01*
X37028422Y-145034845D01*
X36908833Y-144864054D01*
X36908831Y-144864051D01*
X36905674Y-144859543D01*
X36750457Y-144704326D01*
X36745949Y-144701169D01*
X36745946Y-144701167D01*
X36575155Y-144581578D01*
X36575153Y-144581577D01*
X36570646Y-144578421D01*
X36565664Y-144576098D01*
X36565659Y-144576095D01*
X36464884Y-144529104D01*
X36371703Y-144485653D01*
X36159674Y-144428839D01*
X35941000Y-144409708D01*
X35722326Y-144428839D01*
X35510297Y-144485653D01*
X35417116Y-144529104D01*
X35316341Y-144576095D01*
X35316336Y-144576098D01*
X35311354Y-144578421D01*
X35306847Y-144581577D01*
X35306845Y-144581578D01*
X35136054Y-144701167D01*
X35136051Y-144701169D01*
X35131543Y-144704326D01*
X34976326Y-144859543D01*
X34973169Y-144864051D01*
X34973167Y-144864054D01*
X34853578Y-145034845D01*
X34850421Y-145039354D01*
X34848098Y-145044336D01*
X34848095Y-145044341D01*
X34806608Y-145133311D01*
X34757653Y-145238297D01*
X34700839Y-145450326D01*
X34681708Y-145669000D01*
X26035000Y-145669000D01*
X26035000Y-143137767D01*
X37329690Y-143137767D01*
X37346338Y-143336023D01*
X37401177Y-143527269D01*
X37403996Y-143532754D01*
X37489301Y-143698740D01*
X37489304Y-143698745D01*
X37492119Y-143704222D01*
X37615699Y-143860141D01*
X37620393Y-143864136D01*
X37655508Y-143894021D01*
X37767209Y-143989087D01*
X37772587Y-143992093D01*
X37772589Y-143992094D01*
X37814457Y-144015493D01*
X37940881Y-144086148D01*
X37946740Y-144088052D01*
X37946743Y-144088053D01*
X38124234Y-144145724D01*
X38130097Y-144147629D01*
X38136217Y-144148359D01*
X38136218Y-144148359D01*
X38185750Y-144154265D01*
X38327651Y-144171185D01*
X38333786Y-144170713D01*
X38333788Y-144170713D01*
X38519878Y-144156395D01*
X38519883Y-144156394D01*
X38526019Y-144155922D01*
X38531951Y-144154266D01*
X38531955Y-144154265D01*
X38621831Y-144129170D01*
X38717643Y-144102419D01*
X38895227Y-144012715D01*
X38925470Y-143989087D01*
X39047148Y-143894021D01*
X39052004Y-143890227D01*
X39182005Y-143739620D01*
X39185048Y-143734263D01*
X39185051Y-143734259D01*
X39231141Y-143653125D01*
X39280276Y-143566631D01*
X39291546Y-143532754D01*
X39341129Y-143383701D01*
X39343076Y-143377849D01*
X39368012Y-143180464D01*
X39368409Y-143152000D01*
X39367014Y-143137767D01*
X39869690Y-143137767D01*
X39886338Y-143336023D01*
X39941177Y-143527269D01*
X39943996Y-143532754D01*
X40029301Y-143698740D01*
X40029304Y-143698745D01*
X40032119Y-143704222D01*
X40155699Y-143860141D01*
X40160393Y-143864136D01*
X40195508Y-143894021D01*
X40307209Y-143989087D01*
X40312587Y-143992093D01*
X40312589Y-143992094D01*
X40354457Y-144015493D01*
X40480881Y-144086148D01*
X40486740Y-144088052D01*
X40486743Y-144088053D01*
X40664234Y-144145724D01*
X40670097Y-144147629D01*
X40676217Y-144148359D01*
X40676218Y-144148359D01*
X40725750Y-144154265D01*
X40867651Y-144171185D01*
X40873786Y-144170713D01*
X40873788Y-144170713D01*
X41059878Y-144156395D01*
X41059883Y-144156394D01*
X41066019Y-144155922D01*
X41071951Y-144154266D01*
X41071955Y-144154265D01*
X41161831Y-144129170D01*
X41257643Y-144102419D01*
X41435227Y-144012715D01*
X41465470Y-143989087D01*
X41587148Y-143894021D01*
X41592004Y-143890227D01*
X41722005Y-143739620D01*
X41725048Y-143734263D01*
X41725051Y-143734259D01*
X41771141Y-143653125D01*
X41820276Y-143566631D01*
X41831546Y-143532754D01*
X41881129Y-143383701D01*
X41883076Y-143377849D01*
X41908012Y-143180464D01*
X41908409Y-143152000D01*
X41907014Y-143137767D01*
X41889596Y-142960129D01*
X41888995Y-142953996D01*
X41831491Y-142763533D01*
X41738087Y-142587868D01*
X41612343Y-142433690D01*
X41459046Y-142306872D01*
X41396433Y-142273017D01*
X41289462Y-142215177D01*
X41289459Y-142215176D01*
X41284037Y-142212244D01*
X41093981Y-142153412D01*
X41087856Y-142152768D01*
X41087855Y-142152768D01*
X40902246Y-142133260D01*
X40902244Y-142133260D01*
X40896117Y-142132616D01*
X40813805Y-142140107D01*
X40704121Y-142150089D01*
X40704118Y-142150090D01*
X40697982Y-142150648D01*
X40692076Y-142152386D01*
X40692072Y-142152387D01*
X40546220Y-142195313D01*
X40507123Y-142206820D01*
X40501663Y-142209674D01*
X40501664Y-142209674D01*
X40336269Y-142296140D01*
X40336265Y-142296143D01*
X40330809Y-142298995D01*
X40175757Y-142423660D01*
X40047872Y-142576068D01*
X39952025Y-142750412D01*
X39891868Y-142940053D01*
X39869690Y-143137767D01*
X39367014Y-143137767D01*
X39349596Y-142960129D01*
X39348995Y-142953996D01*
X39291491Y-142763533D01*
X39198087Y-142587868D01*
X39072343Y-142433690D01*
X38919046Y-142306872D01*
X38856433Y-142273017D01*
X38749462Y-142215177D01*
X38749459Y-142215176D01*
X38744037Y-142212244D01*
X38553981Y-142153412D01*
X38547856Y-142152768D01*
X38547855Y-142152768D01*
X38362246Y-142133260D01*
X38362244Y-142133260D01*
X38356117Y-142132616D01*
X38273805Y-142140107D01*
X38164121Y-142150089D01*
X38164118Y-142150090D01*
X38157982Y-142150648D01*
X38152076Y-142152386D01*
X38152072Y-142152387D01*
X38006220Y-142195313D01*
X37967123Y-142206820D01*
X37961663Y-142209674D01*
X37961664Y-142209674D01*
X37796269Y-142296140D01*
X37796265Y-142296143D01*
X37790809Y-142298995D01*
X37635757Y-142423660D01*
X37507872Y-142576068D01*
X37412025Y-142750412D01*
X37351868Y-142940053D01*
X37329690Y-143137767D01*
X26035000Y-143137767D01*
X26035000Y-140208000D01*
X42174708Y-140208000D01*
X42193839Y-140426674D01*
X42250653Y-140638703D01*
X42252978Y-140643688D01*
X42341095Y-140832659D01*
X42341098Y-140832664D01*
X42343421Y-140837646D01*
X42469326Y-141017457D01*
X42624543Y-141172674D01*
X42629051Y-141175831D01*
X42629054Y-141175833D01*
X42727812Y-141244984D01*
X42804354Y-141298579D01*
X42809338Y-141300903D01*
X42847749Y-141318814D01*
X42901034Y-141365730D01*
X42920500Y-141433009D01*
X42920500Y-142199069D01*
X42900498Y-142267190D01*
X42869977Y-142297960D01*
X42870809Y-142298995D01*
X42715757Y-142423660D01*
X42587872Y-142576068D01*
X42492025Y-142750412D01*
X42431868Y-142940053D01*
X42409690Y-143137767D01*
X42426338Y-143336023D01*
X42481177Y-143527269D01*
X42483996Y-143532754D01*
X42569301Y-143698740D01*
X42569304Y-143698745D01*
X42572119Y-143704222D01*
X42695699Y-143860141D01*
X42700393Y-143864136D01*
X42735508Y-143894021D01*
X42847209Y-143989087D01*
X42852587Y-143992093D01*
X42852589Y-143992094D01*
X42894457Y-144015493D01*
X43020881Y-144086148D01*
X43026740Y-144088052D01*
X43026743Y-144088053D01*
X43204234Y-144145724D01*
X43210097Y-144147629D01*
X43216217Y-144148359D01*
X43216218Y-144148359D01*
X43265750Y-144154265D01*
X43407651Y-144171185D01*
X43413786Y-144170713D01*
X43413788Y-144170713D01*
X43599878Y-144156395D01*
X43599883Y-144156394D01*
X43606019Y-144155922D01*
X43611951Y-144154266D01*
X43611955Y-144154265D01*
X43701831Y-144129170D01*
X43797643Y-144102419D01*
X43975227Y-144012715D01*
X44005470Y-143989087D01*
X44127148Y-143894021D01*
X44132004Y-143890227D01*
X44262005Y-143739620D01*
X44265048Y-143734263D01*
X44265051Y-143734259D01*
X44311141Y-143653125D01*
X44360276Y-143566631D01*
X44371546Y-143532754D01*
X44421129Y-143383701D01*
X44423076Y-143377849D01*
X44448012Y-143180464D01*
X44448409Y-143152000D01*
X44447014Y-143137767D01*
X60316690Y-143137767D01*
X60333338Y-143336023D01*
X60388177Y-143527269D01*
X60390996Y-143532754D01*
X60476301Y-143698740D01*
X60476304Y-143698745D01*
X60479119Y-143704222D01*
X60602699Y-143860141D01*
X60607393Y-143864136D01*
X60642508Y-143894021D01*
X60754209Y-143989087D01*
X60759587Y-143992093D01*
X60759589Y-143992094D01*
X60801457Y-144015493D01*
X60927881Y-144086148D01*
X60933740Y-144088052D01*
X60933743Y-144088053D01*
X61111234Y-144145724D01*
X61117097Y-144147629D01*
X61123217Y-144148359D01*
X61123218Y-144148359D01*
X61172750Y-144154265D01*
X61314651Y-144171185D01*
X61320786Y-144170713D01*
X61320788Y-144170713D01*
X61506878Y-144156395D01*
X61506883Y-144156394D01*
X61513019Y-144155922D01*
X61518951Y-144154266D01*
X61518955Y-144154265D01*
X61608831Y-144129170D01*
X61704643Y-144102419D01*
X61882227Y-144012715D01*
X61912470Y-143989087D01*
X62034148Y-143894021D01*
X62039004Y-143890227D01*
X62169005Y-143739620D01*
X62172048Y-143734263D01*
X62172051Y-143734259D01*
X62218141Y-143653125D01*
X62267276Y-143566631D01*
X62278546Y-143532754D01*
X62328129Y-143383701D01*
X62330076Y-143377849D01*
X62355012Y-143180464D01*
X62355409Y-143152000D01*
X62354014Y-143137767D01*
X62856690Y-143137767D01*
X62873338Y-143336023D01*
X62928177Y-143527269D01*
X62930996Y-143532754D01*
X63016301Y-143698740D01*
X63016304Y-143698745D01*
X63019119Y-143704222D01*
X63142699Y-143860141D01*
X63147393Y-143864136D01*
X63182508Y-143894021D01*
X63294209Y-143989087D01*
X63299587Y-143992093D01*
X63299589Y-143992094D01*
X63341457Y-144015493D01*
X63467881Y-144086148D01*
X63473740Y-144088052D01*
X63473743Y-144088053D01*
X63651234Y-144145724D01*
X63657097Y-144147629D01*
X63663217Y-144148359D01*
X63663218Y-144148359D01*
X63712750Y-144154265D01*
X63854651Y-144171185D01*
X63860786Y-144170713D01*
X63860788Y-144170713D01*
X64046878Y-144156395D01*
X64046883Y-144156394D01*
X64053019Y-144155922D01*
X64058951Y-144154266D01*
X64058955Y-144154265D01*
X64148831Y-144129170D01*
X64244643Y-144102419D01*
X64422227Y-144012715D01*
X64452470Y-143989087D01*
X64574148Y-143894021D01*
X64579004Y-143890227D01*
X64709005Y-143739620D01*
X64712048Y-143734263D01*
X64712051Y-143734259D01*
X64758141Y-143653125D01*
X64807276Y-143566631D01*
X64818546Y-143532754D01*
X64868129Y-143383701D01*
X64870076Y-143377849D01*
X64895012Y-143180464D01*
X64895409Y-143152000D01*
X64894014Y-143137767D01*
X65396690Y-143137767D01*
X65413338Y-143336023D01*
X65468177Y-143527269D01*
X65470996Y-143532754D01*
X65556301Y-143698740D01*
X65556304Y-143698745D01*
X65559119Y-143704222D01*
X65682699Y-143860141D01*
X65687393Y-143864136D01*
X65722508Y-143894021D01*
X65834209Y-143989087D01*
X65839587Y-143992093D01*
X65839589Y-143992094D01*
X65881457Y-144015493D01*
X66007881Y-144086148D01*
X66013740Y-144088052D01*
X66013743Y-144088053D01*
X66191234Y-144145724D01*
X66197097Y-144147629D01*
X66203217Y-144148359D01*
X66203218Y-144148359D01*
X66252750Y-144154265D01*
X66394651Y-144171185D01*
X66400786Y-144170713D01*
X66400788Y-144170713D01*
X66586878Y-144156395D01*
X66586883Y-144156394D01*
X66593019Y-144155922D01*
X66598951Y-144154266D01*
X66598955Y-144154265D01*
X66688831Y-144129170D01*
X66784643Y-144102419D01*
X66962227Y-144012715D01*
X66992470Y-143989087D01*
X67114148Y-143894021D01*
X67119004Y-143890227D01*
X67249005Y-143739620D01*
X67252048Y-143734263D01*
X67252051Y-143734259D01*
X67298141Y-143653125D01*
X67347276Y-143566631D01*
X67358546Y-143532754D01*
X67408129Y-143383701D01*
X67410076Y-143377849D01*
X67435012Y-143180464D01*
X67435409Y-143152000D01*
X67434014Y-143137767D01*
X67416596Y-142960129D01*
X67415995Y-142953996D01*
X67358491Y-142763533D01*
X67265087Y-142587868D01*
X67139343Y-142433690D01*
X66986046Y-142306872D01*
X66923433Y-142273017D01*
X66816462Y-142215177D01*
X66816459Y-142215176D01*
X66811037Y-142212244D01*
X66620981Y-142153412D01*
X66614856Y-142152768D01*
X66614855Y-142152768D01*
X66429246Y-142133260D01*
X66429244Y-142133260D01*
X66423117Y-142132616D01*
X66340805Y-142140107D01*
X66231121Y-142150089D01*
X66231118Y-142150090D01*
X66224982Y-142150648D01*
X66219076Y-142152386D01*
X66219072Y-142152387D01*
X66073220Y-142195313D01*
X66034123Y-142206820D01*
X66028663Y-142209674D01*
X66028664Y-142209674D01*
X65863269Y-142296140D01*
X65863265Y-142296143D01*
X65857809Y-142298995D01*
X65702757Y-142423660D01*
X65574872Y-142576068D01*
X65479025Y-142750412D01*
X65418868Y-142940053D01*
X65396690Y-143137767D01*
X64894014Y-143137767D01*
X64876596Y-142960129D01*
X64875995Y-142953996D01*
X64818491Y-142763533D01*
X64725087Y-142587868D01*
X64599343Y-142433690D01*
X64446046Y-142306872D01*
X64383433Y-142273017D01*
X64276462Y-142215177D01*
X64276459Y-142215176D01*
X64271037Y-142212244D01*
X64080981Y-142153412D01*
X64074856Y-142152768D01*
X64074855Y-142152768D01*
X63889246Y-142133260D01*
X63889244Y-142133260D01*
X63883117Y-142132616D01*
X63800805Y-142140107D01*
X63691121Y-142150089D01*
X63691118Y-142150090D01*
X63684982Y-142150648D01*
X63679076Y-142152386D01*
X63679072Y-142152387D01*
X63533220Y-142195313D01*
X63494123Y-142206820D01*
X63488663Y-142209674D01*
X63488664Y-142209674D01*
X63323269Y-142296140D01*
X63323265Y-142296143D01*
X63317809Y-142298995D01*
X63162757Y-142423660D01*
X63034872Y-142576068D01*
X62939025Y-142750412D01*
X62878868Y-142940053D01*
X62856690Y-143137767D01*
X62354014Y-143137767D01*
X62336596Y-142960129D01*
X62335995Y-142953996D01*
X62278491Y-142763533D01*
X62185087Y-142587868D01*
X62059343Y-142433690D01*
X61906046Y-142306872D01*
X61843433Y-142273017D01*
X61736462Y-142215177D01*
X61736459Y-142215176D01*
X61731037Y-142212244D01*
X61540981Y-142153412D01*
X61534856Y-142152768D01*
X61534855Y-142152768D01*
X61349246Y-142133260D01*
X61349244Y-142133260D01*
X61343117Y-142132616D01*
X61260805Y-142140107D01*
X61151121Y-142150089D01*
X61151118Y-142150090D01*
X61144982Y-142150648D01*
X61139076Y-142152386D01*
X61139072Y-142152387D01*
X60993220Y-142195313D01*
X60954123Y-142206820D01*
X60948663Y-142209674D01*
X60948664Y-142209674D01*
X60783269Y-142296140D01*
X60783265Y-142296143D01*
X60777809Y-142298995D01*
X60622757Y-142423660D01*
X60494872Y-142576068D01*
X60399025Y-142750412D01*
X60338868Y-142940053D01*
X60316690Y-143137767D01*
X44447014Y-143137767D01*
X44429596Y-142960129D01*
X44428995Y-142953996D01*
X44371491Y-142763533D01*
X44278087Y-142587868D01*
X44152343Y-142433690D01*
X43999046Y-142306872D01*
X43993629Y-142303943D01*
X43993039Y-142303545D01*
X43947751Y-142248869D01*
X43937500Y-142199088D01*
X43937500Y-141437672D01*
X43957502Y-141369551D01*
X44010251Y-141323477D01*
X44058662Y-141300903D01*
X44063646Y-141298579D01*
X44140188Y-141244984D01*
X44238946Y-141175833D01*
X44238949Y-141175831D01*
X44243457Y-141172674D01*
X44398674Y-141017457D01*
X44524579Y-140837646D01*
X44526902Y-140832664D01*
X44526905Y-140832659D01*
X44615022Y-140643688D01*
X44617347Y-140638703D01*
X44674161Y-140426674D01*
X44693292Y-140208000D01*
X44674161Y-139989326D01*
X44617347Y-139777297D01*
X44573896Y-139684116D01*
X44526905Y-139583341D01*
X44526902Y-139583336D01*
X44524579Y-139578354D01*
X44398674Y-139398543D01*
X44243457Y-139243326D01*
X44238949Y-139240169D01*
X44238946Y-139240167D01*
X44068155Y-139120578D01*
X44068153Y-139120577D01*
X44063646Y-139117421D01*
X44058664Y-139115098D01*
X44058659Y-139115095D01*
X43957884Y-139068104D01*
X43864703Y-139024653D01*
X43652674Y-138967839D01*
X43434000Y-138948708D01*
X43215326Y-138967839D01*
X43003297Y-139024653D01*
X42910116Y-139068104D01*
X42809341Y-139115095D01*
X42809336Y-139115098D01*
X42804354Y-139117421D01*
X42799847Y-139120577D01*
X42799845Y-139120578D01*
X42629054Y-139240167D01*
X42629051Y-139240169D01*
X42624543Y-139243326D01*
X42469326Y-139398543D01*
X42343421Y-139578354D01*
X42341098Y-139583336D01*
X42341095Y-139583341D01*
X42294104Y-139684116D01*
X42250653Y-139777297D01*
X42193839Y-139989326D01*
X42174708Y-140208000D01*
X26035000Y-140208000D01*
X26035000Y-136844755D01*
X34564958Y-136844755D01*
X34590864Y-137116280D01*
X34655695Y-137381222D01*
X34657407Y-137385448D01*
X34657408Y-137385452D01*
X34726677Y-137556469D01*
X34758092Y-137634030D01*
X34760396Y-137637965D01*
X34760399Y-137637971D01*
X34893606Y-137865470D01*
X34895912Y-137869408D01*
X35066266Y-138082425D01*
X35265587Y-138268620D01*
X35359273Y-138333613D01*
X35485945Y-138421489D01*
X35485950Y-138421492D01*
X35489698Y-138424092D01*
X35493783Y-138426124D01*
X35493786Y-138426126D01*
X35668344Y-138512967D01*
X35733905Y-138545583D01*
X35738244Y-138547005D01*
X35738248Y-138547007D01*
X35988750Y-138629125D01*
X35988755Y-138629126D01*
X35993092Y-138630548D01*
X36062324Y-138642569D01*
X36258048Y-138676553D01*
X36258056Y-138676554D01*
X36261829Y-138677209D01*
X36265666Y-138677400D01*
X36346451Y-138681422D01*
X36346459Y-138681422D01*
X36348022Y-138681500D01*
X36518282Y-138681500D01*
X36520550Y-138681335D01*
X36520562Y-138681335D01*
X36651896Y-138671805D01*
X36721043Y-138666788D01*
X36725498Y-138665804D01*
X36725501Y-138665804D01*
X36982927Y-138608970D01*
X36982931Y-138608969D01*
X36987387Y-138607985D01*
X37114920Y-138559667D01*
X37238183Y-138512967D01*
X37238186Y-138512966D01*
X37242453Y-138511349D01*
X37480898Y-138378905D01*
X37697725Y-138213427D01*
X37829274Y-138078859D01*
X37885200Y-138021650D01*
X37885204Y-138021645D01*
X37888394Y-138018382D01*
X37994236Y-137872971D01*
X38046222Y-137801549D01*
X38046222Y-137801548D01*
X38048910Y-137797856D01*
X38175910Y-137556469D01*
X38266734Y-137299276D01*
X38286282Y-137200098D01*
X38318599Y-137036138D01*
X38318600Y-137036132D01*
X38319480Y-137031666D01*
X38319707Y-137027110D01*
X38328785Y-136844755D01*
X44724958Y-136844755D01*
X44750864Y-137116280D01*
X44815695Y-137381222D01*
X44817407Y-137385448D01*
X44817408Y-137385452D01*
X44886677Y-137556469D01*
X44918092Y-137634030D01*
X44920396Y-137637965D01*
X44920399Y-137637971D01*
X45053606Y-137865470D01*
X45055912Y-137869408D01*
X45226266Y-138082425D01*
X45425587Y-138268620D01*
X45519273Y-138333613D01*
X45645945Y-138421489D01*
X45645950Y-138421492D01*
X45649698Y-138424092D01*
X45653783Y-138426124D01*
X45653786Y-138426126D01*
X45828344Y-138512967D01*
X45893905Y-138545583D01*
X45898244Y-138547005D01*
X45898248Y-138547007D01*
X46148750Y-138629125D01*
X46148755Y-138629126D01*
X46153092Y-138630548D01*
X46222324Y-138642569D01*
X46418048Y-138676553D01*
X46418056Y-138676554D01*
X46421829Y-138677209D01*
X46425666Y-138677400D01*
X46506451Y-138681422D01*
X46506459Y-138681422D01*
X46508022Y-138681500D01*
X46678282Y-138681500D01*
X46680550Y-138681335D01*
X46680562Y-138681335D01*
X46811896Y-138671805D01*
X46881043Y-138666788D01*
X46885498Y-138665804D01*
X46885501Y-138665804D01*
X47142927Y-138608970D01*
X47142931Y-138608969D01*
X47147387Y-138607985D01*
X47274920Y-138559667D01*
X47398183Y-138512967D01*
X47398186Y-138512966D01*
X47402453Y-138511349D01*
X47640898Y-138378905D01*
X47857725Y-138213427D01*
X47989274Y-138078859D01*
X48045200Y-138021650D01*
X48045204Y-138021645D01*
X48048394Y-138018382D01*
X48154236Y-137872971D01*
X48206222Y-137801549D01*
X48206222Y-137801548D01*
X48208910Y-137797856D01*
X48335910Y-137556469D01*
X48426734Y-137299276D01*
X48446282Y-137200098D01*
X48478599Y-137036138D01*
X48478600Y-137036132D01*
X48479480Y-137031666D01*
X48479707Y-137027110D01*
X48488785Y-136844755D01*
X57551958Y-136844755D01*
X57577864Y-137116280D01*
X57642695Y-137381222D01*
X57644407Y-137385448D01*
X57644408Y-137385452D01*
X57713677Y-137556469D01*
X57745092Y-137634030D01*
X57747396Y-137637965D01*
X57747399Y-137637971D01*
X57880606Y-137865470D01*
X57882912Y-137869408D01*
X58053266Y-138082425D01*
X58252587Y-138268620D01*
X58346273Y-138333613D01*
X58472945Y-138421489D01*
X58472950Y-138421492D01*
X58476698Y-138424092D01*
X58480783Y-138426124D01*
X58480786Y-138426126D01*
X58655344Y-138512967D01*
X58720905Y-138545583D01*
X58725244Y-138547005D01*
X58725248Y-138547007D01*
X58975750Y-138629125D01*
X58975755Y-138629126D01*
X58980092Y-138630548D01*
X59049324Y-138642569D01*
X59245048Y-138676553D01*
X59245056Y-138676554D01*
X59248829Y-138677209D01*
X59252666Y-138677400D01*
X59333451Y-138681422D01*
X59333459Y-138681422D01*
X59335022Y-138681500D01*
X59505282Y-138681500D01*
X59507550Y-138681335D01*
X59507562Y-138681335D01*
X59638896Y-138671805D01*
X59708043Y-138666788D01*
X59712498Y-138665804D01*
X59712501Y-138665804D01*
X59969927Y-138608970D01*
X59969931Y-138608969D01*
X59974387Y-138607985D01*
X60101920Y-138559667D01*
X60225183Y-138512967D01*
X60225186Y-138512966D01*
X60229453Y-138511349D01*
X60467898Y-138378905D01*
X60684725Y-138213427D01*
X60816274Y-138078859D01*
X60872200Y-138021650D01*
X60872204Y-138021645D01*
X60875394Y-138018382D01*
X60981236Y-137872971D01*
X61033222Y-137801549D01*
X61033222Y-137801548D01*
X61035910Y-137797856D01*
X61162910Y-137556469D01*
X61253734Y-137299276D01*
X61273282Y-137200098D01*
X61305599Y-137036138D01*
X61305600Y-137036132D01*
X61306480Y-137031666D01*
X61306707Y-137027110D01*
X61315785Y-136844755D01*
X67711958Y-136844755D01*
X67737864Y-137116280D01*
X67802695Y-137381222D01*
X67804407Y-137385448D01*
X67804408Y-137385452D01*
X67873677Y-137556469D01*
X67905092Y-137634030D01*
X67907396Y-137637965D01*
X67907399Y-137637971D01*
X68040606Y-137865470D01*
X68042912Y-137869408D01*
X68213266Y-138082425D01*
X68412587Y-138268620D01*
X68506273Y-138333613D01*
X68632945Y-138421489D01*
X68632950Y-138421492D01*
X68636698Y-138424092D01*
X68640783Y-138426124D01*
X68640786Y-138426126D01*
X68815344Y-138512967D01*
X68880905Y-138545583D01*
X68885244Y-138547005D01*
X68885248Y-138547007D01*
X69135750Y-138629125D01*
X69135755Y-138629126D01*
X69140092Y-138630548D01*
X69209324Y-138642569D01*
X69405048Y-138676553D01*
X69405056Y-138676554D01*
X69408829Y-138677209D01*
X69412666Y-138677400D01*
X69493451Y-138681422D01*
X69493459Y-138681422D01*
X69495022Y-138681500D01*
X69665282Y-138681500D01*
X69667550Y-138681335D01*
X69667562Y-138681335D01*
X69798896Y-138671805D01*
X69868043Y-138666788D01*
X69872498Y-138665804D01*
X69872501Y-138665804D01*
X70129927Y-138608970D01*
X70129931Y-138608969D01*
X70134387Y-138607985D01*
X70261920Y-138559667D01*
X70385183Y-138512967D01*
X70385186Y-138512966D01*
X70389453Y-138511349D01*
X70627898Y-138378905D01*
X70844725Y-138213427D01*
X70976274Y-138078859D01*
X71032200Y-138021650D01*
X71032204Y-138021645D01*
X71035394Y-138018382D01*
X71141236Y-137872971D01*
X71193222Y-137801549D01*
X71193222Y-137801548D01*
X71195910Y-137797856D01*
X71322910Y-137556469D01*
X71413734Y-137299276D01*
X71433282Y-137200098D01*
X71465599Y-137036138D01*
X71465600Y-137036132D01*
X71466480Y-137031666D01*
X71466707Y-137027110D01*
X71479815Y-136763814D01*
X71479815Y-136763808D01*
X71480042Y-136759245D01*
X71454136Y-136487720D01*
X71438661Y-136424476D01*
X71390390Y-136227212D01*
X71389305Y-136222778D01*
X71387592Y-136218548D01*
X71288623Y-135974203D01*
X71288620Y-135974198D01*
X71286908Y-135969970D01*
X71284604Y-135966035D01*
X71284601Y-135966029D01*
X71151394Y-135738530D01*
X71151393Y-135738528D01*
X71149088Y-135734592D01*
X70978734Y-135521575D01*
X70779413Y-135335380D01*
X70685727Y-135270387D01*
X70559055Y-135182511D01*
X70559050Y-135182508D01*
X70555302Y-135179908D01*
X70551217Y-135177876D01*
X70551214Y-135177874D01*
X70315186Y-135060452D01*
X70315183Y-135060451D01*
X70311095Y-135058417D01*
X70306756Y-135056995D01*
X70306752Y-135056993D01*
X70056250Y-134974875D01*
X70056245Y-134974874D01*
X70051908Y-134973452D01*
X69982676Y-134961431D01*
X69786952Y-134927447D01*
X69786944Y-134927446D01*
X69783171Y-134926791D01*
X69772385Y-134926254D01*
X69698549Y-134922578D01*
X69698541Y-134922578D01*
X69696978Y-134922500D01*
X69526718Y-134922500D01*
X69524450Y-134922665D01*
X69524438Y-134922665D01*
X69393104Y-134932195D01*
X69323957Y-134937212D01*
X69319502Y-134938196D01*
X69319499Y-134938196D01*
X69062073Y-134995030D01*
X69062069Y-134995031D01*
X69057613Y-134996015D01*
X68930080Y-135044333D01*
X68806817Y-135091033D01*
X68806814Y-135091034D01*
X68802547Y-135092651D01*
X68564102Y-135225095D01*
X68347275Y-135390573D01*
X68344082Y-135393839D01*
X68344080Y-135393841D01*
X68159800Y-135582350D01*
X68159796Y-135582355D01*
X68156606Y-135585618D01*
X68153919Y-135589310D01*
X68153917Y-135589312D01*
X68048171Y-135734592D01*
X67996090Y-135806144D01*
X67869090Y-136047531D01*
X67778266Y-136304724D01*
X67777386Y-136309190D01*
X67743073Y-136483280D01*
X67725520Y-136572334D01*
X67725293Y-136576887D01*
X67725293Y-136576890D01*
X67715988Y-136763814D01*
X67711958Y-136844755D01*
X61315785Y-136844755D01*
X61319815Y-136763814D01*
X61319815Y-136763808D01*
X61320042Y-136759245D01*
X61294136Y-136487720D01*
X61278661Y-136424476D01*
X61230390Y-136227212D01*
X61229305Y-136222778D01*
X61227592Y-136218548D01*
X61128623Y-135974203D01*
X61128620Y-135974198D01*
X61126908Y-135969970D01*
X61124604Y-135966035D01*
X61124601Y-135966029D01*
X60991394Y-135738530D01*
X60991393Y-135738528D01*
X60989088Y-135734592D01*
X60818734Y-135521575D01*
X60619413Y-135335380D01*
X60525727Y-135270387D01*
X60399055Y-135182511D01*
X60399050Y-135182508D01*
X60395302Y-135179908D01*
X60391217Y-135177876D01*
X60391214Y-135177874D01*
X60155186Y-135060452D01*
X60155183Y-135060451D01*
X60151095Y-135058417D01*
X60146756Y-135056995D01*
X60146752Y-135056993D01*
X59896250Y-134974875D01*
X59896245Y-134974874D01*
X59891908Y-134973452D01*
X59822676Y-134961431D01*
X59626952Y-134927447D01*
X59626944Y-134927446D01*
X59623171Y-134926791D01*
X59612385Y-134926254D01*
X59538549Y-134922578D01*
X59538541Y-134922578D01*
X59536978Y-134922500D01*
X59366718Y-134922500D01*
X59364450Y-134922665D01*
X59364438Y-134922665D01*
X59233104Y-134932195D01*
X59163957Y-134937212D01*
X59159502Y-134938196D01*
X59159499Y-134938196D01*
X58902073Y-134995030D01*
X58902069Y-134995031D01*
X58897613Y-134996015D01*
X58770080Y-135044333D01*
X58646817Y-135091033D01*
X58646814Y-135091034D01*
X58642547Y-135092651D01*
X58404102Y-135225095D01*
X58187275Y-135390573D01*
X58184082Y-135393839D01*
X58184080Y-135393841D01*
X57999800Y-135582350D01*
X57999796Y-135582355D01*
X57996606Y-135585618D01*
X57993919Y-135589310D01*
X57993917Y-135589312D01*
X57888171Y-135734592D01*
X57836090Y-135806144D01*
X57709090Y-136047531D01*
X57618266Y-136304724D01*
X57617386Y-136309190D01*
X57583073Y-136483280D01*
X57565520Y-136572334D01*
X57565293Y-136576887D01*
X57565293Y-136576890D01*
X57555988Y-136763814D01*
X57551958Y-136844755D01*
X48488785Y-136844755D01*
X48492815Y-136763814D01*
X48492815Y-136763808D01*
X48493042Y-136759245D01*
X48467136Y-136487720D01*
X48451661Y-136424476D01*
X48403390Y-136227212D01*
X48402305Y-136222778D01*
X48400592Y-136218548D01*
X48301623Y-135974203D01*
X48301620Y-135974198D01*
X48299908Y-135969970D01*
X48297604Y-135966035D01*
X48297601Y-135966029D01*
X48164394Y-135738530D01*
X48164393Y-135738528D01*
X48162088Y-135734592D01*
X47991734Y-135521575D01*
X47792413Y-135335380D01*
X47698727Y-135270387D01*
X47572055Y-135182511D01*
X47572050Y-135182508D01*
X47568302Y-135179908D01*
X47564217Y-135177876D01*
X47564214Y-135177874D01*
X47328186Y-135060452D01*
X47328183Y-135060451D01*
X47324095Y-135058417D01*
X47319756Y-135056995D01*
X47319752Y-135056993D01*
X47069250Y-134974875D01*
X47069245Y-134974874D01*
X47064908Y-134973452D01*
X46995676Y-134961431D01*
X46799952Y-134927447D01*
X46799944Y-134927446D01*
X46796171Y-134926791D01*
X46785385Y-134926254D01*
X46711549Y-134922578D01*
X46711541Y-134922578D01*
X46709978Y-134922500D01*
X46539718Y-134922500D01*
X46537450Y-134922665D01*
X46537438Y-134922665D01*
X46406104Y-134932195D01*
X46336957Y-134937212D01*
X46332502Y-134938196D01*
X46332499Y-134938196D01*
X46075073Y-134995030D01*
X46075069Y-134995031D01*
X46070613Y-134996015D01*
X45943080Y-135044333D01*
X45819817Y-135091033D01*
X45819814Y-135091034D01*
X45815547Y-135092651D01*
X45577102Y-135225095D01*
X45360275Y-135390573D01*
X45357082Y-135393839D01*
X45357080Y-135393841D01*
X45172800Y-135582350D01*
X45172796Y-135582355D01*
X45169606Y-135585618D01*
X45166919Y-135589310D01*
X45166917Y-135589312D01*
X45061171Y-135734592D01*
X45009090Y-135806144D01*
X44882090Y-136047531D01*
X44791266Y-136304724D01*
X44790386Y-136309190D01*
X44756073Y-136483280D01*
X44738520Y-136572334D01*
X44738293Y-136576887D01*
X44738293Y-136576890D01*
X44728988Y-136763814D01*
X44724958Y-136844755D01*
X38328785Y-136844755D01*
X38332815Y-136763814D01*
X38332815Y-136763808D01*
X38333042Y-136759245D01*
X38307136Y-136487720D01*
X38291661Y-136424476D01*
X38243390Y-136227212D01*
X38242305Y-136222778D01*
X38240592Y-136218548D01*
X38141623Y-135974203D01*
X38141620Y-135974198D01*
X38139908Y-135969970D01*
X38137604Y-135966035D01*
X38137601Y-135966029D01*
X38004394Y-135738530D01*
X38004393Y-135738528D01*
X38002088Y-135734592D01*
X37831734Y-135521575D01*
X37632413Y-135335380D01*
X37538727Y-135270387D01*
X37412055Y-135182511D01*
X37412050Y-135182508D01*
X37408302Y-135179908D01*
X37404217Y-135177876D01*
X37404214Y-135177874D01*
X37168186Y-135060452D01*
X37168183Y-135060451D01*
X37164095Y-135058417D01*
X37159756Y-135056995D01*
X37159752Y-135056993D01*
X36909250Y-134974875D01*
X36909245Y-134974874D01*
X36904908Y-134973452D01*
X36835676Y-134961431D01*
X36639952Y-134927447D01*
X36639944Y-134927446D01*
X36636171Y-134926791D01*
X36625385Y-134926254D01*
X36551549Y-134922578D01*
X36551541Y-134922578D01*
X36549978Y-134922500D01*
X36379718Y-134922500D01*
X36377450Y-134922665D01*
X36377438Y-134922665D01*
X36246104Y-134932195D01*
X36176957Y-134937212D01*
X36172502Y-134938196D01*
X36172499Y-134938196D01*
X35915073Y-134995030D01*
X35915069Y-134995031D01*
X35910613Y-134996015D01*
X35783080Y-135044333D01*
X35659817Y-135091033D01*
X35659814Y-135091034D01*
X35655547Y-135092651D01*
X35417102Y-135225095D01*
X35200275Y-135390573D01*
X35197082Y-135393839D01*
X35197080Y-135393841D01*
X35012800Y-135582350D01*
X35012796Y-135582355D01*
X35009606Y-135585618D01*
X35006919Y-135589310D01*
X35006917Y-135589312D01*
X34901171Y-135734592D01*
X34849090Y-135806144D01*
X34722090Y-136047531D01*
X34631266Y-136304724D01*
X34630386Y-136309190D01*
X34596073Y-136483280D01*
X34578520Y-136572334D01*
X34578293Y-136576887D01*
X34578293Y-136576890D01*
X34568988Y-136763814D01*
X34564958Y-136844755D01*
X26035000Y-136844755D01*
X26035000Y-134332004D01*
X26055002Y-134263883D01*
X26108658Y-134217390D01*
X26178932Y-134207286D01*
X26243512Y-134236780D01*
X26274344Y-134276967D01*
X26301069Y-134332004D01*
X26352606Y-134438141D01*
X26556803Y-134768764D01*
X26558744Y-134771294D01*
X26558745Y-134771295D01*
X26780624Y-135060452D01*
X26793366Y-135077058D01*
X27059873Y-135359869D01*
X27062278Y-135361952D01*
X27062284Y-135361958D01*
X27099091Y-135393841D01*
X27353596Y-135614299D01*
X27671526Y-135837745D01*
X28010410Y-136027917D01*
X28013324Y-136029184D01*
X28013328Y-136029186D01*
X28051101Y-136045610D01*
X28366777Y-136182870D01*
X28543208Y-136239176D01*
X28733935Y-136300046D01*
X28733944Y-136300048D01*
X28736979Y-136301017D01*
X28775763Y-136309190D01*
X29114106Y-136380490D01*
X29114111Y-136380491D01*
X29117225Y-136381147D01*
X29503621Y-136422441D01*
X29506809Y-136422458D01*
X29506814Y-136422458D01*
X29683023Y-136423381D01*
X29892213Y-136424476D01*
X30085617Y-136405853D01*
X30275856Y-136387535D01*
X30275861Y-136387534D01*
X30279021Y-136387230D01*
X30282141Y-136386607D01*
X30282145Y-136386606D01*
X30656958Y-136311711D01*
X30656957Y-136311711D01*
X30660086Y-136311086D01*
X30960886Y-136218548D01*
X31028462Y-136197759D01*
X31028465Y-136197758D01*
X31031504Y-136196823D01*
X31034432Y-136195586D01*
X31034438Y-136195584D01*
X31386530Y-136046854D01*
X31386537Y-136046851D01*
X31389474Y-136045610D01*
X31730331Y-135858997D01*
X32050584Y-135638893D01*
X32192596Y-135518458D01*
X32344525Y-135389613D01*
X32344527Y-135389611D01*
X32346955Y-135387552D01*
X32349160Y-135385260D01*
X32349166Y-135385255D01*
X32614194Y-135109850D01*
X32614196Y-135109847D01*
X32616409Y-135107548D01*
X32720438Y-134974875D01*
X32854213Y-134804265D01*
X32854216Y-134804260D01*
X32856187Y-134801747D01*
X33063835Y-134473281D01*
X33065255Y-134470433D01*
X33065260Y-134470424D01*
X33235806Y-134128360D01*
X33237226Y-134125512D01*
X33374585Y-133762001D01*
X33384791Y-133723646D01*
X33473685Y-133389555D01*
X33474506Y-133386470D01*
X33535966Y-133002764D01*
X33538091Y-132965921D01*
X33558237Y-132616505D01*
X33558335Y-132614811D01*
X33558429Y-132588000D01*
X33538769Y-132199900D01*
X33479989Y-131815775D01*
X33382692Y-131439555D01*
X33381587Y-131436567D01*
X33248983Y-131078091D01*
X33248980Y-131078085D01*
X33247874Y-131075094D01*
X33076915Y-130726123D01*
X32871565Y-130396215D01*
X32633928Y-130088748D01*
X32366435Y-129806869D01*
X32071826Y-129553466D01*
X32069218Y-129551646D01*
X32069212Y-129551642D01*
X31755730Y-129332954D01*
X31753117Y-129331131D01*
X31413572Y-129142143D01*
X31414059Y-129141269D01*
X31364802Y-129096036D01*
X31346772Y-129027366D01*
X31368731Y-128959851D01*
X31423705Y-128914925D01*
X31472720Y-128905000D01*
X89178400Y-128905000D01*
X89246521Y-128925002D01*
G37*
G04 #@! TD.AperFunction*
M02*
