G04 #@! TF.GenerationSoftware,KiCad,Pcbnew,6.0.2+dfsg-1*
G04 #@! TF.CreationDate,2024-06-30T21:39:07-06:00*
G04 #@! TF.ProjectId,mss-atlasadapter,6d73732d-6174-46c6-9173-616461707465,rev?*
G04 #@! TF.SameCoordinates,Original*
G04 #@! TF.FileFunction,Legend,Bot*
G04 #@! TF.FilePolarity,Positive*
%FSLAX46Y46*%
G04 Gerber Fmt 4.6, Leading zero omitted, Abs format (unit mm)*
G04 Created by KiCad (PCBNEW 6.0.2+dfsg-1) date 2024-06-30 21:39:07*
%MOMM*%
%LPD*%
G01*
G04 APERTURE LIST*
%ADD10C,0.150000*%
%ADD11C,0.120000*%
G04 APERTURE END LIST*
D10*
X70349904Y-168777380D02*
X69778476Y-168777380D01*
X70064190Y-169777380D02*
X70064190Y-168777380D01*
X69445142Y-169777380D02*
X69445142Y-168777380D01*
X69064190Y-168777380D01*
X68968952Y-168825000D01*
X68921333Y-168872619D01*
X68873714Y-168967857D01*
X68873714Y-169110714D01*
X68921333Y-169205952D01*
X68968952Y-169253571D01*
X69064190Y-169301190D01*
X69445142Y-169301190D01*
X68302285Y-169205952D02*
X68397523Y-169158333D01*
X68445142Y-169110714D01*
X68492761Y-169015476D01*
X68492761Y-168967857D01*
X68445142Y-168872619D01*
X68397523Y-168825000D01*
X68302285Y-168777380D01*
X68111809Y-168777380D01*
X68016571Y-168825000D01*
X67968952Y-168872619D01*
X67921333Y-168967857D01*
X67921333Y-169015476D01*
X67968952Y-169110714D01*
X68016571Y-169158333D01*
X68111809Y-169205952D01*
X68302285Y-169205952D01*
X68397523Y-169253571D01*
X68445142Y-169301190D01*
X68492761Y-169396428D01*
X68492761Y-169586904D01*
X68445142Y-169682142D01*
X68397523Y-169729761D01*
X68302285Y-169777380D01*
X68111809Y-169777380D01*
X68016571Y-169729761D01*
X67968952Y-169682142D01*
X67921333Y-169586904D01*
X67921333Y-169396428D01*
X67968952Y-169301190D01*
X68016571Y-169253571D01*
X68111809Y-169205952D01*
X29582904Y-177794380D02*
X29011476Y-177794380D01*
X29297190Y-178794380D02*
X29297190Y-177794380D01*
X28678142Y-178794380D02*
X28678142Y-177794380D01*
X28297190Y-177794380D01*
X28201952Y-177842000D01*
X28154333Y-177889619D01*
X28106714Y-177984857D01*
X28106714Y-178127714D01*
X28154333Y-178222952D01*
X28201952Y-178270571D01*
X28297190Y-178318190D01*
X28678142Y-178318190D01*
X27725761Y-177889619D02*
X27678142Y-177842000D01*
X27582904Y-177794380D01*
X27344809Y-177794380D01*
X27249571Y-177842000D01*
X27201952Y-177889619D01*
X27154333Y-177984857D01*
X27154333Y-178080095D01*
X27201952Y-178222952D01*
X27773380Y-178794380D01*
X27154333Y-178794380D01*
X69587904Y-148296380D02*
X69016476Y-148296380D01*
X69302190Y-149296380D02*
X69302190Y-148296380D01*
X68683142Y-149296380D02*
X68683142Y-148296380D01*
X68302190Y-148296380D01*
X68206952Y-148344000D01*
X68159333Y-148391619D01*
X68111714Y-148486857D01*
X68111714Y-148629714D01*
X68159333Y-148724952D01*
X68206952Y-148772571D01*
X68302190Y-148820190D01*
X68683142Y-148820190D01*
X67778380Y-148296380D02*
X67111714Y-148296380D01*
X67540285Y-149296380D01*
X59427904Y-148296380D02*
X58856476Y-148296380D01*
X59142190Y-149296380D02*
X59142190Y-148296380D01*
X58523142Y-149296380D02*
X58523142Y-148296380D01*
X58142190Y-148296380D01*
X58046952Y-148344000D01*
X57999333Y-148391619D01*
X57951714Y-148486857D01*
X57951714Y-148629714D01*
X57999333Y-148724952D01*
X58046952Y-148772571D01*
X58142190Y-148820190D01*
X58523142Y-148820190D01*
X57046952Y-148296380D02*
X57523142Y-148296380D01*
X57570761Y-148772571D01*
X57523142Y-148724952D01*
X57427904Y-148677333D01*
X57189809Y-148677333D01*
X57094571Y-148724952D01*
X57046952Y-148772571D01*
X56999333Y-148867809D01*
X56999333Y-149105904D01*
X57046952Y-149201142D01*
X57094571Y-149248761D01*
X57189809Y-149296380D01*
X57427904Y-149296380D01*
X57523142Y-149248761D01*
X57570761Y-149201142D01*
X66889095Y-173188380D02*
X66317666Y-173188380D01*
X66603380Y-174188380D02*
X66603380Y-173188380D01*
X65984333Y-174188380D02*
X65984333Y-173188380D01*
X65603380Y-173188380D01*
X65508142Y-173236000D01*
X65460523Y-173283619D01*
X65412904Y-173378857D01*
X65412904Y-173521714D01*
X65460523Y-173616952D01*
X65508142Y-173664571D01*
X65603380Y-173712190D01*
X65984333Y-173712190D01*
X64460523Y-174188380D02*
X65031952Y-174188380D01*
X64746238Y-174188380D02*
X64746238Y-173188380D01*
X64841476Y-173331238D01*
X64936714Y-173426476D01*
X65031952Y-173474095D01*
X63508142Y-174188380D02*
X64079571Y-174188380D01*
X63793857Y-174188380D02*
X63793857Y-173188380D01*
X63889095Y-173331238D01*
X63984333Y-173426476D01*
X64079571Y-173474095D01*
X49394904Y-143123380D02*
X48823476Y-143123380D01*
X49109190Y-144123380D02*
X49109190Y-143123380D01*
X48490142Y-144123380D02*
X48490142Y-143123380D01*
X48109190Y-143123380D01*
X48013952Y-143171000D01*
X47966333Y-143218619D01*
X47918714Y-143313857D01*
X47918714Y-143456714D01*
X47966333Y-143551952D01*
X48013952Y-143599571D01*
X48109190Y-143647190D01*
X48490142Y-143647190D01*
X47061571Y-143123380D02*
X47252047Y-143123380D01*
X47347285Y-143171000D01*
X47394904Y-143218619D01*
X47490142Y-143361476D01*
X47537761Y-143551952D01*
X47537761Y-143932904D01*
X47490142Y-144028142D01*
X47442523Y-144075761D01*
X47347285Y-144123380D01*
X47156809Y-144123380D01*
X47061571Y-144075761D01*
X47013952Y-144028142D01*
X46966333Y-143932904D01*
X46966333Y-143694809D01*
X47013952Y-143599571D01*
X47061571Y-143551952D01*
X47156809Y-143504333D01*
X47347285Y-143504333D01*
X47442523Y-143551952D01*
X47490142Y-143599571D01*
X47537761Y-143694809D01*
X44695904Y-137662380D02*
X44124476Y-137662380D01*
X44410190Y-138662380D02*
X44410190Y-137662380D01*
X43791142Y-138662380D02*
X43791142Y-137662380D01*
X43410190Y-137662380D01*
X43314952Y-137710000D01*
X43267333Y-137757619D01*
X43219714Y-137852857D01*
X43219714Y-137995714D01*
X43267333Y-138090952D01*
X43314952Y-138138571D01*
X43410190Y-138186190D01*
X43791142Y-138186190D01*
X42886380Y-137662380D02*
X42267333Y-137662380D01*
X42600666Y-138043333D01*
X42457809Y-138043333D01*
X42362571Y-138090952D01*
X42314952Y-138138571D01*
X42267333Y-138233809D01*
X42267333Y-138471904D01*
X42314952Y-138567142D01*
X42362571Y-138614761D01*
X42457809Y-138662380D01*
X42743523Y-138662380D01*
X42838761Y-138614761D01*
X42886380Y-138567142D01*
X29582904Y-172714380D02*
X29011476Y-172714380D01*
X29297190Y-173714380D02*
X29297190Y-172714380D01*
X28678142Y-173714380D02*
X28678142Y-172714380D01*
X28297190Y-172714380D01*
X28201952Y-172762000D01*
X28154333Y-172809619D01*
X28106714Y-172904857D01*
X28106714Y-173047714D01*
X28154333Y-173142952D01*
X28201952Y-173190571D01*
X28297190Y-173238190D01*
X28678142Y-173238190D01*
X27154333Y-173714380D02*
X27725761Y-173714380D01*
X27440047Y-173714380D02*
X27440047Y-172714380D01*
X27535285Y-172857238D01*
X27630523Y-172952476D01*
X27725761Y-173000095D01*
X37202904Y-143123380D02*
X36631476Y-143123380D01*
X36917190Y-144123380D02*
X36917190Y-143123380D01*
X36298142Y-144123380D02*
X36298142Y-143123380D01*
X35917190Y-143123380D01*
X35821952Y-143171000D01*
X35774333Y-143218619D01*
X35726714Y-143313857D01*
X35726714Y-143456714D01*
X35774333Y-143551952D01*
X35821952Y-143599571D01*
X35917190Y-143647190D01*
X36298142Y-143647190D01*
X34869571Y-143456714D02*
X34869571Y-144123380D01*
X35107666Y-143075761D02*
X35345761Y-143790047D01*
X34726714Y-143790047D01*
X74286904Y-168777380D02*
X73715476Y-168777380D01*
X74001190Y-169777380D02*
X74001190Y-168777380D01*
X73382142Y-169777380D02*
X73382142Y-168777380D01*
X73001190Y-168777380D01*
X72905952Y-168825000D01*
X72858333Y-168872619D01*
X72810714Y-168967857D01*
X72810714Y-169110714D01*
X72858333Y-169205952D01*
X72905952Y-169253571D01*
X73001190Y-169301190D01*
X73382142Y-169301190D01*
X72334523Y-169777380D02*
X72144047Y-169777380D01*
X72048809Y-169729761D01*
X72001190Y-169682142D01*
X71905952Y-169539285D01*
X71858333Y-169348809D01*
X71858333Y-168967857D01*
X71905952Y-168872619D01*
X71953571Y-168825000D01*
X72048809Y-168777380D01*
X72239285Y-168777380D01*
X72334523Y-168825000D01*
X72382142Y-168872619D01*
X72429761Y-168967857D01*
X72429761Y-169205952D01*
X72382142Y-169301190D01*
X72334523Y-169348809D01*
X72239285Y-169396428D01*
X72048809Y-169396428D01*
X71953571Y-169348809D01*
X71905952Y-169301190D01*
X71858333Y-169205952D01*
X82637095Y-168777380D02*
X82065666Y-168777380D01*
X82351380Y-169777380D02*
X82351380Y-168777380D01*
X81732333Y-169777380D02*
X81732333Y-168777380D01*
X81351380Y-168777380D01*
X81256142Y-168825000D01*
X81208523Y-168872619D01*
X81160904Y-168967857D01*
X81160904Y-169110714D01*
X81208523Y-169205952D01*
X81256142Y-169253571D01*
X81351380Y-169301190D01*
X81732333Y-169301190D01*
X80208523Y-169777380D02*
X80779952Y-169777380D01*
X80494238Y-169777380D02*
X80494238Y-168777380D01*
X80589476Y-168920238D01*
X80684714Y-169015476D01*
X80779952Y-169063095D01*
X79827571Y-168872619D02*
X79779952Y-168825000D01*
X79684714Y-168777380D01*
X79446619Y-168777380D01*
X79351380Y-168825000D01*
X79303761Y-168872619D01*
X79256142Y-168967857D01*
X79256142Y-169063095D01*
X79303761Y-169205952D01*
X79875190Y-169777380D01*
X79256142Y-169777380D01*
X78700095Y-168777380D02*
X78128666Y-168777380D01*
X78414380Y-169777380D02*
X78414380Y-168777380D01*
X77795333Y-169777380D02*
X77795333Y-168777380D01*
X77414380Y-168777380D01*
X77319142Y-168825000D01*
X77271523Y-168872619D01*
X77223904Y-168967857D01*
X77223904Y-169110714D01*
X77271523Y-169205952D01*
X77319142Y-169253571D01*
X77414380Y-169301190D01*
X77795333Y-169301190D01*
X76271523Y-169777380D02*
X76842952Y-169777380D01*
X76557238Y-169777380D02*
X76557238Y-168777380D01*
X76652476Y-168920238D01*
X76747714Y-169015476D01*
X76842952Y-169063095D01*
X75652476Y-168777380D02*
X75557238Y-168777380D01*
X75462000Y-168825000D01*
X75414380Y-168872619D01*
X75366761Y-168967857D01*
X75319142Y-169158333D01*
X75319142Y-169396428D01*
X75366761Y-169586904D01*
X75414380Y-169682142D01*
X75462000Y-169729761D01*
X75557238Y-169777380D01*
X75652476Y-169777380D01*
X75747714Y-169729761D01*
X75795333Y-169682142D01*
X75842952Y-169586904D01*
X75890571Y-169396428D01*
X75890571Y-169158333D01*
X75842952Y-168967857D01*
X75795333Y-168872619D01*
X75747714Y-168825000D01*
X75652476Y-168777380D01*
D11*
X70288000Y-171323000D02*
G75*
G03*
X70288000Y-171323000I-1200000J0D01*
G01*
X29521000Y-180340000D02*
G75*
G03*
X29521000Y-180340000I-1200000J0D01*
G01*
X66351000Y-148844000D02*
G75*
G03*
X66351000Y-148844000I-1200000J0D01*
G01*
X62414000Y-148844000D02*
G75*
G03*
X62414000Y-148844000I-1200000J0D01*
G01*
X66351000Y-171323000D02*
G75*
G03*
X66351000Y-171323000I-1200000J0D01*
G01*
X49333000Y-145669000D02*
G75*
G03*
X49333000Y-145669000I-1200000J0D01*
G01*
X44634000Y-140208000D02*
G75*
G03*
X44634000Y-140208000I-1200000J0D01*
G01*
X29521000Y-175260000D02*
G75*
G03*
X29521000Y-175260000I-1200000J0D01*
G01*
X37141000Y-145669000D02*
G75*
G03*
X37141000Y-145669000I-1200000J0D01*
G01*
X74225000Y-171323000D02*
G75*
G03*
X74225000Y-171323000I-1200000J0D01*
G01*
X82099000Y-171323000D02*
G75*
G03*
X82099000Y-171323000I-1200000J0D01*
G01*
X78162000Y-171323000D02*
G75*
G03*
X78162000Y-171323000I-1200000J0D01*
G01*
M02*
