G04 #@! TF.GenerationSoftware,KiCad,Pcbnew,6.0.2+dfsg-1*
G04 #@! TF.CreationDate,2024-06-30T21:39:07-06:00*
G04 #@! TF.ProjectId,mss-atlasadapter,6d73732d-6174-46c6-9173-616461707465,rev?*
G04 #@! TF.SameCoordinates,Original*
G04 #@! TF.FileFunction,Soldermask,Bot*
G04 #@! TF.FilePolarity,Negative*
%FSLAX46Y46*%
G04 Gerber Fmt 4.6, Leading zero omitted, Abs format (unit mm)*
G04 Created by KiCad (PCBNEW 6.0.2+dfsg-1) date 2024-06-30 21:39:07*
%MOMM*%
%LPD*%
G01*
G04 APERTURE LIST*
%ADD10C,2.652400*%
%ADD11C,6.552400*%
%ADD12C,3.402400*%
%ADD13C,1.672400*%
%ADD14C,3.352400*%
%ADD15C,1.652400*%
%ADD16C,2.152400*%
G04 APERTURE END LIST*
G36*
G01*
X31089000Y-173973800D02*
X33589000Y-173973800D01*
G75*
G02*
X33665200Y-174050000I0J-76200D01*
G01*
X33665200Y-176550000D01*
G75*
G02*
X33589000Y-176626200I-76200J0D01*
G01*
X31089000Y-176626200D01*
G75*
G02*
X31012800Y-176550000I0J76200D01*
G01*
X31012800Y-174050000D01*
G75*
G02*
X31089000Y-173973800I76200J0D01*
G01*
G37*
D10*
X32339000Y-180300000D03*
D11*
X90932000Y-187452000D03*
D12*
X46609000Y-136802000D03*
X36449000Y-136802000D03*
G36*
G01*
X45535200Y-144932000D02*
X45535200Y-146452000D01*
G75*
G02*
X45459000Y-146528200I-76200J0D01*
G01*
X43939000Y-146528200D01*
G75*
G02*
X43862800Y-146452000I0J76200D01*
G01*
X43862800Y-144932000D01*
G75*
G02*
X43939000Y-144855800I76200J0D01*
G01*
X45459000Y-144855800D01*
G75*
G02*
X45535200Y-144932000I0J-76200D01*
G01*
G37*
D13*
X43429000Y-143152000D03*
X42159000Y-145692000D03*
X40889000Y-143152000D03*
X39619000Y-145692000D03*
X38349000Y-143152000D03*
D11*
X90932000Y-132588000D03*
D14*
X70774500Y-183495000D03*
X82204500Y-183495000D03*
G36*
G01*
X71218300Y-177895000D02*
X71218300Y-176395000D01*
G75*
G02*
X71294500Y-176318800I76200J0D01*
G01*
X72794500Y-176318800D01*
G75*
G02*
X72870700Y-176395000I0J-76200D01*
G01*
X72870700Y-177895000D01*
G75*
G02*
X72794500Y-177971200I-76200J0D01*
G01*
X71294500Y-177971200D01*
G75*
G02*
X71218300Y-177895000I0J76200D01*
G01*
G37*
D15*
X73314500Y-174605000D03*
X74584500Y-177145000D03*
X75854500Y-174605000D03*
X77124500Y-177145000D03*
X78394500Y-174605000D03*
X79664500Y-177145000D03*
X80934500Y-174605000D03*
D11*
X29718000Y-187452000D03*
X29718000Y-132588000D03*
D12*
X59436000Y-136802000D03*
X69596000Y-136802000D03*
G36*
G01*
X68522200Y-144932000D02*
X68522200Y-146452000D01*
G75*
G02*
X68446000Y-146528200I-76200J0D01*
G01*
X66926000Y-146528200D01*
G75*
G02*
X66849800Y-146452000I0J76200D01*
G01*
X66849800Y-144932000D01*
G75*
G02*
X66926000Y-144855800I76200J0D01*
G01*
X68446000Y-144855800D01*
G75*
G02*
X68522200Y-144932000I0J-76200D01*
G01*
G37*
D13*
X66416000Y-143152000D03*
X65146000Y-145692000D03*
X63876000Y-143152000D03*
X62606000Y-145692000D03*
X61336000Y-143152000D03*
D16*
X69088000Y-171323000D03*
X28321000Y-180340000D03*
X65151000Y-148844000D03*
X61214000Y-148844000D03*
X65151000Y-171323000D03*
X48133000Y-145669000D03*
X43434000Y-140208000D03*
X28321000Y-175260000D03*
X35941000Y-145669000D03*
X73025000Y-171323000D03*
X80899000Y-171323000D03*
X76962000Y-171323000D03*
M02*
