G04 #@! TF.GenerationSoftware,KiCad,Pcbnew,6.0.2+dfsg-1*
G04 #@! TF.CreationDate,2024-06-30T21:39:07-06:00*
G04 #@! TF.ProjectId,mss-atlasadapter,6d73732d-6174-46c6-9173-616461707465,rev?*
G04 #@! TF.SameCoordinates,Original*
G04 #@! TF.FileFunction,Copper,L1,Top*
G04 #@! TF.FilePolarity,Positive*
%FSLAX46Y46*%
G04 Gerber Fmt 4.6, Leading zero omitted, Abs format (unit mm)*
G04 Created by KiCad (PCBNEW 6.0.2+dfsg-1) date 2024-06-30 21:39:07*
%MOMM*%
%LPD*%
G01*
G04 APERTURE LIST*
G04 #@! TA.AperFunction,ComponentPad*
%ADD10R,2.500000X2.500000*%
G04 #@! TD*
G04 #@! TA.AperFunction,ComponentPad*
%ADD11C,2.500000*%
G04 #@! TD*
G04 #@! TA.AperFunction,ComponentPad*
%ADD12C,6.400000*%
G04 #@! TD*
G04 #@! TA.AperFunction,SMDPad,CuDef*
%ADD13R,1.900000X1.400000*%
G04 #@! TD*
G04 #@! TA.AperFunction,SMDPad,CuDef*
%ADD14R,2.108200X5.562600*%
G04 #@! TD*
G04 #@! TA.AperFunction,ComponentPad*
%ADD15R,1.520000X1.520000*%
G04 #@! TD*
G04 #@! TA.AperFunction,ComponentPad*
%ADD16C,1.520000*%
G04 #@! TD*
G04 #@! TA.AperFunction,ComponentPad*
%ADD17R,1.500000X1.500000*%
G04 #@! TD*
G04 #@! TA.AperFunction,ComponentPad*
%ADD18C,1.500000*%
G04 #@! TD*
G04 #@! TA.AperFunction,SMDPad,CuDef*
%ADD19R,0.550000X1.300000*%
G04 #@! TD*
G04 #@! TA.AperFunction,ViaPad*
%ADD20C,0.609600*%
G04 #@! TD*
G04 #@! TA.AperFunction,Conductor*
%ADD21C,1.016000*%
G04 #@! TD*
G04 #@! TA.AperFunction,Conductor*
%ADD22C,0.508000*%
G04 #@! TD*
G04 #@! TA.AperFunction,Conductor*
%ADD23C,0.254000*%
G04 #@! TD*
G04 #@! TA.AperFunction,Conductor*
%ADD24C,0.635000*%
G04 #@! TD*
G04 APERTURE END LIST*
G04 #@! TA.AperFunction,SMDPad,CuDef*
G36*
G01*
X55405000Y-159332000D02*
X56355000Y-159332000D01*
G75*
G02*
X56605000Y-159582000I0J-250000D01*
G01*
X56605000Y-160082000D01*
G75*
G02*
X56355000Y-160332000I-250000J0D01*
G01*
X55405000Y-160332000D01*
G75*
G02*
X55155000Y-160082000I0J250000D01*
G01*
X55155000Y-159582000D01*
G75*
G02*
X55405000Y-159332000I250000J0D01*
G01*
G37*
G04 #@! TD.AperFunction*
G04 #@! TA.AperFunction,SMDPad,CuDef*
G36*
G01*
X55405000Y-161232000D02*
X56355000Y-161232000D01*
G75*
G02*
X56605000Y-161482000I0J-250000D01*
G01*
X56605000Y-161982000D01*
G75*
G02*
X56355000Y-162232000I-250000J0D01*
G01*
X55405000Y-162232000D01*
G75*
G02*
X55155000Y-161982000I0J250000D01*
G01*
X55155000Y-161482000D01*
G75*
G02*
X55405000Y-161232000I250000J0D01*
G01*
G37*
G04 #@! TD.AperFunction*
G04 #@! TA.AperFunction,SMDPad,CuDef*
G36*
G01*
X75791000Y-148151000D02*
X75791000Y-147251000D01*
G75*
G02*
X76041000Y-147001000I250000J0D01*
G01*
X76566000Y-147001000D01*
G75*
G02*
X76816000Y-147251000I0J-250000D01*
G01*
X76816000Y-148151000D01*
G75*
G02*
X76566000Y-148401000I-250000J0D01*
G01*
X76041000Y-148401000D01*
G75*
G02*
X75791000Y-148151000I0J250000D01*
G01*
G37*
G04 #@! TD.AperFunction*
G04 #@! TA.AperFunction,SMDPad,CuDef*
G36*
G01*
X77616000Y-148151000D02*
X77616000Y-147251000D01*
G75*
G02*
X77866000Y-147001000I250000J0D01*
G01*
X78391000Y-147001000D01*
G75*
G02*
X78641000Y-147251000I0J-250000D01*
G01*
X78641000Y-148151000D01*
G75*
G02*
X78391000Y-148401000I-250000J0D01*
G01*
X77866000Y-148401000D01*
G75*
G02*
X77616000Y-148151000I0J250000D01*
G01*
G37*
G04 #@! TD.AperFunction*
G04 #@! TA.AperFunction,SMDPad,CuDef*
G36*
G01*
X59759000Y-187099000D02*
X58859000Y-187099000D01*
G75*
G02*
X58609000Y-186849000I0J250000D01*
G01*
X58609000Y-186324000D01*
G75*
G02*
X58859000Y-186074000I250000J0D01*
G01*
X59759000Y-186074000D01*
G75*
G02*
X60009000Y-186324000I0J-250000D01*
G01*
X60009000Y-186849000D01*
G75*
G02*
X59759000Y-187099000I-250000J0D01*
G01*
G37*
G04 #@! TD.AperFunction*
G04 #@! TA.AperFunction,SMDPad,CuDef*
G36*
G01*
X59759000Y-185274000D02*
X58859000Y-185274000D01*
G75*
G02*
X58609000Y-185024000I0J250000D01*
G01*
X58609000Y-184499000D01*
G75*
G02*
X58859000Y-184249000I250000J0D01*
G01*
X59759000Y-184249000D01*
G75*
G02*
X60009000Y-184499000I0J-250000D01*
G01*
X60009000Y-185024000D01*
G75*
G02*
X59759000Y-185274000I-250000J0D01*
G01*
G37*
G04 #@! TD.AperFunction*
G04 #@! TA.AperFunction,SMDPad,CuDef*
G36*
G01*
X75791000Y-145230000D02*
X75791000Y-144330000D01*
G75*
G02*
X76041000Y-144080000I250000J0D01*
G01*
X76566000Y-144080000D01*
G75*
G02*
X76816000Y-144330000I0J-250000D01*
G01*
X76816000Y-145230000D01*
G75*
G02*
X76566000Y-145480000I-250000J0D01*
G01*
X76041000Y-145480000D01*
G75*
G02*
X75791000Y-145230000I0J250000D01*
G01*
G37*
G04 #@! TD.AperFunction*
G04 #@! TA.AperFunction,SMDPad,CuDef*
G36*
G01*
X77616000Y-145230000D02*
X77616000Y-144330000D01*
G75*
G02*
X77866000Y-144080000I250000J0D01*
G01*
X78391000Y-144080000D01*
G75*
G02*
X78641000Y-144330000I0J-250000D01*
G01*
X78641000Y-145230000D01*
G75*
G02*
X78391000Y-145480000I-250000J0D01*
G01*
X77866000Y-145480000D01*
G75*
G02*
X77616000Y-145230000I0J250000D01*
G01*
G37*
G04 #@! TD.AperFunction*
G04 #@! TA.AperFunction,SMDPad,CuDef*
G36*
G01*
X78918500Y-169730000D02*
X78918500Y-170630000D01*
G75*
G02*
X78668500Y-170880000I-250000J0D01*
G01*
X78143500Y-170880000D01*
G75*
G02*
X77893500Y-170630000I0J250000D01*
G01*
X77893500Y-169730000D01*
G75*
G02*
X78143500Y-169480000I250000J0D01*
G01*
X78668500Y-169480000D01*
G75*
G02*
X78918500Y-169730000I0J-250000D01*
G01*
G37*
G04 #@! TD.AperFunction*
G04 #@! TA.AperFunction,SMDPad,CuDef*
G36*
G01*
X77093500Y-169730000D02*
X77093500Y-170630000D01*
G75*
G02*
X76843500Y-170880000I-250000J0D01*
G01*
X76318500Y-170880000D01*
G75*
G02*
X76068500Y-170630000I0J250000D01*
G01*
X76068500Y-169730000D01*
G75*
G02*
X76318500Y-169480000I250000J0D01*
G01*
X76843500Y-169480000D01*
G75*
G02*
X77093500Y-169730000I0J-250000D01*
G01*
G37*
G04 #@! TD.AperFunction*
D10*
X32339000Y-175300000D03*
D11*
X32339000Y-180300000D03*
G04 #@! TA.AperFunction,SMDPad,CuDef*
G36*
G01*
X69573000Y-153141000D02*
X69873000Y-153141000D01*
G75*
G02*
X70023000Y-153291000I0J-150000D01*
G01*
X70023000Y-154741000D01*
G75*
G02*
X69873000Y-154891000I-150000J0D01*
G01*
X69573000Y-154891000D01*
G75*
G02*
X69423000Y-154741000I0J150000D01*
G01*
X69423000Y-153291000D01*
G75*
G02*
X69573000Y-153141000I150000J0D01*
G01*
G37*
G04 #@! TD.AperFunction*
G04 #@! TA.AperFunction,SMDPad,CuDef*
G36*
G01*
X68303000Y-153141000D02*
X68603000Y-153141000D01*
G75*
G02*
X68753000Y-153291000I0J-150000D01*
G01*
X68753000Y-154741000D01*
G75*
G02*
X68603000Y-154891000I-150000J0D01*
G01*
X68303000Y-154891000D01*
G75*
G02*
X68153000Y-154741000I0J150000D01*
G01*
X68153000Y-153291000D01*
G75*
G02*
X68303000Y-153141000I150000J0D01*
G01*
G37*
G04 #@! TD.AperFunction*
G04 #@! TA.AperFunction,SMDPad,CuDef*
G36*
G01*
X67033000Y-153141000D02*
X67333000Y-153141000D01*
G75*
G02*
X67483000Y-153291000I0J-150000D01*
G01*
X67483000Y-154741000D01*
G75*
G02*
X67333000Y-154891000I-150000J0D01*
G01*
X67033000Y-154891000D01*
G75*
G02*
X66883000Y-154741000I0J150000D01*
G01*
X66883000Y-153291000D01*
G75*
G02*
X67033000Y-153141000I150000J0D01*
G01*
G37*
G04 #@! TD.AperFunction*
G04 #@! TA.AperFunction,SMDPad,CuDef*
G36*
G01*
X65763000Y-153141000D02*
X66063000Y-153141000D01*
G75*
G02*
X66213000Y-153291000I0J-150000D01*
G01*
X66213000Y-154741000D01*
G75*
G02*
X66063000Y-154891000I-150000J0D01*
G01*
X65763000Y-154891000D01*
G75*
G02*
X65613000Y-154741000I0J150000D01*
G01*
X65613000Y-153291000D01*
G75*
G02*
X65763000Y-153141000I150000J0D01*
G01*
G37*
G04 #@! TD.AperFunction*
G04 #@! TA.AperFunction,SMDPad,CuDef*
G36*
G01*
X64493000Y-153141000D02*
X64793000Y-153141000D01*
G75*
G02*
X64943000Y-153291000I0J-150000D01*
G01*
X64943000Y-154741000D01*
G75*
G02*
X64793000Y-154891000I-150000J0D01*
G01*
X64493000Y-154891000D01*
G75*
G02*
X64343000Y-154741000I0J150000D01*
G01*
X64343000Y-153291000D01*
G75*
G02*
X64493000Y-153141000I150000J0D01*
G01*
G37*
G04 #@! TD.AperFunction*
G04 #@! TA.AperFunction,SMDPad,CuDef*
G36*
G01*
X63223000Y-153141000D02*
X63523000Y-153141000D01*
G75*
G02*
X63673000Y-153291000I0J-150000D01*
G01*
X63673000Y-154741000D01*
G75*
G02*
X63523000Y-154891000I-150000J0D01*
G01*
X63223000Y-154891000D01*
G75*
G02*
X63073000Y-154741000I0J150000D01*
G01*
X63073000Y-153291000D01*
G75*
G02*
X63223000Y-153141000I150000J0D01*
G01*
G37*
G04 #@! TD.AperFunction*
G04 #@! TA.AperFunction,SMDPad,CuDef*
G36*
G01*
X61953000Y-153141000D02*
X62253000Y-153141000D01*
G75*
G02*
X62403000Y-153291000I0J-150000D01*
G01*
X62403000Y-154741000D01*
G75*
G02*
X62253000Y-154891000I-150000J0D01*
G01*
X61953000Y-154891000D01*
G75*
G02*
X61803000Y-154741000I0J150000D01*
G01*
X61803000Y-153291000D01*
G75*
G02*
X61953000Y-153141000I150000J0D01*
G01*
G37*
G04 #@! TD.AperFunction*
G04 #@! TA.AperFunction,SMDPad,CuDef*
G36*
G01*
X60683000Y-153141000D02*
X60983000Y-153141000D01*
G75*
G02*
X61133000Y-153291000I0J-150000D01*
G01*
X61133000Y-154741000D01*
G75*
G02*
X60983000Y-154891000I-150000J0D01*
G01*
X60683000Y-154891000D01*
G75*
G02*
X60533000Y-154741000I0J150000D01*
G01*
X60533000Y-153291000D01*
G75*
G02*
X60683000Y-153141000I150000J0D01*
G01*
G37*
G04 #@! TD.AperFunction*
G04 #@! TA.AperFunction,SMDPad,CuDef*
G36*
G01*
X60683000Y-158291000D02*
X60983000Y-158291000D01*
G75*
G02*
X61133000Y-158441000I0J-150000D01*
G01*
X61133000Y-159891000D01*
G75*
G02*
X60983000Y-160041000I-150000J0D01*
G01*
X60683000Y-160041000D01*
G75*
G02*
X60533000Y-159891000I0J150000D01*
G01*
X60533000Y-158441000D01*
G75*
G02*
X60683000Y-158291000I150000J0D01*
G01*
G37*
G04 #@! TD.AperFunction*
G04 #@! TA.AperFunction,SMDPad,CuDef*
G36*
G01*
X61953000Y-158291000D02*
X62253000Y-158291000D01*
G75*
G02*
X62403000Y-158441000I0J-150000D01*
G01*
X62403000Y-159891000D01*
G75*
G02*
X62253000Y-160041000I-150000J0D01*
G01*
X61953000Y-160041000D01*
G75*
G02*
X61803000Y-159891000I0J150000D01*
G01*
X61803000Y-158441000D01*
G75*
G02*
X61953000Y-158291000I150000J0D01*
G01*
G37*
G04 #@! TD.AperFunction*
G04 #@! TA.AperFunction,SMDPad,CuDef*
G36*
G01*
X63223000Y-158291000D02*
X63523000Y-158291000D01*
G75*
G02*
X63673000Y-158441000I0J-150000D01*
G01*
X63673000Y-159891000D01*
G75*
G02*
X63523000Y-160041000I-150000J0D01*
G01*
X63223000Y-160041000D01*
G75*
G02*
X63073000Y-159891000I0J150000D01*
G01*
X63073000Y-158441000D01*
G75*
G02*
X63223000Y-158291000I150000J0D01*
G01*
G37*
G04 #@! TD.AperFunction*
G04 #@! TA.AperFunction,SMDPad,CuDef*
G36*
G01*
X64493000Y-158291000D02*
X64793000Y-158291000D01*
G75*
G02*
X64943000Y-158441000I0J-150000D01*
G01*
X64943000Y-159891000D01*
G75*
G02*
X64793000Y-160041000I-150000J0D01*
G01*
X64493000Y-160041000D01*
G75*
G02*
X64343000Y-159891000I0J150000D01*
G01*
X64343000Y-158441000D01*
G75*
G02*
X64493000Y-158291000I150000J0D01*
G01*
G37*
G04 #@! TD.AperFunction*
G04 #@! TA.AperFunction,SMDPad,CuDef*
G36*
G01*
X65763000Y-158291000D02*
X66063000Y-158291000D01*
G75*
G02*
X66213000Y-158441000I0J-150000D01*
G01*
X66213000Y-159891000D01*
G75*
G02*
X66063000Y-160041000I-150000J0D01*
G01*
X65763000Y-160041000D01*
G75*
G02*
X65613000Y-159891000I0J150000D01*
G01*
X65613000Y-158441000D01*
G75*
G02*
X65763000Y-158291000I150000J0D01*
G01*
G37*
G04 #@! TD.AperFunction*
G04 #@! TA.AperFunction,SMDPad,CuDef*
G36*
G01*
X67033000Y-158291000D02*
X67333000Y-158291000D01*
G75*
G02*
X67483000Y-158441000I0J-150000D01*
G01*
X67483000Y-159891000D01*
G75*
G02*
X67333000Y-160041000I-150000J0D01*
G01*
X67033000Y-160041000D01*
G75*
G02*
X66883000Y-159891000I0J150000D01*
G01*
X66883000Y-158441000D01*
G75*
G02*
X67033000Y-158291000I150000J0D01*
G01*
G37*
G04 #@! TD.AperFunction*
G04 #@! TA.AperFunction,SMDPad,CuDef*
G36*
G01*
X68303000Y-158291000D02*
X68603000Y-158291000D01*
G75*
G02*
X68753000Y-158441000I0J-150000D01*
G01*
X68753000Y-159891000D01*
G75*
G02*
X68603000Y-160041000I-150000J0D01*
G01*
X68303000Y-160041000D01*
G75*
G02*
X68153000Y-159891000I0J150000D01*
G01*
X68153000Y-158441000D01*
G75*
G02*
X68303000Y-158291000I150000J0D01*
G01*
G37*
G04 #@! TD.AperFunction*
G04 #@! TA.AperFunction,SMDPad,CuDef*
G36*
G01*
X69573000Y-158291000D02*
X69873000Y-158291000D01*
G75*
G02*
X70023000Y-158441000I0J-150000D01*
G01*
X70023000Y-159891000D01*
G75*
G02*
X69873000Y-160041000I-150000J0D01*
G01*
X69573000Y-160041000D01*
G75*
G02*
X69423000Y-159891000I0J150000D01*
G01*
X69423000Y-158441000D01*
G75*
G02*
X69573000Y-158291000I150000J0D01*
G01*
G37*
G04 #@! TD.AperFunction*
G04 #@! TA.AperFunction,SMDPad,CuDef*
G36*
G01*
X76045000Y-158057000D02*
X76045000Y-157157000D01*
G75*
G02*
X76295000Y-156907000I250000J0D01*
G01*
X76820000Y-156907000D01*
G75*
G02*
X77070000Y-157157000I0J-250000D01*
G01*
X77070000Y-158057000D01*
G75*
G02*
X76820000Y-158307000I-250000J0D01*
G01*
X76295000Y-158307000D01*
G75*
G02*
X76045000Y-158057000I0J250000D01*
G01*
G37*
G04 #@! TD.AperFunction*
G04 #@! TA.AperFunction,SMDPad,CuDef*
G36*
G01*
X77870000Y-158057000D02*
X77870000Y-157157000D01*
G75*
G02*
X78120000Y-156907000I250000J0D01*
G01*
X78645000Y-156907000D01*
G75*
G02*
X78895000Y-157157000I0J-250000D01*
G01*
X78895000Y-158057000D01*
G75*
G02*
X78645000Y-158307000I-250000J0D01*
G01*
X78120000Y-158307000D01*
G75*
G02*
X77870000Y-158057000I0J250000D01*
G01*
G37*
G04 #@! TD.AperFunction*
G04 #@! TA.AperFunction,SMDPad,CuDef*
G36*
G01*
X71661000Y-153363000D02*
X72611000Y-153363000D01*
G75*
G02*
X72861000Y-153613000I0J-250000D01*
G01*
X72861000Y-154113000D01*
G75*
G02*
X72611000Y-154363000I-250000J0D01*
G01*
X71661000Y-154363000D01*
G75*
G02*
X71411000Y-154113000I0J250000D01*
G01*
X71411000Y-153613000D01*
G75*
G02*
X71661000Y-153363000I250000J0D01*
G01*
G37*
G04 #@! TD.AperFunction*
G04 #@! TA.AperFunction,SMDPad,CuDef*
G36*
G01*
X71661000Y-155263000D02*
X72611000Y-155263000D01*
G75*
G02*
X72861000Y-155513000I0J-250000D01*
G01*
X72861000Y-156013000D01*
G75*
G02*
X72611000Y-156263000I-250000J0D01*
G01*
X71661000Y-156263000D01*
G75*
G02*
X71411000Y-156013000I0J250000D01*
G01*
X71411000Y-155513000D01*
G75*
G02*
X71661000Y-155263000I250000J0D01*
G01*
G37*
G04 #@! TD.AperFunction*
G04 #@! TA.AperFunction,SMDPad,CuDef*
G36*
G01*
X61138500Y-149156000D02*
X61138500Y-150056000D01*
G75*
G02*
X60888500Y-150306000I-250000J0D01*
G01*
X60363500Y-150306000D01*
G75*
G02*
X60113500Y-150056000I0J250000D01*
G01*
X60113500Y-149156000D01*
G75*
G02*
X60363500Y-148906000I250000J0D01*
G01*
X60888500Y-148906000D01*
G75*
G02*
X61138500Y-149156000I0J-250000D01*
G01*
G37*
G04 #@! TD.AperFunction*
G04 #@! TA.AperFunction,SMDPad,CuDef*
G36*
G01*
X59313500Y-149156000D02*
X59313500Y-150056000D01*
G75*
G02*
X59063500Y-150306000I-250000J0D01*
G01*
X58538500Y-150306000D01*
G75*
G02*
X58288500Y-150056000I0J250000D01*
G01*
X58288500Y-149156000D01*
G75*
G02*
X58538500Y-148906000I250000J0D01*
G01*
X59063500Y-148906000D01*
G75*
G02*
X59313500Y-149156000I0J-250000D01*
G01*
G37*
G04 #@! TD.AperFunction*
D12*
X90932000Y-187452000D03*
G04 #@! TA.AperFunction,SMDPad,CuDef*
G36*
G01*
X45047000Y-149156000D02*
X45047000Y-150056000D01*
G75*
G02*
X44797000Y-150306000I-250000J0D01*
G01*
X44272000Y-150306000D01*
G75*
G02*
X44022000Y-150056000I0J250000D01*
G01*
X44022000Y-149156000D01*
G75*
G02*
X44272000Y-148906000I250000J0D01*
G01*
X44797000Y-148906000D01*
G75*
G02*
X45047000Y-149156000I0J-250000D01*
G01*
G37*
G04 #@! TD.AperFunction*
G04 #@! TA.AperFunction,SMDPad,CuDef*
G36*
G01*
X43222000Y-149156000D02*
X43222000Y-150056000D01*
G75*
G02*
X42972000Y-150306000I-250000J0D01*
G01*
X42447000Y-150306000D01*
G75*
G02*
X42197000Y-150056000I0J250000D01*
G01*
X42197000Y-149156000D01*
G75*
G02*
X42447000Y-148906000I250000J0D01*
G01*
X42972000Y-148906000D01*
G75*
G02*
X43222000Y-149156000I0J-250000D01*
G01*
G37*
G04 #@! TD.AperFunction*
D13*
X40132000Y-167260000D03*
X40132000Y-170560000D03*
X58420000Y-181101000D03*
X58420000Y-177801000D03*
D14*
X50406300Y-179451000D03*
X55003700Y-179451000D03*
G04 #@! TA.AperFunction,SMDPad,CuDef*
G36*
G01*
X56999000Y-168237000D02*
X56999000Y-167937000D01*
G75*
G02*
X57149000Y-167787000I150000J0D01*
G01*
X58324000Y-167787000D01*
G75*
G02*
X58474000Y-167937000I0J-150000D01*
G01*
X58474000Y-168237000D01*
G75*
G02*
X58324000Y-168387000I-150000J0D01*
G01*
X57149000Y-168387000D01*
G75*
G02*
X56999000Y-168237000I0J150000D01*
G01*
G37*
G04 #@! TD.AperFunction*
G04 #@! TA.AperFunction,SMDPad,CuDef*
G36*
G01*
X56999000Y-170137000D02*
X56999000Y-169837000D01*
G75*
G02*
X57149000Y-169687000I150000J0D01*
G01*
X58324000Y-169687000D01*
G75*
G02*
X58474000Y-169837000I0J-150000D01*
G01*
X58474000Y-170137000D01*
G75*
G02*
X58324000Y-170287000I-150000J0D01*
G01*
X57149000Y-170287000D01*
G75*
G02*
X56999000Y-170137000I0J150000D01*
G01*
G37*
G04 #@! TD.AperFunction*
G04 #@! TA.AperFunction,SMDPad,CuDef*
G36*
G01*
X58874000Y-169187000D02*
X58874000Y-168887000D01*
G75*
G02*
X59024000Y-168737000I150000J0D01*
G01*
X60199000Y-168737000D01*
G75*
G02*
X60349000Y-168887000I0J-150000D01*
G01*
X60349000Y-169187000D01*
G75*
G02*
X60199000Y-169337000I-150000J0D01*
G01*
X59024000Y-169337000D01*
G75*
G02*
X58874000Y-169187000I0J150000D01*
G01*
G37*
G04 #@! TD.AperFunction*
G04 #@! TA.AperFunction,SMDPad,CuDef*
G36*
G01*
X38722000Y-154846000D02*
X38722000Y-155796000D01*
G75*
G02*
X38472000Y-156046000I-250000J0D01*
G01*
X37972000Y-156046000D01*
G75*
G02*
X37722000Y-155796000I0J250000D01*
G01*
X37722000Y-154846000D01*
G75*
G02*
X37972000Y-154596000I250000J0D01*
G01*
X38472000Y-154596000D01*
G75*
G02*
X38722000Y-154846000I0J-250000D01*
G01*
G37*
G04 #@! TD.AperFunction*
G04 #@! TA.AperFunction,SMDPad,CuDef*
G36*
G01*
X36822000Y-154846000D02*
X36822000Y-155796000D01*
G75*
G02*
X36572000Y-156046000I-250000J0D01*
G01*
X36072000Y-156046000D01*
G75*
G02*
X35822000Y-155796000I0J250000D01*
G01*
X35822000Y-154846000D01*
G75*
G02*
X36072000Y-154596000I250000J0D01*
G01*
X36572000Y-154596000D01*
G75*
G02*
X36822000Y-154846000I0J-250000D01*
G01*
G37*
G04 #@! TD.AperFunction*
G04 #@! TA.AperFunction,SMDPad,CuDef*
G36*
G01*
X67465000Y-149156000D02*
X67465000Y-150056000D01*
G75*
G02*
X67215000Y-150306000I-250000J0D01*
G01*
X66690000Y-150306000D01*
G75*
G02*
X66440000Y-150056000I0J250000D01*
G01*
X66440000Y-149156000D01*
G75*
G02*
X66690000Y-148906000I250000J0D01*
G01*
X67215000Y-148906000D01*
G75*
G02*
X67465000Y-149156000I0J-250000D01*
G01*
G37*
G04 #@! TD.AperFunction*
G04 #@! TA.AperFunction,SMDPad,CuDef*
G36*
G01*
X65640000Y-149156000D02*
X65640000Y-150056000D01*
G75*
G02*
X65390000Y-150306000I-250000J0D01*
G01*
X64865000Y-150306000D01*
G75*
G02*
X64615000Y-150056000I0J250000D01*
G01*
X64615000Y-149156000D01*
G75*
G02*
X64865000Y-148906000I250000J0D01*
G01*
X65390000Y-148906000D01*
G75*
G02*
X65640000Y-149156000I0J-250000D01*
G01*
G37*
G04 #@! TD.AperFunction*
G04 #@! TA.AperFunction,SMDPad,CuDef*
G36*
G01*
X64544000Y-177377000D02*
X64544000Y-178277000D01*
G75*
G02*
X64294000Y-178527000I-250000J0D01*
G01*
X63769000Y-178527000D01*
G75*
G02*
X63519000Y-178277000I0J250000D01*
G01*
X63519000Y-177377000D01*
G75*
G02*
X63769000Y-177127000I250000J0D01*
G01*
X64294000Y-177127000D01*
G75*
G02*
X64544000Y-177377000I0J-250000D01*
G01*
G37*
G04 #@! TD.AperFunction*
G04 #@! TA.AperFunction,SMDPad,CuDef*
G36*
G01*
X62719000Y-177377000D02*
X62719000Y-178277000D01*
G75*
G02*
X62469000Y-178527000I-250000J0D01*
G01*
X61944000Y-178527000D01*
G75*
G02*
X61694000Y-178277000I0J250000D01*
G01*
X61694000Y-177377000D01*
G75*
G02*
X61944000Y-177127000I250000J0D01*
G01*
X62469000Y-177127000D01*
G75*
G02*
X62719000Y-177377000I0J-250000D01*
G01*
G37*
G04 #@! TD.AperFunction*
G04 #@! TA.AperFunction,SMDPad,CuDef*
G36*
G01*
X56999000Y-172428000D02*
X56999000Y-172128000D01*
G75*
G02*
X57149000Y-171978000I150000J0D01*
G01*
X58324000Y-171978000D01*
G75*
G02*
X58474000Y-172128000I0J-150000D01*
G01*
X58474000Y-172428000D01*
G75*
G02*
X58324000Y-172578000I-150000J0D01*
G01*
X57149000Y-172578000D01*
G75*
G02*
X56999000Y-172428000I0J150000D01*
G01*
G37*
G04 #@! TD.AperFunction*
G04 #@! TA.AperFunction,SMDPad,CuDef*
G36*
G01*
X56999000Y-174328000D02*
X56999000Y-174028000D01*
G75*
G02*
X57149000Y-173878000I150000J0D01*
G01*
X58324000Y-173878000D01*
G75*
G02*
X58474000Y-174028000I0J-150000D01*
G01*
X58474000Y-174328000D01*
G75*
G02*
X58324000Y-174478000I-150000J0D01*
G01*
X57149000Y-174478000D01*
G75*
G02*
X56999000Y-174328000I0J150000D01*
G01*
G37*
G04 #@! TD.AperFunction*
G04 #@! TA.AperFunction,SMDPad,CuDef*
G36*
G01*
X58874000Y-173378000D02*
X58874000Y-173078000D01*
G75*
G02*
X59024000Y-172928000I150000J0D01*
G01*
X60199000Y-172928000D01*
G75*
G02*
X60349000Y-173078000I0J-150000D01*
G01*
X60349000Y-173378000D01*
G75*
G02*
X60199000Y-173528000I-150000J0D01*
G01*
X59024000Y-173528000D01*
G75*
G02*
X58874000Y-173378000I0J150000D01*
G01*
G37*
G04 #@! TD.AperFunction*
D15*
X44699000Y-145692000D03*
D16*
X43429000Y-143152000D03*
X42159000Y-145692000D03*
X40889000Y-143152000D03*
X39619000Y-145692000D03*
X38349000Y-143152000D03*
D12*
X90932000Y-132588000D03*
G04 #@! TA.AperFunction,SMDPad,CuDef*
G36*
G01*
X53505000Y-183874000D02*
X53805000Y-183874000D01*
G75*
G02*
X53955000Y-184024000I0J-150000D01*
G01*
X53955000Y-185049000D01*
G75*
G02*
X53805000Y-185199000I-150000J0D01*
G01*
X53505000Y-185199000D01*
G75*
G02*
X53355000Y-185049000I0J150000D01*
G01*
X53355000Y-184024000D01*
G75*
G02*
X53505000Y-183874000I150000J0D01*
G01*
G37*
G04 #@! TD.AperFunction*
G04 #@! TA.AperFunction,SMDPad,CuDef*
G36*
G01*
X52555000Y-183874000D02*
X52855000Y-183874000D01*
G75*
G02*
X53005000Y-184024000I0J-150000D01*
G01*
X53005000Y-185049000D01*
G75*
G02*
X52855000Y-185199000I-150000J0D01*
G01*
X52555000Y-185199000D01*
G75*
G02*
X52405000Y-185049000I0J150000D01*
G01*
X52405000Y-184024000D01*
G75*
G02*
X52555000Y-183874000I150000J0D01*
G01*
G37*
G04 #@! TD.AperFunction*
G04 #@! TA.AperFunction,SMDPad,CuDef*
G36*
G01*
X51605000Y-183874000D02*
X51905000Y-183874000D01*
G75*
G02*
X52055000Y-184024000I0J-150000D01*
G01*
X52055000Y-185049000D01*
G75*
G02*
X51905000Y-185199000I-150000J0D01*
G01*
X51605000Y-185199000D01*
G75*
G02*
X51455000Y-185049000I0J150000D01*
G01*
X51455000Y-184024000D01*
G75*
G02*
X51605000Y-183874000I150000J0D01*
G01*
G37*
G04 #@! TD.AperFunction*
G04 #@! TA.AperFunction,SMDPad,CuDef*
G36*
G01*
X51605000Y-186149000D02*
X51905000Y-186149000D01*
G75*
G02*
X52055000Y-186299000I0J-150000D01*
G01*
X52055000Y-187324000D01*
G75*
G02*
X51905000Y-187474000I-150000J0D01*
G01*
X51605000Y-187474000D01*
G75*
G02*
X51455000Y-187324000I0J150000D01*
G01*
X51455000Y-186299000D01*
G75*
G02*
X51605000Y-186149000I150000J0D01*
G01*
G37*
G04 #@! TD.AperFunction*
G04 #@! TA.AperFunction,SMDPad,CuDef*
G36*
G01*
X53505000Y-186149000D02*
X53805000Y-186149000D01*
G75*
G02*
X53955000Y-186299000I0J-150000D01*
G01*
X53955000Y-187324000D01*
G75*
G02*
X53805000Y-187474000I-150000J0D01*
G01*
X53505000Y-187474000D01*
G75*
G02*
X53355000Y-187324000I0J150000D01*
G01*
X53355000Y-186299000D01*
G75*
G02*
X53505000Y-186149000I150000J0D01*
G01*
G37*
G04 #@! TD.AperFunction*
G04 #@! TA.AperFunction,SMDPad,CuDef*
G36*
G01*
X82474750Y-151737000D02*
X83387250Y-151737000D01*
G75*
G02*
X83631000Y-151980750I0J-243750D01*
G01*
X83631000Y-152468250D01*
G75*
G02*
X83387250Y-152712000I-243750J0D01*
G01*
X82474750Y-152712000D01*
G75*
G02*
X82231000Y-152468250I0J243750D01*
G01*
X82231000Y-151980750D01*
G75*
G02*
X82474750Y-151737000I243750J0D01*
G01*
G37*
G04 #@! TD.AperFunction*
G04 #@! TA.AperFunction,SMDPad,CuDef*
G36*
G01*
X82474750Y-153612000D02*
X83387250Y-153612000D01*
G75*
G02*
X83631000Y-153855750I0J-243750D01*
G01*
X83631000Y-154343250D01*
G75*
G02*
X83387250Y-154587000I-243750J0D01*
G01*
X82474750Y-154587000D01*
G75*
G02*
X82231000Y-154343250I0J243750D01*
G01*
X82231000Y-153855750D01*
G75*
G02*
X82474750Y-153612000I243750J0D01*
G01*
G37*
G04 #@! TD.AperFunction*
G04 #@! TA.AperFunction,SMDPad,CuDef*
G36*
G01*
X55786000Y-184224000D02*
X56736000Y-184224000D01*
G75*
G02*
X56986000Y-184474000I0J-250000D01*
G01*
X56986000Y-184974000D01*
G75*
G02*
X56736000Y-185224000I-250000J0D01*
G01*
X55786000Y-185224000D01*
G75*
G02*
X55536000Y-184974000I0J250000D01*
G01*
X55536000Y-184474000D01*
G75*
G02*
X55786000Y-184224000I250000J0D01*
G01*
G37*
G04 #@! TD.AperFunction*
G04 #@! TA.AperFunction,SMDPad,CuDef*
G36*
G01*
X55786000Y-186124000D02*
X56736000Y-186124000D01*
G75*
G02*
X56986000Y-186374000I0J-250000D01*
G01*
X56986000Y-186874000D01*
G75*
G02*
X56736000Y-187124000I-250000J0D01*
G01*
X55786000Y-187124000D01*
G75*
G02*
X55536000Y-186874000I0J250000D01*
G01*
X55536000Y-186374000D01*
G75*
G02*
X55786000Y-186124000I250000J0D01*
G01*
G37*
G04 #@! TD.AperFunction*
D17*
X72044500Y-177145000D03*
D18*
X73314500Y-174605000D03*
X74584500Y-177145000D03*
X75854500Y-174605000D03*
X77124500Y-177145000D03*
X78394500Y-174605000D03*
X79664500Y-177145000D03*
X80934500Y-174605000D03*
G04 #@! TA.AperFunction,SMDPad,CuDef*
G36*
G01*
X35847000Y-152850000D02*
X35847000Y-151950000D01*
G75*
G02*
X36097000Y-151700000I250000J0D01*
G01*
X36622000Y-151700000D01*
G75*
G02*
X36872000Y-151950000I0J-250000D01*
G01*
X36872000Y-152850000D01*
G75*
G02*
X36622000Y-153100000I-250000J0D01*
G01*
X36097000Y-153100000D01*
G75*
G02*
X35847000Y-152850000I0J250000D01*
G01*
G37*
G04 #@! TD.AperFunction*
G04 #@! TA.AperFunction,SMDPad,CuDef*
G36*
G01*
X37672000Y-152850000D02*
X37672000Y-151950000D01*
G75*
G02*
X37922000Y-151700000I250000J0D01*
G01*
X38447000Y-151700000D01*
G75*
G02*
X38697000Y-151950000I0J-250000D01*
G01*
X38697000Y-152850000D01*
G75*
G02*
X38447000Y-153100000I-250000J0D01*
G01*
X37922000Y-153100000D01*
G75*
G02*
X37672000Y-152850000I0J250000D01*
G01*
G37*
G04 #@! TD.AperFunction*
G04 #@! TA.AperFunction,SMDPad,CuDef*
G36*
G01*
X56999000Y-164046000D02*
X56999000Y-163746000D01*
G75*
G02*
X57149000Y-163596000I150000J0D01*
G01*
X58324000Y-163596000D01*
G75*
G02*
X58474000Y-163746000I0J-150000D01*
G01*
X58474000Y-164046000D01*
G75*
G02*
X58324000Y-164196000I-150000J0D01*
G01*
X57149000Y-164196000D01*
G75*
G02*
X56999000Y-164046000I0J150000D01*
G01*
G37*
G04 #@! TD.AperFunction*
G04 #@! TA.AperFunction,SMDPad,CuDef*
G36*
G01*
X56999000Y-165946000D02*
X56999000Y-165646000D01*
G75*
G02*
X57149000Y-165496000I150000J0D01*
G01*
X58324000Y-165496000D01*
G75*
G02*
X58474000Y-165646000I0J-150000D01*
G01*
X58474000Y-165946000D01*
G75*
G02*
X58324000Y-166096000I-150000J0D01*
G01*
X57149000Y-166096000D01*
G75*
G02*
X56999000Y-165946000I0J150000D01*
G01*
G37*
G04 #@! TD.AperFunction*
G04 #@! TA.AperFunction,SMDPad,CuDef*
G36*
G01*
X58874000Y-164996000D02*
X58874000Y-164696000D01*
G75*
G02*
X59024000Y-164546000I150000J0D01*
G01*
X60199000Y-164546000D01*
G75*
G02*
X60349000Y-164696000I0J-150000D01*
G01*
X60349000Y-164996000D01*
G75*
G02*
X60199000Y-165146000I-150000J0D01*
G01*
X59024000Y-165146000D01*
G75*
G02*
X58874000Y-164996000I0J150000D01*
G01*
G37*
G04 #@! TD.AperFunction*
G04 #@! TA.AperFunction,SMDPad,CuDef*
G36*
G01*
X76045000Y-163899000D02*
X76045000Y-162999000D01*
G75*
G02*
X76295000Y-162749000I250000J0D01*
G01*
X76820000Y-162749000D01*
G75*
G02*
X77070000Y-162999000I0J-250000D01*
G01*
X77070000Y-163899000D01*
G75*
G02*
X76820000Y-164149000I-250000J0D01*
G01*
X76295000Y-164149000D01*
G75*
G02*
X76045000Y-163899000I0J250000D01*
G01*
G37*
G04 #@! TD.AperFunction*
G04 #@! TA.AperFunction,SMDPad,CuDef*
G36*
G01*
X77870000Y-163899000D02*
X77870000Y-162999000D01*
G75*
G02*
X78120000Y-162749000I250000J0D01*
G01*
X78645000Y-162749000D01*
G75*
G02*
X78895000Y-162999000I0J-250000D01*
G01*
X78895000Y-163899000D01*
G75*
G02*
X78645000Y-164149000I-250000J0D01*
G01*
X78120000Y-164149000D01*
G75*
G02*
X77870000Y-163899000I0J250000D01*
G01*
G37*
G04 #@! TD.AperFunction*
G04 #@! TA.AperFunction,SMDPad,CuDef*
G36*
G01*
X68781000Y-167734000D02*
X68781000Y-166784000D01*
G75*
G02*
X69031000Y-166534000I250000J0D01*
G01*
X69531000Y-166534000D01*
G75*
G02*
X69781000Y-166784000I0J-250000D01*
G01*
X69781000Y-167734000D01*
G75*
G02*
X69531000Y-167984000I-250000J0D01*
G01*
X69031000Y-167984000D01*
G75*
G02*
X68781000Y-167734000I0J250000D01*
G01*
G37*
G04 #@! TD.AperFunction*
G04 #@! TA.AperFunction,SMDPad,CuDef*
G36*
G01*
X70681000Y-167734000D02*
X70681000Y-166784000D01*
G75*
G02*
X70931000Y-166534000I250000J0D01*
G01*
X71431000Y-166534000D01*
G75*
G02*
X71681000Y-166784000I0J-250000D01*
G01*
X71681000Y-167734000D01*
G75*
G02*
X71431000Y-167984000I-250000J0D01*
G01*
X70931000Y-167984000D01*
G75*
G02*
X70681000Y-167734000I0J250000D01*
G01*
G37*
G04 #@! TD.AperFunction*
D19*
X44299000Y-184697500D03*
G04 #@! TA.AperFunction,SMDPad,CuDef*
G36*
X41874000Y-188647500D02*
G01*
X41874000Y-186047500D01*
X42399000Y-185522500D01*
X42399000Y-184047500D01*
X43199000Y-184047500D01*
X43199000Y-185522500D01*
X43724000Y-186047500D01*
X43724000Y-188647500D01*
X41874000Y-188647500D01*
G37*
G04 #@! TD.AperFunction*
X41299000Y-184697500D03*
G04 #@! TA.AperFunction,SMDPad,CuDef*
G36*
G01*
X82474750Y-164437000D02*
X83387250Y-164437000D01*
G75*
G02*
X83631000Y-164680750I0J-243750D01*
G01*
X83631000Y-165168250D01*
G75*
G02*
X83387250Y-165412000I-243750J0D01*
G01*
X82474750Y-165412000D01*
G75*
G02*
X82231000Y-165168250I0J243750D01*
G01*
X82231000Y-164680750D01*
G75*
G02*
X82474750Y-164437000I243750J0D01*
G01*
G37*
G04 #@! TD.AperFunction*
G04 #@! TA.AperFunction,SMDPad,CuDef*
G36*
G01*
X82474750Y-166312000D02*
X83387250Y-166312000D01*
G75*
G02*
X83631000Y-166555750I0J-243750D01*
G01*
X83631000Y-167043250D01*
G75*
G02*
X83387250Y-167287000I-243750J0D01*
G01*
X82474750Y-167287000D01*
G75*
G02*
X82231000Y-167043250I0J243750D01*
G01*
X82231000Y-166555750D01*
G75*
G02*
X82474750Y-166312000I243750J0D01*
G01*
G37*
G04 #@! TD.AperFunction*
G04 #@! TA.AperFunction,SMDPad,CuDef*
G36*
G01*
X47277000Y-184224000D02*
X48227000Y-184224000D01*
G75*
G02*
X48477000Y-184474000I0J-250000D01*
G01*
X48477000Y-184974000D01*
G75*
G02*
X48227000Y-185224000I-250000J0D01*
G01*
X47277000Y-185224000D01*
G75*
G02*
X47027000Y-184974000I0J250000D01*
G01*
X47027000Y-184474000D01*
G75*
G02*
X47277000Y-184224000I250000J0D01*
G01*
G37*
G04 #@! TD.AperFunction*
G04 #@! TA.AperFunction,SMDPad,CuDef*
G36*
G01*
X47277000Y-186124000D02*
X48227000Y-186124000D01*
G75*
G02*
X48477000Y-186374000I0J-250000D01*
G01*
X48477000Y-186874000D01*
G75*
G02*
X48227000Y-187124000I-250000J0D01*
G01*
X47277000Y-187124000D01*
G75*
G02*
X47027000Y-186874000I0J250000D01*
G01*
X47027000Y-186374000D01*
G75*
G02*
X47277000Y-186124000I250000J0D01*
G01*
G37*
G04 #@! TD.AperFunction*
G04 #@! TA.AperFunction,SMDPad,CuDef*
G36*
G01*
X41825000Y-181615000D02*
X40725000Y-181615000D01*
G75*
G02*
X40475000Y-181365000I0J250000D01*
G01*
X40475000Y-178365000D01*
G75*
G02*
X40725000Y-178115000I250000J0D01*
G01*
X41825000Y-178115000D01*
G75*
G02*
X42075000Y-178365000I0J-250000D01*
G01*
X42075000Y-181365000D01*
G75*
G02*
X41825000Y-181615000I-250000J0D01*
G01*
G37*
G04 #@! TD.AperFunction*
G04 #@! TA.AperFunction,SMDPad,CuDef*
G36*
G01*
X41825000Y-176215000D02*
X40725000Y-176215000D01*
G75*
G02*
X40475000Y-175965000I0J250000D01*
G01*
X40475000Y-172965000D01*
G75*
G02*
X40725000Y-172715000I250000J0D01*
G01*
X41825000Y-172715000D01*
G75*
G02*
X42075000Y-172965000I0J-250000D01*
G01*
X42075000Y-175965000D01*
G75*
G02*
X41825000Y-176215000I-250000J0D01*
G01*
G37*
G04 #@! TD.AperFunction*
D13*
X30607000Y-167260000D03*
X30607000Y-170560000D03*
D12*
X29718000Y-187452000D03*
G04 #@! TA.AperFunction,SMDPad,CuDef*
G36*
G01*
X61694000Y-184119000D02*
X61694000Y-183219000D01*
G75*
G02*
X61944000Y-182969000I250000J0D01*
G01*
X62469000Y-182969000D01*
G75*
G02*
X62719000Y-183219000I0J-250000D01*
G01*
X62719000Y-184119000D01*
G75*
G02*
X62469000Y-184369000I-250000J0D01*
G01*
X61944000Y-184369000D01*
G75*
G02*
X61694000Y-184119000I0J250000D01*
G01*
G37*
G04 #@! TD.AperFunction*
G04 #@! TA.AperFunction,SMDPad,CuDef*
G36*
G01*
X63519000Y-184119000D02*
X63519000Y-183219000D01*
G75*
G02*
X63769000Y-182969000I250000J0D01*
G01*
X64294000Y-182969000D01*
G75*
G02*
X64544000Y-183219000I0J-250000D01*
G01*
X64544000Y-184119000D01*
G75*
G02*
X64294000Y-184369000I-250000J0D01*
G01*
X63769000Y-184369000D01*
G75*
G02*
X63519000Y-184119000I0J250000D01*
G01*
G37*
G04 #@! TD.AperFunction*
G04 #@! TA.AperFunction,SMDPad,CuDef*
G36*
G01*
X51397000Y-149156000D02*
X51397000Y-150056000D01*
G75*
G02*
X51147000Y-150306000I-250000J0D01*
G01*
X50622000Y-150306000D01*
G75*
G02*
X50372000Y-150056000I0J250000D01*
G01*
X50372000Y-149156000D01*
G75*
G02*
X50622000Y-148906000I250000J0D01*
G01*
X51147000Y-148906000D01*
G75*
G02*
X51397000Y-149156000I0J-250000D01*
G01*
G37*
G04 #@! TD.AperFunction*
G04 #@! TA.AperFunction,SMDPad,CuDef*
G36*
G01*
X49572000Y-149156000D02*
X49572000Y-150056000D01*
G75*
G02*
X49322000Y-150306000I-250000J0D01*
G01*
X48797000Y-150306000D01*
G75*
G02*
X48547000Y-150056000I0J250000D01*
G01*
X48547000Y-149156000D01*
G75*
G02*
X48797000Y-148906000I250000J0D01*
G01*
X49322000Y-148906000D01*
G75*
G02*
X49572000Y-149156000I0J-250000D01*
G01*
G37*
G04 #@! TD.AperFunction*
G04 #@! TA.AperFunction,SMDPad,CuDef*
G36*
G01*
X76020000Y-167734000D02*
X76020000Y-166784000D01*
G75*
G02*
X76270000Y-166534000I250000J0D01*
G01*
X76770000Y-166534000D01*
G75*
G02*
X77020000Y-166784000I0J-250000D01*
G01*
X77020000Y-167734000D01*
G75*
G02*
X76770000Y-167984000I-250000J0D01*
G01*
X76270000Y-167984000D01*
G75*
G02*
X76020000Y-167734000I0J250000D01*
G01*
G37*
G04 #@! TD.AperFunction*
G04 #@! TA.AperFunction,SMDPad,CuDef*
G36*
G01*
X77920000Y-167734000D02*
X77920000Y-166784000D01*
G75*
G02*
X78170000Y-166534000I250000J0D01*
G01*
X78670000Y-166534000D01*
G75*
G02*
X78920000Y-166784000I0J-250000D01*
G01*
X78920000Y-167734000D01*
G75*
G02*
X78670000Y-167984000I-250000J0D01*
G01*
X78170000Y-167984000D01*
G75*
G02*
X77920000Y-167734000I0J250000D01*
G01*
G37*
G04 #@! TD.AperFunction*
G04 #@! TA.AperFunction,SMDPad,CuDef*
G36*
G01*
X66225000Y-184403000D02*
X67125000Y-184403000D01*
G75*
G02*
X67375000Y-184653000I0J-250000D01*
G01*
X67375000Y-185178000D01*
G75*
G02*
X67125000Y-185428000I-250000J0D01*
G01*
X66225000Y-185428000D01*
G75*
G02*
X65975000Y-185178000I0J250000D01*
G01*
X65975000Y-184653000D01*
G75*
G02*
X66225000Y-184403000I250000J0D01*
G01*
G37*
G04 #@! TD.AperFunction*
G04 #@! TA.AperFunction,SMDPad,CuDef*
G36*
G01*
X66225000Y-186228000D02*
X67125000Y-186228000D01*
G75*
G02*
X67375000Y-186478000I0J-250000D01*
G01*
X67375000Y-187003000D01*
G75*
G02*
X67125000Y-187253000I-250000J0D01*
G01*
X66225000Y-187253000D01*
G75*
G02*
X65975000Y-187003000I0J250000D01*
G01*
X65975000Y-186478000D01*
G75*
G02*
X66225000Y-186228000I250000J0D01*
G01*
G37*
G04 #@! TD.AperFunction*
X29718000Y-132588000D03*
G04 #@! TA.AperFunction,SMDPad,CuDef*
G36*
G01*
X64544000Y-186140000D02*
X64544000Y-187040000D01*
G75*
G02*
X64294000Y-187290000I-250000J0D01*
G01*
X63769000Y-187290000D01*
G75*
G02*
X63519000Y-187040000I0J250000D01*
G01*
X63519000Y-186140000D01*
G75*
G02*
X63769000Y-185890000I250000J0D01*
G01*
X64294000Y-185890000D01*
G75*
G02*
X64544000Y-186140000I0J-250000D01*
G01*
G37*
G04 #@! TD.AperFunction*
G04 #@! TA.AperFunction,SMDPad,CuDef*
G36*
G01*
X62719000Y-186140000D02*
X62719000Y-187040000D01*
G75*
G02*
X62469000Y-187290000I-250000J0D01*
G01*
X61944000Y-187290000D01*
G75*
G02*
X61694000Y-187040000I0J250000D01*
G01*
X61694000Y-186140000D01*
G75*
G02*
X61944000Y-185890000I250000J0D01*
G01*
X62469000Y-185890000D01*
G75*
G02*
X62719000Y-186140000I0J-250000D01*
G01*
G37*
G04 #@! TD.AperFunction*
G04 #@! TA.AperFunction,SMDPad,CuDef*
G36*
G01*
X64544000Y-174456000D02*
X64544000Y-175356000D01*
G75*
G02*
X64294000Y-175606000I-250000J0D01*
G01*
X63769000Y-175606000D01*
G75*
G02*
X63519000Y-175356000I0J250000D01*
G01*
X63519000Y-174456000D01*
G75*
G02*
X63769000Y-174206000I250000J0D01*
G01*
X64294000Y-174206000D01*
G75*
G02*
X64544000Y-174456000I0J-250000D01*
G01*
G37*
G04 #@! TD.AperFunction*
G04 #@! TA.AperFunction,SMDPad,CuDef*
G36*
G01*
X62719000Y-174456000D02*
X62719000Y-175356000D01*
G75*
G02*
X62469000Y-175606000I-250000J0D01*
G01*
X61944000Y-175606000D01*
G75*
G02*
X61694000Y-175356000I0J250000D01*
G01*
X61694000Y-174456000D01*
G75*
G02*
X61944000Y-174206000I250000J0D01*
G01*
X62469000Y-174206000D01*
G75*
G02*
X62719000Y-174456000I0J-250000D01*
G01*
G37*
G04 #@! TD.AperFunction*
G04 #@! TA.AperFunction,SMDPad,CuDef*
G36*
G01*
X45047000Y-151950000D02*
X45047000Y-152850000D01*
G75*
G02*
X44797000Y-153100000I-250000J0D01*
G01*
X44272000Y-153100000D01*
G75*
G02*
X44022000Y-152850000I0J250000D01*
G01*
X44022000Y-151950000D01*
G75*
G02*
X44272000Y-151700000I250000J0D01*
G01*
X44797000Y-151700000D01*
G75*
G02*
X45047000Y-151950000I0J-250000D01*
G01*
G37*
G04 #@! TD.AperFunction*
G04 #@! TA.AperFunction,SMDPad,CuDef*
G36*
G01*
X43222000Y-151950000D02*
X43222000Y-152850000D01*
G75*
G02*
X42972000Y-153100000I-250000J0D01*
G01*
X42447000Y-153100000D01*
G75*
G02*
X42197000Y-152850000I0J250000D01*
G01*
X42197000Y-151950000D01*
G75*
G02*
X42447000Y-151700000I250000J0D01*
G01*
X42972000Y-151700000D01*
G75*
G02*
X43222000Y-151950000I0J-250000D01*
G01*
G37*
G04 #@! TD.AperFunction*
G04 #@! TA.AperFunction,SMDPad,CuDef*
G36*
G01*
X38697000Y-149156000D02*
X38697000Y-150056000D01*
G75*
G02*
X38447000Y-150306000I-250000J0D01*
G01*
X37922000Y-150306000D01*
G75*
G02*
X37672000Y-150056000I0J250000D01*
G01*
X37672000Y-149156000D01*
G75*
G02*
X37922000Y-148906000I250000J0D01*
G01*
X38447000Y-148906000D01*
G75*
G02*
X38697000Y-149156000I0J-250000D01*
G01*
G37*
G04 #@! TD.AperFunction*
G04 #@! TA.AperFunction,SMDPad,CuDef*
G36*
G01*
X36872000Y-149156000D02*
X36872000Y-150056000D01*
G75*
G02*
X36622000Y-150306000I-250000J0D01*
G01*
X36097000Y-150306000D01*
G75*
G02*
X35847000Y-150056000I0J250000D01*
G01*
X35847000Y-149156000D01*
G75*
G02*
X36097000Y-148906000I250000J0D01*
G01*
X36622000Y-148906000D01*
G75*
G02*
X36872000Y-149156000I0J-250000D01*
G01*
G37*
G04 #@! TD.AperFunction*
G04 #@! TA.AperFunction,SMDPad,CuDef*
G36*
G01*
X37015000Y-159484000D02*
X37915000Y-159484000D01*
G75*
G02*
X38165000Y-159734000I0J-250000D01*
G01*
X38165000Y-160259000D01*
G75*
G02*
X37915000Y-160509000I-250000J0D01*
G01*
X37015000Y-160509000D01*
G75*
G02*
X36765000Y-160259000I0J250000D01*
G01*
X36765000Y-159734000D01*
G75*
G02*
X37015000Y-159484000I250000J0D01*
G01*
G37*
G04 #@! TD.AperFunction*
G04 #@! TA.AperFunction,SMDPad,CuDef*
G36*
G01*
X37015000Y-161309000D02*
X37915000Y-161309000D01*
G75*
G02*
X38165000Y-161559000I0J-250000D01*
G01*
X38165000Y-162084000D01*
G75*
G02*
X37915000Y-162334000I-250000J0D01*
G01*
X37015000Y-162334000D01*
G75*
G02*
X36765000Y-162084000I0J250000D01*
G01*
X36765000Y-161559000D01*
G75*
G02*
X37015000Y-161309000I250000J0D01*
G01*
G37*
G04 #@! TD.AperFunction*
D15*
X67686000Y-145692000D03*
D16*
X66416000Y-143152000D03*
X65146000Y-145692000D03*
X63876000Y-143152000D03*
X62606000Y-145692000D03*
X61336000Y-143152000D03*
G04 #@! TA.AperFunction,SMDPad,CuDef*
G36*
G01*
X53317000Y-159110000D02*
X53617000Y-159110000D01*
G75*
G02*
X53767000Y-159260000I0J-150000D01*
G01*
X53767000Y-160710000D01*
G75*
G02*
X53617000Y-160860000I-150000J0D01*
G01*
X53317000Y-160860000D01*
G75*
G02*
X53167000Y-160710000I0J150000D01*
G01*
X53167000Y-159260000D01*
G75*
G02*
X53317000Y-159110000I150000J0D01*
G01*
G37*
G04 #@! TD.AperFunction*
G04 #@! TA.AperFunction,SMDPad,CuDef*
G36*
G01*
X52047000Y-159110000D02*
X52347000Y-159110000D01*
G75*
G02*
X52497000Y-159260000I0J-150000D01*
G01*
X52497000Y-160710000D01*
G75*
G02*
X52347000Y-160860000I-150000J0D01*
G01*
X52047000Y-160860000D01*
G75*
G02*
X51897000Y-160710000I0J150000D01*
G01*
X51897000Y-159260000D01*
G75*
G02*
X52047000Y-159110000I150000J0D01*
G01*
G37*
G04 #@! TD.AperFunction*
G04 #@! TA.AperFunction,SMDPad,CuDef*
G36*
G01*
X50777000Y-159110000D02*
X51077000Y-159110000D01*
G75*
G02*
X51227000Y-159260000I0J-150000D01*
G01*
X51227000Y-160710000D01*
G75*
G02*
X51077000Y-160860000I-150000J0D01*
G01*
X50777000Y-160860000D01*
G75*
G02*
X50627000Y-160710000I0J150000D01*
G01*
X50627000Y-159260000D01*
G75*
G02*
X50777000Y-159110000I150000J0D01*
G01*
G37*
G04 #@! TD.AperFunction*
G04 #@! TA.AperFunction,SMDPad,CuDef*
G36*
G01*
X49507000Y-159110000D02*
X49807000Y-159110000D01*
G75*
G02*
X49957000Y-159260000I0J-150000D01*
G01*
X49957000Y-160710000D01*
G75*
G02*
X49807000Y-160860000I-150000J0D01*
G01*
X49507000Y-160860000D01*
G75*
G02*
X49357000Y-160710000I0J150000D01*
G01*
X49357000Y-159260000D01*
G75*
G02*
X49507000Y-159110000I150000J0D01*
G01*
G37*
G04 #@! TD.AperFunction*
G04 #@! TA.AperFunction,SMDPad,CuDef*
G36*
G01*
X48237000Y-159110000D02*
X48537000Y-159110000D01*
G75*
G02*
X48687000Y-159260000I0J-150000D01*
G01*
X48687000Y-160710000D01*
G75*
G02*
X48537000Y-160860000I-150000J0D01*
G01*
X48237000Y-160860000D01*
G75*
G02*
X48087000Y-160710000I0J150000D01*
G01*
X48087000Y-159260000D01*
G75*
G02*
X48237000Y-159110000I150000J0D01*
G01*
G37*
G04 #@! TD.AperFunction*
G04 #@! TA.AperFunction,SMDPad,CuDef*
G36*
G01*
X46967000Y-159110000D02*
X47267000Y-159110000D01*
G75*
G02*
X47417000Y-159260000I0J-150000D01*
G01*
X47417000Y-160710000D01*
G75*
G02*
X47267000Y-160860000I-150000J0D01*
G01*
X46967000Y-160860000D01*
G75*
G02*
X46817000Y-160710000I0J150000D01*
G01*
X46817000Y-159260000D01*
G75*
G02*
X46967000Y-159110000I150000J0D01*
G01*
G37*
G04 #@! TD.AperFunction*
G04 #@! TA.AperFunction,SMDPad,CuDef*
G36*
G01*
X45697000Y-159110000D02*
X45997000Y-159110000D01*
G75*
G02*
X46147000Y-159260000I0J-150000D01*
G01*
X46147000Y-160710000D01*
G75*
G02*
X45997000Y-160860000I-150000J0D01*
G01*
X45697000Y-160860000D01*
G75*
G02*
X45547000Y-160710000I0J150000D01*
G01*
X45547000Y-159260000D01*
G75*
G02*
X45697000Y-159110000I150000J0D01*
G01*
G37*
G04 #@! TD.AperFunction*
G04 #@! TA.AperFunction,SMDPad,CuDef*
G36*
G01*
X44427000Y-159110000D02*
X44727000Y-159110000D01*
G75*
G02*
X44877000Y-159260000I0J-150000D01*
G01*
X44877000Y-160710000D01*
G75*
G02*
X44727000Y-160860000I-150000J0D01*
G01*
X44427000Y-160860000D01*
G75*
G02*
X44277000Y-160710000I0J150000D01*
G01*
X44277000Y-159260000D01*
G75*
G02*
X44427000Y-159110000I150000J0D01*
G01*
G37*
G04 #@! TD.AperFunction*
G04 #@! TA.AperFunction,SMDPad,CuDef*
G36*
G01*
X44427000Y-164260000D02*
X44727000Y-164260000D01*
G75*
G02*
X44877000Y-164410000I0J-150000D01*
G01*
X44877000Y-165860000D01*
G75*
G02*
X44727000Y-166010000I-150000J0D01*
G01*
X44427000Y-166010000D01*
G75*
G02*
X44277000Y-165860000I0J150000D01*
G01*
X44277000Y-164410000D01*
G75*
G02*
X44427000Y-164260000I150000J0D01*
G01*
G37*
G04 #@! TD.AperFunction*
G04 #@! TA.AperFunction,SMDPad,CuDef*
G36*
G01*
X45697000Y-164260000D02*
X45997000Y-164260000D01*
G75*
G02*
X46147000Y-164410000I0J-150000D01*
G01*
X46147000Y-165860000D01*
G75*
G02*
X45997000Y-166010000I-150000J0D01*
G01*
X45697000Y-166010000D01*
G75*
G02*
X45547000Y-165860000I0J150000D01*
G01*
X45547000Y-164410000D01*
G75*
G02*
X45697000Y-164260000I150000J0D01*
G01*
G37*
G04 #@! TD.AperFunction*
G04 #@! TA.AperFunction,SMDPad,CuDef*
G36*
G01*
X46967000Y-164260000D02*
X47267000Y-164260000D01*
G75*
G02*
X47417000Y-164410000I0J-150000D01*
G01*
X47417000Y-165860000D01*
G75*
G02*
X47267000Y-166010000I-150000J0D01*
G01*
X46967000Y-166010000D01*
G75*
G02*
X46817000Y-165860000I0J150000D01*
G01*
X46817000Y-164410000D01*
G75*
G02*
X46967000Y-164260000I150000J0D01*
G01*
G37*
G04 #@! TD.AperFunction*
G04 #@! TA.AperFunction,SMDPad,CuDef*
G36*
G01*
X48237000Y-164260000D02*
X48537000Y-164260000D01*
G75*
G02*
X48687000Y-164410000I0J-150000D01*
G01*
X48687000Y-165860000D01*
G75*
G02*
X48537000Y-166010000I-150000J0D01*
G01*
X48237000Y-166010000D01*
G75*
G02*
X48087000Y-165860000I0J150000D01*
G01*
X48087000Y-164410000D01*
G75*
G02*
X48237000Y-164260000I150000J0D01*
G01*
G37*
G04 #@! TD.AperFunction*
G04 #@! TA.AperFunction,SMDPad,CuDef*
G36*
G01*
X49507000Y-164260000D02*
X49807000Y-164260000D01*
G75*
G02*
X49957000Y-164410000I0J-150000D01*
G01*
X49957000Y-165860000D01*
G75*
G02*
X49807000Y-166010000I-150000J0D01*
G01*
X49507000Y-166010000D01*
G75*
G02*
X49357000Y-165860000I0J150000D01*
G01*
X49357000Y-164410000D01*
G75*
G02*
X49507000Y-164260000I150000J0D01*
G01*
G37*
G04 #@! TD.AperFunction*
G04 #@! TA.AperFunction,SMDPad,CuDef*
G36*
G01*
X50777000Y-164260000D02*
X51077000Y-164260000D01*
G75*
G02*
X51227000Y-164410000I0J-150000D01*
G01*
X51227000Y-165860000D01*
G75*
G02*
X51077000Y-166010000I-150000J0D01*
G01*
X50777000Y-166010000D01*
G75*
G02*
X50627000Y-165860000I0J150000D01*
G01*
X50627000Y-164410000D01*
G75*
G02*
X50777000Y-164260000I150000J0D01*
G01*
G37*
G04 #@! TD.AperFunction*
G04 #@! TA.AperFunction,SMDPad,CuDef*
G36*
G01*
X52047000Y-164260000D02*
X52347000Y-164260000D01*
G75*
G02*
X52497000Y-164410000I0J-150000D01*
G01*
X52497000Y-165860000D01*
G75*
G02*
X52347000Y-166010000I-150000J0D01*
G01*
X52047000Y-166010000D01*
G75*
G02*
X51897000Y-165860000I0J150000D01*
G01*
X51897000Y-164410000D01*
G75*
G02*
X52047000Y-164260000I150000J0D01*
G01*
G37*
G04 #@! TD.AperFunction*
G04 #@! TA.AperFunction,SMDPad,CuDef*
G36*
G01*
X53317000Y-164260000D02*
X53617000Y-164260000D01*
G75*
G02*
X53767000Y-164410000I0J-150000D01*
G01*
X53767000Y-165860000D01*
G75*
G02*
X53617000Y-166010000I-150000J0D01*
G01*
X53317000Y-166010000D01*
G75*
G02*
X53167000Y-165860000I0J150000D01*
G01*
X53167000Y-164410000D01*
G75*
G02*
X53317000Y-164260000I150000J0D01*
G01*
G37*
G04 #@! TD.AperFunction*
G04 #@! TA.AperFunction,SMDPad,CuDef*
G36*
G01*
X51422000Y-154846000D02*
X51422000Y-155796000D01*
G75*
G02*
X51172000Y-156046000I-250000J0D01*
G01*
X50672000Y-156046000D01*
G75*
G02*
X50422000Y-155796000I0J250000D01*
G01*
X50422000Y-154846000D01*
G75*
G02*
X50672000Y-154596000I250000J0D01*
G01*
X51172000Y-154596000D01*
G75*
G02*
X51422000Y-154846000I0J-250000D01*
G01*
G37*
G04 #@! TD.AperFunction*
G04 #@! TA.AperFunction,SMDPad,CuDef*
G36*
G01*
X49522000Y-154846000D02*
X49522000Y-155796000D01*
G75*
G02*
X49272000Y-156046000I-250000J0D01*
G01*
X48772000Y-156046000D01*
G75*
G02*
X48522000Y-155796000I0J250000D01*
G01*
X48522000Y-154846000D01*
G75*
G02*
X48772000Y-154596000I250000J0D01*
G01*
X49272000Y-154596000D01*
G75*
G02*
X49522000Y-154846000I0J-250000D01*
G01*
G37*
G04 #@! TD.AperFunction*
G04 #@! TA.AperFunction,SMDPad,CuDef*
G36*
G01*
X64544000Y-180298000D02*
X64544000Y-181198000D01*
G75*
G02*
X64294000Y-181448000I-250000J0D01*
G01*
X63769000Y-181448000D01*
G75*
G02*
X63519000Y-181198000I0J250000D01*
G01*
X63519000Y-180298000D01*
G75*
G02*
X63769000Y-180048000I250000J0D01*
G01*
X64294000Y-180048000D01*
G75*
G02*
X64544000Y-180298000I0J-250000D01*
G01*
G37*
G04 #@! TD.AperFunction*
G04 #@! TA.AperFunction,SMDPad,CuDef*
G36*
G01*
X62719000Y-180298000D02*
X62719000Y-181198000D01*
G75*
G02*
X62469000Y-181448000I-250000J0D01*
G01*
X61944000Y-181448000D01*
G75*
G02*
X61694000Y-181198000I0J250000D01*
G01*
X61694000Y-180298000D01*
G75*
G02*
X61944000Y-180048000I250000J0D01*
G01*
X62469000Y-180048000D01*
G75*
G02*
X62719000Y-180298000I0J-250000D01*
G01*
G37*
G04 #@! TD.AperFunction*
G04 #@! TA.AperFunction,SMDPad,CuDef*
G36*
G01*
X35000250Y-162334000D02*
X34087750Y-162334000D01*
G75*
G02*
X33844000Y-162090250I0J243750D01*
G01*
X33844000Y-161602750D01*
G75*
G02*
X34087750Y-161359000I243750J0D01*
G01*
X35000250Y-161359000D01*
G75*
G02*
X35244000Y-161602750I0J-243750D01*
G01*
X35244000Y-162090250D01*
G75*
G02*
X35000250Y-162334000I-243750J0D01*
G01*
G37*
G04 #@! TD.AperFunction*
G04 #@! TA.AperFunction,SMDPad,CuDef*
G36*
G01*
X35000250Y-160459000D02*
X34087750Y-160459000D01*
G75*
G02*
X33844000Y-160215250I0J243750D01*
G01*
X33844000Y-159727750D01*
G75*
G02*
X34087750Y-159484000I243750J0D01*
G01*
X35000250Y-159484000D01*
G75*
G02*
X35244000Y-159727750I0J-243750D01*
G01*
X35244000Y-160215250D01*
G75*
G02*
X35000250Y-160459000I-243750J0D01*
G01*
G37*
G04 #@! TD.AperFunction*
G04 #@! TA.AperFunction,SMDPad,CuDef*
G36*
G01*
X45072000Y-154846000D02*
X45072000Y-155796000D01*
G75*
G02*
X44822000Y-156046000I-250000J0D01*
G01*
X44322000Y-156046000D01*
G75*
G02*
X44072000Y-155796000I0J250000D01*
G01*
X44072000Y-154846000D01*
G75*
G02*
X44322000Y-154596000I250000J0D01*
G01*
X44822000Y-154596000D01*
G75*
G02*
X45072000Y-154846000I0J-250000D01*
G01*
G37*
G04 #@! TD.AperFunction*
G04 #@! TA.AperFunction,SMDPad,CuDef*
G36*
G01*
X43172000Y-154846000D02*
X43172000Y-155796000D01*
G75*
G02*
X42922000Y-156046000I-250000J0D01*
G01*
X42422000Y-156046000D01*
G75*
G02*
X42172000Y-155796000I0J250000D01*
G01*
X42172000Y-154846000D01*
G75*
G02*
X42422000Y-154596000I250000J0D01*
G01*
X42922000Y-154596000D01*
G75*
G02*
X43172000Y-154846000I0J-250000D01*
G01*
G37*
G04 #@! TD.AperFunction*
G04 #@! TA.AperFunction,SMDPad,CuDef*
G36*
G01*
X82474750Y-158087000D02*
X83387250Y-158087000D01*
G75*
G02*
X83631000Y-158330750I0J-243750D01*
G01*
X83631000Y-158818250D01*
G75*
G02*
X83387250Y-159062000I-243750J0D01*
G01*
X82474750Y-159062000D01*
G75*
G02*
X82231000Y-158818250I0J243750D01*
G01*
X82231000Y-158330750D01*
G75*
G02*
X82474750Y-158087000I243750J0D01*
G01*
G37*
G04 #@! TD.AperFunction*
G04 #@! TA.AperFunction,SMDPad,CuDef*
G36*
G01*
X82474750Y-159962000D02*
X83387250Y-159962000D01*
G75*
G02*
X83631000Y-160205750I0J-243750D01*
G01*
X83631000Y-160693250D01*
G75*
G02*
X83387250Y-160937000I-243750J0D01*
G01*
X82474750Y-160937000D01*
G75*
G02*
X82231000Y-160693250I0J243750D01*
G01*
X82231000Y-160205750D01*
G75*
G02*
X82474750Y-159962000I243750J0D01*
G01*
G37*
G04 #@! TD.AperFunction*
G04 #@! TA.AperFunction,SMDPad,CuDef*
G36*
G01*
X71656000Y-169730000D02*
X71656000Y-170630000D01*
G75*
G02*
X71406000Y-170880000I-250000J0D01*
G01*
X70881000Y-170880000D01*
G75*
G02*
X70631000Y-170630000I0J250000D01*
G01*
X70631000Y-169730000D01*
G75*
G02*
X70881000Y-169480000I250000J0D01*
G01*
X71406000Y-169480000D01*
G75*
G02*
X71656000Y-169730000I0J-250000D01*
G01*
G37*
G04 #@! TD.AperFunction*
G04 #@! TA.AperFunction,SMDPad,CuDef*
G36*
G01*
X69831000Y-169730000D02*
X69831000Y-170630000D01*
G75*
G02*
X69581000Y-170880000I-250000J0D01*
G01*
X69056000Y-170880000D01*
G75*
G02*
X68806000Y-170630000I0J250000D01*
G01*
X68806000Y-169730000D01*
G75*
G02*
X69056000Y-169480000I250000J0D01*
G01*
X69581000Y-169480000D01*
G75*
G02*
X69831000Y-169730000I0J-250000D01*
G01*
G37*
G04 #@! TD.AperFunction*
G04 #@! TA.AperFunction,SMDPad,CuDef*
G36*
G01*
X51397000Y-151950000D02*
X51397000Y-152850000D01*
G75*
G02*
X51147000Y-153100000I-250000J0D01*
G01*
X50622000Y-153100000D01*
G75*
G02*
X50372000Y-152850000I0J250000D01*
G01*
X50372000Y-151950000D01*
G75*
G02*
X50622000Y-151700000I250000J0D01*
G01*
X51147000Y-151700000D01*
G75*
G02*
X51397000Y-151950000I0J-250000D01*
G01*
G37*
G04 #@! TD.AperFunction*
G04 #@! TA.AperFunction,SMDPad,CuDef*
G36*
G01*
X49572000Y-151950000D02*
X49572000Y-152850000D01*
G75*
G02*
X49322000Y-153100000I-250000J0D01*
G01*
X48797000Y-153100000D01*
G75*
G02*
X48547000Y-152850000I0J250000D01*
G01*
X48547000Y-151950000D01*
G75*
G02*
X48797000Y-151700000I250000J0D01*
G01*
X49322000Y-151700000D01*
G75*
G02*
X49572000Y-151950000I0J-250000D01*
G01*
G37*
G04 #@! TD.AperFunction*
D13*
X33807400Y-170560000D03*
X33807400Y-167260000D03*
G04 #@! TA.AperFunction,SMDPad,CuDef*
G36*
G01*
X82474750Y-145387000D02*
X83387250Y-145387000D01*
G75*
G02*
X83631000Y-145630750I0J-243750D01*
G01*
X83631000Y-146118250D01*
G75*
G02*
X83387250Y-146362000I-243750J0D01*
G01*
X82474750Y-146362000D01*
G75*
G02*
X82231000Y-146118250I0J243750D01*
G01*
X82231000Y-145630750D01*
G75*
G02*
X82474750Y-145387000I243750J0D01*
G01*
G37*
G04 #@! TD.AperFunction*
G04 #@! TA.AperFunction,SMDPad,CuDef*
G36*
G01*
X82474750Y-147262000D02*
X83387250Y-147262000D01*
G75*
G02*
X83631000Y-147505750I0J-243750D01*
G01*
X83631000Y-147993250D01*
G75*
G02*
X83387250Y-148237000I-243750J0D01*
G01*
X82474750Y-148237000D01*
G75*
G02*
X82231000Y-147993250I0J243750D01*
G01*
X82231000Y-147505750D01*
G75*
G02*
X82474750Y-147262000I243750J0D01*
G01*
G37*
G04 #@! TD.AperFunction*
G04 #@! TA.AperFunction,SMDPad,CuDef*
G36*
G01*
X76045000Y-160978000D02*
X76045000Y-160078000D01*
G75*
G02*
X76295000Y-159828000I250000J0D01*
G01*
X76820000Y-159828000D01*
G75*
G02*
X77070000Y-160078000I0J-250000D01*
G01*
X77070000Y-160978000D01*
G75*
G02*
X76820000Y-161228000I-250000J0D01*
G01*
X76295000Y-161228000D01*
G75*
G02*
X76045000Y-160978000I0J250000D01*
G01*
G37*
G04 #@! TD.AperFunction*
G04 #@! TA.AperFunction,SMDPad,CuDef*
G36*
G01*
X77870000Y-160978000D02*
X77870000Y-160078000D01*
G75*
G02*
X78120000Y-159828000I250000J0D01*
G01*
X78645000Y-159828000D01*
G75*
G02*
X78895000Y-160078000I0J-250000D01*
G01*
X78895000Y-160978000D01*
G75*
G02*
X78645000Y-161228000I-250000J0D01*
G01*
X78120000Y-161228000D01*
G75*
G02*
X77870000Y-160978000I0J250000D01*
G01*
G37*
G04 #@! TD.AperFunction*
G04 #@! TA.AperFunction,SMDPad,CuDef*
G36*
G01*
X82474750Y-139037000D02*
X83387250Y-139037000D01*
G75*
G02*
X83631000Y-139280750I0J-243750D01*
G01*
X83631000Y-139768250D01*
G75*
G02*
X83387250Y-140012000I-243750J0D01*
G01*
X82474750Y-140012000D01*
G75*
G02*
X82231000Y-139768250I0J243750D01*
G01*
X82231000Y-139280750D01*
G75*
G02*
X82474750Y-139037000I243750J0D01*
G01*
G37*
G04 #@! TD.AperFunction*
G04 #@! TA.AperFunction,SMDPad,CuDef*
G36*
G01*
X82474750Y-140912000D02*
X83387250Y-140912000D01*
G75*
G02*
X83631000Y-141155750I0J-243750D01*
G01*
X83631000Y-141643250D01*
G75*
G02*
X83387250Y-141887000I-243750J0D01*
G01*
X82474750Y-141887000D01*
G75*
G02*
X82231000Y-141643250I0J243750D01*
G01*
X82231000Y-141155750D01*
G75*
G02*
X82474750Y-140912000I243750J0D01*
G01*
G37*
G04 #@! TD.AperFunction*
X36957000Y-170560000D03*
X36957000Y-167260000D03*
D20*
X57277000Y-161798000D03*
X40894000Y-187325000D03*
X84709000Y-156210000D03*
X64008000Y-179324000D03*
X41783000Y-189484000D03*
X57785000Y-166751000D03*
X73533000Y-155829000D03*
X43180000Y-173609000D03*
X40894000Y-188214000D03*
X60833000Y-156464000D03*
X71247000Y-168656000D03*
X52705000Y-183134000D03*
X54483000Y-161798000D03*
X55753000Y-188214000D03*
X70739000Y-155829000D03*
X49022000Y-153797000D03*
X39370000Y-173609000D03*
X44577000Y-162433000D03*
X50673000Y-183134000D03*
X78486000Y-168656000D03*
X44704000Y-187325000D03*
X44577000Y-161544000D03*
X44704000Y-188214000D03*
X64008000Y-182118000D03*
X57785000Y-169037000D03*
X36322000Y-153797000D03*
X72263000Y-168656000D03*
X56769000Y-188214000D03*
X44704000Y-186436000D03*
X34544000Y-163322000D03*
X57785000Y-175006000D03*
X47244000Y-188214000D03*
X42672000Y-153797000D03*
X43815000Y-189484000D03*
X43180000Y-175387000D03*
X35306000Y-153797000D03*
X57785000Y-173228000D03*
X39370000Y-175387000D03*
X40894000Y-186436000D03*
X48006000Y-153797000D03*
X42799000Y-189484000D03*
X79502000Y-168656000D03*
X41656000Y-153797000D03*
X48260000Y-188214000D03*
X60833000Y-155575000D03*
X43180000Y-174498000D03*
X57785000Y-164973000D03*
X84709000Y-143002000D03*
X39370000Y-174498000D03*
X51689000Y-183134000D03*
X57785000Y-170815000D03*
X73533000Y-153924000D03*
X42672000Y-163576000D03*
X52832000Y-149606000D03*
X54483000Y-159893000D03*
X70739000Y-153924000D03*
X42672000Y-161798000D03*
X57277000Y-159893000D03*
X42672000Y-162687000D03*
X39370000Y-149606000D03*
X45677750Y-149606000D03*
X71755000Y-164592000D03*
X69977000Y-164084000D03*
X71755000Y-162560000D03*
X61722000Y-166878000D03*
X61722000Y-170307000D03*
X71755000Y-163449000D03*
X71755000Y-161671000D03*
X68453000Y-161671000D03*
X65532000Y-176403000D03*
X71628000Y-180340000D03*
X72771000Y-180340000D03*
X84328000Y-172466000D03*
X84328000Y-171450000D03*
D21*
X33655000Y-170560000D02*
X37084000Y-170560000D01*
X38895000Y-179865000D02*
X41275000Y-179865000D01*
X37084000Y-178054000D02*
X38895000Y-179865000D01*
X37084000Y-170560000D02*
X37084000Y-178054000D01*
X41299000Y-184697500D02*
X41299000Y-179889000D01*
D22*
X34544000Y-163322000D02*
X34544000Y-161846500D01*
D23*
X84709000Y-162560000D02*
X84709000Y-158623000D01*
X44577000Y-163703000D02*
X44577000Y-162433000D01*
D22*
X44577000Y-159985000D02*
X44577000Y-161544000D01*
D24*
X50673000Y-183134000D02*
X52705000Y-183134000D01*
D23*
X63119000Y-157734000D02*
X60833000Y-157734000D01*
D22*
X71247000Y-168656000D02*
X72263000Y-168656000D01*
D23*
X82931000Y-163449000D02*
X83439000Y-162941000D01*
D22*
X60833000Y-154016000D02*
X60833000Y-156464000D01*
D23*
X82931000Y-164924500D02*
X82931000Y-163449000D01*
D22*
X41656000Y-153797000D02*
X42672000Y-153797000D01*
X44577000Y-162433000D02*
X44577000Y-161544000D01*
D23*
X83439000Y-162941000D02*
X84328000Y-162941000D01*
X50927000Y-163957000D02*
X50927000Y-165135000D01*
D22*
X71247000Y-167325000D02*
X71181000Y-167259000D01*
X78486000Y-168592500D02*
X78486000Y-167195500D01*
D21*
X40132000Y-169545000D02*
X40132000Y-172847000D01*
D23*
X82931000Y-158574500D02*
X82931000Y-158623000D01*
D22*
X57785000Y-164973000D02*
X57785000Y-166751000D01*
D23*
X84709000Y-158623000D02*
X84709000Y-156210000D01*
D21*
X40132000Y-172847000D02*
X39370000Y-173609000D01*
D22*
X57785000Y-169037000D02*
X57785000Y-170815000D01*
D24*
X52705000Y-184536500D02*
X52705000Y-183134000D01*
D23*
X44577000Y-163703000D02*
X47117000Y-163703000D01*
D22*
X64008000Y-182118000D02*
X64008000Y-179324000D01*
D23*
X82931000Y-158623000D02*
X84709000Y-158623000D01*
X63373000Y-159166000D02*
X63373000Y-157988000D01*
X84328000Y-162941000D02*
X84709000Y-162560000D01*
X63373000Y-157988000D02*
X63119000Y-157734000D01*
X83947000Y-139446000D02*
X83009500Y-139446000D01*
D21*
X30607000Y-170560000D02*
X30607000Y-169545000D01*
X31242000Y-168910000D02*
X39497000Y-168910000D01*
D23*
X84709000Y-140208000D02*
X83947000Y-139446000D01*
D22*
X36322000Y-155194000D02*
X36322000Y-153797000D01*
D23*
X84709000Y-152273000D02*
X84709000Y-145796000D01*
X50673000Y-163703000D02*
X50927000Y-163957000D01*
D22*
X48006000Y-153797000D02*
X49022000Y-153797000D01*
D23*
X84630500Y-145874500D02*
X84709000Y-145796000D01*
D22*
X54483000Y-161798000D02*
X57277000Y-161798000D01*
X70739000Y-155829000D02*
X73533000Y-155829000D01*
D23*
X84709000Y-143002000D02*
X84709000Y-140208000D01*
X84660500Y-152224500D02*
X84709000Y-152273000D01*
X60833000Y-159166000D02*
X60833000Y-157734000D01*
X84709000Y-145796000D02*
X84709000Y-143002000D01*
D22*
X35306000Y-153797000D02*
X36322000Y-153797000D01*
D23*
X44577000Y-165135000D02*
X44577000Y-163703000D01*
D22*
X49022000Y-155257500D02*
X49022000Y-153860500D01*
D23*
X60833000Y-157734000D02*
X60833000Y-156464000D01*
X47117000Y-163703000D02*
X50673000Y-163703000D01*
X47117000Y-165135000D02*
X47117000Y-163703000D01*
X82931000Y-152224500D02*
X84660500Y-152224500D01*
D21*
X39497000Y-168910000D02*
X40132000Y-169545000D01*
D22*
X71247000Y-168656000D02*
X71247000Y-167325000D01*
X78486000Y-168656000D02*
X79502000Y-168656000D01*
D21*
X30607000Y-169545000D02*
X31242000Y-168910000D01*
D22*
X57785000Y-173228000D02*
X57785000Y-175006000D01*
X42672000Y-155194000D02*
X42672000Y-153797000D01*
D23*
X84709000Y-156210000D02*
X84709000Y-152273000D01*
X82931000Y-145874500D02*
X84630500Y-145874500D01*
X83009500Y-139446000D02*
X82931000Y-139524500D01*
D21*
X37488500Y-161798000D02*
X37465000Y-161821500D01*
D22*
X50921500Y-186811500D02*
X50292000Y-186182000D01*
D21*
X47752000Y-179324000D02*
X47752000Y-170180000D01*
D22*
X45677750Y-149606000D02*
X44492250Y-149606000D01*
X53467000Y-159985000D02*
X53467000Y-150241000D01*
D21*
X42672000Y-167767000D02*
X42672000Y-163576000D01*
D22*
X53467000Y-159985000D02*
X53559000Y-159893000D01*
X51755000Y-186811500D02*
X53655000Y-186811500D01*
D21*
X47879000Y-179451000D02*
X47752000Y-179324000D01*
X46482000Y-168910000D02*
X43815000Y-168910000D01*
X42672000Y-163576000D02*
X42672000Y-162687000D01*
D22*
X49723000Y-184724000D02*
X47752000Y-184724000D01*
D21*
X44299000Y-184697500D02*
X47283500Y-184697500D01*
D22*
X50292000Y-185293000D02*
X49723000Y-184724000D01*
D21*
X47752000Y-170180000D02*
X46482000Y-168910000D01*
D22*
X52832000Y-149606000D02*
X50884500Y-149606000D01*
X53559000Y-159893000D02*
X57277000Y-159893000D01*
X39370000Y-149606000D02*
X38184500Y-149606000D01*
X50292000Y-186182000D02*
X50292000Y-185293000D01*
D21*
X50406300Y-179451000D02*
X47879000Y-179451000D01*
D22*
X69815000Y-153924000D02*
X73533000Y-153924000D01*
D21*
X43815000Y-168910000D02*
X42672000Y-167767000D01*
X47752000Y-184724000D02*
X47752000Y-179324000D01*
D22*
X53467000Y-150241000D02*
X52832000Y-149606000D01*
D21*
X42672000Y-162687000D02*
X42672000Y-161798000D01*
X42672000Y-161798000D02*
X37488500Y-161798000D01*
D22*
X51755000Y-186811500D02*
X50921500Y-186811500D01*
D23*
X69281000Y-165542000D02*
X69281000Y-167259000D01*
X69723000Y-165100000D02*
X69281000Y-165542000D01*
X70231000Y-165100000D02*
X69723000Y-165100000D01*
X65405000Y-157226000D02*
X70104000Y-157226000D01*
X70104000Y-157226000D02*
X70739000Y-157861000D01*
D22*
X69318500Y-167296500D02*
X69281000Y-167259000D01*
D23*
X64643000Y-154016000D02*
X64643000Y-156464000D01*
X70739000Y-157861000D02*
X70739000Y-164592000D01*
X64643000Y-156464000D02*
X65405000Y-157226000D01*
X70739000Y-164592000D02*
X70231000Y-165100000D01*
D22*
X69318500Y-170180000D02*
X69318500Y-167296500D01*
D21*
X28829000Y-168021000D02*
X28829000Y-173990000D01*
X30139000Y-175300000D02*
X32466000Y-175300000D01*
X29590000Y-167260000D02*
X28829000Y-168021000D01*
X30607000Y-167259000D02*
X30608000Y-167260000D01*
X30607000Y-167260000D02*
X30607000Y-167259000D01*
X30608000Y-167260000D02*
X33655000Y-167260000D01*
X28829000Y-173990000D02*
X30139000Y-175300000D01*
X30607000Y-167260000D02*
X29590000Y-167260000D01*
X28956000Y-165735000D02*
X35178000Y-165735000D01*
X27305000Y-167386000D02*
X28956000Y-165735000D01*
X32466000Y-180300000D02*
X29805000Y-180300000D01*
X35178000Y-165735000D02*
X36703000Y-167260000D01*
X29805000Y-180300000D02*
X27305000Y-177800000D01*
X36703000Y-167260000D02*
X39751000Y-167260000D01*
X27305000Y-177800000D02*
X27305000Y-167386000D01*
D23*
X67183000Y-160147000D02*
X67818000Y-160782000D01*
D22*
X76581000Y-170180000D02*
X76581000Y-167320000D01*
D23*
X67183000Y-159166000D02*
X67183000Y-160147000D01*
X71755000Y-164592000D02*
X73853000Y-164592000D01*
D22*
X76581000Y-167320000D02*
X76520000Y-167259000D01*
D23*
X73853000Y-164592000D02*
X76520000Y-167259000D01*
X69977000Y-161544000D02*
X69977000Y-164084000D01*
X69215000Y-160782000D02*
X69977000Y-161544000D01*
X67818000Y-160782000D02*
X69215000Y-160782000D01*
X78128500Y-147701000D02*
X82882500Y-147701000D01*
X82882500Y-147701000D02*
X82931000Y-147749500D01*
X44572000Y-156967000D02*
X44572000Y-155321000D01*
X47752000Y-157480000D02*
X45085000Y-157480000D01*
D22*
X44572000Y-152437500D02*
X44534500Y-152400000D01*
D23*
X48387000Y-159731000D02*
X48387000Y-158115000D01*
X48387000Y-158115000D02*
X47752000Y-157480000D01*
D22*
X44572000Y-155321000D02*
X44572000Y-152437500D01*
D23*
X45085000Y-157480000D02*
X44572000Y-156967000D01*
X38222000Y-157729000D02*
X38222000Y-155321000D01*
D22*
X38222000Y-155321000D02*
X38222000Y-152437500D01*
D23*
X45339000Y-158369000D02*
X38862000Y-158369000D01*
X45847000Y-159731000D02*
X45847000Y-158877000D01*
X45847000Y-158877000D02*
X45339000Y-158369000D01*
X38862000Y-158369000D02*
X38222000Y-157729000D01*
D22*
X38222000Y-152437500D02*
X38184500Y-152400000D01*
X65127500Y-149606000D02*
X65127500Y-145710500D01*
X65127500Y-145710500D02*
X65146000Y-145692000D01*
X58801000Y-146685000D02*
X59794000Y-145692000D01*
X59794000Y-145692000D02*
X62606000Y-145692000D01*
X58801000Y-149606000D02*
X58801000Y-146685000D01*
D21*
X58420000Y-181101000D02*
X58420000Y-181356000D01*
D22*
X62206500Y-177827000D02*
X60733000Y-177827000D01*
X60579000Y-175768000D02*
X61441000Y-174906000D01*
X60733000Y-177827000D02*
X60579000Y-177673000D01*
X61441000Y-174906000D02*
X62206500Y-174906000D01*
X60579000Y-177673000D02*
X60579000Y-175768000D01*
X59332500Y-184761500D02*
X60579000Y-183515000D01*
X59309000Y-184761500D02*
X56298500Y-184761500D01*
D21*
X56261000Y-183515000D02*
X56261000Y-184724000D01*
X58420000Y-181356000D02*
X56261000Y-183515000D01*
D22*
X56298500Y-184761500D02*
X56261000Y-184724000D01*
X60579000Y-183515000D02*
X60579000Y-177673000D01*
X59309000Y-184761500D02*
X59332500Y-184761500D01*
D23*
X81026000Y-144780000D02*
X78128500Y-144780000D01*
X82931000Y-142875000D02*
X81026000Y-144780000D01*
X82931000Y-141399500D02*
X82931000Y-142875000D01*
D22*
X34544000Y-159971500D02*
X37440000Y-159971500D01*
D21*
X55119000Y-177801000D02*
X58420000Y-177801000D01*
X55003700Y-177914300D02*
X55118000Y-177800000D01*
D24*
X55003700Y-182867300D02*
X55003700Y-179451000D01*
D21*
X55118000Y-177800000D02*
X55119000Y-177801000D01*
X55003700Y-179451000D02*
X55003700Y-177914300D01*
D24*
X53655000Y-184536500D02*
X53655000Y-184216000D01*
X53655000Y-184216000D02*
X55003700Y-182867300D01*
D23*
X80645000Y-166116000D02*
X81328500Y-166799500D01*
X78382500Y-163449000D02*
X80137000Y-163449000D01*
X81328500Y-166799500D02*
X82931000Y-166799500D01*
X80645000Y-163957000D02*
X80645000Y-166116000D01*
X80137000Y-163449000D02*
X80645000Y-163957000D01*
D22*
X66416000Y-141854000D02*
X65659000Y-141097000D01*
X54610000Y-141097000D02*
X52555000Y-143152000D01*
X49059500Y-143218500D02*
X49126000Y-143152000D01*
X49059500Y-149606000D02*
X49059500Y-143218500D01*
X65659000Y-141097000D02*
X54610000Y-141097000D01*
X49126000Y-143152000D02*
X43429000Y-143152000D01*
X66416000Y-143152000D02*
X66416000Y-141854000D01*
X49059500Y-152400000D02*
X49059500Y-149606000D01*
X52555000Y-143152000D02*
X49126000Y-143152000D01*
D23*
X50922000Y-159980000D02*
X50922000Y-155321000D01*
D22*
X50884500Y-155283500D02*
X50922000Y-155321000D01*
X50884500Y-152400000D02*
X50884500Y-155283500D01*
D23*
X50927000Y-159985000D02*
X50922000Y-159980000D01*
X78382500Y-157607000D02*
X78382500Y-154916500D01*
X78382500Y-154916500D02*
X79199500Y-154099500D01*
X79199500Y-154099500D02*
X82931000Y-154099500D01*
X78382500Y-160528000D02*
X82852500Y-160528000D01*
X82852500Y-160528000D02*
X82931000Y-160449500D01*
D22*
X42709500Y-148119500D02*
X42159000Y-147569000D01*
X42159000Y-147569000D02*
X42159000Y-145692000D01*
X42709500Y-152400000D02*
X42709500Y-149606000D01*
X42709500Y-149606000D02*
X42709500Y-148119500D01*
X36359500Y-146647500D02*
X37315000Y-145692000D01*
X37315000Y-145692000D02*
X39619000Y-145692000D01*
X36322000Y-149643500D02*
X36359500Y-149606000D01*
X36359500Y-152400000D02*
X36322000Y-152400000D01*
X36359500Y-149606000D02*
X36359500Y-146647500D01*
X36322000Y-152400000D02*
X36322000Y-149643500D01*
X59611500Y-173228000D02*
X65278000Y-173228000D01*
X65278000Y-173228000D02*
X69195000Y-177145000D01*
X69195000Y-177145000D02*
X72044500Y-177145000D01*
X59611500Y-169037000D02*
X62992000Y-169037000D01*
X68560000Y-174605000D02*
X73314500Y-174605000D01*
X62992000Y-169037000D02*
X68560000Y-174605000D01*
X69088000Y-172974000D02*
X74223500Y-172974000D01*
X59611500Y-164846000D02*
X60960000Y-164846000D01*
X60960000Y-164846000D02*
X69088000Y-172974000D01*
X74223500Y-172974000D02*
X75854500Y-174605000D01*
D23*
X71755000Y-162560000D02*
X72517000Y-162560000D01*
X72517000Y-162560000D02*
X72898000Y-162179000D01*
X56261000Y-167767000D02*
X56581000Y-168087000D01*
X55422800Y-163372800D02*
X56261000Y-164211000D01*
X52324000Y-161671000D02*
X54025800Y-163372800D01*
X49657000Y-161163000D02*
X50165000Y-161671000D01*
X56261000Y-164211000D02*
X56261000Y-167767000D01*
X72898000Y-161036000D02*
X73406000Y-160528000D01*
X72898000Y-162179000D02*
X72898000Y-161036000D01*
X73406000Y-160528000D02*
X76557500Y-160528000D01*
X50165000Y-161671000D02*
X52324000Y-161671000D01*
X49657000Y-159985000D02*
X49657000Y-161163000D01*
X57736500Y-168087000D02*
X60513000Y-168087000D01*
X56581000Y-168087000D02*
X57736500Y-168087000D01*
X54025800Y-163372800D02*
X55422800Y-163372800D01*
X60513000Y-168087000D02*
X61722000Y-166878000D01*
X47117000Y-161417000D02*
X47879000Y-162179000D01*
X53594000Y-163830000D02*
X55269342Y-163830000D01*
X59751000Y-172278000D02*
X61722000Y-170307000D01*
X55753000Y-171704000D02*
X56327000Y-172278000D01*
X55753000Y-164313658D02*
X55753000Y-171704000D01*
X57736500Y-172278000D02*
X59751000Y-172278000D01*
X51943000Y-162179000D02*
X53594000Y-163830000D01*
X47117000Y-159985000D02*
X47117000Y-161417000D01*
X71755000Y-163449000D02*
X76557500Y-163449000D01*
X55269342Y-163830000D02*
X55753000Y-164313658D01*
X47879000Y-162179000D02*
X51943000Y-162179000D01*
X56327000Y-172278000D02*
X57736500Y-172278000D01*
X71755000Y-161671000D02*
X71755000Y-158496000D01*
X63688000Y-163896000D02*
X65913000Y-161671000D01*
X65913000Y-161671000D02*
X68453000Y-161671000D01*
X55753000Y-162941000D02*
X56708000Y-163896000D01*
X54356000Y-162941000D02*
X55753000Y-162941000D01*
X71755000Y-158496000D02*
X72644000Y-157607000D01*
X56708000Y-163896000D02*
X57736500Y-163896000D01*
X52197000Y-160782000D02*
X54356000Y-162941000D01*
X52197000Y-159985000D02*
X52197000Y-160782000D01*
X72644000Y-157607000D02*
X76557500Y-157607000D01*
X57736500Y-163896000D02*
X63688000Y-163896000D01*
D22*
X68453000Y-154016000D02*
X68453000Y-151106500D01*
X68453000Y-151106500D02*
X66952500Y-149606000D01*
X63373000Y-150622000D02*
X62357000Y-149606000D01*
X63373000Y-154016000D02*
X63373000Y-150622000D01*
X62357000Y-149606000D02*
X60626000Y-149606000D01*
D23*
X68453000Y-158496000D02*
X68453000Y-159166000D01*
X61341000Y-151638000D02*
X57150000Y-151638000D01*
X62103000Y-152400000D02*
X61341000Y-151638000D01*
X62103000Y-154016000D02*
X62103000Y-156718000D01*
X57150000Y-151638000D02*
X56388000Y-150876000D01*
X64516000Y-157734000D02*
X67691000Y-157734000D01*
X57277000Y-144399000D02*
X69596000Y-144399000D01*
X69596000Y-144399000D02*
X69977000Y-144780000D01*
X62103000Y-154016000D02*
X62103000Y-152400000D01*
X62484000Y-157099000D02*
X63881000Y-157099000D01*
X56388000Y-145288000D02*
X57277000Y-144399000D01*
X62103000Y-156718000D02*
X62484000Y-157099000D01*
X63881000Y-157099000D02*
X64516000Y-157734000D01*
X67691000Y-157734000D02*
X68453000Y-158496000D01*
X69977000Y-144780000D02*
X76303500Y-144780000D01*
X56388000Y-150876000D02*
X56388000Y-145288000D01*
D22*
X62203000Y-186586500D02*
X62206500Y-186590000D01*
X59309000Y-186586500D02*
X62203000Y-186586500D01*
D23*
X61087000Y-185674000D02*
X61595000Y-185166000D01*
D22*
X64031500Y-186590000D02*
X66524500Y-186590000D01*
D23*
X64031500Y-185570500D02*
X64031500Y-186590000D01*
X51755000Y-184536500D02*
X51755000Y-185232000D01*
D22*
X66524500Y-186590000D02*
X66675000Y-186740500D01*
D23*
X61595000Y-185166000D02*
X63627000Y-185166000D01*
X52197000Y-185674000D02*
X61087000Y-185674000D01*
X63627000Y-185166000D02*
X64031500Y-185570500D01*
X51755000Y-185232000D02*
X52197000Y-185674000D01*
D22*
X66321000Y-183669000D02*
X66675000Y-184023000D01*
X66675000Y-184023000D02*
X66675000Y-184915500D01*
X64031500Y-183669000D02*
X66321000Y-183669000D01*
X62206500Y-180748000D02*
X62206500Y-183669000D01*
D23*
X66675000Y-147701000D02*
X66040000Y-148336000D01*
D22*
X65913000Y-154016000D02*
X67183000Y-154016000D01*
D23*
X66040000Y-153889000D02*
X65913000Y-154016000D01*
X76303500Y-147701000D02*
X66675000Y-147701000D01*
X66040000Y-148336000D02*
X66040000Y-153889000D01*
D22*
X82804000Y-179197000D02*
X83312000Y-178689000D01*
X83312000Y-178689000D02*
X83312000Y-173101000D01*
X72540500Y-171577000D02*
X71143500Y-170180000D01*
X66802000Y-179197000D02*
X82804000Y-179197000D01*
X78394500Y-172628500D02*
X78359000Y-172593000D01*
X65532000Y-177927000D02*
X66802000Y-179197000D01*
X78394500Y-174605000D02*
X78394500Y-172628500D01*
X83312000Y-173101000D02*
X82804000Y-172593000D01*
X82804000Y-172593000D02*
X78359000Y-172593000D01*
X64031500Y-174906000D02*
X64924000Y-174906000D01*
X75366500Y-171577000D02*
X72540500Y-171577000D01*
X64924000Y-174906000D02*
X65532000Y-175514000D01*
X78359000Y-172593000D02*
X76382500Y-172593000D01*
X76382500Y-172593000D02*
X75366500Y-171577000D01*
X65532000Y-175514000D02*
X65532000Y-177927000D01*
X83439000Y-170180000D02*
X78406000Y-170180000D01*
X66544500Y-180340000D02*
X64031500Y-177827000D01*
X83312000Y-180340000D02*
X84328000Y-179324000D01*
X72771000Y-180340000D02*
X83312000Y-180340000D01*
X84328000Y-179324000D02*
X84328000Y-171450000D01*
X84328000Y-171069000D02*
X83439000Y-170180000D01*
X84328000Y-171450000D02*
X84328000Y-171069000D01*
X73279000Y-180340000D02*
X66544500Y-180340000D01*
G04 #@! TA.AperFunction,Conductor*
G36*
X51631121Y-176296002D02*
G01*
X51677614Y-176349658D01*
X51689000Y-176402000D01*
X51689000Y-182373000D01*
X51668998Y-182441121D01*
X51615342Y-182487614D01*
X51563000Y-182499000D01*
X47370000Y-182499000D01*
X47301879Y-182478998D01*
X47255386Y-182425342D01*
X47244000Y-182373000D01*
X47244000Y-176402000D01*
X47264002Y-176333879D01*
X47317658Y-176287386D01*
X47370000Y-176276000D01*
X51563000Y-176276000D01*
X51631121Y-176296002D01*
G37*
G04 #@! TD.AperFunction*
G04 #@! TA.AperFunction,Conductor*
G36*
X46582176Y-185821002D02*
G01*
X46628669Y-185874658D01*
X46638773Y-185944932D01*
X46621315Y-185993116D01*
X46589184Y-186045243D01*
X46583037Y-186058424D01*
X46531862Y-186212710D01*
X46528995Y-186226086D01*
X46519328Y-186320438D01*
X46519000Y-186326855D01*
X46519000Y-186351885D01*
X46523475Y-186367124D01*
X46524865Y-186368329D01*
X46532548Y-186370000D01*
X48966884Y-186370000D01*
X48982123Y-186365525D01*
X48983328Y-186364135D01*
X48984999Y-186356452D01*
X48984999Y-186326905D01*
X48984662Y-186320386D01*
X48974743Y-186224794D01*
X48971851Y-186211400D01*
X48920412Y-186057216D01*
X48914238Y-186044037D01*
X48882843Y-185993303D01*
X48864005Y-185924851D01*
X48885166Y-185857081D01*
X48939607Y-185811510D01*
X48989987Y-185801000D01*
X49657500Y-185801000D01*
X49725621Y-185821002D01*
X49772114Y-185874658D01*
X49783500Y-185927000D01*
X49783500Y-186110928D01*
X49782145Y-186123058D01*
X49782627Y-186123097D01*
X49781907Y-186132044D01*
X49779926Y-186140800D01*
X49780482Y-186149760D01*
X49783258Y-186194508D01*
X49783500Y-186202310D01*
X49783500Y-186218513D01*
X49784777Y-186227429D01*
X49784984Y-186228878D01*
X49786013Y-186238928D01*
X49788945Y-186286177D01*
X49791994Y-186294623D01*
X49792593Y-186297514D01*
X49796822Y-186314480D01*
X49797648Y-186317305D01*
X49798920Y-186326187D01*
X49818522Y-186369298D01*
X49822327Y-186378647D01*
X49838404Y-186423181D01*
X49843699Y-186430429D01*
X49845080Y-186433027D01*
X49853915Y-186448145D01*
X49855494Y-186450614D01*
X49859208Y-186458782D01*
X49865064Y-186465578D01*
X49890115Y-186494652D01*
X49896401Y-186502569D01*
X49901548Y-186509615D01*
X49901553Y-186509620D01*
X49904425Y-186513552D01*
X49915400Y-186524527D01*
X49921758Y-186531374D01*
X49954287Y-186569127D01*
X49961822Y-186574011D01*
X49968058Y-186579451D01*
X49979929Y-186589056D01*
X50511683Y-187120811D01*
X50519300Y-187130345D01*
X50519669Y-187130031D01*
X50525484Y-187136864D01*
X50530276Y-187144458D01*
X50570616Y-187180085D01*
X50576303Y-187185431D01*
X50587754Y-187196882D01*
X50596138Y-187203166D01*
X50603963Y-187209537D01*
X50639451Y-187240878D01*
X50647575Y-187244692D01*
X50650053Y-187246320D01*
X50665034Y-187255322D01*
X50667615Y-187256735D01*
X50674795Y-187262116D01*
X50719150Y-187278744D01*
X50728448Y-187282662D01*
X50771300Y-187302781D01*
X50780166Y-187304162D01*
X50782967Y-187305018D01*
X50799904Y-187309462D01*
X50802784Y-187310095D01*
X50811184Y-187313244D01*
X50820129Y-187313909D01*
X50820130Y-187313909D01*
X50858389Y-187316752D01*
X50868437Y-187317906D01*
X50873088Y-187318630D01*
X50881886Y-187320000D01*
X50897423Y-187320000D01*
X50906761Y-187320347D01*
X50947490Y-187323374D01*
X50947491Y-187323374D01*
X50956441Y-187324039D01*
X50965216Y-187322166D01*
X50973473Y-187321603D01*
X50988662Y-187320000D01*
X51087210Y-187320000D01*
X51155331Y-187340002D01*
X51201824Y-187393658D01*
X51211659Y-187426289D01*
X51215502Y-187450555D01*
X51273674Y-187564723D01*
X51364277Y-187655326D01*
X51478445Y-187713498D01*
X51573166Y-187728500D01*
X51936834Y-187728500D01*
X52031555Y-187713498D01*
X52145723Y-187655326D01*
X52236326Y-187564723D01*
X52294498Y-187450555D01*
X52298341Y-187426290D01*
X52328753Y-187362137D01*
X52389021Y-187324610D01*
X52422790Y-187320000D01*
X52987210Y-187320000D01*
X53055331Y-187340002D01*
X53101824Y-187393658D01*
X53111659Y-187426289D01*
X53115502Y-187450555D01*
X53173674Y-187564723D01*
X53264277Y-187655326D01*
X53378445Y-187713498D01*
X53473166Y-187728500D01*
X53836834Y-187728500D01*
X53931555Y-187713498D01*
X54045723Y-187655326D01*
X54136326Y-187564723D01*
X54194498Y-187450555D01*
X54209500Y-187355834D01*
X54209500Y-186921095D01*
X55028001Y-186921095D01*
X55028338Y-186927614D01*
X55038257Y-187023206D01*
X55041149Y-187036600D01*
X55092586Y-187190779D01*
X55098761Y-187203962D01*
X55184063Y-187341807D01*
X55193099Y-187353208D01*
X55307829Y-187467739D01*
X55319240Y-187476751D01*
X55457243Y-187561816D01*
X55470424Y-187567963D01*
X55624710Y-187619138D01*
X55638086Y-187622005D01*
X55732438Y-187631672D01*
X55738854Y-187632000D01*
X55988885Y-187632000D01*
X56004124Y-187627525D01*
X56005329Y-187626135D01*
X56007000Y-187618452D01*
X56007000Y-187613884D01*
X56515000Y-187613884D01*
X56519475Y-187629123D01*
X56520865Y-187630328D01*
X56528548Y-187631999D01*
X56783095Y-187631999D01*
X56789614Y-187631662D01*
X56885206Y-187621743D01*
X56898600Y-187618851D01*
X57052784Y-187567412D01*
X57065962Y-187561239D01*
X57203807Y-187475937D01*
X57215208Y-187466901D01*
X57329739Y-187352171D01*
X57338751Y-187340760D01*
X57423816Y-187202757D01*
X57429963Y-187189576D01*
X57481138Y-187035290D01*
X57484005Y-187021914D01*
X57493672Y-186927562D01*
X57494000Y-186921146D01*
X57494000Y-186896115D01*
X57489525Y-186880876D01*
X57488135Y-186879671D01*
X57480452Y-186878000D01*
X56533115Y-186878000D01*
X56517876Y-186882475D01*
X56516671Y-186883865D01*
X56515000Y-186891548D01*
X56515000Y-187613884D01*
X56007000Y-187613884D01*
X56007000Y-186896115D01*
X56002525Y-186880876D01*
X56001135Y-186879671D01*
X55993452Y-186878000D01*
X55046116Y-186878000D01*
X55030877Y-186882475D01*
X55029672Y-186883865D01*
X55028001Y-186891548D01*
X55028001Y-186921095D01*
X54209500Y-186921095D01*
X54209500Y-186267166D01*
X54199054Y-186201210D01*
X54208154Y-186130799D01*
X54253876Y-186076485D01*
X54323503Y-186055500D01*
X54918690Y-186055500D01*
X54986811Y-186075502D01*
X55033304Y-186129158D01*
X55043408Y-186199432D01*
X55041891Y-186207912D01*
X55037995Y-186226087D01*
X55028328Y-186320438D01*
X55028000Y-186326855D01*
X55028000Y-186351885D01*
X55032475Y-186367124D01*
X55033865Y-186368329D01*
X55041548Y-186370000D01*
X57475884Y-186370000D01*
X57491123Y-186365525D01*
X57492328Y-186364135D01*
X57493999Y-186356452D01*
X57493999Y-186326905D01*
X57493662Y-186320386D01*
X57483743Y-186224793D01*
X57480138Y-186208099D01*
X57485308Y-186137291D01*
X57527940Y-186080519D01*
X57594498Y-186055808D01*
X57603298Y-186055500D01*
X58040000Y-186055500D01*
X58108121Y-186075502D01*
X58154614Y-186129158D01*
X58166000Y-186181500D01*
X58166000Y-191009000D01*
X58145998Y-191077121D01*
X58092342Y-191123614D01*
X58040000Y-191135000D01*
X46228000Y-191135000D01*
X46228000Y-186921095D01*
X46519001Y-186921095D01*
X46519338Y-186927614D01*
X46529257Y-187023206D01*
X46532149Y-187036600D01*
X46583586Y-187190779D01*
X46589761Y-187203962D01*
X46675063Y-187341807D01*
X46684099Y-187353208D01*
X46798829Y-187467739D01*
X46810240Y-187476751D01*
X46948243Y-187561816D01*
X46961424Y-187567963D01*
X47115710Y-187619138D01*
X47129086Y-187622005D01*
X47223438Y-187631672D01*
X47229854Y-187632000D01*
X47479885Y-187632000D01*
X47495124Y-187627525D01*
X47496329Y-187626135D01*
X47498000Y-187618452D01*
X47498000Y-187613884D01*
X48006000Y-187613884D01*
X48010475Y-187629123D01*
X48011865Y-187630328D01*
X48019548Y-187631999D01*
X48274095Y-187631999D01*
X48280614Y-187631662D01*
X48376206Y-187621743D01*
X48389600Y-187618851D01*
X48543784Y-187567412D01*
X48556962Y-187561239D01*
X48694807Y-187475937D01*
X48706208Y-187466901D01*
X48820739Y-187352171D01*
X48829751Y-187340760D01*
X48914816Y-187202757D01*
X48920963Y-187189576D01*
X48972138Y-187035290D01*
X48975005Y-187021914D01*
X48984672Y-186927562D01*
X48985000Y-186921146D01*
X48985000Y-186896115D01*
X48980525Y-186880876D01*
X48979135Y-186879671D01*
X48971452Y-186878000D01*
X48024115Y-186878000D01*
X48008876Y-186882475D01*
X48007671Y-186883865D01*
X48006000Y-186891548D01*
X48006000Y-187613884D01*
X47498000Y-187613884D01*
X47498000Y-186896115D01*
X47493525Y-186880876D01*
X47492135Y-186879671D01*
X47484452Y-186878000D01*
X46537116Y-186878000D01*
X46521877Y-186882475D01*
X46520672Y-186883865D01*
X46519001Y-186891548D01*
X46519001Y-186921095D01*
X46228000Y-186921095D01*
X46228000Y-185801000D01*
X46514055Y-185801000D01*
X46582176Y-185821002D01*
G37*
G04 #@! TD.AperFunction*
G04 #@! TA.AperFunction,Conductor*
G36*
X36263621Y-171724002D02*
G01*
X36310114Y-171777658D01*
X36321500Y-171830000D01*
X36321500Y-177986624D01*
X36320067Y-178005574D01*
X36317876Y-178019973D01*
X36317876Y-178019979D01*
X36316776Y-178027208D01*
X36317369Y-178034500D01*
X36317369Y-178034503D01*
X36321085Y-178080183D01*
X36321500Y-178090398D01*
X36321500Y-178098525D01*
X36324811Y-178126924D01*
X36325238Y-178131244D01*
X36331191Y-178204426D01*
X36333447Y-178211388D01*
X36334643Y-178217376D01*
X36336051Y-178223333D01*
X36336899Y-178230607D01*
X36339397Y-178237489D01*
X36339398Y-178237493D01*
X36361945Y-178299607D01*
X36363355Y-178303711D01*
X36385987Y-178373575D01*
X36389787Y-178379838D01*
X36392325Y-178385380D01*
X36395067Y-178390856D01*
X36397566Y-178397741D01*
X36401581Y-178403865D01*
X36437815Y-178459132D01*
X36440130Y-178462800D01*
X36478227Y-178525581D01*
X36481941Y-178529786D01*
X36481943Y-178529789D01*
X36485667Y-178534005D01*
X36485638Y-178534031D01*
X36488238Y-178536962D01*
X36491042Y-178540316D01*
X36495054Y-178546435D01*
X36500366Y-178551467D01*
X36551586Y-178599988D01*
X36554028Y-178602366D01*
X38308190Y-180356528D01*
X38320577Y-180370941D01*
X38333546Y-180388564D01*
X38339129Y-180393307D01*
X38374055Y-180422979D01*
X38381571Y-180429909D01*
X38387315Y-180435653D01*
X38390189Y-180437927D01*
X38390196Y-180437933D01*
X38409711Y-180453372D01*
X38413115Y-180456163D01*
X38463472Y-180498945D01*
X38463476Y-180498948D01*
X38469051Y-180503684D01*
X38475568Y-180507012D01*
X38480632Y-180510389D01*
X38485856Y-180513616D01*
X38491600Y-180518160D01*
X38558104Y-180549242D01*
X38562001Y-180551147D01*
X38627404Y-180584543D01*
X38634518Y-180586284D01*
X38640252Y-180588416D01*
X38646048Y-180590344D01*
X38652680Y-180593444D01*
X38724555Y-180608394D01*
X38728839Y-180609364D01*
X38800112Y-180626804D01*
X38805714Y-180627152D01*
X38805717Y-180627152D01*
X38811330Y-180627500D01*
X38811328Y-180627537D01*
X38815227Y-180627773D01*
X38819598Y-180628163D01*
X38826757Y-180629652D01*
X38904577Y-180627546D01*
X38907986Y-180627500D01*
X40094500Y-180627500D01*
X40162621Y-180647502D01*
X40209114Y-180701158D01*
X40220500Y-180753500D01*
X40220500Y-181412756D01*
X40227202Y-181474448D01*
X40277929Y-181609764D01*
X40283309Y-181616943D01*
X40283311Y-181616946D01*
X40349287Y-181704977D01*
X40364596Y-181725404D01*
X40371776Y-181730785D01*
X40480236Y-181812071D01*
X40479061Y-181813639D01*
X40521152Y-181855821D01*
X40536500Y-181916088D01*
X40536500Y-184742025D01*
X40551899Y-184874107D01*
X40554395Y-184880984D01*
X40554396Y-184880987D01*
X40587292Y-184971613D01*
X40612566Y-185041241D01*
X40710054Y-185189935D01*
X40730155Y-185208977D01*
X40765852Y-185270344D01*
X40769501Y-185300448D01*
X40769501Y-185372566D01*
X40784266Y-185446801D01*
X40840516Y-185530984D01*
X40924699Y-185587234D01*
X40998933Y-185602000D01*
X41298951Y-185602000D01*
X41599066Y-185601999D01*
X41634818Y-185594888D01*
X41661126Y-185589656D01*
X41661128Y-185589655D01*
X41673301Y-185587234D01*
X41683621Y-185580339D01*
X41683622Y-185580338D01*
X41747168Y-185537877D01*
X41757484Y-185530984D01*
X41813734Y-185446801D01*
X41828500Y-185372567D01*
X41828500Y-185298263D01*
X41848502Y-185230142D01*
X41858475Y-185216684D01*
X41932945Y-185129028D01*
X41932948Y-185129024D01*
X41937684Y-185123449D01*
X42018543Y-184965096D01*
X42060804Y-184792388D01*
X42061500Y-184781170D01*
X42061500Y-181881292D01*
X42081502Y-181813171D01*
X42111935Y-181780466D01*
X42178224Y-181730785D01*
X42185404Y-181725404D01*
X42200713Y-181704977D01*
X42266689Y-181616946D01*
X42266691Y-181616943D01*
X42272071Y-181609764D01*
X42322798Y-181474448D01*
X42329500Y-181412756D01*
X42329500Y-178317244D01*
X42322798Y-178255552D01*
X42272071Y-178120236D01*
X42266691Y-178113057D01*
X42266689Y-178113054D01*
X42190785Y-178011776D01*
X42185404Y-178004596D01*
X42161424Y-177986624D01*
X42076946Y-177923311D01*
X42076943Y-177923309D01*
X42069764Y-177917929D01*
X41980046Y-177884296D01*
X41941843Y-177869974D01*
X41941841Y-177869974D01*
X41934448Y-177867202D01*
X41926598Y-177866349D01*
X41926597Y-177866349D01*
X41876153Y-177860869D01*
X41876152Y-177860869D01*
X41872756Y-177860500D01*
X40677244Y-177860500D01*
X40673848Y-177860869D01*
X40673847Y-177860869D01*
X40623403Y-177866349D01*
X40623402Y-177866349D01*
X40615552Y-177867202D01*
X40608159Y-177869974D01*
X40608157Y-177869974D01*
X40569954Y-177884296D01*
X40480236Y-177917929D01*
X40473057Y-177923309D01*
X40473054Y-177923311D01*
X40388576Y-177986624D01*
X40364596Y-178004596D01*
X40359215Y-178011776D01*
X40283311Y-178113054D01*
X40283309Y-178113057D01*
X40277929Y-178120236D01*
X40227202Y-178255552D01*
X40220500Y-178317244D01*
X40220500Y-178976500D01*
X40200498Y-179044621D01*
X40146842Y-179091114D01*
X40094500Y-179102500D01*
X39263028Y-179102500D01*
X39194907Y-179082498D01*
X39173933Y-179065595D01*
X37883405Y-177775067D01*
X37849379Y-177712755D01*
X37846500Y-177685972D01*
X37846500Y-171830000D01*
X37866502Y-171761879D01*
X37920158Y-171715386D01*
X37972500Y-171704000D01*
X38896232Y-171704000D01*
X38940462Y-171712018D01*
X39064394Y-171758478D01*
X39079649Y-171762105D01*
X39130514Y-171767631D01*
X39137328Y-171768000D01*
X39859885Y-171768000D01*
X39875124Y-171763525D01*
X39876329Y-171762135D01*
X39878000Y-171754452D01*
X39878000Y-171704000D01*
X40386000Y-171704000D01*
X40386000Y-171749884D01*
X40390475Y-171765123D01*
X40391865Y-171766328D01*
X40399548Y-171767999D01*
X41126669Y-171767999D01*
X41133490Y-171767629D01*
X41184352Y-171762105D01*
X41199604Y-171758479D01*
X41323538Y-171712018D01*
X41367768Y-171704000D01*
X46356000Y-171704000D01*
X46424121Y-171724002D01*
X46470614Y-171777658D01*
X46482000Y-171830000D01*
X46482000Y-183809000D01*
X46461998Y-183877121D01*
X46408342Y-183923614D01*
X46356000Y-183935000D01*
X44872262Y-183935000D01*
X44804141Y-183914998D01*
X44767499Y-183879004D01*
X44757484Y-183864016D01*
X44673301Y-183807766D01*
X44599067Y-183793000D01*
X44299049Y-183793000D01*
X43998934Y-183793001D01*
X43963182Y-183800112D01*
X43936874Y-183805344D01*
X43936872Y-183805345D01*
X43924699Y-183807766D01*
X43914379Y-183814661D01*
X43914378Y-183814662D01*
X43853985Y-183855016D01*
X43840516Y-183864016D01*
X43784266Y-183948199D01*
X43769500Y-184022433D01*
X43769500Y-184097476D01*
X43749498Y-184165597D01*
X43734975Y-184184126D01*
X43684286Y-184237635D01*
X43594981Y-184391384D01*
X43543442Y-184561554D01*
X43532432Y-184739016D01*
X43533672Y-184746232D01*
X43533672Y-184746234D01*
X43540640Y-184786783D01*
X43562543Y-184914251D01*
X43632159Y-185077859D01*
X43736752Y-185219985D01*
X43737546Y-185221064D01*
X43737361Y-185221200D01*
X43767481Y-185281249D01*
X43769501Y-185303721D01*
X43769501Y-185372566D01*
X43784266Y-185446801D01*
X43840516Y-185530984D01*
X43924699Y-185587234D01*
X43998933Y-185602000D01*
X44298951Y-185602000D01*
X44599066Y-185601999D01*
X44634818Y-185594888D01*
X44661126Y-185589656D01*
X44661128Y-185589655D01*
X44673301Y-185587234D01*
X44683621Y-185580339D01*
X44683622Y-185580338D01*
X44747168Y-185537877D01*
X44757484Y-185530984D01*
X44767498Y-185515997D01*
X44821974Y-185470470D01*
X44872262Y-185460000D01*
X46356000Y-185460000D01*
X46424121Y-185480002D01*
X46470614Y-185533658D01*
X46482000Y-185586000D01*
X46482000Y-191135000D01*
X34924000Y-191135000D01*
X34855879Y-191114998D01*
X34809386Y-191061342D01*
X34798000Y-191009000D01*
X34798000Y-171830000D01*
X34818002Y-171761879D01*
X34871658Y-171715386D01*
X34924000Y-171704000D01*
X36195500Y-171704000D01*
X36263621Y-171724002D01*
G37*
G04 #@! TD.AperFunction*
M02*
