M48
INCH,TZ
T1C0.0120
T2C0.0299
T3C0.0512
T4C0.1260
%
G90
G05
T1
X13600Y-64300
X13900Y-60550
X14300Y-60550
X15500Y-58900
X15500Y-68350
X15500Y-68700
X15500Y-69050
X16100Y-73400
X16100Y-73750
X16100Y-74100
X16400Y-60550
X16450Y-74600
X16800Y-60550
X16800Y-63700
X16800Y-64050
X16800Y-64400
X16850Y-74600
X17000Y-68350
X17000Y-68700
X17000Y-69050
X17250Y-74600
X17550Y-63600
X17550Y-63950
X17600Y-73400
X17600Y-73750
X17600Y-74100
X17983Y-58900
X18600Y-74100
X18900Y-60550
X19000Y-74100
X19300Y-60550
X19950Y-72100
X20350Y-72100
X20750Y-72100
X20800Y-58900
X21450Y-62950
X21450Y-63700
X21950Y-74100
X22350Y-74100
X22550Y-62950
X22550Y-63700
X22750Y-64950
X22750Y-65650
X22750Y-66550
X22750Y-67250
X22750Y-68200
X22750Y-68900
X23950Y-61250
X23950Y-61600
X24300Y-65700
X24300Y-67050
X25200Y-70600
X25200Y-71700
X25800Y-69450
X26950Y-63650
X27550Y-64600
X27850Y-60600
X27850Y-61350
X28050Y-66400
X28200Y-71000
X28250Y-63650
X28250Y-64000
X28250Y-64350
X28250Y-64800
X28450Y-66400
X28650Y-71000
X28950Y-60600
X28950Y-61350
X30900Y-66400
X31300Y-66400
X33200Y-67500
X33200Y-67900
X33350Y-56300
X33350Y-61500
T2
X15098Y-56359
X15598Y-57359
X16098Y-56359
X16598Y-57359
X17098Y-56359
X17598Y-57359
X24148Y-56359
X24648Y-57359
X25148Y-56359
X25648Y-57359
X26148Y-56359
X26648Y-57359
X28364Y-69742
X28864Y-68742
X29364Y-69742
X29864Y-68742
X30364Y-69742
X30864Y-68742
X31364Y-69742
X31864Y-68742
T3
X12732Y-69016
X12732Y-70984
T4
X11700Y-52200
X11700Y-73800
X35800Y-52200
X35800Y-73800
T0
M30
